<svg viewBox="0 0 28 32" xmlns="http://www.w3.org/2000/svg"><g id="arms" transform="translate(1,14)"><path fill="#295288" d="M 7.2523738,-0.19303104 C 6.7858779,-0.03243064 6.5463897,-0.49122929 5.907941,-0.43600979 5.8250414,-0.08550409 3.5301618,6.0670814 3.4392879,6.4050789 3.3371878,6.7846999 3.2162523,7.1583052 3.1070336,7.5353917 2.882074,8.3118395 2.6656505,9.0902601 2.3284721,9.8144729 2.2211357,10.044799 2.1013581,10.197172 1.9305309,10.306884 1.5084735,10.57864 1.0888265,10.863438 0.67041203,11.154195 c -0.24490713,0.170229 -0.46105056,0.406451 -0.6612035,0.740218 0.0620244,0.07829 0.0994499,0.166461 0.15652151,0.189253 0.27406721,0.11086 0.54660869,0.23374 0.86928276,0.05568 0.1247599,-0.06889 0.2571198,-0.08813 0.4306152,-0.144402 -0.079949,0.148636 -0.1201152,0.226712 -0.1628495,0.302486 -0.2449161,0.434831 -0.47151687,0.885273 -0.63106947,1.384034 -0.070723,0.220861 -0.1537973,0.451379 -0.092765,0.692464 0.52181187,-0.191216 0.86991687,-0.753655 1.25244637,-1.320824 0.00865,0.119405 0.019475,0.171483 0.014798,0.225068 -0.027877,0.341512 -0.05906,0.683224 -0.089708,1.025092 -0.010921,0.1251 -0.035288,0.253842 -0.033151,0.375264 0.00382,0.22019 0.1134263,0.265538 0.2421659,0.100792 0.1349412,-0.172897 0.2610236,-0.361452 0.3950046,-0.536551 0.1634224,-0.213774 0.2820223,-0.45959 0.3633687,-0.74522 0.038317,-0.134796 0.104392,-0.259916 0.1674552,-0.413676 0.04932,0.06636 0.079546,0.09587 0.1003423,0.136463 0.2136313,0.418443 0.5300919,0.67131 0.817889,0.967888 0.049662,0.05094 0.145847,0.05481 0.214474,0.02388 0.1020241,-0.04629 0.1181455,-0.184137 0.1267812,-0.318644 0.00916,-0.145949 0.038343,-0.294451 0.054039,-0.441871 0.013067,-0.123365 0.040151,-0.25852 0.023216,-0.367478 C 4.1480128,12.567882 4.1061055,12.027772 3.937723,11.564786 3.8353617,11.282736 3.8235517,10.989282 3.932363,10.630402 4.1827534,9.8023118 4.4032479,8.9624414 4.6384309,8.1285639 5.0623899,6.246671 8.1309658,-1.5311357 7.2523738,-0.19303104 Z"></path><path fill="#295288" d="m 21.716415,13.982214 c 0.04632,-0.113774 0.06478,-0.26168 0.08217,-0.403003 0.04236,-0.346136 0.08241,-0.693189 0.148974,-1.051755 0.130834,0.163305 0.233345,0.292844 0.337292,0.420119 0.104671,0.128691 0.20655,0.266599 0.316847,0.380372 0.183756,0.189749 0.368788,0.387004 0.561958,0.537423 0.209626,0.163139 0.305115,0.04194 0.213944,-0.280509 -0.130969,-0.464075 -0.292101,-0.920571 -0.442376,-1.379349 -0.04468,-0.136241 -0.09595,-0.270334 -0.170248,-0.479532 0.151364,0.06576 0.253325,0.109826 0.354828,0.154244 0.287132,0.126128 0.56428,0.186739 0.823366,0.08961 0.07359,-0.02766 0.146216,-0.03817 0.157305,-0.173415 0.01254,-0.150017 -0.07262,-0.224346 -0.139464,-0.309508 C 23.569539,10.988659 23.149714,10.575913 22.698833,10.283525 22.467659,10.133567 22.295031,9.9124151 22.159291,9.5882663 21.76041,8.6362646 21.350332,7.6910239 20.958797,6.7345743 20.778024,6.2929367 18.32553,0.0086261 18.232655,-0.4828906 c -0.740318,-0.14177321 -0.877392,-0.0435878 -1.581943,0.1619658 0.03988,0.043455 2.344145,5.9535896 2.394374,6.0909457 0.123465,0.3363199 0.243649,0.6753764 0.353899,1.0177485 0.270109,0.840641 0.546811,1.6777652 0.932082,2.4560816 0.09684,0.1958806 0.08735,0.3374795 0.03335,0.4938149 -0.175171,0.5073281 -0.34675,1.0189791 -0.512093,1.5364781 -0.109156,0.343107 -0.05281,0.727814 0.09874,1.136411 0.377199,0.117249 0.640127,-0.09755 0.92273,-0.383719 0.04963,0.306474 0.09017,0.533202 0.122312,0.758842 0.05635,0.394875 0.153492,0.772444 0.345406,1.122448 0.145105,0.264478 0.28229,0.303206 0.374953,0.0741 z"></path></g><g id="legs" transform="translate(5,22)"><path fill="#295288" d="m 5.9854961,0.10254858 c -0.365654,-0.24765 -0.654844,-0.006 -0.872331,0.30401 -0.02381,0.0344 -0.03704,0.0685 -0.04207,0.10134 -0.03069,0.0376 -0.0508,0.0863 -0.05318,0.14684 -0.06165,1.42425002 -0.268552,2.83475002 -0.450321,4.24736002 -0.03757,0.29289 -0.0725,0.58631 -0.105834,0.88 -0.02752,0.24104 0.03254,0.57917 -0.131233,0.77999 -0.163777,0.20082 -0.694267,0.34502 -0.924189,0.45059 -0.361421,0.16642 -0.722578,0.29977 -1.110721,0.38444 -0.18415,0.0402 -0.236009,0.28733 -0.109273,0.41301 0.324114,0.32068 0.773641,0.42492 1.208352,0.5125 0.554302,0.11112 1.084527,0.25956 1.655762,0.25347 0.359305,-0.004 0.595842,-0.1524 0.713052,-0.48895 0.06403,-0.18415 0.02566,-0.42069 0.01085,-0.60828 -0.0299,-0.37597 0.03122,-0.75062 0.06694,-1.12501 0.151077,-1.58167 0.365654,-3.17473 0.422539,-4.76197 0.01535,-0.42518 0.151607,-1.19829002 -0.278341,-1.48934002 z"></path><path fill="#295288" d="m 10.05637,1.5916286 c 0.0572,1.58723 0.27147,3.18029 0.42281,4.76197 0.0357,0.37465 0.0968,0.7493 0.0672,1.12501 -0.0151,0.18759 -0.0534,0.42439 0.0109,0.60828 0.11721,0.33655 0.35375,0.48498 0.712521,0.48895 0.57177,0.006 1.10173,-0.14262 1.65577,-0.25348 0.43497,-0.0873 0.88476,-0.19155 1.20835,-0.51249 0.12673,-0.12568 0.0749,-0.3728 -0.10901,-0.41302 -0.38841,-0.0847 -0.74956,-0.21801 -1.11099,-0.38444 -0.22992,-0.10557 -0.76014,-0.24976 -0.92366,-0.45058 -0.16351,-0.20056 -0.10424,-0.53896 -0.13149,-0.77999 -0.0333,-0.29369 -0.0683,-0.58712 -0.10584,-0.88001 -0.1815,-1.41261 -0.38814,-2.82284 -0.44979,-4.24736002 -0.003,-0.0606 -0.023,-0.10953 -0.0534,-0.14684 -0.005,-0.0328 -0.0177,-0.0667 -0.0421,-0.10133 -0.216961,-0.3101 -0.506421,-0.55166 -0.872331,-0.30401 -0.4299497,0.29131 -0.29369,1.06442002 -0.27888,1.48934002 z"></path></g><g id="body" transform="translate(0,0)"><path fill="#3c79c9" d="M 20.932221,14.234865 C 20.928721,12.81631 20.802221,11.398912 20.509,10.014473 20.259419,8.8365445 19.900835,7.5925309 19.016425,6.6614907 18.126536,5.724856 16.731087,5.307874 15.409212,5.1636618 13.489213,4.9541865 11.379517,5.233709 9.6216543,5.9565824 7.4164667,6.8633913 6.0160842,8.7277706 5.6989458,10.878425 c -0.1037024,0.701944 -0.08289,1.415592 -0.079964,2.12182 0.00414,1.045583 -0.080337,2.087205 -0.104075,3.132457 -1.479702,6.432276 4.1597696,9.703217 7.7238122,9.572734 2.128874,-0.277054 3.812604,-0.932024 5.282,-2.398376 1.403303,-1.399931 1.973314,-3.203657 2.125217,-5.045125 0.181486,-1.32609 0.28939,-2.677072 0.286285,-4.02707 z"></path><path fill="#57b5f5" d="M 20.747584,3.305457 C 20.584273,2.5102812 20.189516,1.8490036 19.625622,1.3304235 19.527158,1.2400827 19.423763,1.1541415 19.315138,1.0717202 19.068153,0.8853187 18.795321,0.72179592 18.502318,0.5818848 17.434743,0.07313084 16.161725,-0.10007142 14.988664,0.05465205 13.344049,0.27229135 12.014251,1.4462828 10.63918,2.2605239 9.326865,3.0372208 7.8776843,3.693952 6.3134543,3.5905587 4.9454067,3.4999245 3.5861744,2.8562458 2.7733544,1.7557296 2.7348052,1.7038129 2.6482937,1.7337311 2.6650282,1.8009 2.7612518,2.1911551 2.9002081,2.5667442 3.0530601,2.9366139 3.1682594,3.2145295 3.2910788,3.4889252 3.4097148,3.7658141 3.4667916,3.8983923 3.52342,4.0315571 3.57706,4.1648685 3.8826146,4.9238199 4.193847,5.6708917 4.6668962,6.3475691 4.9454067,6.744863 5.2814419,7.0777752 5.6588653,7.3515845 5.8075337,7.4604038 5.9632248,7.5598383 6.1235475,7.649592 6.7283816,7.9917422 7.4095659,8.2124622 8.1122667,8.3337478 9.5557685,8.5842377 11.021086,8.4102982 12.431717,8.067858 13.310878,7.8540328 14.175396,7.5872628 15.056498,7.3795964 15.862445,7.1892343 16.701712,6.998873 17.534554,7.1132657 c 0.48575,0.066284 0.972843,0.2607573 1.391506,0.506702 0.462589,0.2713149 0.650256,0.6020265 0.987934,0.9862699 0.02152,0.024485 0.06126,0.020824 0.08382,0 0.160323,-0.1457781 0.252362,-0.3308596 0.31183,-0.53354 0.02226,-0.00142 0.04317,-0.013644 0.0523,-0.039602 0.160472,-0.4810354 0.290912,-0.9754176 0.382504,-1.4772785 0.02719,-0.1444577 0.05111,-0.2905287 0.07052,-0.4364524 7.38e-4,-6.094e-4 7.38e-4,-6.094e-4 0,-6.094e-4 0.129245,-0.9358203 0.122222,-1.8879192 -0.06738,-2.8133265 z"></path><path fill="#295288" d="m 20.814521,6.1189295 c 7.38e-4,0 7.38e-4,0 0,6.094e-4 -0.01943,0.1457773 -0.04333,0.2918482 -0.07053,0.4364532 C 20.55573,6.1827491 20.298885,5.8438234 20.043533,5.5931862 19.379831,4.9418815 18.508439,4.8062235 17.597901,4.7953709 16.511503,4.7815851 15.421069,4.7946126 14.349312,4.983679 13.338366,5.1624541 12.372844,5.4303968 11.439895,5.8554095 10.581055,6.2463978 9.7488104,6.6909155 8.8766723,7.0533063 7.9954197,7.4181897 7.0505172,7.6736664 6.1232449,7.6497612 5.9629223,7.5600068 5.8072312,7.4605739 5.6585629,7.3517538 5.9218326,7.3963394 6.1910794,7.41144 6.4640613,7.3935523 7.4373535,7.327851 8.3755331,6.9928847 9.2542451,6.592218 10.087835,6.2112018 10.895724,5.7760696 11.744105,5.4251188 c 0.932948,-0.3846822 1.918792,-0.6298934 2.92152,-0.766871 1.007358,-0.1377112 2.035934,-0.1685092 3.052557,-0.1341914 0.767547,0.025226 1.596354,0.116446 2.215831,0.6039346 0.313921,0.2471173 0.630085,0.595135 0.880505,0.9909629 z"></path><path fill="#295288" d="M 19.625622,1.3304235 C 18.713143,1.3227945 17.771826,1.5797409 16.940777,1.8544299 15.19157,2.4316729 13.621811,3.3048704 11.989747,4.1342172 10.447182,4.9183935 8.7375697,5.6593056 6.9584812,5.4585326 5.5666761,5.3019024 4.3378835,4.6793422 3.4094159,3.7658141 3.2907801,3.4887786 3.1679606,3.2143828 3.0527613,2.9366139 4.0929916,4.3232584 5.738952,5.2471992 7.6123222,5.2162541 c 1.9551013,-0.032119 3.7234338,-1.039653 5.3967358,-1.929276 1.474284,-0.783443 2.99324,-1.4976639 4.619627,-1.9239967 0.524747,-0.1377111 1.105078,-0.2563569 1.686303,-0.2912612 0.108775,0.082421 0.21217,0.1683625 0.310634,0.2587033 z"></path></g><g id="eyes" transform="translate(7,7)"><path fill="#ffffff" d="M 9.348444,2.2885245 A 2.2841181,2.2885245 0 0 1 7.0643259,4.5770489 2.2841181,2.2885245 0 0 1 4.7802079,2.2885245 2.2841181,2.2885245 0 0 1 7.0643259,0 2.2841181,2.2885245 0 0 1 9.348444,2.2885245 Z"></path><path fill="#3b6983" d="M 8.6974738,2.3139013 A 1.6329469,1.5640719 0 0 1 7.0645271,3.8779731 1.6329469,1.5640719 0 0 1 5.4315803,2.3139013 1.6329469,1.5640719 0 0 1 7.0645271,0.74982941 1.6329469,1.5640719 0 0 1 8.6974738,2.3139013 Z"></path><path fill="#1f3743" d="M 8.0928728,2.2885245 A 1.0353705,0.99170032 0 0 1 7.0575024,3.2802248 1.0353705,0.99170032 0 0 1 6.0221319,2.2885245 1.0353705,0.99170032 0 0 1 7.0575024,1.2968241 1.0353705,0.99170032 0 0 1 8.0928728,2.2885245 Z"></path><path fill="#ffffff" d="M 6.8981213,1.5890661 A 0.79650069,0.30531606 0 0 1 6.1016206,1.8943822 0.79650069,0.30531606 0 0 1 5.3051199,1.5890661 0.79650069,0.30531606 0 0 1 6.1016206,1.2837501 0.79650069,0.30531606 0 0 1 6.8981213,1.5890661 Z"></path><path fill="#ffffff" d="m 4.5680354,3.0064383 c 0,1.2643314 -1.0225237,2.288909 -2.2839174,2.288909 C 1.0223228,5.2953473 -1.9769e-7,4.2707697 -1.9769e-7,3.0064383 -1.9769e-7,1.742876 1.0223228,0.71829839 2.284118,0.71829839 c 1.2613937,0 2.2839174,1.02457761 2.2839174,2.28813991 z"></path><path fill="#3b6983" d="M 3.9168635,3.0320124 A 1.6329469,1.5640719 0 0 1 2.2839167,4.5960842 1.6329469,1.5640719 0 0 1 0.65096985,3.0320124 1.6329469,1.5640719 0 0 1 2.2839167,1.4679405 1.6329469,1.5640719 0 0 1 3.9168635,3.0320124 Z"></path><path fill="#1f3743" d="M 3.3126638,3.006436 A 1.0355712,0.99189253 0 0 1 2.2770926,3.9983285 1.0355712,0.99189253 0 0 1 1.2415213,3.006436 1.0355712,0.99189253 0 0 1 2.2770926,2.0145434 1.0355712,0.99189253 0 0 1 3.3126638,3.006436 Z"></path><path fill="#ffffff" d="M 2.1179125,2.3073649 A 0.79650069,0.30531606 0 0 1 1.3214119,2.6126809 0.79650069,0.30531606 0 0 1 0.52491123,2.3073649 0.79650069,0.30531606 0 0 1 1.3214119,2.0020488 0.79650069,0.30531606 0 0 1 2.1179125,2.3073649 Z"></path><path fill="#ffffff" d="M 13.472663,4.7124022 A 2.2839174,2.2885245 0 0 1 11.188746,7.0009267 2.2839174,2.2885245 0 0 1 8.9048285,4.7124022 2.2839174,2.2885245 0 0 1 11.188746,2.4238778 2.2839174,2.2885245 0 0 1 13.472663,4.7124022 Z"></path><path fill="#3b6983" d="M 12.821693,4.7377787 A 1.6329469,1.5640719 0 0 1 11.188746,6.3018506 1.6329469,1.5640719 0 0 1 9.5557994,4.7377787 1.6329469,1.5640719 0 0 1 11.188746,3.1737069 1.6329469,1.5640719 0 0 1 12.821693,4.7377787 Z"></path><path fill="#1f3743" d="M 12.217291,4.7124022 A 1.0355712,0.99189253 0 0 1 11.181719,5.7042948 1.0355712,0.99189253 0 0 1 10.146148,4.7124022 1.0355712,0.99189253 0 0 1 11.181719,3.7205097 1.0355712,0.99189253 0 0 1 12.217291,4.7124022 Z"></path><path fill="#ffffff" d="M 11.022543,4.0131374 A 0.79650069,0.30531606 0 0 1 10.226042,4.3184535 0.79650069,0.30531606 0 0 1 9.4295418,4.0131374 0.79650069,0.30531606 0 0 1 10.226042,3.7078214 0.79650069,0.30531606 0 0 1 11.022543,4.0131374 Z"></path></g><g id="mouth" transform="translate(7,13)"><path fill="#ffffff" d="M 3.4420179,3.6432572 C 3.4129556,3.1895922 3.408232,2.7348665 3.3684456,2.281652 3.3488304,2.0612344 3.2894288,0.64019088 2.7520956,0.78472419 2.3299336,0.89848001 2.1522781,1.5274538 2.0363859,1.830553 1.7682617,2.5307401 1.5757145,3.2425426 1.5675375,3.981054 c 0,0.00905 0.0029,0.016593 0.00654,0.023533 -0.011987,0.034099 0.00981,0.079659 0.065759,0.083132 0.275752,0.018253 0.465395,0.1436264 0.7113569,0.2189122 0.2604896,0.079808 0.5353353,0.1220551 0.7963673,0.2018626 0.021984,0.00663 0.054863,-6.043e-4 0.06994,-0.01539 C 3.4647226,4.253675 3.461276,3.9433341 3.4420179,3.6432572 Z"></path><path fill="#ffffff" d="m 9.3213829,4.7275542 c 0.01531,0.015088 0.047991,0.02233 0.070167,0.015545 0.261032,-0.079813 0.535658,-0.1219068 0.7963471,-0.2015661 0.245996,-0.075281 0.435625,-0.2009561 0.71135,-0.2189122 0.05616,-0.00362 0.07779,-0.049181 0.06557,-0.083429 0.0036,-0.00694 0.0066,-0.014484 0.0066,-0.023539 -0.0083,-0.7382035 -0.200558,-1.45016 -0.468868,-2.1501931 C 10.386451,1.7622124 10.208974,1.1330829 9.7868053,1.0191757 9.2494996,0.87479375 9.190455,2.2961355 9.1706132,2.5165588 9.1303119,2.9696194 9.1259865,3.4246472 9.0972195,3.87801 9.0776523,4.1779387 9.0741509,4.4884278 9.3213829,4.7275542 Z"></path><path fill="" d="m -1.32166e-4,3.6286197 c 0,0 8.765328766,4.1330731 11.536442166,0 0,0 -2.3751027,2.3953639 -11.536442166,0 z"></path></g></svg>