<svg viewBox="0 0 27 32" xmlns="http://www.w3.org/2000/svg"><g id="arms" transform="translate(1,14)"><path fill="#23698a" d="M 3.7164774,15.310407 C 3.9413846,15.278642 4.1745207,15.177773 4.2846936,14.859695 4.3969718,14.536407 4.4966385,14.196769 4.5581134,13.848191 4.601939,13.597793 4.6752971,13.431446 4.8364454,13.320625 5.0921761,13.145348 5.1669708,12.836687 5.1492751,12.451669 5.122662,11.837579 4.8895193,11.425041 4.5309641,11.130023 4.2214577,10.875662 3.9079262,10.629977 3.5005075,10.716744 3.5243401,10.504774 3.5363888,10.362966 3.5569114,10.223136 3.637128,9.6673099 3.7544905,9.1179211 3.7942512,8.5566323 3.8921636,7.1792063 4.4248228,6.1062153 5.0051208,5.0907475 5.3920501,4.4144312 5.9098139,3.9079295 6.4454522,3.4636641 6.5005983,3.4175631 6.566661,3.3942315 6.656166,3.3456568 6.5374131,2.3914227 6.3755631,1.4466056 6.2275558,0.49981146 5.8959778,0.64756884 5.5962825,0.76334602 5.3074443,0.91482335 3.8093121,1.69973 2.7368174,3.1718599 2.000098,5.1381041 1.7264994,5.8664809 1.5289203,6.6546108 1.3190807,7.4273738 1.1144974,8.1798037 1.0081708,8.9634735 1.0423309,9.7776336 c 0.00768,0.1849474 -0.010659,0.3718724 -0.017014,0.5615324 -0.10841862,0.06718 -0.20178293,0.125447 -0.29478976,0.183458 -0.26869304,0.165363 -0.44104927,0.426171 -0.52599935,0.84614 -0.12892127,0.636906 -0.17042976,1.286199 -0.2017829,1.937975 -0.01489539,0.304444 0.02873155,0.618306 0.18251158,0.858293 0.2806027,0.437819 0.60622261,0.819117 1.01889783,0.937377 0.8276276,0.237505 1.6683898,0.325518 2.5123031,0.207998 z"></path><path fill="#23698a" d="m 25.452708,11.325699 c -0.0331,-0.455064 -0.230336,-0.765547 -0.452787,-1.036864 -0.199856,-0.244005 -0.414774,-0.3053457 -0.664553,-0.181591 -0.149583,0.07435 -0.313882,0.07701 -0.487463,0.115931 C 23.779591,9.5997657 23.728795,9.0352571 23.653477,8.4785923 23.584289,7.9673256 23.53577,7.4317308 23.39582,6.9655966 22.981218,5.5855471 22.522824,4.2408969 21.944452,2.9970518 21.361698,1.7437389 20.576109,0.96522124 19.648649,0.48339937 19.534444,0.42426445 19.406754,0.42967753 19.285195,0.4050635 19.190435,0.38616862 19.098301,0.36666116 19.010894,0.34909497 18.971834,1.3524378 18.886356,2.3536255 18.754985,3.3350913 c -0.04694,0.3491309 -0.09879,0.7015096 -0.158692,1.0517231 0.842165,0.3764208 1.456273,1.1781839 1.941809,2.2077543 0.367837,0.7785177 0.680495,1.624055 0.893486,2.5420147 0.116131,0.5020849 0.229984,1.0049766 0.353643,1.5448816 -0.197229,0.122152 -0.363978,0.240779 -0.537386,0.329409 -0.329122,0.168081 -0.57487,0.501544 -0.753005,0.939041 -0.144155,0.355074 -0.136979,0.738522 -0.05568,1.108733 0.0067,0.07649 0.02224,0.148358 0.05362,0.209965 0.01119,0.03891 0.0331,0.07159 0.05865,0.102698 0.130139,0.21591 0.272897,0.334271 0.39586,0.384797 0.03098,0.257527 0.07129,0.514249 0.128041,0.768528 0.141877,0.630436 0.45033,0.827706 0.739692,0.825274 0.459969,-0.0031 0.922388,-0.04514 1.379379,-0.129984 0.446478,-0.08426 0.889977,-0.2251 1.330331,-0.373724 0.57522,-0.194023 0.853724,-0.802571 0.941475,-1.671353 0.0615,-0.619354 0.03191,-1.23547 -0.01351,-1.849156 z"></path></g><g id="legs" transform="translate(5,22)"><path fill="#23698a" d="m 4.1013402,0.0046875 c -7.94e-4,-0.005 -0.0063,-0.006 -0.0098,-0.003 -1.444889,1.50521 -0.580495,4.13649 0.611188,5.7359 -0.780256,-0.25876 -1.583531,-0.32306 -2.464065,-0.12462 -0.600604,0.13547 -1.171575,0.39079 -1.74122295,0.62283 -0.302683,0.12356 -0.512233,0.29819 -0.49662300197,0.635 0.004500002,0.0987 0.084140002,0.18865 0.17065700197,0.22675 0.333639,0.14737 0.68871,0.0998 1.02129095,-0.0217 0.136261,-0.05 0.272257,-0.091 0.408252,-0.12858 -0.06906,0.0624 -0.130968,0.1262 -0.182297,0.19129 -0.135467,0.17145 -0.02011,0.39476 0.152135,0.47546 0.44106,0.20611 1.1176,-0.009 1.55575,-0.11827 0.148167,-0.0368 0.294481,-0.0699 0.440002,-0.10081 -0.06773,0.0672 -0.136525,0.136 -0.209815,0.20558 -0.176741,0.1696 -0.11377,0.57362 0.184415,0.55907 0.754063,-0.0378 1.309423,-0.56542 1.973263,-0.83556 0.230981,0.0275 0.455877,-0.0196 0.677862,-0.0921 0.239977,-0.0781 0.392642,-0.33126 0.318558,-0.57362 -0.04366,-0.14208 -0.129116,-0.25321 -0.218281,-0.36989 -0.03175,-0.0413 -0.0553,-0.0857 -0.07805,-0.1307 -0.09393,-0.73475 -0.375444,-1.45786 -0.384175,-2.22144 C 5.8192742,2.9753075 6.3573223,0.83344039 6.8044683,0.00688039 5.9727978,-0.00904151 5.4362374,-0.00797348 4.1013402,0.0046875 Z"></path><path fill="#23698a" d="m 12.692659,0.0046875 c 7.94e-4,-0.005 0.0066,-0.006 0.01005,-0.003 1.459442,1.50521 0.586317,4.13649 -0.617272,5.7359 0.788193,-0.25876 1.599406,-0.32306 2.48867,-0.12462 0.606425,0.13547 1.183482,0.39079 1.758686,0.62283 0.305329,0.12356 0.51726,0.29819 0.50165,0.635 -0.0045,0.0987 -0.08493,0.18865 -0.172244,0.22675 -0.336815,0.14737 -0.69559,0.0998 -1.03161,-0.0217 -0.137584,-0.05 -0.274903,-0.091 -0.412486,-0.12858 0.06985,0.0624 0.132292,0.1262 0.184415,0.19129 0.136789,0.17145 0.02011,0.39476 -0.153723,0.47546 -0.445559,0.20611 -1.128977,-0.009 -1.571361,-0.11827 -0.149489,-0.0368 -0.297391,-0.0699 -0.4445,-0.10081 0.06853,0.0672 0.138113,0.136 0.212196,0.20558 0.178329,0.1696 0.114829,0.57362 -0.186531,0.55907 -0.761471,-0.0378 -1.322652,-0.56542 -1.992842,-0.83556 -0.233098,0.0275 -0.460375,-0.0196 -0.684477,-0.0921 -0.242358,-0.0781 -0.39661,-0.33126 -0.321733,-0.57362 0.04418,-0.14208 0.13044,-0.25321 0.220398,-0.36989 0.03201,-0.0413 0.05583,-0.0857 0.07885,-0.1307 0.09472,-0.73475 0.379148,-1.45786 0.387879,-2.22144 0.01085,-0.96097 -0.422786,-3.10926139 -0.87443,-3.93582139159 1.694028,-0.0106471384 0.966413,3.6477165e-4 2.620415,0.004231392 z"></path></g><g id="body" transform="translate(0,0)"><path fill="#6da51c" d="M 6.9206293,5.737922 C 6.8595721,5.5958973 6.7958372,5.4465975 6.7251394,5.2824309 4.9646602,1.1887049 2.7275073,0.46150077 2.7275073,0.46150077 c 0,0 -1.80038052,5.72084133 0.7806202,7.96255333 C 3.7919894,7.1195782 5.5195299,6.0849176 6.9206293,5.737922 Z"></path><path fill="#e2f744" d="M 6.3930746,6.0074209 C 6.3526377,5.9131595 6.3100584,5.8144698 6.2631944,5.7050255 5.0948082,2.9878947 3.6101571,2.5055169 3.6101571,2.5055169 c 0,0 -1.19463,3.7970243 0.5181818,5.2843291 C 4.316866,6.9240966 5.4630253,6.2373805 6.3930746,6.0074209 Z"></path><path fill="#6da51c" d="m 18.957445,5.737922 c 0.06106,-0.1420247 0.124791,-0.2913245 0.195489,-0.4554911 1.760479,-4.093726 3.997632,-4.82093013 3.997632,-4.82093013 0,0 1.800114,5.72084133 -0.780887,7.96255333 C 22.085817,7.1195782 20.358544,6.0849176 18.957445,5.737922 Z"></path><path fill="#e2f744" d="m 19.484732,6.0074209 c 0.04043,-0.094262 0.08274,-0.1929511 0.12988,-0.3023954 1.168387,-2.7171308 2.653037,-3.1995086 2.653037,-3.1995086 0,0 1.19463,3.7970243 -0.518182,5.2843291 C 21.560941,6.9240966 20.414781,6.2373805 19.484732,6.0074209 Z"></path><path fill="#6da51c" d="M 18.219672,4.7962575 C 17.598121,2.0351592 15.467818,3.1605045e-4 12.934485,3.1605045e-4 10.355893,3.1605045e-4 8.1955975,2.1088601 7.6182332,4.9458736 5.0516934,5.8030825 3.2052523,7.3261307 3.2052523,9.5188142 c 0,7.2015048 4.3803099,15.7394308 9.8765197,15.7394308 5.496209,0 10.026751,-8.537926 10.026751,-15.7394308 -2.68e-4,-2.3258513 -2.077548,-3.8995097 -4.888851,-4.7225567 z"></path><path fill="#23698a" d="m 12.902885,6.2908375 c 4.13876,0 7.788527,2.4827427 9.954983,6.2620535 0.163622,-1.019794 0.250387,-2.039904 0.250387,-3.0343931 0,-2.3258512 -2.07728,-3.8991934 -4.888583,-4.7225568 C 17.598121,2.0348428 15.467818,-2.6279e-7 12.934485,-2.6279e-7 10.355893,-2.6279e-7 8.1955975,2.1085438 7.6182332,4.9455573 5.0516934,5.8027662 3.2052523,7.3258145 3.2052523,9.5184979 c 0,0.7784471 0.051416,1.5727091 0.1496969,2.3704511 C 5.5551466,8.4863677 9.0126376,6.2908375 12.902885,6.2908375 Z"></path></g><g id="eyes" transform="translate(7,7)"><path fill="#ffffff" d="M 5.4571145,2.9283617 A 2.7285573,2.854199 0 0 1 2.7285573,5.7825608 2.7285573,2.854199 0 0 1 0,2.9283617 2.7285573,2.854199 0 0 1 2.7285573,0.07416273 2.7285573,2.854199 0 0 1 5.4571145,2.9283617 Z"></path><path fill="#3b6983" d="M 4.67922,2.9601989 A 1.9506628,1.9506628 0 0 1 2.7285573,4.9108617 1.9506628,1.9506628 0 0 1 0.77789447,2.9601989 1.9506628,1.9506628 0 0 1 2.7285573,1.0095361 1.9506628,1.9506628 0 0 1 4.67922,2.9601989 Z"></path><path fill="#1f3743" d="M 3.9570356,2.9283617 A 1.2371131,1.2371131 0 0 1 2.7199226,4.1654748 1.2371131,1.2371131 0 0 1 1.4828096,2.9283617 1.2371131,1.2371131 0 0 1 2.7199226,1.6912488 1.2371131,1.2371131 0 0 1 3.9570356,2.9283617 Z"></path><path fill="#ffffff" d="M 2.5294313,2.0563219 A 0.95128676,0.38065014 0 0 1 1.5781446,2.4369721 0.95128676,0.38065014 0 0 1 0.62685781,2.0563219 0.95128676,0.38065014 0 0 1 1.5781446,1.6756718 0.95128676,0.38065014 0 0 1 2.5294313,2.0563219 Z"></path><path fill="#ffffff" d="M 11.37785,2.8543686 A 2.7285573,2.8543681 0 0 1 8.6492929,5.7087367 2.7285573,2.8543681 0 0 1 5.9207359,2.8543686 2.7285573,2.8543681 0 0 1 8.6492929,4.7683716e-7 2.7285573,2.8543681 0 0 1 11.37785,2.8543686 Z"></path><path fill="#3b6983" d="M 10.599956,2.8860299 A 1.9506628,1.9506628 0 0 1 8.6492929,4.8366927 1.9506628,1.9506628 0 0 1 6.6986302,2.8860299 1.9506628,1.9506628 0 0 1 8.6492929,0.93536714 1.9506628,1.9506628 0 0 1 10.599956,2.8860299 Z"></path><path fill="#1f3743" d="M 9.8779429,2.8543686 A 1.2369436,1.2369436 0 0 1 8.6409994,4.0913122 1.2369436,1.2369436 0 0 1 7.4040559,2.8543686 1.2369436,1.2369436 0 0 1 8.6409994,1.6174249 1.2369436,1.2369436 0 0 1 9.8779429,2.8543686 Z"></path><path fill="#ffffff" d="M 8.4506715,1.982158 A 0.95162537,0.38031152 0 0 1 7.4990464,2.3624695 0.95162537,0.38031152 0 0 1 6.5474205,1.982158 0.95162537,0.38031152 0 0 1 7.4990464,1.6018465 0.95162537,0.38031152 0 0 1 8.4506715,1.982158 Z"></path></g><g id="mouth" transform="translate(7,13)"><path fill="" d="m 9.945241,2.9543514 c 0,1.1316601 -1.6334332,2.7597373 -3.6495498,2.7597373 -2.0156755,0 -3.649976,-1.6280772 -3.649976,-2.7597373 0,-1.131664 1.6343005,-0.7889912 3.649976,-0.7889912 2.0161166,0 3.6495498,-0.342178 3.6495498,0.7889912 z"></path><path fill="#23698a" d="m 6.2956912,5.4155495 c -1.9243795,0 -3.4975112,-1.4837614 -3.6359965,-2.6030287 -0.00699,0.045625 -0.013979,0.090752 -0.013979,0.1418306 0,1.1316601 1.6343005,2.7597373 3.6499761,2.7597373 2.0161165,0 3.6495497,-1.6280772 3.6495497,-2.7597373 0,-0.051573 -0.00743,-0.096206 -0.013539,-0.1418306 C 9.7932047,3.9317881 8.2200708,5.4155495 6.2956912,5.4155495 Z"></path><path fill="#ffffff" d="m 6.2956912,2.1653602 c -0.8737137,0 -1.6753555,-0.063973 -2.3031312,-0.044631 l -0.090429,0.00546 c 0,0 -0.7487824,1.4569802 -0.3844401,1.5412864 0.4984607,0.1145534 1.278689,0.420041 1.3634416,0.019339 L 5.276942,2.7411117 c 0,0 -0.1817403,0.9278446 0,1.1267045 0.1900288,0.2077928 0.649176,0.3034948 1.0895333,0.288613 0.4407866,0.014883 0.9008089,-0.08082 1.0899628,-0.288613 0.1817402,-0.1993548 0,-1.1267045 0,-1.1267045 L 7.851802,3.686809 C 7.9365552,4.0875109 8.7167813,3.7825203 9.2156877,3.66747 9.5704172,3.5851483 8.870122,2.2030496 8.8342924,2.1331263 8.1772569,2.0840311 7.2834324,2.1653604 6.2956912,2.1653602 Z"></path></g></svg>