<?xml version="1.0" encoding="UTF-8" standalone="no"?>
<svg
   version="1.1"
   width="401"
   height="221"
   viewBox="0 0 401 221"
   xmlns="http://www.w3.org/2000/svg"
   xmlns:svg="http://www.w3.org/2000/svg">
  <g
     id="forearm">
    <path
       fill="#dad758"
       d="M 81.939276,106.45246 C 52.690102,103.02325 29.444868,94.472403 16.187444,82.26538 4.9265302,71.896674 1.7209625,63.524295 4.0800651,50.642997 7.0878336,34.219808 14.027489,23.34867 26.518592,15.492503 47.667568,2.1910293 47.483905,2.2499008 69.144444,1.829701 83.109281,1.5587918 91.197252,1.9653687 110.82355,3.9248811 c 19.02188,1.8991688 31.83425,2.5705186 58.53807,3.0673079 32.28287,0.6005788 34.48099,0.7484568 39.48046,2.6560278 7.36038,2.8083902 13.04278,7.2825332 17.53969,13.8101772 4.10679,5.961325 8.17282,17.007707 9.11225,24.755535 0.69923,5.766865 -1.35237,14.292019 -5.03401,20.918377 -3.62899,6.531529 -13.02399,15.870624 -20.01522,19.896086 -11.84719,6.821506 -43.97158,14.572498 -72.19878,17.420208 -16.41158,1.65567 -42.202656,1.65746 -56.306734,0.004 z"
       id="path30103" />
    <path
       fill="#9fb547"
       d="M 90.867038,109.96049 C 52.0426,106.16744 23.281511,95.937515 9.731975,81.101846 3.9009045,74.717282 9.6210403e-4,66.336977 6.5502218e-7,60.189518 -0.00319088,40.367399 11.639543,20.76201 28.487668,12.2183 31.9995,10.437443 35.793304,8.1728195 36.918329,7.1858064 44.787051,0.28243524 67.127256,-1.0351522 109.0406,2.9321597 c 37.4375,3.5436516 53.56449,4.3600207 73.51857,3.721611 19.67768,-0.6295656 26.78315,0.2327277 35.30428,4.2843993 13.75704,6.541261 23.52851,25.12737 22.63088,43.045673 -0.37049,7.396057 -0.83401,9.068328 -4.28514,15.459557 -5.11259,9.468211 -13.60861,17.605163 -23.72988,22.727024 -12.06638,6.106159 -37.4507,12.377826 -64.63571,15.969436 -11.15385,1.47362 -48.359506,2.66248 -56.976562,1.82063 z M 177.31426,40.676485 c 8.25835,-0.981999 13.05579,-2.328762 11.98963,-3.365799 -0.25193,-0.245054 -10.78872,-1.302667 -23.41505,-2.350253 C 137.79451,32.629501 131.26249,31.368066 94.98943,21.268639 65.59938,13.08563 57.958144,11.329988 57.958144,12.760353 c 0,0.918335 53.914766,20.119968 66.807346,23.793297 17.71535,5.047433 34.01714,6.326423 52.54877,4.122835 z"
       id="path30099" />
    <path
       fill="#4e7938"
       d="M 87.908847,111.06685 C 55.88675,108.24949 27.513193,98.254889 13.102728,84.71636 4.6962771,76.818559 1.0566052,70.296158 0.38144258,61.919438 -0.06902121,56.330549 1.5036301,46.617395 2.858988,46.617395 c 0.2548298,0 5.0585352,1.563706 10.6749,3.474909 22.687341,7.720303 45.135469,10.779724 79.361727,10.816078 26.584045,0.02821 38.315135,-0.875583 63.530815,-4.894738 24.9063,-3.969829 51.03248,-10.320205 53.21028,-12.933565 1.71895,-2.062743 -1.44061,-7.035878 -5.26965,-8.29441 -1.79241,-0.589131 -12.68384,-1.511059 -24.20317,-2.04873 -29.9407,-1.397498 -47.0156,-4.39358 -85.273567,-14.962698 C 65.274911,9.5927105 52.793737,6.9130457 44.025282,6.8536935 l -7.480153,-0.050637 3.490738,-1.8953179 c 7.629168,-4.14230043 16.89616,-5.29907739 37.333973,-4.66030811 10.459079,0.32689132 25.07544,1.26197891 32.48079,2.07797251 29.05253,3.201292 40.51226,3.8568834 69.81476,3.9939844 28.86756,0.1350667 30.70154,0.2543027 35.95246,2.3374263 C 232.24478,15.252993 242,31.493198 242,52.577055 c 0,8.585854 -0.29213,10.050431 -3.24195,16.253443 -2.30002,4.836572 -5.34267,8.902133 -10.47221,13.992855 -10.8642,10.781979 -21.28974,15.260594 -50.61516,21.743307 -29.74703,6.57589 -62.19448,8.92562 -89.761833,6.50019 z"
       id="path30093" />
    <path
       fill="#050606"
       d="M 87.908847,111.06685 C 39.336433,106.79336 2.890633,86.761814 0.42650402,62.9843 0.11638585,59.991826 0.14072527,57.543439 0.48059151,57.543439 c 0.33986724,0 1.49162629,1.676154 2.55946599,3.724787 6.908425,13.253708 24.3038455,21.703076 51.4574385,24.994119 37.273902,4.517621 86.096654,-0.293583 129.719864,-12.783163 13.83993,-3.962459 18.78493,-6.346829 24.06178,-11.602107 5.18134,-5.160172 5.96592,-7.970976 4.38429,-15.707002 C 210.13219,33.789444 208.4457,33.011653 181.4255,31.763544 152.91916,30.446786 132.81512,27.128294 102.73779,18.774887 69.818017,9.6320413 57.313305,6.7191492 48.604921,6.1649753 40.939749,5.677188 39.966521,5.4202591 41.514364,4.2930778 c 0.986752,-0.71858 5.179189,-2.0565416 9.316521,-2.9732495 6.22638,-1.37957488 10.798828,-1.56433924 26.538955,-1.07239315 10.459079,0.32689133 25.07544,1.26197885 32.48079,2.07797255 29.05253,3.201292 40.51226,3.8568834 69.81476,3.9939844 28.86756,0.1350667 30.70154,0.2543026 35.95246,2.3374263 C 232.24478,15.252993 242,31.493198 242,52.577055 c 0,8.585854 -0.29213,10.050431 -3.24195,16.253443 -2.30002,4.836572 -5.34267,8.902133 -10.47221,13.992855 -10.8642,10.781979 -21.28974,15.260594 -50.61516,21.743307 -29.74703,6.57589 -62.19448,8.92562 -89.761833,6.50019 z"
       id="path30091" />
  </g>
</svg>
