<?xml version="1.0" encoding="UTF-8" standalone="no"?>
<!-- Created with Inkscape (http://www.inkscape.org/) -->

<svg
   version="1.1"
   id="svg31700"
   width="401"
   height="281"
   viewBox="0 0 401 281"
   xmlns="http://www.w3.org/2000/svg"
   xmlns:svg="http://www.w3.org/2000/svg">
  <g
     id="hand-left">
    <path
       fill="#a0b748"
       d="m 17.647532,188.14405 c -1.888522,-1.07932 -4.138778,-3.14671 -5.00057,-4.5942 -0.861792,-1.44749 -3.0051956,-4.20235 -4.7631194,-6.12189 -1.7579239,-1.91954 -4.3150745,-5.8917 -5.6825558,-8.827 -2.17460822,-4.66781 -2.43278542,-6.35711 -2.05925022,-13.47409 0.34568311,-6.58629 0.97901582,-9.15129 3.32295622,-13.45801 3.940945,-7.24101 9.1132582,-12.32514 15.7174882,-15.44953 4.737575,-2.24129 6.715464,-4.15829 13.771258,-13.3473 4.531527,-5.90157 12.779202,-16.339172 18.32817,-23.19469 C 56.830867,82.821823 64.673185,72.725516 68.709274,67.241102 79.236058,52.936862 91.986762,37.58342 96.665048,33.578874 101.31695,29.596908 141.68489,8.8512879 155.13307,3.5313797 c 13.3125,-5.2662328 22.07614,-4.7955116 45.53759,2.4459587 7.87585,2.4309146 10.50212,3.751704 13.57981,6.8294716 7.37608,7.376274 7.59577,19.679001 0.53473,29.944232 l -3.40661,4.952462 5.80675,4.468307 c 3.19371,2.457569 7.2063,6.062368 8.91689,8.010662 5.72163,6.516769 6.53367,16.697217 1.88945,23.68811 -2.65095,3.990429 -9.76376,7.795376 -14.61161,7.816356 -5.83845,0.02523 -6.30452,0.792578 -4.55693,7.5022 3.15575,12.116111 1.18128,18.137871 -7.42567,22.646811 -4.31574,2.26089 -6.5084,2.7422 -12.49248,2.7422 -7.70709,0 -8.4685,0.48827 -8.4685,5.4305 0,1.80547 0.97899,2.63647 4.73641,4.02039 7.97126,2.93595 11.76434,5.95749 14.58524,11.61844 6.47206,12.98807 0.32929,30.96863 -12.01716,35.17561 -6.65582,2.26793 -9.62241,2.02566 -23.25871,-1.89938 -18.34349,-5.27996 -32.31972,-4.55945 -47.93304,2.47104 -19.472054,8.76803 -16.870359,8.38687 -58.418064,8.55857 -35.175697,0.14537 -37.223659,0.0539 -40.483634,-1.80927 z"
       id="path31740" />
    <path
       fill="#6f8a3c"
       d="m 17.647532,188.14405 c -1.888522,-1.07932 -4.252381,-3.37107 -5.25302,-5.09278 -1.000639,-1.72172 -3.5130211,-5.07459 -5.5830703,-7.45084 -2.0700493,-2.37623 -4.5304186,-6.32804 -5.4674869,-8.78179 -2.14938959,-5.62824 -1.45563223,-6.41774 8.0832204,-9.19862 15.6878988,-4.57353 18.2339648,-4.54816 38.8884148,0.38738 9.392271,2.24435 13.506416,1.70076 42.452289,-5.60917 23.817621,-6.01484 24.664601,-6.15308 38.315961,-6.25372 16.97018,-0.12511 25.65937,1.53492 41.43699,7.91635 6.15591,2.48982 11.83415,4.28074 12.61832,3.97983 2.10962,-0.80956 1.15024,-4.57402 -1.70552,-6.69226 -1.37107,-1.01698 -6.94398,-3.4385 -12.38425,-5.38115 -8.87642,-3.16964 -11.77706,-3.67962 -28.26769,-4.96995 -10.10696,-0.79083 -20.15377,-1.91651 -22.32625,-2.50152 -4.86045,-1.30881 -14.76718,-10.35932 -13.13071,-11.99584 0.74934,-0.74936 2.84604,-0.30909 7.14482,1.50029 5.91314,2.48888 10.64106,3.34307 9.96669,1.80067 -0.1828,-0.41812 -1.59218,-3.28003 -3.13194,-6.35979 -1.53976,-3.07977 -3.51048,-9.2082 -4.37939,-13.61874 -1.44329,-7.32621 -1.73599,-7.92163 -3.3872,-6.89041 -0.99406,0.62082 -2.12007,0.81607 -2.50224,0.43389 -0.8675,-0.86753 5.45841,-20.76473 10.21253,-32.122013 3.02464,-7.225665 4.5132,-9.375157 9.92957,-14.338411 6.94633,-6.365219 25.28744,-19.557467 32.09614,-23.085849 l 4.26999,-2.212779 16.95067,1.795405 c 18.86636,1.998312 19.23253,1.922078 20.46922,-4.261576 0.56442,-2.822132 0.26927,-3.395079 -2.66962,-5.182375 -4.1007,-2.493852 -22.89995,-7.074069 -29.03513,-7.074069 -5.45186,0 -17.26533,4.728062 -38.95031,15.588944 -25.9475,12.995759 -26.5963,13.537254 -51.813115,43.243858 -5.819392,6.855517 -19.927641,21.771217 -31.351661,33.145995 -20.292029,20.20457 -20.908886,20.71732 -26.753774,22.2388 -3.290558,0.85656 -7.925087,2.69542 -10.298954,4.08635 -4.9326927,2.89025 -6.0238538,2.60931 -3.6914762,-0.95045 1.8215012,-2.78004 7.5350702,-6.81606 12.7103552,-8.97849 2.407109,-1.00578 5.92015,-4.67358 11.757862,-12.27581 4.57881,-5.96283 12.865174,-16.450552 18.414142,-23.30607 C 56.830867,82.821823 64.673185,72.725516 68.709274,67.241102 79.236058,52.936862 91.986762,37.58342 96.665048,33.578874 101.31695,29.596908 141.68489,8.8512879 155.13307,3.5313797 c 13.3125,-5.2662328 22.07614,-4.7955116 45.53759,2.4459587 7.87585,2.4309146 10.50212,3.751704 13.57981,6.8294716 7.37608,7.376274 7.59577,19.679001 0.53473,29.944232 l -3.40661,4.952462 5.80675,4.468307 c 3.19371,2.457569 7.2063,6.062368 8.91689,8.010662 5.72163,6.516769 6.53367,16.697217 1.88945,23.68811 -2.65095,3.990429 -9.76376,7.795376 -14.61161,7.816356 -5.83845,0.02523 -6.30452,0.792578 -4.55693,7.5022 3.15575,12.116111 1.18128,18.137871 -7.42567,22.646811 -4.31574,2.26089 -6.5084,2.7422 -12.49248,2.7422 -7.70709,0 -8.4685,0.48827 -8.4685,5.4305 0,1.80547 0.97899,2.63647 4.73641,4.02039 7.97126,2.93595 11.76434,5.95749 14.58524,11.61844 6.47206,12.98807 0.32929,30.96863 -12.01716,35.17561 -6.65582,2.26793 -9.62241,2.02566 -23.25871,-1.89938 -18.34349,-5.27996 -32.31972,-4.55945 -47.93304,2.47104 -19.472054,8.76803 -16.870359,8.38687 -58.418064,8.55857 -35.175697,0.14537 -37.223659,0.0539 -40.483634,-1.80927 z M 168.59243,125.80257 c -1.57222,-2.93782 -9.61731,-13.44497 -13.34451,-17.42836 -3.2923,-3.51862 -3.85287,-3.73938 -9.49523,-3.73938 -4.76175,0 -7.19203,0.62896 -11.80338,3.05474 l -5.807,3.05475 0.31477,7.66479 c 0.17311,4.21564 0.45341,7.80805 0.62289,7.98312 0.16947,0.17508 1.1371,-1.09825 2.15028,-2.82962 2.23203,-3.81422 15.38188,-13.94195 18.10223,-13.94195 1.46998,0 2.21983,1.0707 3.04503,4.34796 0.60214,2.39138 1.80677,4.93886 2.67697,5.66108 0.87019,0.72222 2.22071,2.54794 3.00113,4.05716 1.39581,2.69927 3.20515,3.47806 8.7053,3.747 2.36526,0.11565 2.63694,-0.12633 1.83152,-1.63129 z m 24.22674,-17.78434 c 2.06807,-0.79362 1.99131,-2.90286 -0.48155,-13.23162 -1.96754,-8.218055 -2.36155,-8.923679 -8.88631,-15.913983 -7.62361,-8.167549 -8.5701,-8.565408 -23.07644,-9.700243 l -8.68371,-0.679339 -12.08342,9.096398 c -6.64588,5.003022 -12.96648,9.096399 -14.0458,9.096399 -1.0793,0 -1.93665,0.560906 -1.90521,1.246458 0.15313,3.339748 3.59005,16.79882 4.29391,16.81508 1.81027,0.0419 10.1306,-12.210107 14.45601,-21.286952 3.03877,-6.376847 5.183,-9.712268 6.25019,-9.722369 0.89346,-0.008 4.10433,1.119957 7.13523,2.507593 3.03091,1.387637 8.99261,3.189187 13.24822,4.003433 4.25561,0.814256 8.31377,1.958773 9.01816,2.543382 0.70438,0.584598 2.04123,4.504289 2.97078,8.710425 3.54462,16.039188 5.5845,18.896648 11.78994,16.515338 z m 20.45669,-38.533504 c -0.0364,-1.233993 -1.95562,-5.609059 -4.2649,-9.722369 l -4.1987,-7.478746 -7.95004,-0.538562 c -4.37253,-0.296209 -8.02186,-0.520571 -8.1096,-0.498583 -0.0877,0.02199 4.20162,4.639407 9.53195,10.260931 7.61351,8.029431 10.26679,10.220953 12.37451,10.220953 2.13722,0 2.66952,-0.456393 2.61678,-2.243624 z"
       id="path31736" />
    <path
       fill="#517335"
       d="m 17.889612,187.24579 c -1.578399,-0.95991 -3.666326,-3.0007 -4.639838,-4.5351 -0.973513,-1.5344 -3.4422053,-4.80995 -5.485985,-7.27903 -4.4279426,-5.34933 -7.36900465,-11.80616 -6.0008653,-13.17435 1.4580094,-1.45804 16.9668293,-5.75555 23.1573493,-6.41691 4.183545,-0.44695 7.973668,0.0433 15.639312,2.02291 15.147098,3.91167 21.09181,3.60043 44.474577,-2.32849 29.944648,-7.59274 34.970248,-8.36396 50.032508,-7.67784 14.53639,0.66216 21.82542,2.33317 36.78082,8.43205 10.18354,4.15289 12.08495,4.3186 13.0934,1.14115 1.42147,-4.47877 -4.23379,-8.49446 -18.89303,-13.41553 -5.92404,-1.98869 -11.5307,-2.82737 -26.38348,-3.94656 -20.20181,-1.52225 -23.51432,-2.36774 -29.34942,-7.49117 -5.95154,-5.22567 -4.77038,-6.22228 3.76255,-3.17467 9.52641,3.40245 10.63544,2.57158 6.57483,-4.92574 -3.10612,-5.73499 -5.98723,-16.07946 -6.01228,-21.58672 -0.0156,-3.421036 -0.83391,-4.017062 -2.80672,-2.04419 -2.24409,2.24414 -1.32436,-3.139706 2.40393,-14.072227 4.98793,-14.626133 8.9029,-22.938091 12.65178,-26.861242 7.36655,-7.708977 33.1573,-25.714729 38.18344,-26.657663 1.77581,-0.333151 10.21666,0.169462 18.75745,1.11692 17.2809,1.917024 17.60241,1.847914 19.60286,-4.213661 1.00963,-3.059264 0.91862,-3.758035 -0.69685,-5.350895 -2.05952,-2.030697 -16.18947,-6.389555 -26.40787,-8.146392 -6.22909,-1.07096 -7.03405,-0.977091 -14.27796,1.664984 -4.2222,1.539962 -18.06355,7.948607 -30.75858,14.241433 -26.14458,12.959669 -25.75408,12.648627 -46.051041,36.681012 -6.015768,7.122898 -21.441775,23.565629 -34.280008,36.539401 -21.42858,21.65481 -23.679731,23.63928 -27.458917,24.20602 -2.264176,0.33953 -6.581526,1.75867 -9.59411,3.15361 l -5.4774277,2.53629 2.9914167,-3.12705 c 1.645279,-1.71987 5.459335,-4.27087 8.47568,-5.66888 4.27698,-1.98228 6.581795,-3.99639 10.469958,-9.14938 2.742132,-3.63414 11.065629,-14.23899 18.496656,-23.566322 7.431028,-9.327342 17.708259,-22.567854 22.838299,-29.423371 13.045857,-17.433838 23.441418,-29.371856 28.487384,-32.714253 6.60603,-4.375776 44.72062,-23.4539481 54.94364,-27.501925 13.3333,-5.27953601 22.61552,-4.77572082 45.40555,2.464494 7.36288,2.3391294 10.45711,3.88503 13.13369,6.561687 7.00146,7.001654 7.03249,19.231567 0.0733,28.895584 l -3.4882,4.844006 4.78304,3.988664 c 9.78488,8.159801 13.03023,11.901497 14.24919,16.428492 1.42813,5.303827 0.6435,11.223474 -2.0695,15.613318 -2.34916,3.801128 -9.10633,7.346253 -14.00229,7.346253 -1.91575,0 -4.28066,0.583162 -5.25539,1.295927 -1.68558,1.232557 -1.68938,1.580967 -0.0777,7.12523 4.51678,15.537586 -2.44385,24.412466 -19.18683,24.463426 -7.9369,0.0241 -9.70766,1.34125 -9.0708,6.74687 0.25396,2.15557 1.29007,3.03021 5.66876,4.78531 11.00491,4.41106 16.01306,11.0818 16.06351,21.3962 0.0703,14.36011 -9.1326,24.92915 -21.70674,24.92915 -1.6749,0 -8.50159,-1.57053 -15.17042,-3.49008 -19.4678,-5.60357 -31.38732,-4.69463 -51.57599,3.93301 -7.39747,3.1613 -15.457301,5.85979 -19.220872,6.43529 -3.564771,0.5451 -21.431435,0.92474 -39.703686,0.84366 -29.721704,-0.1319 -33.524681,-0.33132 -36.09211,-1.89271 z M 131.36609,124.72626 c 1.56577,-2.33142 6.13591,-6.68232 10.15589,-9.66864 7.83846,-5.82297 9.25721,-5.89763 10.32801,-0.54345 0.31398,1.56994 2.24809,5.11151 4.29802,7.87013 3.23008,4.34678 4.31635,5.10404 8.14527,5.67824 2.42997,0.36441 4.80095,0.27972 5.26885,-0.18819 1.61251,-1.61256 -13.29676,-21.1228 -17.66121,-23.11144 -4.18457,-1.90666 -11.00033,-1.33603 -16.33568,1.36767 -2.70567,1.3711 -5.60738,2.49292 -6.44826,2.49292 -1.27816,0 -1.52885,1.7441 -1.52885,10.63644 0,5.85003 0.2095,10.42693 0.46556,10.17086 0.25606,-0.25607 1.74664,-2.3731 3.3124,-4.70454 z m 63.47997,-17.2059 c 0.59529,-0.56065 0.0967,-4.66881 -1.33959,-11.037889 -2.28663,-10.139654 -2.29146,-10.148848 -9.41076,-17.932009 -3.91763,-4.282938 -7.69535,-8.006815 -8.39494,-8.275282 -0.6996,-0.268457 -6.17633,-0.97842 -12.17052,-1.577696 -12.17986,-1.21767 -12.53022,-1.129321 -19.9879,5.040385 -6.80691,5.631326 -16.12169,11.950807 -17.61524,11.950807 -0.78333,0 -1.3304,-1.116348 -1.3304,-2.714795 0,-2.685448 -0.0161,-2.69193 -1.48095,-0.600374 -1.32325,1.889261 -1.27016,2.938579 0.49857,9.854455 1.08874,4.257032 1.98639,8.677908 1.99479,9.824168 0.008,1.14626 0.46772,2.75721 1.02071,3.57987 0.8458,1.25826 1.41204,1.02078 3.56633,-1.49575 4.79728,-5.603935 12.00554,-17.174532 14.36178,-23.053335 1.29277,-3.225463 2.79782,-6.166575 3.34455,-6.535786 0.54672,-0.36922 3.24567,0.469705 5.99766,1.864282 2.75198,1.394577 9.01987,3.358456 13.92863,4.364187 4.90877,1.005732 9.34912,2.252698 9.86744,2.771035 0.51832,0.518337 2.0689,5.748504 3.44573,11.62259 2.89723,12.360697 4.6768,14.945087 9.58017,13.912757 1.74666,-0.36772 3.60243,-1.07045 4.12394,-1.56162 z m 19.17691,-36.406175 c 0.63092,-1.644187 -2.71054,-9.285421 -7.10383,-16.245028 l -2.44438,-3.872253 -8.77844,-0.413744 c -4.82813,-0.227558 -8.87868,-0.361308 -9.00121,-0.29722 -0.52606,0.27515 19.3551,20.24958 21.1627,21.261983 2.87086,1.6079 5.45139,1.426356 6.16516,-0.433738 z M 171.1257,47.605458 c -2.00783,-0.731371 -3.15148,-0.708513 -3.93869,0.07873 -0.81434,0.814352 -0.0619,1.088414 2.82938,1.030624 3.89496,-0.07785 3.90728,-0.09016 1.10931,-1.109348 z"
       id="path31732" />
    <path
       fill="#070806"
       d="m 18.572774,187.45525 c -5.116028,-2.60739 -4.283966,-3.67633 2.554689,-3.28198 5.013235,0.28909 8.021996,-0.24788 15.222461,-2.71669 7.191984,-2.46591 12.241744,-3.36842 25.427041,-4.54439 26.3611,-2.35109 28.854875,-2.92226 43.926975,-10.06077 15.90743,-7.53413 23.8117,-9.45547 39.83269,-9.68237 10.52774,-0.1491 12.25153,0.10223 21.04305,3.06809 13.57388,4.57922 17.27447,4.12329 19.24853,-2.37151 1.73157,-5.697 -2.03275,-8.71212 -17.82769,-14.27948 -7.84174,-2.76405 -11.32574,-3.33276 -28.22524,-4.60739 -20.16483,-1.52092 -24.25333,-2.56854 -28.5452,-7.31433 -2.27619,-2.51693 -1.88657,-2.56397 4.34743,-0.52487 3.51966,1.15125 5.97256,1.34701 9.10815,0.7269 3.66615,-0.72503 4.67128,-1.49927 6.90001,-5.31494 2.65502,-4.54553 15.34296,-15.30348 17.2853,-14.65602 0.57423,0.19141 1.3463,1.47818 1.7157,2.85947 0.36941,1.3813 2.33948,4.94186 4.37796,7.91236 3.01193,4.38905 4.39079,5.53025 7.35983,6.09131 6.00035,1.13389 9.13778,0.93586 9.13778,-0.57678 0,-2.22682 -7.74753,-13.19318 -13.85611,-19.61285 l -5.64123,-5.92851 h -6.25728 c -4.65569,0 -7.24785,0.57011 -10.12729,2.22735 -2.12851,1.22504 -4.14428,1.95307 -4.47951,1.61783 -0.33523,-0.33523 1.78884,-3.95241 4.72015,-8.038144 2.93129,-4.085738 6.87738,-10.871055 8.76907,-15.078478 1.89169,-4.207423 3.98651,-7.650358 4.65516,-7.650956 0.66864,-5.99e-4 2.9122,0.879779 4.98569,1.95638 3.64345,1.891773 11.85652,4.208569 19.36694,5.463134 l 3.63131,0.606586 2.76758,11.155995 c 3.24647,13.086383 5.52726,16.345433 10.71319,15.308213 5.38264,-1.07656 6.07607,-2.48502 4.80816,-9.76607 -2.32319,-13.341138 -3.48186,-15.68751 -11.80965,-23.915347 l -7.75906,-7.665934 -9.6828,-1.05927 c -15.23814,-1.667012 -14.06227,-2.00904 -27.21133,7.915226 -6.53987,4.935972 -12.24408,8.974495 -12.67602,8.974495 -1.28991,0 -0.91852,-1.63636 1.73129,-7.628201 3.60288,-8.146997 2.46315,-8.879885 -2.32662,-1.496099 -5.34988,8.247242 -5.61195,9.280137 -3.77481,14.877928 3.31292,10.094542 5.89778,36.193552 3.71805,37.540732 -2.78412,1.72073 -8.65879,-12.25887 -9.68985,-23.05835 -0.4025,-4.21593 -1.21887,-7.229703 -2.16166,-7.98021 -1.33347,-1.061504 -1.07108,-2.49476 2.19063,-11.965994 6.17383,-17.927362 8.69571,-22.376787 16.28297,-28.728615 8.39025,-7.024072 29.38351,-21.191935 32.59589,-21.998213 1.32251,-0.33194 9.4089,0.173486 17.96975,1.123168 18.05434,2.002825 19.71286,1.668223 21.51298,-4.34019 1.77396,-5.921101 0.32981,-7.647362 -8.79925,-10.518249 -10.80101,-3.396673 -23.93376,-5.925146 -27.2892,-5.25404 -4.62464,0.924954 -21.05416,8.221539 -41.13854,18.270221 -22.26947,11.141933 -22.62999,11.446337 -47.004447,39.688701 -9.466607,10.968828 -24.999627,27.679171 -34.517816,37.134081 -16.213566,16.10578 -17.651944,17.28132 -22.79005,18.62564 -3.016333,0.78919 -6.343097,1.76755 -7.39281,2.17415 -4.073212,1.57771 -0.309063,-1.70555 5.221909,-4.55479 3.719298,-1.91596 6.685046,-4.38791 8.646852,-7.20714 1.642268,-2.36003 9.953988,-13.0411 18.470491,-23.735703 8.516513,-10.694607 20.1648,-25.681535 25.885087,-33.304272 5.720296,-7.622746 13.843787,-17.494691 18.052211,-21.937656 6.829614,-7.210231 9.191413,-8.904228 21.983063,-15.767333 29.83121,-16.0053479 48.13781,-23.72152115 56.27919,-23.72152115 11.28368,0 36.84431,7.02087915 42.31254,11.62221315 4.421,3.720138 6.30416,8.000134 6.29365,14.304106 -0.01,5.978196 -3.1535,14.606606 -6.38798,17.533854 -1.04614,0.94677 -1.90208,2.217374 -1.90208,2.823566 0,0.606191 3.14314,3.499285 6.98475,6.429098 8.08292,6.164458 10.3087,8.958538 11.92849,14.974162 3.06146,11.369678 -5.28916,22.013818 -17.31704,22.073219 -5.62264,0.02782 -6.08788,0.941275 -4.23538,8.316296 2.21076,8.801381 2.06833,12.671141 -0.61468,16.699421 -3.35273,5.03381 -8.72945,7.28321 -18.44066,7.71481 -7.9732,0.35434 -8.25131,0.44924 -8.80825,3.00549 -0.31631,1.45179 -0.72047,3.12903 -0.89813,3.7272 -0.55683,1.87476 0.78747,2.88334 7.71122,5.78543 7.76952,3.25659 12.10913,7.60183 13.78722,13.80509 1.74155,6.43785 0.61117,14.8495 -2.81626,20.95714 -6.05494,10.78978 -15.8849,12.74004 -34.51873,6.84848 -16.44367,-5.19909 -31.33789,-4.18721 -48.16094,3.27193 -18.391173,8.15443 -16.454052,7.88137 -57.051882,8.042 -31.057192,0.12289 -36.722068,-0.0799 -39.327604,-1.40781 z M 215.06801,70.232601 c 0.1555,-2.020578 -1.31031,-5.742431 -4.51633,-11.467411 l -4.74655,-8.475912 -8.94506,-0.589518 c -4.91977,-0.324236 -13.34994,-1.392247 -18.7337,-2.373357 -7.51348,-1.369221 -10.35261,-1.526882 -12.21495,-0.678318 -4.27328,1.947092 -2.64004,2.828801 6.43298,3.47284 4.8726,0.345876 10.14497,1.115009 11.71638,1.709184 1.57141,0.594176 7.64525,5.794154 13.49742,11.55551 9.71693,9.566134 10.9284,10.447569 13.95994,10.156836 2.89049,-0.277203 3.3494,-0.705087 3.54987,-3.309854 z"
       id="path31730" />
  </g>
</svg>
