<?xml version="1.0" encoding="UTF-8" standalone="no"?>
<!-- Created with Inkscape (http://www.inkscape.org/) -->

<svg
   version="1.1"
   id="svg31083"
   width="401"
   height="281"
   viewBox="0 0 401 281"
   xmlns="http://www.w3.org/2000/svg"
   xmlns:svg="http://www.w3.org/2000/svg">
  <g
     id="hand-right">
    <path
       fill="#9db447"
       d="M 21.58617,174.98424 C 13.333267,172.88845 7.2772469,167.95823 3.0527725,159.89615 -0.18323823,153.72047 -0.69661204,148.89393 0.80811607,138.79274 2.9199352,124.61618 6.8612931,118.73171 21.91955,107.27326 26.396518,103.86656 35.161441,96.429315 41.397162,90.746067 75.013695,60.107853 98.891604,42.455325 122.65443,30.673957 c 7.90382,-3.918632 11.96738,-5.268478 19.46994,-6.467585 7.32949,-1.171447 10.24934,-2.122625 12.86489,-4.190917 8.02615,-6.346796 13.91833,-10.4379185 18.24813,-12.6702413 5.67762,-2.9272186 24.41026,-6.35501297 38.81427,-7.10243625 9.72998,-0.50488829 10.81278,-0.37094027 14.98277,1.85345925 6.29081,3.3557027 10.9945,10.4774373 10.96544,16.6024663 -0.0409,8.605116 -5.84032,16.773381 -13.21285,18.609605 -1.51077,0.376275 -2.74685,0.928923 -2.74685,1.228107 0,0.299184 1.859,2.132081 4.13108,4.0731 4.98826,4.261405 7.80493,10.054002 7.82947,16.101616 0.0313,7.701536 -6.05009,15.324236 -13.20911,16.557049 -4.15869,0.71614 -4.42552,1.513528 -2.24742,6.716262 3.78464,9.040178 0.50559,19.278688 -7.4955,23.403968 -3.65282,1.88336 -5.56243,2.2265 -10.2345,1.83906 -7.46833,-0.61931 -12.47672,-3.59997 -21.81625,-12.983581 l -7.39978,-7.434686 -9.48909,-1.138945 c -5.219,-0.62642 -11.38505,-1.614903 -13.70234,-2.196622 -3.56939,-0.89603 -4.70197,-0.772804 -7.4112,0.80638 -1.75887,1.025228 -3.35997,2.349167 -3.558,2.942091 -0.20484,0.613291 3.29195,2.040907 8.11127,3.311551 9.09564,2.398105 12.50807,4.351285 25.26832,14.462872 9.06133,7.18045 12.26784,12.01724 12.26784,18.50519 0,4.62316 -1.90829,9.83049 -4.34011,11.84329 -2.35994,1.95332 -2.12607,2.51951 2.30728,5.58581 4.15665,2.87492 8.02985,9.41749 8.02036,13.54791 -0.0178,7.72834 -5.36294,15.8494 -12.48007,18.96116 -3.92358,1.71547 -17.44725,2.15183 -65.45232,2.11186 -8.25892,-0.007 -14.087282,-1.42432 -25.542133,-6.21177 -2.730361,-1.14113 -3.614065,-1.04354 -7.491387,0.82728 -7.625144,3.67917 -17.4055,5.28398 -34.860853,5.72019 -11.592792,0.28968 -18.016992,0.0218 -21.659557,-0.90321 z m 116.96819,-42.11096 c 2.88742,-1.10584 1.64434,-2.20166 -5.00135,-4.40887 -7.61939,-2.5306 -9.80709,-1.76163 -7.02863,2.47054 1.37084,2.08807 2.45577,2.54343 6.05991,2.54343 2.41455,0 5.10109,-0.27229 5.97007,-0.6051 z"
       id="path31159" />
    <path
       fill="#5d5e5e"
       d="M 21.486774,174.9619 C 15.787316,173.51767 10.598983,170.30613 7.3923456,166.23753 4.4332225,162.48297 1.2939565,153.89893 1.2939565,149.56202 v -3.7805 l 19.7273205,-1.15267 c 21.933355,-1.28157 34.761417,-3.16609 46.696316,-6.85996 18.514425,-5.73025 28.188663,-12.41548 37.225087,-25.72378 4.30707,-6.3432 5.08015,-7.00653 8.49461,-7.28866 5.16567,-0.42684 28.28589,7.45162 42.10675,14.34831 7.9593,3.97174 11.20497,5.14566 11.98622,4.33528 1.18673,-1.23097 -9.44486,-11.61877 -17.25046,-16.85488 -4.15909,-2.78997 -32.72591,-12.982645 -36.38626,-12.982645 -0.97183,0 -5.82229,2.032712 -10.77878,4.517148 -4.956503,2.484437 -11.240289,5.393807 -13.963967,6.465287 -8.644992,3.40086 -5.868703,-0.0621 8.782063,-10.954372 l 13.734204,-10.210804 4.74455,0.605335 c 15.60505,1.990983 13.60868,2.334633 20.06461,-3.453868 l 5.83097,-5.228145 14.14607,-0.195202 c 7.78032,-0.107366 15.49654,-0.519074 17.14713,-0.914932 2.72732,-0.654064 3.62455,-0.124442 9.83538,5.805677 7.58601,7.243143 15.07484,12.56698 17.67746,12.56698 2.45525,0 3.84555,-2.152839 2.93524,-4.545142 -0.9085,-2.387527 -17.0129,-17.758508 -22.79801,-21.759742 -4.59184,-3.175923 -13.15235,-4.905031 -32.92014,-6.64943 -9.63571,-0.850303 -13.96639,-0.865177 -16.29223,-0.05603 -1.74234,0.606193 -11.34548,5.814181 -21.34031,11.573303 -9.99483,5.759171 -18.697473,10.471173 -19.339215,10.471173 -2.219389,0 -1.142976,-1.905977 4.576588,-8.103653 3.158869,-3.422925 4.951017,-5.927678 3.982548,-5.566113 -0.968463,0.361554 -8.384937,5.535727 -16.481049,11.498146 -27.694611,20.39583 -45.602903,32.227159 -57.670829,38.100959 -7.806248,3.79952 -14.005089,7.63282 -17.775396,10.99212 -3.1840475,2.83695 -6.0308747,4.91687 -6.3262851,4.62203 -0.93923617,-0.93739 3.5336037,-9.85534 7.1556406,-14.2669 1.9207235,-2.33941 7.4847685,-7.30978 12.3645435,-11.04528 4.879774,-3.7355 13.974908,-11.441749 20.211408,-17.124997 33.633154,-30.649508 57.496909,-48.29126 81.258696,-60.07211 7.90382,-3.918632 11.96738,-5.268478 19.46994,-6.467585 7.32949,-1.171447 10.24934,-2.122625 12.86489,-4.190917 8.02615,-6.346796 13.91833,-10.4379185 18.24813,-12.6702413 5.67762,-2.9272186 24.41026,-6.35501297 38.81427,-7.10243625 9.72998,-0.50488829 10.81278,-0.37094027 14.98277,1.85345925 6.29081,3.3557027 10.9945,10.4774373 10.96544,16.6024663 -0.0409,8.605116 -5.84032,16.773381 -13.21285,18.609605 -1.51077,0.376275 -2.74685,0.928923 -2.74685,1.228107 0,0.299184 1.859,2.132081 4.13108,4.0731 4.98826,4.261405 7.80493,10.054002 7.82947,16.101616 0.0313,7.701536 -6.05009,15.324236 -13.20911,16.557049 -4.15869,0.71614 -4.42552,1.513528 -2.24742,6.716262 3.78464,9.040178 0.50559,19.278692 -7.4955,23.403972 -3.65282,1.88336 -5.56243,2.2265 -10.2345,1.83906 -7.46833,-0.61931 -12.47672,-3.59997 -21.81625,-12.983585 l -7.39978,-7.434686 -9.48909,-1.138945 c -5.219,-0.62642 -11.38505,-1.614903 -13.70234,-2.196622 -3.56939,-0.89603 -4.70197,-0.772804 -7.4112,0.80638 -1.75887,1.025228 -3.35997,2.349167 -3.558,2.942091 -0.20484,0.613291 3.29195,2.040907 8.11127,3.311551 9.09564,2.398105 12.50807,4.351285 25.26832,14.462876 9.06133,7.18045 12.26784,12.01724 12.26784,18.50519 0,4.62316 -1.90829,9.83049 -4.34011,11.84329 -2.35994,1.95332 -2.12607,2.51951 2.30728,5.58581 4.15665,2.87492 8.02985,9.41749 8.02036,13.54791 -0.0178,7.72834 -5.36294,15.8494 -12.48007,18.96116 -3.92358,1.71547 -17.44725,2.15183 -65.45232,2.11186 -8.25892,-0.007 -14.087282,-1.42432 -25.542133,-6.21177 -2.730361,-1.14113 -3.614065,-1.04354 -7.491387,0.82728 -7.625144,3.67917 -17.4055,5.28398 -34.860853,5.72019 -11.713124,0.29269 -18.007936,0.0249 -21.758953,-0.92555 z M 138.55436,132.87328 c 2.88742,-1.10584 1.64434,-2.20166 -5.00135,-4.40887 -7.61939,-2.5306 -9.80709,-1.76163 -7.02863,2.47054 1.37084,2.08807 2.45577,2.54343 6.05991,2.54343 2.41455,0 5.10109,-0.27229 5.97007,-0.6051 z m 78.55022,-67.183872 c 0.49177,0 1.60798,-1.087325 2.48045,-2.416278 1.43278,-2.182426 1.43779,-2.702926 0.0517,-5.377969 -1.15905,-2.236976 -3.35523,-3.718145 -8.97519,-6.053166 -12.33641,-5.125604 -23.81833,-9.175337 -28.57549,-10.078719 -4.21064,-0.799597 -21.87732,0.182356 -29.9489,1.664622 -2.93544,0.539072 -3.16966,0.759675 -1.49828,1.411197 1.08958,0.424738 4.46501,0.803778 7.50094,0.842308 10.52926,0.133654 22.36113,2.094978 27.45775,4.551561 2.75538,1.328105 8.26403,5.148632 12.24144,8.49006 6.95342,5.841596 13.10752,8.497079 17.04114,7.35321 0.73165,-0.212758 1.73263,-0.386826 2.2244,-0.386826 z m 0.37819,-37.751747 c 7.00406,-3.092163 8.45557,-8.157344 3.30318,-11.526715 -2.14227,-1.40092 -3.97063,-1.361063 -19.781,0.431213 -19.60105,2.221989 -22.21602,2.694931 -21.47924,3.884726 0.28482,0.459949 2.66299,1.128576 5.28482,1.485838 2.62183,0.357262 8.58757,2.412437 13.2572,4.567056 9.36751,4.322272 11.90466,4.473583 19.41504,1.157882 z"
       id="path31155" />
    <path
       fill="#4f7536"
       d="M 21.987668,174.31914 C 16.2517,172.88112 13.001837,170.90272 8.8606256,166.32786 4.0908831,161.05867 1.344001,155.05874 1.3158933,149.84815 l -0.021937,-4.06663 19.7273207,-1.15267 c 21.933355,-1.28157 34.761417,-3.16609 46.696316,-6.85996 18.514425,-5.73025 28.188663,-12.41548 37.225087,-25.72378 4.30707,-6.3432 5.08015,-7.00653 8.49461,-7.28866 5.16567,-0.42684 28.28589,7.45162 42.10675,14.34831 7.9593,3.97174 11.20497,5.14566 11.98622,4.33528 1.18673,-1.23097 -9.44486,-11.61877 -17.25046,-16.85488 -4.15909,-2.78997 -32.72591,-12.982645 -36.38626,-12.982645 -0.97183,0 -5.82229,2.032712 -10.77878,4.517148 -4.956503,2.484437 -11.240289,5.393807 -13.963967,6.465287 -8.644992,3.40086 -5.868703,-0.0621 8.782063,-10.954372 l 13.734204,-10.210804 4.74455,0.605335 c 15.60505,1.990983 13.60868,2.334633 20.06461,-3.453868 l 5.83097,-5.228145 14.14607,-0.195202 c 7.78032,-0.107366 15.49654,-0.519074 17.14713,-0.914932 2.72732,-0.654064 3.62455,-0.124442 9.83538,5.805677 7.58601,7.243143 15.07484,12.56698 17.67746,12.56698 2.45525,0 3.84555,-2.152839 2.93524,-4.545142 -0.9085,-2.387527 -17.0129,-17.758508 -22.79801,-21.759742 -4.59184,-3.175923 -13.15235,-4.905031 -32.92014,-6.64943 -9.63571,-0.850303 -13.96639,-0.865177 -16.29223,-0.05603 -1.74234,0.606193 -11.34548,5.814181 -21.34031,11.573303 -9.99483,5.759171 -18.697473,10.471173 -19.339215,10.471173 -2.219389,0 -1.142976,-1.905977 4.576588,-8.103653 3.158869,-3.422925 4.951017,-5.927678 3.982548,-5.566113 -0.968463,0.361554 -8.384937,5.535727 -16.481049,11.498146 -27.694611,20.39583 -45.602903,32.227159 -57.670829,38.100959 -7.810217,3.80146 -14.004762,7.63253 -17.779962,10.99619 -5.5606262,4.95445 -5.7675244,5.04683 -5.1421394,2.29616 1.5224907,-6.69647 10.5575344,-16.95702 21.4238234,-24.32974 1.92279,-1.3046 8.215555,-6.722578 13.983924,-12.039947 12.813039,-11.811252 39.179567,-34.28216 47.760732,-40.704149 7.839657,-5.867056 27.110649,-17.584352 37.938179,-23.067449 6.19298,-3.136148 10.49622,-4.508235 17.91108,-5.710938 9.50111,-1.541098 9.97489,-1.746568 17.88348,-7.755796 4.46809,-3.395016 10.08663,-7.3193414 12.48565,-8.7207219 5.53762,-3.2348002 23.17195,-6.5573541 38.98957,-7.3461785 11.3309,-0.56507196 11.78038,-0.5073666 16.20479,2.0804406 5.91051,3.4570084 9.598,9.5829068 9.598,15.9448228 0,8.110444 -5.27031,15.596995 -12.02167,17.076939 -4.51702,0.990163 -4.52364,2.310108 -0.0309,6.148236 5.98835,5.115774 8.36756,10.319276 7.86826,17.20844 -0.60954,8.410349 -5.39936,13.690243 -14.04477,15.481756 -3.09562,0.641473 -3.47574,2.624201 -1.24857,6.512596 2.07181,3.61715 1.88093,12.771513 -0.35369,16.962795 -2.54913,4.781184 -8.35603,7.922674 -14.68268,7.943234 -7.31122,0.0237 -14.01831,-3.71044 -23.19074,-12.911528 l -7.72006,-7.744162 -7.49138,-0.69082 c -4.12027,-0.379947 -10.33174,-1.337018 -13.80326,-2.126809 -6.23263,-1.417956 -6.36839,-1.402933 -10.81277,1.196555 -5.49305,3.212839 -4.78854,4.237379 4.63899,6.746319 3.5709,0.950332 8.29047,2.520912 10.48795,3.490185 6.35667,2.803842 23.87968,17.27129 25.79295,21.29531 3.06263,6.44139 1.73514,15.89884 -2.7535,19.6168 -2.32054,1.9221 -1.9949,2.61261 2.87993,6.1066 2.44424,1.75188 5.14114,4.65133 5.99311,6.44321 4.06181,8.54287 -0.26028,19.70146 -9.43833,24.36746 -5.37295,2.73155 -10.67086,3.22298 -22.03749,2.04419 -7.69388,-0.7979 -15.00478,-0.77025 -27.9051,0.10555 -19.89438,1.35064 -28.003858,0.35723 -38.347196,-4.69749 l -5.620359,-2.74663 -4.735496,2.13377 c -9.506811,4.28369 -15.968632,5.35048 -34.701056,5.72886 -9.888632,0.19975 -19.6795,-0.0631 -21.757485,-0.58401 z M 139.69371,133.04705 c 1.33254,-0.98158 1.61802,-1.75388 0.91287,-2.46953 -1.1463,-1.16334 -12.02381,-5.07431 -14.11311,-5.07431 -2.29408,0 -1.62292,5.67188 0.87805,7.4202 2.78197,1.94476 9.75494,2.01472 12.32219,0.12364 z m 77.41087,-67.357642 c 0.49177,0 1.60798,-1.087325 2.48045,-2.416278 1.43278,-2.182426 1.43779,-2.702926 0.0517,-5.377969 -1.15905,-2.236976 -3.35523,-3.718145 -8.97519,-6.053166 -12.33641,-5.125604 -23.81833,-9.175337 -28.57549,-10.078719 -4.21064,-0.799597 -21.87732,0.182356 -29.9489,1.664622 -2.93544,0.539072 -3.16966,0.759675 -1.49828,1.411197 1.08958,0.424738 4.46501,0.803778 7.50094,0.842308 10.52926,0.133654 22.36113,2.094978 27.45775,4.551561 2.75538,1.328105 8.26403,5.148632 12.24144,8.49006 6.95342,5.841596 13.10752,8.497079 17.04114,7.35321 0.73165,-0.212758 1.73263,-0.386826 2.2244,-0.386826 z m 0.37819,-37.751747 c 7.00406,-3.092163 8.45557,-8.157344 3.30318,-11.526715 -2.14227,-1.40092 -3.97063,-1.361063 -19.781,0.431213 -19.60105,2.221989 -22.21602,2.694931 -21.47924,3.884726 0.28482,0.459949 2.66299,1.128576 5.28482,1.485838 2.62183,0.357262 8.58757,2.412437 13.2572,4.567056 9.36751,4.322272 11.90466,4.473583 19.41504,1.157882 z"
       id="path31153" />
    <path
       fill="#364d26"
       d="m 21.987668,174.31914 c -2.077985,-0.52096 -4.999626,-1.58403 -6.492536,-2.36239 -3.065631,-1.59832 -8.8122508,-7.30386 -8.0862485,-8.02845 0.2615833,-0.26106 2.7009725,0.6744 5.4208655,2.07881 4.689142,2.42125 5.514305,2.52359 15.932629,1.97612 11.519646,-0.60533 27.809798,-3.87405 37.956363,-7.61618 7.654061,-2.82287 13.969521,-9.3193 24.201408,-24.89487 16.313841,-24.83388 18.533821,-27.99468 20.339311,-28.95905 3.57137,-1.9076 30.62898,6.36491 45.92712,14.04162 8.79143,4.41158 10.9156,4.81699 10.9156,2.0833 0,-2.60917 -16.65561,-16.59957 -23.18381,-19.47396 -2.9059,-1.27948 -11.06179,-4.200175 -18.12419,-6.490425 l -12.84073,-4.164097 -12.62999,5.896962 c -6.946486,3.24334 -13.416577,6.16679 -14.377972,6.49657 -4.162105,1.4277 -0.989203,-1.78174 9.489091,-9.598404 C 113.67594,82.442885 111.36891,83.365184 121.57398,85.254482 l 8.75846,1.621473 5.65009,-5.498234 5.65008,-5.498244 17.97933,-0.499346 17.97933,-0.499345 7.65871,7.298948 c 8.5595,8.157426 12.67736,10.692186 16.62977,10.236494 4.37065,-0.503921 4.0066,-3.944581 -0.98976,-9.35439 -7.4149,-8.028457 -21.50263,-19.209342 -25.58626,-20.306795 -5.64939,-1.518244 -28.60191,-4.043912 -36.74992,-4.043912 h -7.08644 l -15.89326,9.154602 c -22.804358,13.13544 -23.168729,13.32492 -24.009552,12.485742 -0.419967,-0.419135 2.346053,-3.889571 6.146703,-7.712072 4.116519,-4.140192 6.266549,-6.949995 5.318059,-6.949995 -0.87571,0 -10.078066,6.208493 -20.449663,13.796651 -28.978385,21.201401 -45.810315,32.290171 -57.495164,37.877461 -5.868416,2.80607 -13.172518,7.13641 -16.2313398,9.62298 -4.6379291,3.77026 -5.5614933,4.19758 -5.5614933,2.57327 0,-3.30602 9.1339561,-14.16825 16.3642181,-19.46057 3.78132,-2.7678 10.748312,-8.58331 15.4822,-12.923349 12.373964,-11.344474 43.358703,-37.77705 50.820964,-43.354548 7.901736,-5.905965 27.159058,-17.615642 37.991338,-23.101144 6.19298,-3.136148 10.49622,-4.508235 17.91108,-5.710938 9.50111,-1.541098 9.97489,-1.746568 17.88348,-7.755796 4.46809,-3.395016 10.08663,-7.3193414 12.48565,-8.7207219 5.53762,-3.2348002 23.17195,-6.5573541 38.98957,-7.3461785 11.3309,-0.56507196 11.78038,-0.5073666 16.20479,2.0804406 5.91051,3.4570084 9.598,9.5829068 9.598,15.9448228 0,8.110444 -5.27031,15.596995 -12.02167,17.076939 -4.51702,0.990163 -4.52364,2.310108 -0.0309,6.148236 5.98835,5.115774 8.36756,10.319276 7.86826,17.20844 -0.60954,8.410349 -5.39936,13.690243 -14.04477,15.481756 -3.09562,0.641473 -3.47574,2.624201 -1.24857,6.512596 2.07181,3.61715 1.88093,12.771513 -0.35369,16.962795 -2.54913,4.78118 -8.35603,7.92267 -14.68268,7.94323 -7.31122,0.0237 -14.01831,-3.71044 -23.19074,-12.911524 l -7.72006,-7.744162 -7.49138,-0.69082 c -4.12027,-0.379947 -10.33174,-1.337018 -13.80326,-2.126809 -6.23263,-1.417956 -6.36839,-1.402933 -10.81277,1.196555 -5.49305,3.212839 -4.78854,4.237379 4.63899,6.746319 3.5709,0.950332 8.29047,2.520912 10.48795,3.490185 6.35667,2.803842 23.87968,17.271286 25.79295,21.295306 3.06263,6.44139 1.73514,15.89884 -2.7535,19.6168 -2.32054,1.9221 -1.9949,2.61261 2.87993,6.1066 2.44424,1.75188 5.14114,4.65133 5.99311,6.44321 4.06181,8.54287 -0.26028,19.70146 -9.43833,24.36746 -5.37295,2.73155 -10.67086,3.22298 -22.03749,2.04419 -7.69388,-0.7979 -15.00478,-0.77025 -27.9051,0.10555 -19.89438,1.35064 -28.003858,0.35723 -38.347196,-4.69749 l -5.620359,-2.74663 -4.735496,2.13377 c -9.506811,4.28369 -15.968632,5.35048 -34.701056,5.72886 -9.888632,0.19975 -19.6795,-0.0631 -21.757485,-0.58401 z M 123.75953,161.69953 c 11.04456,-2.25153 15.12996,-2.60303 28.68465,-2.46804 16.46973,0.164 19.65341,-0.45867 19.65341,-3.84392 0,-1.4051 -1.89109,-2.89666 -6.8019,-5.36487 -10.65257,-5.35404 -17.02239,-6.88802 -23.57913,-5.67831 -6.94866,1.28202 -14.03159,-0.61013 -19.1835,-5.12471 -3.43263,-3.00799 -3.56988,-3.3776 -3.14649,-8.47316 0.24348,-2.93039 0.10078,-5.53888 -0.31712,-5.79666 -0.4179,-0.25776 -4.56075,5.25668 -9.20634,12.25433 -4.6456,6.99764 -11.196867,15.70769 -14.558372,19.35566 -3.361506,3.64797 -6.111834,6.87327 -6.111834,7.16732 0,0.93865 7.26313,1.44341 14.589596,1.01392 3.90401,-0.22885 12.89367,-1.59755 19.97703,-3.04156 z m 15.93418,-28.65248 c 1.33254,-0.98158 1.61802,-1.75388 0.91287,-2.46953 -1.1463,-1.16334 -12.02381,-5.07431 -14.11311,-5.07431 -2.29408,0 -1.62292,5.67188 0.87805,7.4202 2.78197,1.94476 9.75494,2.01472 12.32219,0.12364 z m 79.34991,-68.354539 c 5.21701,-5.206801 1.03106,-9.856696 -14.20865,-15.783456 -21.01773,-8.173857 -22.15818,-8.437381 -33.73623,-7.795388 -12.31581,0.682899 -25.97015,2.580173 -25.97015,3.608552 0,0.397193 5.74278,1.012258 12.76172,1.366805 14.98368,0.756864 23.28166,2.132641 28.15952,4.668766 1.94021,1.00877 7.10474,4.760281 11.47674,8.336688 4.37198,3.576407 9.09155,6.680424 10.48794,6.897827 6.23617,0.970888 9.0911,0.634425 11.02911,-1.299794 z m -3.47887,-35.506877 c 3.59187,-1.435109 6.96772,-3.424332 7.50189,-4.420498 1.7832,-3.325408 1.11775,-6.784999 -1.65371,-8.59737 -2.49472,-1.631401 -3.58933,-1.608027 -22.06308,0.471128 -10.69098,1.203232 -19.84787,2.440423 -20.34865,2.749314 -1.96992,1.215099 -0.66731,2.027693 4.96204,3.095414 3.2299,0.612616 9.85977,2.913434 14.73306,5.11293 4.87329,2.199496 9.19291,4.043923 9.59916,4.098726 0.40624,0.0548 3.67743,-1.074537 7.26929,-2.509644 z"
       id="path31151" />
    <path
       fill="#070908"
       d="m 27.763526,174.65265 c -5.93682,-0.78587 -13.166523,-3.28298 -14.836226,-5.12437 -1.661763,-1.83263 -1.574604,-1.84409 3.569882,-0.46937 11.937762,3.19003 48.704364,-3.85105 58.316184,-11.16799 4.843052,-3.68675 15.200494,-17.32806 23.907205,-31.48708 8.512229,-13.84277 12.777849,-18.84477 16.070499,-18.84477 3.83099,0 32.37648,9.71952 42.18677,14.36428 9.21933,4.36496 11.46446,4.73726 12.48957,2.07106 0.75905,-1.97416 -2.31484,-5.42988 -12.17193,-13.68397 -8.64686,-7.24066 -8.95462,-7.39635 -25.92108,-13.112408 L 114.20407,91.4133 102.11713,97.079471 C 95.469329,100.19587 89.820113,102.53597 89.563328,102.27969 89.179979,101.8971 107.914,87.612093 111.80338,85.321275 c 0.62434,-0.367726 5.03292,0.05303 9.79686,0.934959 l 8.66171,1.603568 2.68877,-2.340992 c 1.47883,-1.287552 4.26197,-3.759148 6.18476,-5.492452 l 3.49599,-3.15145 17.27326,-0.46246 17.27327,-0.462451 5.87057,5.733113 c 8.97078,8.760728 14.31563,12.098707 18.78132,11.729377 3.30444,-0.27329 3.76751,-0.644185 4.06522,-3.256084 0.29718,-2.607114 -0.89862,-4.135905 -10.35024,-13.232378 -5.87743,-5.656591 -12.58574,-11.395715 -14.90735,-12.753598 -5.00924,-2.92987 -18.27032,-5.179527 -36.01942,-6.110478 -13.74517,-0.720936 -12.19792,-1.22712 -32.45161,10.61656 -6.31774,3.6944 -12.978017,7.476785 -14.800632,8.405295 -3.185078,1.622609 -3.275564,1.616827 -2.328762,-0.148817 0.541787,-1.010365 3.718575,-4.358203 7.059534,-7.43964 6.68172,-6.162716 7.72611,-8.271103 3.32761,-6.717748 -2.72994,0.964099 -6.848463,3.823198 -31.713537,22.015675 C 51.842624,100.791 35.795842,111.15004 24.025792,116.86549 c -6.184773,3.00327 -13.155345,7.10754 -15.4901608,9.12059 -5.0348058,4.34093 -5.3655995,3.54105 -1.1576681,-2.79933 3.3357229,-5.02616 9.7373189,-11.05596 16.8895819,-15.90863 2.472158,-1.67732 7.865957,-6.22556 11.98622,-10.107223 7.99417,-7.531216 30.146333,-26.719284 43.677457,-37.833146 9.96845,-8.187642 30.154058,-20.949144 43.722058,-27.641437 7.9763,-3.934237 11.80844,-5.190957 19.02246,-6.23828 8.89691,-1.291642 9.16965,-1.414877 17.97933,-8.123773 4.91997,-3.74673 11.19896,-7.8420339 13.95333,-9.1006768 6.35982,-2.906201 28.22449,-6.5932304 39.94039,-6.7351307 7.8355,-0.094905 9.4792,0.1948594 12.8026,2.2569183 7.27662,4.5149062 10.7437,12.3883692 8.73449,19.8353852 -1.56201,5.789485 -5.37878,9.8763 -11.12649,11.913713 -2.7043,0.958604 -4.91692,2.124824 -4.91692,2.5916 0,0.466776 2.43465,3.165251 5.41033,5.996608 8.2046,7.806688 9.55434,15.511374 4.14619,23.667633 -2.60374,3.926816 -7.80639,6.901167 -12.07134,6.901167 -3.02286,0 -3.03396,0.875066 -0.10747,8.473622 2.14578,5.571516 1.98345,9.336077 -0.62398,14.470185 -2.89575,5.701825 -7.27856,8.244815 -14.20982,8.244815 -7.6065,0 -13.08987,-3.06638 -22.93382,-12.824928 -8.26189,-8.190234 -8.5848,-8.394567 -13.25555,-8.388108 -2.63305,0.004 -8.77591,-0.756215 -13.6508,-1.688553 l -8.86343,-1.695173 -4.62107,2.436226 c -2.54158,1.339929 -4.62106,3.08052 -4.62106,3.867999 0,0.958586 3.30116,2.375695 9.98852,4.287832 10.62702,3.038621 12.30037,3.981346 25.29832,14.252375 13.37296,10.56735 15.61242,19.13139 7.51443,28.73646 l -2.59031,3.07239 3.35428,2.52114 c 5.74063,4.31477 7.67597,6.62494 8.72419,10.41381 1.3715,4.95747 -0.701,12.71809 -4.463,16.71202 -5.60643,5.95205 -6.59326,6.09582 -43.83102,6.38572 -36.80967,0.28658 -40.62773,-0.10755 -50.779649,-5.24185 l -4.975101,-2.51615 -4.095471,2.04138 c -10.811141,5.38877 -35.440227,8.4926 -51.022313,6.42996 z m 96.389184,-11.3529 c 14.92241,-2.78415 17.70907,-3.01927 29.46612,-2.48608 11.16952,0.50654 13.47388,0.34418 16.48106,-1.16121 7.5739,-3.79153 3.87284,-8.41281 -11.4868,-14.34286 -7.42701,-2.86741 -8.5715,-3.03833 -16.22109,-2.42249 -7.09555,0.57124 -8.88079,0.3754 -12.94857,-1.42045 -7.50913,-3.31514 -8.28728,-4.40734 -8.28728,-11.63192 0,-5.68411 -0.20478,-6.32532 -2.0201,-6.32532 -1.44367,0 -3.63052,2.48906 -7.66374,8.72284 -6.59558,10.19417 -16.745767,23.4263 -21.172498,27.60117 -5.640156,5.31927 -4.35806,6.24693 8.881609,6.42628 5.690939,0.0771 13.924159,-0.89884 24.971289,-2.95996 z m 14.83373,-28.922 c 1.97437,-0.68692 3.1456,-1.76999 3.1456,-2.90881 0,-1.38162 -1.90026,-2.44602 -7.96655,-4.46232 -4.38159,-1.45635 -8.42694,-2.36392 -8.98967,-2.01682 -1.21922,0.75205 -1.33146,5.46313 -0.17354,7.28475 1.73488,2.7293 9.03076,3.82659 13.98416,2.1032 z m 80.602,-69.141481 c 5.35391,-5.343416 2.06562,-10.395818 -10.06533,-15.465207 -25.14574,-10.508132 -29.06824,-11.143039 -52.2273,-8.453662 -23.3054,2.706373 -24.40333,4.863528 -2.92784,5.75246 16.97974,0.702843 26.55825,2.019374 30.8654,4.242324 1.58437,0.817705 6.55787,4.449698 11.05222,8.071085 8.63539,6.95809 10.95783,8.076329 17.06003,8.214249 2.76842,0.06261 4.45248,-0.574402 6.24282,-2.361249 z m -4.82741,-34.5637 c 10.38151,-3.805831 13.378,-8.894439 8.25088,-14.011531 -3.41744,-3.410751 -4.14862,-3.434007 -25.94303,-0.825171 -23.33031,2.792688 -28.00943,5.256266 -14.34707,7.553792 3.84948,0.647349 11.01216,2.991757 15.91704,5.209796 4.90489,2.21804 9.23823,4.068701 9.62965,4.112581 0.39142,0.04388 3.31306,-0.873881 6.49253,-2.039467 z"
       id="path31149" />
  </g>
</svg>
