<?xml version="1.0" encoding="UTF-8" standalone="no"?>

<svg
   version="1.1"
   width="401"
   height="481"
   viewBox="0 0 401 481"
   xmlns="http://www.w3.org/2000/svg"
   xmlns:svg="http://www.w3.org/2000/svg">
  <g
     id="upperarm">
    <path
       fill="#9eb33c"
       d="m 176.9697,325.39868 c -7.01662,-1.87675 -17.31218,-7.0909 -24.72163,-12.52018 -11.39519,-8.34986 -33.11287,-32.35349 -51.93056,-57.39666 -5.242648,-6.97707 -9.057071,-11.20851 -9.607699,-10.6581 -0.502249,0.50206 -1.802999,4.45963 -2.89055,8.79461 -3.665441,14.61045 -4.953506,18.46001 -5.967186,17.83376 C 80.674076,270.72435 34.156593,177.97827 20.35343,148.83676 1.2351973,108.47395 -0.75745769,101.87418 0.1896854,82.053457 0.87817814,67.645465 2.7554603,60.213463 8.9192074,47.494009 19.647967,25.354239 35.476785,11.072101 56.919877,4.1836273 77.351927,-2.3800575 93.7686,-1.279862 112.44292,7.9046127 c 10.50853,5.1683423 22.04801,14.1070293 28.61497,22.1656623 1.98252,2.432849 18.23039,27.149012 36.10637,54.924806 17.87599,27.775799 37.97543,58.950699 44.66545,69.277559 6.69002,10.32687 12.16366,19.18168 12.16366,19.67738 0,0.49569 -4.72696,5.29521 -10.50436,10.66559 -5.7774,5.37037 -10.50436,10.33965 -10.50436,11.04282 0,1.85367 8.96816,16.81447 19.22436,32.07031 13.87039,20.6319 17.791,30.88208 17.791,46.51339 0,6.28455 -0.59751,10.59469 -2.07753,14.98637 -5.36277,15.91299 -19.61951,28.99008 -38.51927,35.33207 -8.60519,2.88756 -23.34698,3.26849 -32.43351,0.83811 z"
       id="path29804" />
    <path
       fill="#6f8a34"
       d="m 176.9697,325.39868 c -7.01662,-1.87675 -17.31218,-7.0909 -24.72163,-12.52018 -11.39519,-8.34986 -33.11287,-32.35349 -51.93056,-57.39666 -5.242648,-6.97707 -9.057071,-11.20851 -9.607699,-10.6581 -0.502249,0.50206 -1.802999,4.45963 -2.89055,8.79461 -3.665441,14.61045 -4.953506,18.46001 -5.967186,17.83376 C 80.674076,270.72435 34.156593,177.97827 20.35343,148.83676 1.2351973,108.47395 -0.75745769,101.87418 0.1896854,82.053457 0.87817814,67.645465 2.7554603,60.213463 8.9192074,47.494009 19.647967,25.354239 35.476785,11.072101 56.919877,4.1836273 77.351927,-2.3800575 93.7686,-1.279862 112.44292,7.9046127 c 10.50853,5.1683423 22.04801,14.1070293 28.61497,22.1656623 1.98252,2.432849 18.23039,27.149012 36.10637,54.924806 17.87599,27.775799 37.97543,58.950699 44.66545,69.277559 6.69002,10.32687 12.16366,19.18168 12.16366,19.67738 0,0.49569 -4.72696,5.29521 -10.50436,10.66559 -5.7774,5.37037 -10.50436,10.33965 -10.50436,11.04282 0,1.85367 8.96816,16.81447 19.22436,32.07031 13.87039,20.6319 17.791,30.88208 17.791,46.51339 0,6.28455 -0.59751,10.59469 -2.07753,14.98637 -5.36277,15.91299 -19.61951,28.99008 -38.51927,35.33207 -8.60519,2.88756 -23.34698,3.26849 -32.43351,0.83811 z m 38.38725,-41.42735 c 4.5719,-5.43129 4.63571,-12.73513 0.19692,-22.54317 -1.2625,-2.78967 -6.35411,-11.13394 -11.31469,-18.54283 -8.20374,-12.25272 -18.45597,-29.60878 -25.90812,-43.85998 -2.64647,-5.06101 -3.2763,-5.5994 -8.36427,-7.1499 -3.02625,-0.92222 -5.80958,-1.38438 -6.18516,-1.02704 -0.60025,0.5711 -6.82023,28.90959 -6.82023,31.07325 0,1.08476 14.8813,20.66367 25.89498,34.06929 9.12682,11.10897 27.84424,31.00991 29.16575,31.00991 0.43156,0 1.93223,-1.36329 3.33482,-3.02953 z M 143.90992,78.244888 C 132.35496,57.727162 115.18566,37.427625 103.6918,30.694379 98.419791,27.605966 90.902381,25.71223 87.401338,26.590594 c -3.513569,0.88151 -3.10677,1.628104 2.282137,4.188366 10.859115,5.159148 27.433415,20.087595 46.607285,41.979091 5.4131,6.180357 10.0705,11.237002 10.34975,11.237002 0.27925,0 -0.94951,-2.587574 -2.73059,-5.750165 z"
       id="path29802" />
    <path
       fill="#434e1e"
       d="m 183.21961,325.9397 c -17.67174,-3.10088 -32.9441,-13.05349 -51.56518,-33.60377 -9.01016,-9.94362 -27.84415,-33.01815 -35.576101,-43.58617 -2.31387,-3.16259 -4.608103,-5.75016 -5.098306,-5.75016 -0.993002,0 -2.16812,3.35091 -4.559052,13.00037 -3.113382,12.56515 -3.575524,14.0004 -4.508061,14.0004 -1.130289,0 -54.100541,-106.30171 -66.88782,-134.23174 C 2.9064069,109.29896 1.7340183,105.42147 1.145367,89.863591 0.36806243,69.319643 4.5079086,54.070187 15.394803,37.374671 28.05586,17.9584 43.177744,7.5904517 66.288765,2.4804615 c 26.60047,-5.8815272 56.174475,5.6551938 74.910785,29.2224465 2.96935,3.734964 11.40989,16.241114 18.75676,27.791444 7.34686,11.55033 26.78565,41.761988 43.19729,67.136998 16.41164,25.37503 29.85713,46.52563 29.87885,47.00135 0.0217,0.47572 -4.81778,5.45955 -10.75446,11.07518 l -10.79396,10.21026 3.48918,6.79023 c 1.91906,3.73464 8.38028,14.13922 14.35827,23.12131 16.08479,24.1678 20.11512,34.14866 20.0574,49.67082 -0.0675,18.16032 -9.77883,33.43811 -28.06356,44.14953 -10.64081,6.23352 -26.66011,9.29804 -38.10571,7.28967 z m 22.9111,-34.96407 c 3.49455,-1.79958 7.01347,-3.58185 7.81984,-3.9606 0.80635,-0.37875 2.53025,-2.67444 3.83088,-5.10154 4.4274,-8.26196 1.2414,-19.51028 -10.13883,-35.79571 -7.2169,-10.3276 -19.24395,-30.35732 -25.8914,-43.11932 l -5.46938,-10.5003 -6.37803,-1.73087 c -3.50791,-0.95199 -6.68843,-1.402 -7.06781,-1.00003 -1.04359,1.10568 -6.875,31.04362 -6.875,35.2956 0,3.7728 -3.52429,22.35578 -4.55641,24.02512 -1.05394,1.70465 -4.48285,0.91908 -11.57773,-2.65246 -3.89425,-1.96036 -7.28742,-3.35742 -7.54035,-3.10457 -0.77149,0.77119 19.49194,24.59781 29.12156,34.24239 17.60392,17.63124 29.55557,21.21287 44.72266,13.40229 z M 151.95932,90.843509 c 0,-3.853161 -21.80649,-36.936107 -31.05714,-47.117228 -12.94749,-14.24981 -27.262863,-21.232419 -36.405758,-17.757639 -3.624064,1.377336 -3.200248,2.55406 1.6133,4.479315 12.052362,4.820538 35.500608,26.136452 54.845028,49.85756 9.17227,11.247492 11.00457,13.002102 11.00457,10.537992 z"
       id="path29798" />
    <path
       fill="#2c2e11"
       d="m 177.68627,324.56639 c -7.50159,-2.15451 -18.64334,-7.83721 -25.42964,-12.97007 -11.69196,-8.84327 -38.79458,-39.37788 -55.328789,-62.33505 -2.557441,-3.55092 -5.139733,-6.13333 -5.993847,-5.99411 -1.03508,0.1687 -2.549938,4.34659 -4.882977,13.46698 -1.919486,7.50371 -3.799847,12.96447 -4.347644,12.62605 C 79.481571,267.98757 15.227077,137.03274 6.7599883,116.6207 -1.7857775,96.018987 -0.65103852,67.901603 9.5419769,47.686544 17.212876,32.473422 31.308657,17.183905 43.629951,10.711753 59.141919,2.5635909 78.701547,-0.65295906 93.953047,2.4361963 117.25444,7.1558373 135.80399,21.811965 152.92535,49.030623 c 4.65804,7.405102 24.56373,38.384778 44.23487,68.843717 27.03684,41.86406 35.5536,55.77571 34.89656,57.00163 -0.47803,0.89196 -5.18992,5.43221 -10.47085,10.08946 -6.29868,5.5548 -9.6017,9.17787 -9.6017,10.53207 0,2.42182 10.23677,19.74589 19.60206,33.17328 13.59393,19.49019 17.89851,31.52674 17.18499,48.05305 -0.40187,9.3081 -0.77137,10.89099 -4.12648,17.67696 -6.04376,12.22399 -17.44347,22.06317 -32.88187,28.38061 -5.25536,2.1505 -8.16066,2.61848 -17.78617,2.86492 -7.60377,0.19469 -13.12751,-0.17149 -16.29049,-1.07993 z m 22.79319,-29.39975 c 8.62431,-3.05036 16.01528,-8.51934 18.52946,-13.71091 4.34564,-8.97343 1.28248,-18.10145 -13.35291,-39.79078 -8.21302,-12.17152 -13.16932,-20.54613 -24.35466,-41.15184 l -4.8776,-8.98553 -6.12087,-1.41351 c -3.36646,-0.77743 -6.73258,-1.1779 -7.48023,-0.88992 -1.27822,0.49233 -2.40905,5.67327 -10.10039,46.27524 -1.1461,6.05017 -2.50322,11.54621 -3.01582,12.2134 -0.69783,0.90829 -3.44492,-0.0475 -10.93324,-3.80381 -5.50067,-2.75931 -10.47668,-4.8585 -11.05778,-4.66488 -1.43177,0.47708 16.66044,22.79085 29.05647,35.8364 11.14651,11.73055 18.47626,17.28851 26.41455,20.02948 6.63432,2.29073 10.93681,2.30482 17.29302,0.0567 z m -65.5272,-142.66963 c 3.87621,-5.77516 7.37523,-10.48912 7.7756,-10.47546 0.40036,0.0137 8.6062,2.02412 18.2352,4.46769 20.1266,5.10758 19.05369,5.36474 21.01723,-5.03762 l 1.21702,-6.44749 -13.01093,-20.25439 C 163.03036,103.60983 152.12324,86.395121 145.94833,76.494838 127.14736,46.351126 122.09203,39.974813 110.57546,31.878932 93.982779,20.214659 75.91403,18.913751 57.756524,28.076089 49.802483,32.089723 45.91531,34.97748 45.91531,36.872848 c 0,3.218739 15.656088,40.582078 24.574529,58.647264 11.673315,23.645428 23.033549,41.056338 32.512081,49.828618 6.54987,6.06182 22.38538,17.64858 24.12016,17.64858 0.43039,0 3.95397,-4.72513 7.83018,-10.5003 z"
       id="path29796" />
    <path
       fill="#030403"
       d="m 183.29467,324.90367 c -7.79948,-1.30169 -17.51523,-5.28063 -25.59641,-10.48261 -12.61565,-8.1209 -35.14982,-32.29921 -56.77846,-60.92116 -4.571919,-6.05017 -9.110473,-11.14035 -10.085688,-11.3115 -1.953911,-0.34292 -2.071149,-0.0263 -5.947788,16.06164 -1.292206,5.36265 -2.656683,9.75028 -3.032159,9.75028 -1.438437,0 -55.403023,-108.86599 -70.047821,-141.31165 C 5.224595,112.10676 3.1377589,105.34031 1.9623971,94.770221 -2.0830478,58.38933 19.743566,20.160977 51.62662,7.7855343 82.307263,-4.1231953 111.33988,2.2935052 135.0409,26.221505 c 4.85342,4.899903 10.98464,13.367262 21.06582,29.092428 7.82095,12.199518 28.09472,43.642798 45.05285,69.873957 16.95814,26.23116 30.83297,48.1601 30.83297,48.73097 0,0.57088 -4.72605,5.20976 -10.50234,10.30864 -5.77629,5.09888 -10.50325,10.02272 -10.50436,10.94186 -0.003,2.3574 8.59553,17.042 18.94294,32.35139 4.84076,7.16207 9.94284,15.27365 11.33796,18.02573 9.33266,18.41 9.49914,38.77671 0.43432,53.13077 -8.00239,12.67172 -25.20745,23.73854 -40.84951,26.27566 -7.26343,1.17813 -10.25305,1.16974 -17.55688,-0.0492 z m 22.7993,-31.02744 c 15.50888,-8.22482 19.0434,-17.70817 12.25319,-32.87611 -1.35423,-3.02509 -7.34197,-12.92537 -13.3061,-22.00063 -5.96411,-9.07526 -14.61029,-23.47568 -19.21371,-32.00092 l -8.36988,-15.50044 -4.99585,-1.66988 c -4.70782,-1.5736 -11.49856,-2.38219 -11.49856,-1.36916 0,0.25358 -1.54101,8.0163 -3.42446,17.25049 -1.88346,9.23419 -4.42016,22.08801 -5.63711,28.56404 -1.21695,6.47604 -2.66482,12.05397 -3.21749,12.3954 -0.55266,0.34143 -5.88005,-1.78373 -11.83863,-4.72258 -5.95859,-2.93885 -11.13406,-5.04322 -11.50104,-4.67638 -0.94069,0.94031 1.50618,4.45404 13.02743,18.70763 19.29603,23.87217 34.32409,37.17148 46.45605,41.112 5.38298,1.74841 14.51072,0.36915 21.26616,-3.21346 z m -65.3038,-102.39121 c 2.93572,-14.2932 5.7302,-26.39597 6.20994,-26.89503 0.51768,-0.53854 11.6772,1.86502 27.45167,5.91259 l 26.57941,6.81998 2.97548,-2.84959 c 1.63652,-1.56727 2.97549,-3.45353 2.97549,-4.19167 0,-0.73814 -2.99907,-5.9416 -6.66459,-11.56324 -3.66552,-5.62164 -10.1146,-15.84632 -14.33128,-22.72152 C 163.23009,98.893079 127.22658,44.434641 121.83236,38.958141 110.42918,27.381024 97.835348,21.098016 84.317598,20.242204 74.17934,19.600348 67.879406,20.989237 57.04779,26.254122 32.201243,38.331192 17.09275,66.567034 20.78851,94.018059 c 1.22741,9.116841 3.994522,16.230501 16.912519,43.478521 22.802055,48.09653 37.329444,76.79912 38.352919,75.77604 0.574098,-0.57388 2.04681,-5.03216 3.272678,-9.90729 1.530806,-6.08781 2.726222,-8.95962 3.816945,-9.1696 0.873442,-0.16814 12.324985,5.10032 25.447869,11.70769 13.12288,6.60737 24.53506,11.91346 25.36041,11.79132 1.12616,-0.16668 2.83254,-6.70683 6.83832,-26.20972 z"
       id="path29794" />
  </g>
</svg>
