<?xml version="1.0" standalone="no"?>
<!DOCTYPE svg PUBLIC "-//W3C//DTD SVG 20010904//EN"
 "http://www.w3.org/TR/2001/REC-SVG-20010904/DTD/svg10.dtd">
<svg version="1.0" xmlns="http://www.w3.org/2000/svg"
 width="1024.000000pt" height="1024.000000pt" viewBox="0 0 1024.000000 1024.000000"
 preserveAspectRatio="xMidYMid meet">
<metadata>
Created by potrace 1.14, written by Peter Selinger 2001-2017
</metadata>
<g transform="translate(0.000000,1024.000000) scale(0.100000,-0.100000)"
fill="#000000" stroke="none">
<path d="M8685 10168 c-16 -35 -29 -65 -29 -68 -2 -12 -83 -149 -114 -195 -19
-27 -57 -77 -85 -110 -52 -62 -197 -204 -209 -205 -4 0 -13 -6 -21 -14 -8 -8
-50 -37 -93 -65 -43 -28 -85 -56 -91 -61 -7 -6 -13 -8 -13 -6 0 3 -23 -8 -51
-25 -63 -37 -345 -158 -404 -173 -5 -2 -19 -7 -30 -11 -25 -10 -141 -53 -270
-99 -55 -20 -107 -40 -115 -43 -8 -3 -19 -7 -25 -9 -77 -21 -370 -165 -474
-232 l-63 -41 -49 24 c-27 14 -72 35 -101 46 -29 12 -64 26 -78 32 -14 5 -31
11 -39 13 -7 1 -36 12 -65 23 -42 17 -263 84 -316 96 -8 2 -35 8 -60 14 -86
19 -105 23 -127 24 -13 1 -23 3 -23 7 0 3 -10 5 -22 6 -13 0 -41 4 -64 8 -72
12 -159 22 -279 32 -171 14 -612 7 -699 -12 -12 -3 -39 -7 -61 -9 -52 -5 -108
-13 -171 -26 -28 -5 -64 -12 -80 -15 -16 -3 -45 -9 -64 -14 -19 -5 -46 -11
-60 -14 -14 -3 -50 -12 -80 -20 -30 -9 -66 -18 -80 -22 -14 -3 -34 -9 -45 -14
-11 -4 -54 -19 -95 -33 -109 -37 -206 -74 -268 -102 l-54 -25 -56 32 c-85 48
-238 121 -317 152 -38 16 -83 34 -100 41 -26 11 -140 52 -240 87 -16 6 -43 16
-60 23 -16 7 -41 16 -55 20 -14 3 -34 10 -45 14 -11 5 -51 21 -90 36 -107 41
-150 59 -155 65 -3 3 -10 6 -17 7 -34 7 -255 121 -261 136 -2 4 -8 7 -13 7
-10 0 -123 74 -145 94 -7 6 -30 26 -53 44 -97 79 -259 274 -306 367 -11 22
-23 42 -26 45 -5 5 -32 62 -77 163 l-17 38 -50 -93 c-63 -118 -162 -345 -179
-413 -1 -5 -12 -41 -23 -80 -12 -38 -24 -83 -29 -100 -4 -16 -8 -32 -9 -35 -2
-6 -15 -69 -20 -95 -2 -11 -4 -20 -5 -20 -1 0 -3 -11 -5 -25 -2 -14 -6 -41 -9
-61 -7 -35 -10 -62 -22 -169 -14 -118 -6 -551 10 -579 2 -3 7 -35 10 -70 4
-36 9 -68 12 -72 2 -4 6 -20 8 -36 5 -40 37 -176 44 -188 3 -5 7 -16 7 -25 4
-41 77 -234 136 -355 46 -95 90 -174 130 -233 16 -24 29 -45 29 -48 0 -3 9
-14 20 -26 11 -12 32 -39 47 -62 69 -100 275 -302 295 -290 5 4 2 -8 -6 -25
-9 -17 -14 -31 -11 -31 3 0 -2 -17 -11 -37 -8 -21 -18 -46 -20 -55 -2 -10 -6
-26 -9 -35 -47 -176 -59 -230 -71 -303 -3 -19 -7 -46 -10 -60 -3 -14 -7 -41
-9 -60 -1 -19 -7 -66 -11 -105 -15 -132 -7 -551 12 -636 3 -13 7 -46 9 -74 2
-27 4 -50 5 -50 3 0 10 -40 16 -95 4 -30 11 -65 15 -78 13 -34 11 -70 -5 -100
-8 -15 -31 -65 -52 -112 -20 -47 -45 -104 -55 -127 -11 -23 -19 -44 -19 -47 0
-2 -5 -17 -12 -33 -6 -15 -12 -32 -14 -38 -1 -5 -19 -55 -38 -110 -34 -94 -83
-255 -92 -300 -2 -11 -8 -38 -13 -60 -9 -38 -19 -100 -25 -155 -19 -161 -26
-272 -30 -502 -2 -97 -7 -181 -10 -187 -4 -6 -4 -11 1 -11 4 0 9 -44 9 -98 2
-116 10 -268 21 -377 4 -44 8 -99 8 -122 0 -24 2 -43 6 -43 3 0 6 -17 7 -39 2
-21 5 -49 7 -62 6 -29 13 -80 20 -137 5 -41 3 -47 -39 -90 -85 -90 -123 -131
-163 -179 -38 -45 -104 -125 -121 -148 -4 -5 -21 -28 -38 -50 -17 -22 -44 -62
-59 -90 -16 -27 -32 -52 -35 -55 -19 -18 -19 -255 0 -277 2 -2 3 -7 4 -11 0
-4 10 -27 20 -50 22 -48 40 -52 81 -20 71 56 118 121 145 202 14 43 30 47 31
9 3 -124 11 -201 23 -243 8 -28 13 -50 11 -50 -2 0 4 -20 15 -45 11 -25 19
-48 19 -51 -3 -15 25 -64 36 -64 21 0 45 11 45 21 0 5 8 18 18 28 36 41 44 54
87 139 24 48 56 126 71 174 27 82 40 106 41 76 1 -22 14 -90 30 -163 24 -109
58 -175 92 -175 22 0 66 56 82 104 7 22 17 47 22 54 6 7 7 15 4 19 -4 3 -3 11
2 17 5 6 12 31 15 56 3 25 9 56 12 70 3 14 5 66 6 115 0 102 -17 163 -95 335
-7 14 -24 45 -38 71 -38 66 -51 110 -65 224 -7 53 -12 80 -14 80 -1 0 -3 16
-5 35 -1 19 -5 55 -8 80 -31 244 -47 514 -47 790 0 294 12 473 45 680 14 82
18 106 30 160 4 14 8 36 11 50 16 81 120 350 136 350 3 0 12 -17 18 -37 6 -21
19 -53 27 -72 8 -18 16 -39 18 -45 2 -12 14 -42 40 -101 10 -22 19 -42 20 -45
8 -31 31 -80 37 -80 4 0 8 -5 8 -11 0 -15 117 -247 131 -259 3 -3 16 -25 30
-50 13 -25 26 -47 29 -50 14 -14 70 -102 70 -110 0 -6 5 -10 10 -10 6 0 10 -7
10 -15 0 -8 4 -15 8 -15 4 0 15 -12 24 -27 18 -30 26 -41 106 -141 97 -122
217 -249 357 -377 102 -94 389 -305 414 -305 5 0 11 -4 13 -8 5 -12 136 -86
254 -143 l104 -50 -32 -47 c-17 -26 -34 -49 -37 -52 -10 -9 -79 -141 -109
-210 -11 -25 -34 -88 -52 -140 -18 -52 -35 -102 -38 -110 -7 -19 -3 -6 -36
-140 -33 -133 -32 -128 -41 -200 -3 -30 -8 -66 -10 -80 -14 -91 -17 -134 -17
-200 -1 -71 8 -213 18 -290 2 -19 6 -71 10 -115 3 -44 7 -91 10 -105 2 -14 6
-79 9 -145 3 -66 7 -178 10 -249 3 -71 8 -133 11 -138 13 -21 -9 -27 -44 -12
-50 22 -160 64 -170 64 -4 0 -20 2 -37 5 -16 2 -44 7 -62 9 -17 2 -36 7 -42
10 -5 4 -13 2 -16 -4 -4 -7 -12 -7 -18 -2 -19 14 -152 7 -272 -13 -104 -18
-250 -79 -295 -123 -60 -60 -85 -152 -54 -200 19 -30 52 -62 62 -62 4 0 13 -5
20 -12 11 -11 31 -18 60 -20 6 -1 12 -4 12 -7 0 -3 163 -6 362 -7 200 0 404
-4 453 -7 276 -20 319 -20 343 -1 26 21 29 52 18 149 -4 33 -9 74 -10 90 -2
17 -7 53 -10 81 -4 29 -9 76 -12 105 -6 69 -6 493 1 579 3 36 7 103 10 150 3
47 7 103 10 125 2 22 7 69 10 105 11 104 13 125 15 125 1 0 3 13 5 28 8 63 46
254 55 277 6 14 11 35 13 47 2 12 6 26 10 29 4 4 7 15 7 24 0 16 36 111 75
196 21 45 95 173 110 191 5 6 30 44 55 83 44 70 45 71 80 65 50 -8 67 -12 140
-30 36 -9 76 -18 90 -19 14 -2 36 -6 50 -9 27 -7 95 -17 145 -22 17 -1 53 -6
82 -9 170 -23 609 -22 646 1 4 2 7 -1 7 -7 0 -6 4 -8 10 -5 10 6 22 8 120 19
30 4 66 9 80 12 14 2 39 6 57 8 18 3 40 7 50 10 10 3 34 7 53 10 19 3 50 10
68 15 17 5 32 7 32 4 0 -3 7 0 15 7 8 7 15 10 15 7 0 -3 24 1 53 9 51 14 52
14 72 -11 44 -54 103 -195 136 -327 12 -45 24 -90 27 -98 3 -8 7 -24 8 -35 2
-11 8 -47 14 -80 25 -153 33 -217 44 -345 21 -242 25 -370 25 -690 0 -344 -4
-435 -24 -565 -2 -16 -7 -57 -11 -90 -3 -33 -8 -69 -11 -80 -13 -58 -9 -123 8
-146 15 -21 25 -23 86 -23 59 1 173 7 348 20 28 2 202 4 387 4 365 1 398 5
463 55 45 33 63 70 60 117 -3 45 -45 119 -82 147 -16 12 -32 24 -38 29 -55 44
-327 107 -450 103 -133 -3 -320 -42 -388 -80 -53 -30 -65 -28 -61 12 2 17 6
95 9 172 5 141 13 294 19 350 2 17 6 62 10 100 4 39 9 88 12 110 2 22 6 63 8
92 2 28 7 56 10 62 4 6 3 11 -2 11 -5 0 -6 16 -3 37 11 65 -6 513 -24 614 -3
16 -7 48 -10 71 -13 123 -53 259 -122 413 -20 44 -41 87 -49 95 -7 8 -13 18
-13 23 0 4 -8 21 -16 37 -16 30 -13 50 6 50 16 0 228 104 322 159 49 28 92 51
97 51 5 0 10 3 12 8 3 7 113 83 132 91 5 2 16 9 25 17 9 7 48 37 88 67 186
139 379 322 528 502 28 33 52 62 56 65 3 3 18 23 34 45 17 22 32 42 35 45 12
12 60 79 60 84 0 3 10 17 21 30 12 14 27 34 33 45 6 10 33 55 60 98 52 83 76
123 110 188 12 22 26 47 31 55 5 8 10 17 11 20 0 3 18 41 39 85 22 44 39 83
40 87 0 4 5 12 11 18 10 10 35 -52 48 -120 28 -143 35 -190 43 -285 9 -102 9
-551 0 -675 -3 -52 -9 -126 -11 -165 -5 -69 -12 -140 -22 -220 -2 -22 -7 -58
-9 -80 -6 -57 -13 -113 -21 -165 -3 -25 -8 -56 -10 -70 -1 -14 -5 -38 -8 -55
-4 -16 -8 -39 -10 -50 -2 -11 -9 -53 -16 -93 -6 -40 -17 -78 -24 -85 -12 -13
-39 -69 -36 -76 1 -2 -2 -7 -7 -10 -10 -7 -45 -80 -67 -139 -8 -20 -17 -46
-22 -57 -18 -51 -31 -140 -28 -201 3 -64 13 -145 19 -154 2 -4 7 -22 10 -41
15 -86 75 -201 109 -207 26 -5 63 41 81 101 18 62 40 173 44 230 3 38 18 13
45 -74 56 -181 184 -385 224 -360 13 8 75 171 65 171 -3 0 -1 6 5 12 6 7 10
16 10 21 0 4 4 26 8 50 4 23 8 82 9 130 1 48 5 90 8 93 3 3 22 -27 41 -68 50
-101 132 -188 178 -188 14 0 46 55 54 93 2 9 7 27 10 40 3 12 7 62 9 110 4 99
-9 143 -75 252 -20 33 -43 71 -51 85 -8 14 -16 27 -19 30 -3 3 -17 21 -30 40
-30 43 -28 40 -92 120 -29 36 -73 87 -98 113 -37 41 -45 55 -45 88 0 21 2 39
5 39 3 0 5 15 6 33 1 17 4 64 7 102 12 129 18 209 22 302 2 51 6 97 10 102 3
5 1 12 -5 16 -6 4 -7 11 -4 17 11 17 12 491 2 505 -5 6 -5 14 2 18 6 3 8 10 5
15 -3 5 -8 53 -10 107 -6 107 -9 154 -20 254 -4 37 -8 82 -9 100 -2 19 -6 43
-9 54 -3 11 -8 43 -11 70 -3 28 -10 75 -17 105 -6 30 -12 64 -14 75 -10 69
-43 158 -77 207 -11 16 -16 28 -13 28 3 0 -2 12 -13 28 -34 47 -34 66 -3 184
17 62 33 124 35 138 17 77 25 119 31 155 11 63 13 77 19 125 4 25 8 54 10 65
17 91 27 543 13 620 -3 17 -8 57 -12 90 -3 33 -11 87 -16 120 -6 33 -12 67
-13 75 -3 17 -27 130 -31 145 -1 6 -3 13 -5 17 -1 4 -15 51 -31 104 -16 54
-31 99 -33 102 -3 2 32 31 77 65 99 73 221 194 306 302 34 44 68 87 75 95 7 9
15 22 19 30 9 19 30 54 38 60 13 12 89 153 89 166 0 8 3 14 8 14 4 0 13 15 21
33 7 17 22 49 32 70 10 20 16 37 13 37 -4 0 -2 6 4 13 11 14 82 219 88 257 3
14 9 36 14 50 5 14 11 36 14 50 2 14 7 36 10 50 3 14 8 39 10 55 3 17 7 41 10
55 5 27 12 80 23 180 9 84 9 460 0 525 -4 28 -10 70 -13 95 -5 45 -8 58 -24
140 -16 83 -21 105 -41 180 -21 77 -45 153 -56 180 -3 8 -7 20 -8 25 -9 34
-75 187 -122 280 -31 61 -61 120 -67 132 -6 13 -14 23 -17 23 -4 0 -19 -28
-34 -62z m-385 -1122 c0 -2 -8 -10 -17 -17 -16 -13 -17 -12 -4 4 13 16 21 21
21 13z m-6300 -72 c0 -2 -8 0 -19 5 -10 6 -22 7 -26 3 -5 -4 -5 -1 -1 6 5 9
12 9 27 2 10 -6 19 -13 19 -16z m-52 -99 c-3 -3 -9 2 -12 12 -6 14 -5 15 5 6
7 -7 10 -15 7 -18z m5057 -275 c-3 -5 -12 -7 -20 -3 -21 7 -19 13 6 13 11 0
18 -4 14 -10z m-5078 -82 c-3 -8 -6 -5 -6 6 -1 11 2 17 5 13 3 -3 4 -12 1 -19z
m5194 -5 c13 -17 13 -17 -6 -3 -11 8 -22 16 -24 17 -2 2 0 3 6 3 6 0 17 -8 24
-17z m1176 -475 c-3 -8 -6 -5 -6 6 -1 11 2 17 5 13 3 -3 4 -12 1 -19z m-6290
-73 c0 -8 -4 -12 -9 -9 -5 3 -6 10 -3 15 9 13 12 11 12 -6z m23 -65 c0 -5 -2
-10 -4 -10 -3 0 -8 5 -11 10 -3 6 -1 10 4 10 6 0 11 -4 11 -10z m6211 -37
c-12 -20 -14 -14 -5 12 4 9 9 14 11 11 3 -2 0 -13 -6 -23z m-11 -43 c0 -5 -5
-10 -11 -10 -5 0 -7 5 -4 10 3 6 8 10 11 10 2 0 4 -4 4 -10z m-6165 -40 c3 -5
1 -10 -4 -10 -6 0 -11 5 -11 10 0 6 2 10 4 10 3 0 8 -4 11 -10z m6111 -78
c-17 -16 -18 -16 -5 5 7 12 15 20 18 17 3 -2 -3 -12 -13 -22z m-6072 -18 c3
-8 2 -12 -4 -9 -6 3 -10 10 -10 16 0 14 7 11 14 -7z m6026 -84 c-6 -11 -13
-20 -16 -20 -2 0 0 9 6 20 6 11 13 20 16 20 2 0 0 -9 -6 -20z m-5937 -35 c-3
-9 -8 -14 -10 -11 -3 3 -2 9 2 15 9 16 15 13 8 -4z m-18 -33 c-3 -3 -11 0 -18
7 -9 10 -8 11 6 5 10 -3 15 -9 12 -12z m5874 -56 c9 -11 9 -16 -1 -22 -7 -4
-10 -4 -6 1 4 4 3 14 -3 22 -6 7 -9 13 -6 13 2 0 10 -6 16 -14z"/>
</g>
</svg>
