<?xml version="1.0" encoding="UTF-8" standalone="no"?>
<!-- Created with Inkscape (http://www.inkscape.org/) -->

<svg
   version="1.1"
   id="svg34459"
   width="801"
   height="801"
   viewBox="0 0 801 801"
   xmlns="http://www.w3.org/2000/svg"
   xmlns:svg="http://www.w3.org/2000/svg">
  <g
     id="shirt">
    <path
       fill="#c62627"
       d="m 222.51192,473.64094 c -2.19795,-0.20568 -10.2904,-0.85909 -17.98322,-1.45203 C 138.28442,467.08301 59.620072,447.93123 9.8208758,424.78492 l -9.60159332,-4.46275 0.004995,-7.81182 C 0.23027223,402.33423 1.8283115,376.19402 3.7904812,354.17373 10.462238,279.30051 25.505535,206.7281 45.475566,153.07508 59.807667,114.56936 79.970099,72.319998 99.905862,39.019132 108.36683,24.885868 125.02105,-9.6e-6 126.01841,-9.6e-6 c 0.36169,0 3.54176,6.812542 7.06682,15.1389766 7.44487,17.585267 14.80112,29.320013 25.55925,40.772251 36.52221,38.878632 97.05805,65.567242 180.75875,79.691642 23.30671,3.93299 60.23657,8.14489 62.79474,7.16182 2.33147,-0.89593 1.75079,-4.84365 -4.07566,-27.70825 -6.08241,-23.869057 -6.04125,-23.472182 -1.76435,-17.008341 5.09361,7.698161 13.72333,25.795911 17.48844,36.675711 2.04221,5.90128 3.76741,9.31849 4.84726,9.60128 3.37054,0.88267 16.37391,-1.36852 23.9964,-4.15435 13.97497,-5.10749 22.37102,-11.53501 34.18322,-26.1686 8.17501,-10.12766 7.47547,-10.09945 14.25441,-0.57488 16.52523,23.21841 22.41015,42.34795 19.73879,64.16302 -2.38637,19.48766 -7.75562,32.17134 -17.94145,42.38275 -5.23426,5.2474 -6.27554,6.83222 -5.91628,9.00442 0.23981,1.44989 3.62923,16.1428 7.53205,32.65089 13.9204,58.88027 26.73773,126.16321 28.89842,151.69849 l 0.56077,6.62731 -20.36548,8.03339 c -58.33535,23.01103 -116.56889,37.11688 -180.9556,43.83271 -14.26527,1.48793 -89.17269,2.84951 -100.16664,1.82071 z"
       id="path34479" />
    <path
       fill="#85211e"
       d="m 222.51192,473.64094 c -2.19795,-0.20568 -10.2904,-0.85909 -17.98322,-1.45203 C 138.28442,467.08301 59.620072,447.93123 9.8208758,424.78492 l -9.60159332,-4.46275 0.004995,-7.81182 C 0.23027223,402.33423 1.8283115,376.19402 3.7904812,354.17373 10.462238,279.30051 25.505535,206.7281 45.475566,153.07508 59.807667,114.56936 79.970099,72.319998 99.905862,39.019132 108.36683,24.885868 125.02105,-9.6e-6 126.01841,-9.6e-6 c 0.36169,0 3.54176,6.812542 7.06682,15.1389766 7.44487,17.585267 14.80112,29.320013 25.55925,40.772251 36.52221,38.878632 97.05805,65.567242 180.75875,79.691642 23.30671,3.93299 60.23657,8.14489 62.79474,7.16182 2.33147,-0.89593 1.75079,-4.84365 -4.07566,-27.70825 -6.08241,-23.869057 -6.04125,-23.472182 -1.76435,-17.008341 5.09361,7.698161 13.72333,25.795911 17.48844,36.675711 2.04221,5.90128 3.76741,9.31849 4.84726,9.60128 3.37054,0.88267 16.37391,-1.36852 23.9964,-4.15435 13.97497,-5.10749 22.37102,-11.53501 34.18322,-26.1686 8.17501,-10.12766 7.47547,-10.09945 14.25441,-0.57488 16.52523,23.21841 22.41015,42.34795 19.73879,64.16302 -2.38637,19.48766 -7.75562,32.17134 -17.94145,42.38275 -5.23426,5.2474 -6.27554,6.83222 -5.91628,9.00442 0.23981,1.44989 3.62923,16.1428 7.53205,32.65089 13.9204,58.88027 26.73773,126.16321 28.89842,151.69849 l 0.56077,6.62731 -20.36548,8.03339 c -58.33535,23.01103 -116.56889,37.11688 -180.9556,43.83271 -14.26562,1.48793 -89.17304,2.84951 -100.16699,1.82071 z m 74.43057,-20.4364 c 71.12933,-4.35359 131.88134,-17.97888 203.06058,-45.54185 0.97353,-0.37698 1.74837,-1.71328 1.74837,-3.01526 0,-3.69268 -7.73093,-48.96928 -12.12041,-70.98376 -6.81829,-34.1958 -20.73121,-94.76207 -22.07795,-96.11074 -0.22402,-0.22435 -3.52337,0.25316 -7.33188,1.0611 -16.85665,3.57604 -33.32436,0.0749 -47.6519,-10.131 l -4.76089,-3.39132 -6.60085,5.45245 c -14.56947,12.03469 -29.32283,17.20682 -60.24807,21.12132 -25.12841,3.18074 -41.84394,0.66873 -57.76538,-8.68103 -7.83878,-4.60326 -18.11308,-15.11108 -21.97,-22.46935 -7.30818,-13.94263 -8.34561,-34.85065 -2.61404,-52.68278 0.84011,-2.61378 1.82854,-4.7343 2.1965,-4.71226 0.36796,0.022 2.46733,3.95026 4.66528,8.72938 5.79608,12.60276 12.41536,22.24751 21.75281,31.69539 12.73166,12.88225 25.55319,20.09425 44.05332,24.77961 7.34539,1.8603 8.88856,1.94067 16.0845,0.83768 9.64667,-1.47863 22.03587,-5.29155 29.61053,-9.11296 16.84911,-8.50039 26.79899,-26.52457 26.85242,-48.64312 l 0.0174,-7.18158 -5.24511,-0.54985 c -2.88481,-0.30242 -11.98881,-1.25645 -20.23112,-2.12007 -53.64283,-5.62062 -103.095,-16.83547 -141.72483,-32.14056 -7.61426,-3.01677 -14.40941,-5.2678 -15.10032,-5.00229 -1.99598,0.76702 -10.98972,19.17523 -14.9563,30.61222 -12.99286,37.46288 -19.22427,85.22069 -20.24104,155.12823 -0.55199,37.95131 0.196,57.68167 3.28081,86.54245 1.92467,18.00673 7.37286,51.66843 8.61488,53.2271 0.52661,0.66087 2.83142,1.46557 5.12182,1.78822 16.18544,2.28008 67.38744,3.09785 93.58093,1.49463 z m 4.49581,-74.64125 c -21.58278,-3.35054 -35.70182,-11.74813 -46.66336,-27.75401 -6.73197,-9.8299 -13.48803,-27.16929 -12.6207,-32.39091 0.30279,-1.82288 1.42973,-1.31768 10.53861,4.72433 25.34727,16.81313 49.8296,22.74163 76.71935,18.57791 20.5106,-3.17593 43.70955,-9.93312 71.15177,-20.72448 12.23266,-4.81036 16.18609,-6.86307 20.2295,-10.50362 6.04585,-5.44348 16.77742,-19.55672 24.16698,-31.78233 2.96898,-4.91201 5.94681,-9.11407 6.61739,-9.33792 1.90217,-0.63495 1.4698,3.67523 -1.13758,11.34029 -11.82685,34.76804 -45.22216,69.01103 -85.06161,87.22074 -24.38929,11.1478 -41.87707,14.05512 -63.94035,10.63 z M 425.65887,218.08887 c 13.72941,-1.44824 24.28351,-4.44931 36.62938,-10.41557 19.67712,-9.50916 21.87898,-12.11207 26.18782,-30.9576 3.18461,-13.92848 3.57614,-29.25344 0.96821,-37.89761 -0.95459,-3.16405 -2.08444,-5.75282 -2.51079,-5.75282 -0.42634,0 -2.3245,1.60842 -4.21812,3.57427 -12.82681,13.31603 -32.71977,23.57482 -52.03374,26.83374 l -7.01783,1.18415 -0.30047,13.46827 c -0.33164,14.86518 -2.23706,23.47469 -7.51071,33.93663 -1.6091,3.19214 -2.64675,6.08317 -2.30589,6.42452 0.78508,0.78619 0.93181,0.78136 12.11214,-0.39798 z"
       id="path34475" />
    <path
       fill="#5f1b17"
       d="m 222.51192,473.64094 c -2.19795,-0.20568 -10.2904,-0.85909 -17.98322,-1.45203 C 138.28442,467.08301 59.620072,447.93123 9.8208758,424.78492 l -9.60159332,-4.46275 0.004995,-7.81182 C 0.23027223,402.33423 1.8283115,376.19402 3.7904812,354.17373 10.462238,279.30051 25.505535,206.7281 45.475566,153.07508 59.807667,114.56936 79.970099,72.319998 99.905862,39.019132 108.36683,24.885868 125.02105,-9.6e-6 126.01841,-9.6e-6 c 0.36169,0 3.54176,6.812542 7.06682,15.1389766 7.44487,17.585267 14.80112,29.320013 25.55925,40.772251 36.52221,38.878632 97.05805,65.567242 180.75875,79.691642 23.30671,3.93299 60.23657,8.14489 62.79474,7.16182 2.33147,-0.89593 1.75079,-4.84365 -4.07566,-27.70825 -6.08241,-23.869057 -6.04125,-23.472182 -1.76435,-17.008341 5.09361,7.698161 13.72333,25.795911 17.48844,36.675711 2.04221,5.90128 3.76741,9.31849 4.84726,9.60128 3.37054,0.88267 16.37391,-1.36852 23.9964,-4.15435 13.97497,-5.10749 22.37102,-11.53501 34.18322,-26.1686 8.17501,-10.12766 7.47547,-10.09945 14.25441,-0.57488 16.52523,23.21841 22.41015,42.34795 19.73879,64.16302 -2.38637,19.48766 -7.75562,32.17134 -17.94145,42.38275 -5.23426,5.2474 -6.27554,6.83222 -5.91628,9.00442 0.23981,1.44989 3.62923,16.1428 7.53205,32.65089 13.9204,58.88027 26.73773,126.16321 28.89842,151.69849 l 0.56077,6.62731 -20.36548,8.03339 c -58.33535,23.01103 -116.56889,37.11688 -180.9556,43.83271 -14.26562,1.48793 -89.17304,2.84951 -100.16699,1.82071 z m 70.4343,-19.44574 c 59.98352,-3.10656 118.09393,-14.38944 175.19086,-34.01554 23.32589,-8.01788 34.05211,-12.48005 34.42494,-14.32095 1.36009,-6.71585 -22.3188,-125.13328 -32.54158,-162.73946 l -1.76781,-6.50319 -9.97567,-0.0896 c -11.63136,-0.1045 -19.77656,-2.03163 -29.66559,-7.01875 -6.86879,-3.46399 -9.16189,-5.92787 -6.84915,-7.35926 0.67455,-0.41749 6.9218,-1.0233 13.88276,-1.34625 18.57045,-0.86156 28.37301,-4.0906 37.0271,-12.19702 11.53955,-10.80926 17.92365,-27.78747 18.82744,-50.07057 0.50203,-12.37786 -0.66349,-21.61582 -3.15826,-25.03249 -1.23887,-1.69666 -1.87267,-1.33048 -8.86528,5.12196 -4.14207,3.82209 -11.15931,9.14577 -15.59389,11.83041 -9.29444,5.62673 -24.66034,11.19123 -34.06355,12.33552 l -6.49394,0.79026 -0.6167,14.00687 c -0.72489,16.46432 -2.30496,23.15952 -8.4492,35.80166 -4.16786,8.57565 -5.15549,9.80931 -12.79442,15.98177 -14.07417,11.37231 -27.7307,16.71704 -51.92581,20.32211 -36.2314,5.39847 -67.30381,-9.50804 -82.53965,-39.59715 -8.90166,-17.57979 -9.22906,-30.40189 -0.40217,-15.75017 2.07194,3.43919 7.83664,10.31989 12.81046,15.29046 7.24439,7.23966 10.73257,9.87721 17.53538,13.25926 12.60234,6.26532 18.85243,7.56238 36.46598,7.56773 13.23266,0.004 16.15493,-0.31546 24.9767,-2.73043 24.64904,-6.74771 37.04892,-17.20149 43.12255,-36.35469 3.0288,-9.55134 4.43167,-26.96428 2.23462,-27.73687 -0.76899,-0.27042 -10.61457,-1.4159 -21.87907,-2.54552 -56.9792,-5.71397 -109.27137,-17.68025 -150.30412,-34.39485 -4.91478,-2.00203 -9.53116,-3.64005 -10.25859,-3.64005 -1.5687,0 -19.04848,-8.66536 -28.26115,-14.01006 l -6.49394,-3.76745 -14.48648,0.15106 c -17.00305,0.17732 -19.03216,0.9042 -23.95053,8.57974 -1.77791,2.77457 -5.41661,10.43191 -8.086,17.0163 -5.97755,14.74442 -8.12533,19.012 -10.77684,21.41334 -4.48427,4.06121 -10.13724,-1.04505 -10.13724,-9.15685 0,-2.13678 1.80353,-10.4721 4.00785,-18.52293 6.56171,-23.96533 6.40916,-29.72926 -1.04959,-39.65773 -6.16225,-8.202674 -7.12077,-11.224797 -6.76414,-21.326802 0.17003,-4.816123 0.0467,-8.755555 -0.27409,-8.754295 -0.95072,0.004 -12.08054,20.254866 -21.170896,38.521197 -29.637303,59.55381 -47.4149,114.63114 -58.890156,182.44949 l -3.277432,19.3695 3.948656,3.42257 c 2.226533,1.92989 6.365902,4.12736 9.491147,5.03857 6.747555,1.96734 12.634274,1.01779 24.025248,-3.87537 6.019535,-2.58577 8.882754,-3.22723 14.560238,-3.26193 6.157906,-0.0376 7.68685,0.34299 11.882835,2.95827 3.353472,2.09015 5.75782,4.67224 7.91879,8.50418 2.80146,4.96766 3.10202,6.32957 3.0912,14.00687 -0.0163,11.56364 -1.84416,14.79158 -16.018078,28.28749 -16.89522,16.08703 -19.652617,23.62751 -14.534232,39.74588 2.874878,9.05332 2.739784,18.22139 -0.40681,27.60829 -1.373719,4.09806 -2.497671,7.64759 -2.497671,7.88784 0,0.62345 12.078643,4.14653 29.472511,8.59649 21.24406,5.43499 46.87366,10.40888 68.93569,13.37822 10.44026,1.40515 23.02852,3.24697 27.97391,4.0929 17.72924,3.03268 60.43228,4.14814 93.41286,2.44006 z m 20.01029,-74.9158 c -1.93523,-1.29715 -1.70387,-1.44323 6.46501,-4.082 35.15024,-11.35449 63.19613,-28.07965 92.28453,-55.03388 14.07195,-13.03951 21.87497,-22.36345 32.64745,-39.01088 3.73357,-5.76973 6.97045,-9.9432 7.19307,-9.27438 0.66205,1.98898 -2.66801,12.19864 -6.77295,20.76529 -18.44294,38.48872 -62.57063,73.49403 -105.88736,83.99757 -11.46844,2.7809 -23.83914,4.03958 -25.92975,2.63828 z M 143.3026,198.53668 c -4.05394,-2.84354 -5.5701,-7.27228 -5.49269,-16.04431 0.0762,-8.63652 1.73051,-13.51017 5.22076,-15.38076 4.08486,-2.18927 12.25888,-0.51817 13.5163,2.76326 0.32064,0.83677 -0.15803,3.75554 -1.0637,6.48615 -1.08715,3.27774 -1.43996,6.47502 -1.03832,9.40946 0.74234,5.42373 -1.87922,11.32694 -5.83093,13.13002 -3.2047,1.46223 -2.65432,1.49994 -5.31142,-0.36382 z"
       id="path34473" />
    <path
       fill="#070506"
       d="M 228.0068,473.63584 C 168.40868,469.66225 125.57876,462.57967 77.147522,448.68897 49.63054,440.79674 13.292967,427.2385 3.3566159,421.15618 L -2.9640996e-6,419.1015 0.67367861,404.89658 C 4.244068,329.61244 14.142215,261.74708 30.309943,201.69934 43.729855,151.85709 67.556089,95.564851 96.261372,45.881448 105.07283,30.630476 124.04619,1.8413637 125.62929,1.3202381 c 0.56432,-0.1857712 3.68854,5.8568231 6.94271,13.4279869 7.48958,17.425278 12.08582,25.201013 21.65873,36.641465 19.65315,23.487202 49.51975,43.206646 89.38937,59.0194 27.02552,10.71863 60.15093,19.51335 96.57463,25.6403 22.90005,3.8521 56.88211,7.74873 62.39921,7.15515 0.68685,-0.0739 1.24883,-1.31827 1.24883,-2.76525 0,-3.33363 -4.2519,-22.38219 -7.90402,-35.41007 -1.53913,-5.49043 -2.49367,-9.982604 -2.12118,-9.982604 1.99934,0 15.01761,26.268844 19.58495,39.519384 3.81209,11.05944 3.5652,10.84876 11.76588,10.03954 20.51291,-2.02416 35.8542,-11.03712 52.20766,-30.67181 3.61051,-4.33494 6.94975,-7.88171 7.42052,-7.88171 1.23951,0 14.49569,20.13423 18.37178,27.90407 6.96472,13.96117 9.16808,26.2111 7.54621,41.95437 -2.04717,19.87164 -7.10737,32.08027 -18.12011,43.71796 l -6.6593,7.03721 2.9221,11.97865 c 15.14582,62.08793 27.99573,126.32271 33.40308,166.97698 1.61246,12.12307 1.61464,13.00549 0.0351,14.16218 -2.60224,1.90551 -30.48556,12.76791 -48.66114,18.95673 -51.00198,17.36626 -100.25383,27.89125 -154.71227,33.0616 -15.45737,1.46755 -77.60761,2.72132 -90.91519,1.83407 z m 68.225,-18.45234 c 67.3401,-4.07395 134.45523,-18.56587 194.28012,-41.95018 12.0426,-4.7072 13.23765,-5.39859 13.23765,-7.65852 0,-6.88237 -9.45189,-59.6223 -17.10136,-95.42266 -6.5608,-30.70527 -16.70288,-73.27173 -17.69471,-74.26496 -0.42938,-0.42999 -5.70136,-0.93575 -11.71551,-1.1239 -8.46331,-0.26479 -12.74132,-0.93851 -18.92737,-2.98077 -8.18832,-2.70329 -14.48649,-5.96799 -14.48649,-7.5092 0,-0.47658 5.05778,-1.14337 11.23952,-1.48176 36.50506,-1.99825 51.28541,-16.63023 57.24968,-56.67499 1.68336,-11.30226 1.35899,-18.62121 -1.25341,-28.2819 -2.39062,-8.84053 -3.36296,-9.06163 -10.06761,-2.28924 -7.63426,7.71143 -16.22839,13.73062 -26.4598,18.53205 -8.58784,4.03013 -22.62762,7.98233 -28.40151,7.99502 -1.7534,0.004 -3.4753,0.47252 -3.82643,1.04147 -0.35113,0.56895 -0.77114,7.2097 -0.93336,14.75724 -0.34256,15.93796 -1.73066,22.09252 -7.66345,33.97832 -9.43733,18.90677 -29.03915,30.87716 -58.6211,35.79857 -12.29286,2.04511 -31.39792,1.60167 -40.66048,-0.94376 -14.89123,-4.09222 -29.01189,-13.31248 -37.99443,-24.8089 -6.07323,-7.77291 -12.38787,-20.17105 -13.09328,-25.7073 l -0.4579,-3.59366 1.79517,2.46597 c 13.72975,18.86011 25.95824,28.64991 42.75696,34.23009 6.21708,2.06517 8.87904,2.32284 23.97764,2.32095 15.44251,-0.002 17.891,-0.25209 26.97483,-2.75606 13.59573,-3.74768 25.23733,-9.62386 31.80619,-16.0544 9.63279,-9.42996 15.64955,-25.86466 15.64955,-42.74656 0,-3.77101 -0.33789,-7.06549 -0.75085,-7.32109 -0.41297,-0.25559 -8.39302,-1.2031 -17.73346,-2.10558 C 305.76905,152.74475 241.81726,134.75613 189.10041,104.86149 165.89662,91.703096 142.58163,70.643225 129.61714,51.131674 l -6.90932,-10.398502 -2.85651,3.395066 C 115.69908,49.063299 104.35655,68.930875 94.208816,89.043672 63.192499,150.51793 44.887904,206.63004 33.339937,275.63521 27.176376,312.46573 20.200643,378.60227 20.200643,400.20812 v 7.80539 l 7.742778,3.25244 c 15.668793,6.58185 56.046138,20.04592 73.106149,24.3777 29.63898,7.52574 53.08874,11.78647 90.99078,16.53265 30.90837,3.87042 70.86209,5.02357 104.19145,3.0072 z m 22.24456,-76.91064 c -0.28771,-0.46618 3.62869,-2.29661 8.7031,-4.06763 30.15508,-10.52435 56.8637,-26.58121 81.53332,-49.0167 13.2965,-12.09234 23.05715,-23.35342 32.78436,-37.82405 4.17108,-6.20511 7.74673,-11.11885 7.94586,-10.91944 0.73293,0.73396 -3.6418,11.89568 -7.79782,19.89546 -19.93912,38.38009 -68.91146,74.26051 -110.31074,80.82105 -3.80467,0.60292 -8.13649,1.29032 -9.62628,1.52757 -1.48978,0.23724 -2.9441,0.0499 -3.2318,-0.41626 z"
       id="path34471" />
  </g>
</svg>
