<?xml version="1.0" encoding="UTF-8" standalone="no"?>
<!-- Created with Inkscape (http://www.inkscape.org/) -->

<svg
   version="1.1"
   width="801"
   height="801"
   viewBox="0 0 801 801"
   xmlns="http://www.w3.org/2000/svg"
   xmlns:svg="http://www.w3.org/2000/svg">
    <g
       id="clothes">
      <path
         fill="#e6e6e8"
         d="M 236.04554,575.1387 C 184.877,573.06142 134.09786,565.16244 85.485779,551.71827 47.434856,541.1949 0.32397928,522.9297 0.11388004,518.619 -0.47638121,506.50836 1.2777648,475.00261 4.2226895,444.82207 12.722491,357.71318 29.522622,286.23789 56.249337,223.47731 87.980286,148.96564 124.44513,91.555695 164.62276,52.8551 180.56391,37.49999 199.44075,23.622633 213.5404,16.893189 228.60203,9.7046081 254.34566,3.3022972 277.25567,1.0475196 c 16.1433,-1.58880514 45.31224,-1.33451537 59.65486,0.5200628 19.7428,2.5528438 48.77657,10.3855636 48.77657,13.1589236 0,0.866172 -3.1458,4.819279 -6.99066,8.784681 l -6.99066,7.209823 v 5.993514 c 0,7.932111 2.9593,17.193267 9.9606,31.171674 7.12498,14.225358 24.37468,42.826192 26.69376,44.259522 1.40978,0.87133 19.15587,-12.302312 27.09664,-20.114948 l 7.43479,-7.314808 -0.63075,-7.1665 c -0.34692,-3.941572 -2.42849,-13.907788 -4.62572,-22.147152 -5.02445,-18.84116 -5.02619,-18.902072 -0.51673,-18.170256 1.92243,0.311977 3.49533,0.146071 3.49533,-0.368684 0,-2.415343 3.8007,-0.05573 17.57592,10.911535 29.0055,23.093082 41.98799,40.02202 48.84865,63.697793 4.37161,15.08621 5.11876,28.45906 3.12336,55.90385 -1.72415,23.71408 -8.15176,97.91401 -11.53932,133.20928 l -1.7733,18.47615 5.73667,23.5063 c 7.42589,30.42803 13.99048,59.91916 19.44384,87.35061 7.74297,38.9486 15.14858,86.45738 13.81359,88.61752 -1.55942,2.52331 -34.68369,15.58252 -62.27345,24.55122 -59.8409,19.45271 -116.92093,29.44679 -183.5528,32.13807 -25.9116,1.04658 -26.05428,1.04635 -53.97132,-0.087 z M 502.0101,465.28519 c -10.68078,-64.62073 -23.88709,-124.50108 -26.40062,-119.70638 -0.97593,1.86168 0.47694,26.78568 2.50036,42.89358 3.49849,27.85038 11.37752,61.15579 21.12764,89.30856 4.19381,12.10931 6.03119,16.14728 6.93582,15.2426 0.19896,-0.19896 -1.67448,-12.68122 -4.1632,-27.73836 z m -162.30829,-11.4478 c 10.85436,-2.05913 23.16896,-6.48227 36.2194,-13.00924 19.90006,-9.9527 26.12859,-15.09344 9.02864,-7.45182 -22.64348,10.11889 -37.04925,13.33266 -60.18135,13.42574 -13.01318,0.0523 -17.82611,-0.31319 -22.88945,-1.73849 -6.60782,-1.86006 -16.43048,-6.40704 -21.359,-9.88723 -4.82839,-3.40949 -4.05821,-1.17742 1.51786,4.3989 6.14109,6.14138 16.90845,12.17345 25.3987,14.22882 7.87835,1.90724 22.30861,1.92215 32.2652,0.0333 z m -9.49058,-84.15472 c -0.52181,-0.4471 -5.61965,-1.83422 -11.32856,-3.08249 -14.41036,-3.15086 -23.75973,-6.36303 -36.55745,-12.56005 C 257.6985,342.11518 240.7932,326.1758 225.777,300.72287 c -1.08974,-1.84714 -2.18244,-3.15733 -2.42823,-2.91154 -0.99606,0.99612 3.81678,16.77066 7.39775,24.24678 7.63218,15.93402 20.68122,28.79949 37.51853,36.99074 9.47499,4.60952 24.10725,8.87304 35.53147,10.35309 8.58093,1.1117 27.62065,1.31405 26.41471,0.28073 z m 140.35202,-79.79254 c 4.57757,-20.97466 9.39838,-58.1121 8.36155,-64.41383 l -0.60904,-3.7017 -3.14692,2.40038 c -4.85192,3.70091 -6.43952,10.14622 -7.59413,30.83062 -1.31422,23.54404 -1.31229,46.29631 0.004,44.98012 0.54976,-0.54979 1.89287,-5.0928 2.9847,-10.09559 z"
         id="path1068" />
      <path
         fill="#b5c7d7"
         d="M 233.88994,574.24786 C 166.78129,571.25189 96.948042,557.57 39.311401,536.12558 21.804405,529.61188 3.7490324,521.57537 1.8654095,519.45821 0.60544317,518.04205 0.52597936,514.73151 1.3102713,496.33316 4.0100936,432.99943 14.038772,363.64431 28.699382,306.91902 45.151058,243.26365 78.086257,169.5406 114.17073,115.59762 141.45256,74.813796 168.57795,46.310937 199.35666,26.085833 225.4827,8.9180434 259.16426,0.97256939 305.81394,0.97256939 c 21.38029,0 31.21999,0.83308371 46.57839,3.94358961 13.39833,2.7135274 31.42779,8.217303 32.02606,9.776441 0.29893,0.779024 -2.55191,4.519186 -6.7258,8.82393 l -7.24465,7.471775 0.49702,7.213449 c 0.62803,9.114705 3.99354,18.629823 12.04702,34.059766 9.11034,17.454829 23.80579,40.56667 25.79393,40.56667 3.76635,0 26.85398,-18.283833 32.01874,-25.356663 2.7768,-3.802652 2.95344,-4.547081 2.39595,-10.097576 -0.33103,-3.295746 -2.3967,-12.864624 -4.59038,-21.264172 -2.19368,-8.399548 -3.98852,-15.927331 -3.98852,-16.728407 0,-1.672751 3.5504,-1.984639 4.53093,-0.398027 0.41419,0.670185 1.12696,0.411839 1.94303,-0.704261 1.50167,-2.053739 1.07877,-2.329413 20.98935,13.682649 30.33288,24.393673 43.6484,45.842966 47.51126,76.533487 1.95948,15.56813 1.18406,27.74391 -9.1786,144.12671 l -4.22392,47.43876 6.12856,24.96777 c 11.62519,47.36113 20.90665,92.09916 27.5569,132.82855 5.31592,32.55719 6.0638,39.43018 4.459,40.97757 -1.98514,1.9141 -37.76614,15.89499 -56.77389,22.18355 -77.20773,25.54357 -160.72569,36.93286 -243.67438,33.22973 z m 73.90125,-24.01662 c 65.87105,-4.08444 131.8159,-18.47086 192.0227,-41.89138 l 10.7649,-4.18755 -0.50589,-3.16054 c -9.88435,-61.75239 -17.70906,-100.465 -31.09349,-153.83478 l -6.47917,-25.83538 2.07897,-22.6021 c 1.14343,-12.43115 3.15618,-33.83759 4.47277,-47.56987 1.31658,-13.73227 2.14125,-26.83419 1.83257,-29.11537 l -0.56122,-4.1476 -5.42416,4.1476 c -3.54823,2.71316 -5.62521,5.10985 -6.00549,6.92989 -0.31975,1.53025 -1.46132,3.39866 -2.53684,4.15203 -1.81063,1.26827 -1.90731,2.17196 -1.30495,12.19837 0.58886,9.80172 0.45907,11.13262 -1.36865,14.03416 -4.80678,7.63082 -14.50733,9.7585 -44.54085,9.76939 l -22.96931,0.008 -5.69064,-2.79462 c -3.90675,-1.91857 -6.38733,-3.95355 -7.91308,-6.49162 -1.22235,-2.03335 -2.34181,-3.85697 -2.4877,-4.05248 -0.1459,-0.19552 -2.02057,1.4898 -4.16595,3.74516 -2.14537,2.25536 -4.72576,4.10065 -5.73421,4.10065 -2.07765,0 -44.7804,-11.554 -57.17716,-15.47031 -18.76246,-5.92732 -24.73266,-17.52467 -18.29684,-35.54227 l 2.34675,-6.56994 -3.75762,-4.91524 c -4.73094,-6.18842 -7.08742,-11.65257 -9.65709,-22.39267 -1.71073,-7.15016 -1.94843,-10.61549 -1.50703,-21.97163 0.28824,-7.41543 0.83896,-14.4938 1.22386,-15.7297 1.55224,-4.98436 -1.80593,-1.7694 -8.34558,7.98969 -37.00274,55.21893 -64.57146,112.50632 -76.53644,159.04151 -7.21798,28.07282 -8.40142,41.07149 -9.18379,100.87299 -0.7807,59.67382 1.30996,100.74226 6.70592,131.72955 1.09717,6.30072 1.14389,6.36849 4.77042,6.92105 3.17107,0.48316 22.07658,2.05969 36.11904,3.01197 11.47254,0.77802 56.10326,0.54053 70.90525,-0.37729 z m 124.2757,-103.92771 c -0.37145,-0.60105 -0.84856,-3.9384 -1.06025,-7.41635 -0.29248,-4.80533 -0.007,-6.70098 1.18709,-7.8956 1.97364,-1.97373 2.88181,-1.97423 4.8533,-0.003 1.79157,1.79164 2.13569,9.79411 0.59539,13.8456 -1.00459,2.64238 -4.31185,3.51375 -5.57553,1.46899 z m -114.14351,-2.4363 c -17.63607,-2.75364 -30.7235,-9.17988 -40.40747,-19.84103 -5.64703,-6.21684 -12.52416,-17.70335 -15.46433,-25.82928 -3.06016,-8.45756 -5.00011,-17.71422 -3.71242,-17.71422 0.38942,0 4.77352,2.71948 9.74245,6.0433 15.45323,10.33696 31.3068,17.01629 47.13332,19.85794 21.79101,3.91255 57.31384,-3.44835 102.42946,-21.22502 13.29028,-5.2367 16.13315,-6.75168 20.10276,-10.71286 6.09893,-6.08596 18.15871,-22.36832 24.19236,-32.66297 5.28237,-9.01281 6.24914,-10.0257 7.94783,-8.32693 1.79284,1.79293 -1.54898,12.97253 -7.63872,25.55426 l -5.3173,10.98582 0.88726,8.98839 c 0.48798,4.94362 0.74877,17.30267 0.57951,27.46455 -0.33751,20.26288 -1.33809,24.31102 -6.3179,25.56093 -7.80392,1.95875 -11.00474,-2.99126 -10.87776,-16.82221 0.0491,-5.35558 -0.0516,-9.73743 -0.22402,-9.73743 -1.08515,0 -3.2994,6.53005 -4.21099,12.4187 -0.72311,4.67097 -1.75338,7.59732 -3.16453,8.9884 -2.0649,2.03553 -2.11128,2.03716 -3.53277,0.12398 -0.79222,-1.06624 -1.44041,-2.97628 -1.44041,-4.24452 0,-2.82266 -0.96649,-2.87241 -5.99199,-0.30847 -5.28794,2.69782 -8.82,2.53207 -12.05316,-0.56562 l -2.67511,-2.56305 -6.86685,4.22709 c -9.49125,5.84262 -25.27989,13.17267 -34.85856,16.18347 -18.29097,5.74929 -31.03253,6.84674 -48.26066,4.15678 z m 23.53992,-76.48425 c -21.66338,-2.08761 -46.12806,-8.92 -62.91425,-17.5704 -24.16153,-12.45114 -43.67445,-33.12119 -56.17018,-59.50113 -7.25664,-15.31962 -6.10353,-20.24548 2.27068,-9.69984 13.31193,16.76373 19.23381,21.19862 45.34214,33.95658 24.00761,11.73144 43.04247,15.49342 93.97443,18.57281 5.35534,0.32378 9.73699,1.02532 9.73699,1.55899 0,1.15945 -13.85816,7.69177 -22.96931,10.82702 -3.57023,1.22856 -11.43472,3.24675 -17.47664,4.48486 l -10.98532,2.25111 7.98932,2.49795 c 4.39413,1.37389 13.08612,3.97349 19.31555,5.7769 10.97268,3.1766 14.04989,5.14094 11.03961,7.04713 -1.6262,1.02975 -6.95431,0.97356 -19.15302,-0.20198 z M 449.31729,139.29402 c 6.86912,-9.11327 12.20764,-22.96658 12.25362,-31.79779 0.0146,-2.79885 -0.0776,-2.7555 -7.19159,3.38284 -6.19945,5.34921 -15.7647,12.08293 -25.99927,18.3029 -1.51049,0.91798 -2.74634,2.03958 -2.74634,2.49245 0,0.45286 2.93524,4.71498 6.52277,9.47138 l 6.52275,8.648 3.0607,-2.25375 c 1.68338,-1.23957 5.0932,-4.95028 7.57736,-8.24603 z m -84.36214,-16.03633 c 10.54977,-2.50312 19.36189,-4.73164 19.58249,-4.95224 0.2206,-0.22061 -1.84157,-3.45328 -4.58258,-7.18371 -2.74101,-3.73043 -6.69801,-9.39262 -8.79333,-12.582639 l -3.80968,-5.800033 -4.06479,0.806479 c -2.23565,0.443567 -7.24467,0.806489 -11.13118,0.806489 -6.10801,0 -7.65296,-0.388449 -11.39148,-2.864193 l -4.3251,-2.864193 0.62726,7.358392 c 0.83194,9.759648 6.60527,31.826808 8.3267,31.826808 0.20916,0 9.01192,-2.04802 19.56169,-4.55116 z"
         id="path1066" />
      <path
         fill="#d02d2e"
         d="m 247.37192,573.5825 c -29.95417,-0.96663 -63.5395,-4.08507 -90.87856,-8.43817 C 105.27858,556.9896 48.900857,540.71317 11.210642,523.20074 l -9.011099,-4.18693 0.00999,-11.58999 C 2.235495,476.98743 8.2033402,417.90801 15.715182,373.72364 28.591396,297.98621 48.335942,238.40376 82.479416,172.25148 107.19332,124.36878 131.70242,89.242571 160.97053,59.758749 c 22.10284,-22.26576 40.79744,-35.975633 59.92812,-43.948911 9.51335,-3.964973 30.30093,-9.2238044 45.59522,-11.5346516 18.37734,-2.7766799 62.43933,-2.548832 78.74738,0.4072044 12.21587,2.2142818 36.24772,8.7367122 37.81771,10.2640112 0.48224,0.469144 -1.66622,3.201398 -4.84082,6.156204 -3.13934,2.921978 -6.40051,6.652133 -7.24705,8.28923 -5.21962,10.094081 3.37778,33.333004 25.23037,68.1982 12.36678,19.730844 10.72253,18.776414 20.66914,11.997664 10.51562,-7.16654 19.01418,-14.383554 23.89901,-20.295144 3.371,-4.079564 3.83469,-5.271515 3.80469,-9.780245 -0.0188,-2.823975 -1.99338,-12.774631 -4.38798,-22.112577 -2.39459,-9.337947 -4.15338,-17.310157 -3.90842,-17.716013 0.24497,-0.405866 1.50796,-0.04165 2.80664,0.809286 2.15727,1.413555 2.44414,1.399084 3.32083,-0.167534 0.8315,-1.485882 2.80868,-0.26385 14.81366,9.155892 16.94194,13.29355 27.54704,23.900279 34.80806,34.813433 15.36941,23.099842 19.06135,42.000562 16.10794,82.463772 -1.71675,23.52032 -5.73077,70.28615 -10.498,122.30827 l -2.81632,30.73289 2.93807,11.61566 c 14.21217,56.18792 27.23449,119.77026 33.71322,164.60702 2.38311,16.49258 2.74265,20.98586 1.7578,21.96746 -0.68095,0.6787 -8.45559,4.12662 -17.27699,7.66204 -65.73738,26.3461 -134.30346,41.88606 -205.16563,46.49916 -17.44785,1.13584 -49.88557,1.86804 -63.41526,1.43143 z m 52.92927,-21.33951 c 52.92047,-2.88023 97.99498,-10.47555 148.52429,-25.02719 15.26697,-4.39666 40.92302,-13.12896 53.77725,-18.30365 7.26996,-2.92665 8.46009,-3.74388 8.73397,-5.99747 0.17439,-1.43501 -1.54116,-13.72721 -3.81233,-27.31599 -6.63094,-39.67377 -16.73968,-87.40658 -28.55666,-134.84279 l -4.79624,-19.25322 4.20788,-47.66041 c 2.31433,-26.21321 4.46168,-50.46927 4.77191,-53.90234 0.31021,-3.43307 0.2619,-6.24195 -0.10738,-6.24195 -0.36928,0 -3.39556,2.46533 -6.72507,5.4785 -5.36827,4.85822 -10.43822,7.98103 -16.00788,9.85998 -1.62513,0.54823 -1.71981,1.71127 -1.12766,13.85261 0.62413,12.79702 0.56759,13.35302 -1.63926,16.12161 -4.13972,5.19345 -6.64725,5.62156 -32.92648,5.62156 -26.29606,0 -28.56182,-0.41671 -31.3154,-5.7595 -1.04632,-2.03018 -5.6177,-31.74981 -5.6177,-36.52203 0,-0.36467 -0.39065,-0.66304 -0.86811,-0.66304 -0.47746,0 -3.46164,5.95482 -6.6315,13.23292 -7.06649,16.22487 -8.51521,18.35727 -13.48288,19.84568 -3.4918,1.04621 -4.99182,0.82876 -14.18082,-2.05578 -51.3677,-16.12499 -53.02893,-16.84667 -54.2932,-23.58613 -0.98253,-5.23752 -0.009,-7.48904 7.56162,-17.48832 3.84723,-5.08143 6.99497,-9.65297 6.99497,-10.15898 0,-0.50601 -2.00123,-2.92133 -4.44718,-5.36739 -9.02707,-9.02749 -13.53263,-22.45475 -13.52179,-40.29707 0.0111,-18.29389 5.60138,-36.36787 15.5182,-50.17199 l 3.56237,-4.95877 0.30001,-16.148151 c 0.23573,-12.688282 0.76073,-17.859986 2.45034,-24.137823 2.49477,-9.269475 8.71692,-22.777029 13.66452,-29.66404 1.89503,-2.637865 3.44551,-5.202315 3.44551,-5.698794 0,-2.861846 -36.69703,-3.258474 -55.77849,-0.602872 -31.58484,4.395726 -49.2877,11.260995 -70.8846,27.489427 -7.2874,5.475932 -8.60776,6.897157 -8.35045,8.988398 1.36102,11.061852 1.27466,18.168458 -0.28602,23.537268 -3.48565,11.990773 -13.36806,28.323317 -25.80969,42.655387 -5.60566,6.45742 -12.85008,12.30701 -21.9369,17.71319 -7.4527,4.43398 -11.50729,10.35655 -16.73264,24.44152 -2.24157,6.0422 -5.18486,13.95391 -6.54064,17.58157 -6.64354,17.77617 -15.66027,23.78889 -25.33876,16.89689 -1.68152,-1.19741 -3.520855,-2.02258 -4.087388,-1.83373 -2.702019,0.90071 -21.048184,45.0737 -30.409564,73.21862 -16.442528,49.43436 -28.008493,107.9294 -34.359886,173.77569 -1.75083,18.15121 -4.07795,49.33017 -4.07795,54.63673 0,2.28566 2.255545,3.37093 22.969306,11.05182 57.922212,21.47823 122.908752,34.29557 192.742442,38.01473 13.32369,0.70958 38.87588,0.54607 55.42593,-0.35468 z M 433.32914,444.7721 c -0.36762,-0.36765 -0.42696,-1.63045 -0.13186,-2.80625 0.29508,-1.1758 0.10705,-3.26747 -0.41786,-4.64817 -0.99233,-2.61012 0.0765,-5.90073 1.91663,-5.90073 1.73949,0 2.85191,4.79196 2.11481,9.10994 -0.68767,4.0284 -2.04438,5.68261 -3.48172,4.24521 z m -102.56865,-1.28919 c 0,-0.50451 3.03345,-1.90774 6.74099,-3.11829 35.15878,-11.47969 65.7514,-29.94951 92.48838,-55.83842 12.05345,-11.67112 19.66928,-20.99004 29.42266,-36.00225 8.74157,-13.45485 8.0071,-12.47549 8.77787,-11.70468 1.11342,1.11347 -3.61248,14.62787 -8.20948,23.47624 l -4.52098,8.70201 1.14273,17.94067 c 2.12472,33.35777 -0.78885,47.26081 -9.04187,43.14605 -4.3091,-2.14841 -5.11798,-5.1443 -4.57758,-16.95423 0.4393,-9.60074 0.31377,-10.7619 -1.13334,-10.4832 -2.57684,0.49627 -5.06885,5.77613 -6.66578,14.1229 -0.81098,4.23884 -1.74974,8.15233 -2.08612,8.69663 -0.96905,1.56803 -2.47093,0.0636 -2.47093,-2.47508 0,-1.27356 -0.70033,-2.89681 -1.55631,-3.60723 -1.29322,-1.07333 -2.31063,-0.92518 -6.01871,0.87643 -6.14603,2.98611 -9.75329,2.82854 -12.20188,-0.53299 l -1.96751,-2.70107 -8.53861,5.23651 c -16.76081,10.27898 -34.38904,17.31337 -51.54203,20.56738 -9.18696,1.74281 -18.0415,2.06312 -18.0415,0.65262 z m 6.49133,-78.11285 c -18.95719,-2.38102 -38.90692,-7.77509 -53.22707,-14.3917 -25.47916,-11.77263 -47.79786,-34.33916 -60.25577,-60.92484 -2.19445,-4.68305 -3.84841,-9.4797 -3.67547,-10.65921 0.25598,-1.74583 1.35742,-0.76434 5.92411,5.27896 9.89718,13.09737 24.46482,29.46979 31.96562,35.92583 17.9731,15.46967 40.86208,26.71456 74.02558,36.36726 21.52771,6.26594 25.71564,7.66125 25.71564,8.56778 0,1.15296 -10.66729,1.06746 -20.47264,-0.16408 z M 125.62805,348.62707 c -1.52877,-1.68935 -1.60579,-2.95904 -0.71179,-11.73485 0.55135,-5.41231 1.29048,-14.33475 1.64252,-19.82766 0.35203,-5.49291 1.72619,-16.37516 3.05367,-24.18279 2.60359,-15.31307 2.98909,-22.61095 1.41333,-26.7557 -2.11116,-5.55304 -8.41935,-0.76927 -10.06959,7.63622 -0.46999,2.3939 -0.5745,11.88134 -0.23225,21.0832 0.56744,15.256 0.46315,16.90651 -1.18324,18.72583 -2.35637,2.60388 -4.64544,2.52425 -7.25377,-0.25233 -3.64809,-3.88337 -4.43804,-10.37335 -2.67329,-21.96258 0.85807,-5.63499 1.9476,-18.11029 2.42119,-27.72288 0.89359,-18.13778 1.67887,-22.39643 5.52475,-29.96133 4.45163,-8.75641 9.75806,-11.36468 19.93854,-9.80042 5.35837,0.82334 8.68984,2.82964 11.94288,7.19234 1.72123,2.30837 2.05058,4.18252 2.00748,11.42346 -0.0441,7.41443 -0.65023,10.46016 -4.20814,21.14595 -7.04957,21.17258 -8.74723,30.52172 -10.16197,55.96279 -1.05069,18.89413 -2.77069,26.917 -6.3008,29.38971 -2.78534,1.95101 -3.07756,1.93063 -5.14952,-0.35896 z M 100.6527,341.8372 c -0.810925,-5.06201 0.73843,-14.0392 2.77442,-16.07529 1.46692,-1.46698 1.79188,-1.47812 3.16158,-0.10836 1.30831,1.30837 1.36474,2.58855 0.39453,8.95273 -1.29085,8.46762 -2.00378,10.29786 -4.17818,10.72641 -1.09885,0.21657 -1.71903,-0.79063 -2.15235,-3.49549 z M 446.92224,144.53726 c 6.86387,-7.3198 12.71427,-18.73498 15.07265,-29.40945 1.70689,-7.7257 2.07492,-14.28415 0.80158,-14.28415 -0.43261,0 -3.01665,2.30282 -5.74233,5.1174 -6.12664,6.32644 -18.47229,15.65876 -27.09209,20.47945 -4.79267,2.68034 -6.37254,4.07732 -6.04175,5.34236 0.94545,3.61558 13.19081,18.91227 15.17342,18.95437 1.16668,0.0248 4.37154,-2.51338 7.82852,-6.19998 z m -81.70779,-19.68062 c 9.33752,-2.21389 17.98846,-4.26157 19.22431,-4.5504 1.23585,-0.28882 2.247,-0.98784 2.247,-1.55338 0,-0.56554 -2.80875,-4.97683 -6.24166,-9.80287 -3.43291,-4.82603 -7.72559,-10.917645 -9.53926,-13.536924 -2.72496,-3.93531 -3.6788,-4.648809 -5.49266,-4.108716 -1.20729,0.359476 -5.8132,0.912971 -10.23539,1.229992 -8.83548,0.633392 -11.90661,-0.320436 -16.35138,-5.078395 -1.33161,-1.42541 -2.79215,-2.591665 -3.24567,-2.591665 -2.50687,0 0.41152,20.748488 4.84636,34.455528 2.94803,9.11164 3.94626,10.7281 6.20437,10.04682 0.88366,-0.26661 9.24646,-2.2961 18.58398,-4.50999 z"
         id="path1062" />
      <path
         fill="#ae2525"
         d="M 224.90195,571.59769 C 146.5676,566.18541 70.950033,548.91912 14.183529,523.48287 L 3.6975413,518.78425 3.3671428,511.80322 C 3.1854256,507.96366 3.5387534,496.28323 4.1523235,485.8467 9.3195487,397.95428 25.132348,314.10821 48.290023,251.81024 77.180477,174.09011 119.71516,102.23929 161.95336,59.806846 c 30.67472,-30.815793 55.07106,-44.84777 89.91256,-51.7147564 20.13716,-3.968877 27.90713,-4.623534 54.42727,-4.5857438 22.11182,0.031509 27.74383,0.3566197 37.94929,2.1906453 10.68897,1.9209105 36.11957,8.5928979 37.31718,9.7905529 0.25466,0.254671 -2.49203,3.524071 -6.10375,7.265332 -5.5009,5.698214 -6.67049,7.52207 -7.20579,11.236825 -1.71137,11.875801 9.47886,37.009389 32.09982,72.097189 4.08587,6.33767 6.89336,9.7291 8.04107,9.71359 2.93321,-0.0396 20.20509,-12.9304 28.97702,-21.626784 l 8.239,-8.168027 v -6.04255 c 0,-3.796809 -1.48464,-11.811404 -3.99467,-21.564675 -4.3925,-17.068018 -4.63558,-18.517877 -2.79626,-16.678471 1.53951,1.539583 4.51109,1.546634 5.02265,0.01188 0.56014,-1.680521 26.82755,19.422839 35.37084,28.417119 22.98265,24.195848 31.03734,49.747958 28.32547,89.857648 -1.18407,17.51283 -6.26704,76.72967 -10.98391,127.96271 l -2.93014,31.82617 5.8525,23.60228 c 11.33383,45.70766 21.36102,93.55154 27.51075,131.26526 4.52113,27.7261 6.31519,41.34505 5.5932,42.45857 -0.32223,0.49695 -7.32686,3.61703 -15.56585,6.9335 -60.11781,24.19939 -120.94805,38.98844 -188.24845,45.76698 -15.62291,1.57355 -88.70278,2.8229 -103.86121,1.77557 z m 78.89457,-18.36707 c 66.69693,-3.70615 135.28854,-18.36988 195.9924,-41.89989 12.21079,-4.73313 13.85677,-5.9547 13.19537,-9.79298 -0.25663,-1.48929 -1.84561,-11.24679 -3.53108,-21.68332 -6.06577,-37.55974 -17.15553,-90.40881 -28.54941,-136.05434 l -5.55375,-22.24913 4.619,-51.18004 c 4.55734,-50.49687 5.16929,-59.66907 3.98097,-59.66907 -0.33274,0 -3.94774,3.12192 -8.03335,6.93761 -4.97627,4.64749 -9.14456,7.58096 -12.62735,8.88659 l -5.19898,1.949 v 14.15432 14.15432 l -3.07882,2.76241 c -2.99412,2.68641 -3.49995,2.78064 -18.38444,3.42492 -34.16439,1.47881 -39.27948,0.86255 -42.30546,-5.09699 -0.76227,-1.50125 -2.14236,-9.24613 -3.06686,-17.21085 -2.46133,-21.20468 -2.63855,-22.10835 -4.26943,-21.76916 -0.78506,0.16329 -4.33734,7.03817 -7.89396,15.27754 -7.24776,16.79035 -9.38814,19.47486 -15.52752,19.47486 -4.73926,0 -56.04908,-16.19211 -59.76733,-18.86108 -3.49847,-2.51124 -5.27135,-6.56207 -4.4696,-10.21258 0.36674,-1.66984 3.99413,-7.43243 8.06087,-12.80576 4.06673,-5.37334 7.39405,-10.08745 7.39405,-10.47582 0,-0.38836 -2.25679,-2.9044 -5.01509,-5.5912 -16.58069,-16.15082 -18.65861,-50.52039 -4.73859,-78.37759 1.64685,-3.29575 4.59841,-8.23937 6.55902,-10.98582 l 3.56474,-4.99356 0.1737,-15.480017 c 0.14616,-13.025776 0.57522,-16.994294 2.70621,-25.031269 2.70973,-10.219649 8.32752,-22.294792 14.14038,-30.393988 1.96988,-2.744697 3.58161,-5.526037 3.58161,-6.180752 0,-1.958322 -8.40678,-2.773889 -28.46197,-2.761206 -31.29119,0.01977 -59.52537,5.445751 -78.86068,15.155228 -7.66195,3.847553 -21.84446,13.31756 -27.68656,18.486997 l -3.6847,3.260441 1.41735,6.491621 c 3.17534,14.543408 -2.76499,31.115387 -18.6822,52.118495 -7.06887,9.32753 -17.1284,19.4082 -22.73703,22.78482 -12.29991,7.40503 -14.34417,9.31042 -18.63743,17.3713 -2.30934,4.33595 -6.05249,13.32435 -8.31809,19.97421 -8.94115,26.24349 -16.54114,33.20583 -27.97007,25.62336 -2.435192,-1.61563 -4.765528,-2.72866 -5.178516,-2.47341 -1.69089,1.04507 -16.321889,34.86794 -24.666648,57.02256 -19.949901,52.96525 -34.016914,121.2815 -41.103544,199.61867 -1.140596,12.6084 -2.174095,28.97672 -2.296681,36.37405 l -0.222872,13.44969 10.485988,4.33752 c 49.438935,20.45039 122.159993,36.90517 181.757123,41.12668 30.7214,2.17611 56.32222,2.48886 82.88923,1.01261 z M 433.89935,438.31008 c -0.21779,-5.7561 0.94915,-7.95534 2.02933,-3.82453 0.59855,2.28893 -0.22562,8.74837 -1.19191,9.34169 -0.33792,0.20749 -0.71475,-2.27524 -0.83742,-5.51716 z m -97.59626,4.25024 c 0.5218,-0.46263 4.54392,-2.08373 8.93805,-3.60244 45.9987,-15.89816 88.72882,-48.91142 114.34986,-88.34668 2.90319,-4.4685 5.48324,-7.91982 5.73346,-7.66959 0.78826,0.7883 -1.85376,7.7401 -6.67625,17.56687 l -4.65613,9.48776 0.85197,6.99097 c 0.4686,3.84504 0.91267,15.52996 0.98684,25.96648 0.11077,15.58542 -0.15689,19.64461 -1.4982,22.72068 -1.38311,3.17188 -2.1073,3.74516 -4.731,3.74516 -4.77962,0 -6.30031,-4.66081 -5.84927,-17.92755 0.31222,-9.18326 0.14858,-10.5301 -1.31467,-10.82046 -2.39496,-0.47525 -6.60265,7.19729 -7.87752,14.36435 -1.73244,9.73927 -2.03461,10.31781 -3.31688,6.35035 -1.37092,-4.24171 -4.0667,-4.86222 -8.74147,-2.01207 -4.77647,2.91214 -8.07991,2.63821 -11.02259,-0.91401 l -2.46012,-2.96972 -7.12426,4.43376 c -10.26392,6.38771 -23.36869,12.78983 -33.4963,16.36408 -12.69181,4.47918 -34.98758,8.8362 -32.09552,6.27206 z m 3.44539,-78.17234 c -54.68385,-6.2417 -92.42291,-29.87177 -112.79594,-70.62645 -3.39424,-6.78991 -5.21181,-11.1525 -4.64643,-11.1525 0.19289,0 4.78811,5.5054 10.2116,12.23421 28.85863,35.80434 49.2455,48.55317 102.73678,64.24598 21.49429,6.30582 22.37077,7.33924 4.49399,5.29876 z M 126.10035,348.10446 c -0.89372,-1.07691 -0.91635,-4.50182 -0.0941,-14.23163 2.26794,-26.83505 3.16614,-35.0011 4.59506,-41.77604 2.48292,-11.77231 2.89618,-21.43399 1.09998,-25.71681 -1.95195,-4.6542 -4.53055,-4.88513 -8.03544,-0.71963 -4.09173,4.86297 -4.5887,9.56578 -3.595,34.02 0.3614,8.89371 0.15269,11.96204 -0.90011,13.23292 -3.31064,3.99637 -8.39872,-0.0722 -9.53068,-7.62094 -0.36205,-2.41444 0.0445,-8.88942 0.9257,-14.7427 0.8642,-5.74056 1.96146,-18.30222 2.43836,-27.91481 0.67301,-13.56591 1.33972,-18.83032 2.97896,-23.52234 4.28563,-12.26686 10.83182,-16.65087 21.54265,-14.42721 13.27682,2.75638 16.70088,12.80212 10.89254,31.95728 -9.83158,32.42334 -10.84141,37.6656 -12.31261,63.9175 -0.93531,16.68954 -2.34786,24.17438 -5.21398,27.62801 -1.43556,1.72981 -3.31366,1.69706 -4.79139,-0.0836 z m -24.53866,-5.58876 c -0.94427,-2.97524 0.41342,-13.46345 2.02539,-15.64622 1.04334,-1.41278 1.60958,-1.55003 2.55398,-0.61905 0.93726,0.92394 0.95497,2.51512 0.0778,6.99098 -0.62457,3.18713 -1.25271,6.88313 -1.39586,8.21334 -0.3367,3.12875 -2.39279,3.79762 -3.26134,1.06095 z M 433.08051,231.35022 c -0.60857,-6.72252 -0.87439,-7.34692 -4.29741,-10.09429 -2.00679,-1.61068 -6.68216,-5.96452 -10.38971,-9.67519 -7.78405,-7.79063 -7.44345,-8.48111 -5.1765,10.49414 2.18255,18.26886 1.39705,17.1559 11.83274,16.76567 l 8.6796,-0.32456 z m -69.75608,-21.71956 c 3.93934,-9.02344 6.99991,-16.58089 6.80125,-16.79436 -0.19866,-0.21346 -3.40725,1.19643 -7.1302,3.13308 -3.72296,1.93665 -9.50569,4.50469 -12.85051,5.70675 -5.46231,1.96306 -6.66752,2.94695 -11.83754,9.66371 -3.16584,4.11297 -5.51463,7.71957 -5.21956,8.01466 0.88011,0.88016 21.05952,7.21129 22.10768,6.93612 0.53154,-0.13954 4.18953,-7.63652 8.12888,-16.65996 z m 96.25136,-9.52274 c 4.61472,-4.16932 9.27281,-13.12245 11.57014,-22.23855 1.61187,-6.39614 1.76475,-25.09267 0.21778,-26.63511 -0.38938,-0.38823 -1.92979,0.81118 -3.42316,2.66534 -8.21449,10.19921 -20.60332,19.99385 -30.48269,24.09972 l -5.13734,2.13509 -4.32153,-4.94017 -4.32153,-4.94018 -0.0206,3.18656 c -0.0306,4.74131 13.61843,21.08414 23.44809,28.07594 4.44562,3.16215 7.83549,2.77924 12.47077,-1.40864 z m -116.8226,-24.47218 c 4.12428,-1.56433 11.13569,-5.08255 15.5809,-7.81828 l 8.0822,-4.97406 1.29169,-7.55166 c 0.71043,-4.15342 1.10707,-7.7363 0.88142,-7.96197 -0.22566,-0.22566 -8.02234,1.37623 -17.32597,3.55976 -9.30362,2.18352 -17.75745,3.83844 -18.78625,3.6776 -1.27152,-0.19878 -3.03221,-2.90862 -5.49788,-8.46162 -1.99502,-4.49305 -3.94237,-7.97445 -4.32742,-7.73647 -0.38506,0.23799 -1.24687,3.67439 -1.91512,7.63644 -2.15072,12.75149 0.52669,27.62491 5.70632,31.69938 2.97455,2.33989 5.5459,2.01369 16.31011,-2.06912 z m 56.29106,-18.98911 c 0.9749,-4.87477 0.76372,-5.86743 -1.24834,-5.86743 -1.29826,0 -2.06391,0.95709 -2.49666,3.12097 -0.97491,4.87477 -0.76372,5.86743 1.24833,5.86743 1.29827,0 2.06391,-0.9571 2.49667,-3.12097 z m 48.05311,-11.12534 c 7.97583,-8.26874 12.49886,-16.51493 15.50435,-28.26683 1.88293,-7.36252 2.69442,-18.408225 1.3524,-18.408225 -0.34516,0 -3.68522,2.884555 -7.42234,6.410135 -8.40948,7.93344 -15.77471,13.41331 -26.5622,19.76275 -4.58179,2.69681 -8.33052,5.25702 -8.33052,5.68934 0,1.53435 16.0424,22.06816 17.24113,22.06816 0.67038,0 4.36811,-3.2649 8.21718,-7.25533 z m -80.90478,-19.74572 c 11.52329,-2.75906 21.38639,-5.45146 21.91799,-5.98308 0.62296,-0.623 0.19581,-1.94388 -1.20163,-3.71578 -1.19249,-1.51204 -5.82545,-8.07348 -10.29545,-14.58097 -7.93882,-11.557437 -8.19995,-11.817771 -11.26115,-11.226884 -6.20237,1.197195 -16.5081,1.829988 -19.12132,1.174085 -1.46641,-0.368065 -4.76073,-2.737107 -7.3207,-5.264545 l -4.6545,-4.595328 -0.2969,6.704606 c -0.56117,12.672456 6.92756,42.549276 10.6555,42.510846 0.3447,-0.004 10.05486,-2.26388 21.57816,-5.02295 z m 119.18086,-10.1227 c -0.40383,-2.74456 -2.81579,-3.66705 -2.81579,-1.07694 0,2.07279 0.80708,3.24581 2.23323,3.24581 0.49592,0 0.75807,-0.97599 0.58256,-2.16887 z"
         id="path1058" />
      <path
         fill="#050607"
         d="M 224.90195,571.59769 C 146.5676,566.18541 70.950033,548.91912 14.183529,523.48287 L 3.6975413,518.78425 3.3671428,511.80322 C 3.1854256,507.96366 3.5387534,496.28323 4.1523235,485.8467 9.3195487,397.95428 25.132348,314.10821 48.290023,251.81024 77.180477,174.09011 119.71516,102.23929 161.95336,59.806846 c 30.67472,-30.815793 55.07106,-44.84777 89.91256,-51.7147564 20.13716,-3.968877 27.90713,-4.623534 54.42727,-4.5857438 22.11182,0.031509 27.74383,0.3566197 37.94929,2.1906453 10.68897,1.9209105 36.11957,8.5928979 37.31718,9.7905529 0.25466,0.254671 -2.49203,3.524071 -6.10375,7.265332 -5.5009,5.698214 -6.67049,7.52207 -7.20579,11.236825 -1.71137,11.875801 9.47886,37.009389 32.09982,72.097189 4.08587,6.33767 6.89336,9.7291 8.04107,9.71359 2.93321,-0.0396 20.20509,-12.9304 28.97702,-21.626784 l 8.239,-8.168027 v -6.04255 c 0,-3.796809 -1.48464,-11.811404 -3.99467,-21.564675 -4.3925,-17.068018 -4.63558,-18.517877 -2.79626,-16.678471 1.53951,1.539583 4.51109,1.546634 5.02265,0.01188 0.56014,-1.680521 26.82755,19.422839 35.37084,28.417119 22.98265,24.195848 31.03734,49.747958 28.32547,89.857648 -1.18407,17.51283 -6.26704,76.72967 -10.98391,127.96271 l -2.93014,31.82617 5.8525,23.60228 c 11.33383,45.70766 21.36102,93.55154 27.51075,131.26526 4.52113,27.7261 6.31519,41.34505 5.5932,42.45857 -0.32223,0.49695 -7.32686,3.61703 -15.56585,6.9335 -60.11781,24.19939 -120.94805,38.98844 -188.24845,45.76698 -15.62291,1.57355 -88.70278,2.8229 -103.86121,1.77557 z m 78.89457,-18.36707 c 66.69693,-3.70615 135.28854,-18.36988 195.9924,-41.89989 12.21079,-4.73313 13.85677,-5.9547 13.19537,-9.79298 -0.25663,-1.48929 -1.84561,-11.24679 -3.53108,-21.68332 -6.06577,-37.55974 -17.15553,-90.40881 -28.54941,-136.05434 l -5.55375,-22.24913 4.619,-51.18004 c 4.55734,-50.49687 5.16929,-59.66907 3.98097,-59.66907 -0.33274,0 -3.94774,3.12192 -8.03335,6.93761 -4.97627,4.64749 -9.14456,7.58096 -12.62735,8.88659 l -5.19898,1.949 v 14.15432 14.15432 l -3.07882,2.76241 c -2.99412,2.68641 -3.49995,2.78064 -18.38444,3.42492 -34.16439,1.47881 -39.27948,0.86255 -42.30546,-5.09699 -0.76227,-1.50125 -2.14236,-9.24613 -3.06686,-17.21085 -2.46133,-21.20468 -2.63855,-22.10835 -4.26943,-21.76916 -0.78506,0.16329 -4.33734,7.03817 -7.89396,15.27754 -7.24776,16.79035 -9.38814,19.47486 -15.52752,19.47486 -4.73926,0 -56.04908,-16.19211 -59.76733,-18.86108 -3.49847,-2.51124 -5.27135,-6.56207 -4.4696,-10.21258 0.36674,-1.66984 3.99413,-7.43243 8.06087,-12.80576 4.06673,-5.37334 7.39405,-10.08745 7.39405,-10.47582 0,-0.38836 -2.25679,-2.9044 -5.01509,-5.5912 -16.58069,-16.15082 -18.65861,-50.52039 -4.73859,-78.37759 1.64685,-3.29575 4.59841,-8.23937 6.55902,-10.98582 l 3.56474,-4.99356 0.1737,-15.480017 c 0.14616,-13.025776 0.57522,-16.994294 2.70621,-25.031269 2.70973,-10.219649 8.32752,-22.294792 14.14038,-30.393988 1.96988,-2.744697 3.58161,-5.526037 3.58161,-6.180752 0,-1.958322 -8.40678,-2.773889 -28.46197,-2.761206 -24.73542,0.01568 -41.46674,2.336125 -61.88336,8.582672 C 225.89324,36.049213 210.64794,45.68088 191.3461,64.233922 154.84738,99.316717 128.72763,137.38208 93.703128,206.53292 80.585597,232.4316 64.409273,276.56571 55.203625,311.57165 41.920964,362.0811 29.65829,446.76256 28.887051,493.30412 l -0.222872,13.44969 10.485988,4.33752 c 49.438935,20.45039 122.159993,36.90517 181.757123,41.12668 30.7214,2.17611 56.32222,2.48886 82.88923,1.01261 z m 32.50657,-110.6703 c 0.5218,-0.46263 4.54392,-2.08373 8.93805,-3.60244 45.9987,-15.89816 88.72882,-48.91142 114.34986,-88.34668 2.90319,-4.4685 5.48324,-7.91982 5.73346,-7.66959 1.77198,1.77206 -10.67701,26.70944 -18.54103,37.14073 -6.62328,8.78551 -21.47117,23.52707 -30.63704,30.41764 -13.04303,9.8053 -33.00322,20.58586 -47.74778,25.78874 -12.69355,4.47913 -34.98721,8.83542 -32.09552,6.2716 z m 3.44539,-78.17234 c -54.68385,-6.2417 -92.42291,-29.87177 -112.79594,-70.62645 -3.39424,-6.78991 -5.21181,-11.1525 -4.64643,-11.1525 0.19289,0 4.78811,5.5054 10.2116,12.23421 28.85863,35.80434 49.2455,48.55317 102.73678,64.24598 21.49429,6.30582 22.37077,7.33924 4.49399,5.29876 z m 95.00213,-132.15618 -0.37042,-7.93202 -12.0836,-11.77188 c -6.64597,-6.47454 -12.36669,-11.44411 -12.7127,-11.04349 -0.71224,0.82466 3.56664,36.56432 4.57246,38.19185 0.40818,0.66048 4.45024,0.94892 10.80835,0.7713 l 10.15634,-0.28374 z M 365.602,208.93192 c 4.62577,-10.57458 8.15703,-19.47997 7.84726,-19.78976 -0.30978,-0.30979 -3.86223,1.24684 -7.89434,3.45918 -4.03212,2.21232 -10.47692,5.20356 -14.32178,6.64718 -3.84487,1.44361 -7.80475,3.35759 -8.79975,4.25329 -3.44098,3.09755 -11.84478,15.17341 -11.42852,16.42224 0.4427,1.32817 22.18648,8.7403 24.70545,8.4217 0.90068,-0.11392 4.77746,-7.72266 9.89168,-19.41383 z m 95.26096,-7.476 c 8.36869,-8.43682 13.74432,-23.23295 13.66187,-37.60355 -0.0451,-7.86567 -1.16455,-15.62856 -2.43093,-16.85792 -0.40194,-0.3902 -1.91957,0.86352 -3.37252,2.78604 -8.43391,11.15967 -18.42205,19.74513 -29.1822,25.08405 l -6.35539,3.15338 -4.78082,-5.38 c -3.90295,-4.39212 -4.96007,-5.10492 -5.75706,-3.88192 -3.09831,4.7543 0.98625,12.57794 13.07155,25.03753 12.71099,13.10464 18.11404,14.75108 25.1455,7.66239 z M 341.36717,178.23449 c 7.75132,-2.91772 20.13018,-9.57917 24.2624,-13.05638 2.48332,-2.08967 3.04563,-3.57252 4.13727,-10.91032 0.69483,-4.67058 0.99536,-8.75996 0.66785,-9.08749 -0.32753,-0.32754 -8.43271,1.24765 -18.01152,3.5004 -9.57881,2.25276 -18.08029,4.09592 -18.89218,4.09592 -1.32352,0 -5.62806,-8.0693 -8.74959,-16.40202 -0.96162,-2.56698 -1.27066,-2.7424 -2.55995,-1.45305 -1.88749,1.88758 -4.40393,13.76464 -4.42627,20.89105 -0.0224,7.13951 2.40565,16.43443 5.53338,21.18276 2.23944,3.39978 2.87798,3.74517 6.92397,3.74517 2.45137,0 7.45295,-1.12772 11.11464,-2.50604 z m 58.68003,-18.21721 c 1.62346,-5.52684 1.81639,-9.49827 0.50187,-10.33086 -2.32105,-1.4701 -5.70742,-1.01349 -6.25277,0.8431 -1.62346,5.52684 -1.81639,9.49827 -0.50187,10.33086 2.32105,1.4701 5.70741,1.01349 6.25277,-0.8431 z m 47.05016,-14.49599 c 7.97583,-8.26874 12.49886,-16.51493 15.50435,-28.26683 1.88293,-7.36252 2.69442,-18.408225 1.3524,-18.408225 -0.34516,0 -3.68522,2.884555 -7.42234,6.410135 -8.40948,7.93344 -15.77471,13.41331 -26.5622,19.76275 -4.58179,2.69681 -8.33052,5.25702 -8.33052,5.68934 0,1.53435 16.0424,22.06816 17.24113,22.06816 0.67038,0 4.36811,-3.2649 8.21718,-7.25533 z m -80.90478,-19.74572 c 11.52329,-2.75906 21.38639,-5.45146 21.91799,-5.98308 0.62296,-0.623 0.19754,-1.94388 -1.19675,-3.71578 -1.18981,-1.51204 -5.40162,-7.46808 -9.35955,-13.23563 -3.95794,-5.767557 -8.27154,-11.79291 -9.58579,-13.389679 -3.3211,-4.035031 -14.65219,-27.500083 -17.63792,-36.525603 -1.35914,-4.108536 -2.89835,-7.612463 -3.42045,-7.786509 -1.35306,-0.451038 -4.71857,5.34548 -7.69486,13.253113 -2.79968,7.438429 -5.44363,22.762688 -5.45287,31.604785 -0.0132,12.642523 7.48549,40.836043 10.85204,40.801333 0.3447,-0.004 10.05486,-2.26388 21.57816,-5.02295 z m 119.18086,-10.1227 c -0.40383,-2.74456 -2.81579,-3.66705 -2.81579,-1.07694 0,2.07279 0.80708,3.24581 2.23323,3.24581 0.49592,0 0.75807,-0.97599 0.58256,-2.16887 z"
         id="path1056" />
    </g>
</svg>
