<?xml version="1.0" encoding="UTF-8" standalone="no"?>
<svg
   version="1.1"
   id="svg32173"
   width="2001"
   height="2001"
   viewBox="0 0 2001 2001"
   xmlns="http://www.w3.org/2000/svg"
   xmlns:svg="http://www.w3.org/2000/svg">
  <g
     id="head">
    <path
       fill="#a2b54a"
       d="m 983.15653,1366.8469 c -2.74945,-0.2056 -12.87244,-0.8612 -22.49552,-1.4569 -36.03251,-2.2304 -72.05953,-6.752 -100.47996,-12.6109 -44.03365,-9.0777 -120.01501,-40.6922 -177.40259,-73.814 -90.63643,-52.3116 -163.89855,-120.4201 -217.91272,-202.5833 -6.38196,-9.7079 -13.23478,-20.3327 -15.22849,-23.6107 -3.04149,-5.0007 -4.51568,-6.3677 -9.15933,-8.4932 -11.36441,-5.2018 -19.45757,-10.7401 -27.59809,-18.8857 -10.7896,-10.7965 -21.76128,-24.4517 -32.51541,-40.46829 -4.74325,-7.06437 -12.49318,-17.3426 -17.22208,-22.84048 -17.71897,-20.60034 -38.89341,-56.79055 -50.44017,-86.20968 -2.4261,-6.18132 -4.84551,-11.09712 -5.37646,-10.92398 -1.43017,0.46632 -12.6044,22.92084 -19.43488,39.05421 -14.36729,33.93498 -23.62999,68.60588 -27.13355,101.56262 -1.60738,15.1201 -1.33767,46.236 0.5242,60.4767 1.74968,13.3825 6.30546,33.3376 9.40735,41.2056 1.11883,2.8379 4.79439,11.0452 8.1679,18.2383 3.37353,7.193 5.86913,13.7676 5.54579,14.61 -0.63216,1.6471 -2.43983,0.7657 -31.60038,-15.4067 -36.93008,-20.4814 -68.5123,-45.873 -92.21718,-74.1413 -38.26411,-45.6302 -59.99226,-105.37373 -60.1675,-165.43602 -0.0315,-10.78594 0.51896,-23.01931 1.27384,-28.31146 0.73109,-5.12532 1.09249,-9.55551 0.80312,-9.8448 -1.82816,-1.82779 -9.510108,35.80127 -14.56528,71.34633 -7.470361,52.5272 -9.216433,77.49795 -9.037589,129.24715 0.10312,29.8347 -0.131323,37.4855 -1.148651,37.4855 -2.359519,0 -28.741469,-62.7539 -36.337615,-86.43508 C 22.06907,938.31962 9.0864284,865.18857 2.2703874,778.15451 0.12574493,750.76959 -0.76686711,665.89286 0.77534542,635.99383 10.591208,445.69268 61.353428,293.49057 152.22908,181.88492 178.89917,149.13099 211.33563,118.72971 252.2693,88.121538 337.54152,24.359187 425.20128,-6.0135363 503.75211,0.98668872 551.43524,5.2360767 594.96818,21.259285 634.52044,49.11868 l 7.29294,5.136935 17.70207,-5.628306 c 67.13093,-21.344002 131.4931,-32.876915 205.1647,-36.763024 26.89224,-1.418541 77.2201,-0.655836 103.97927,1.575781 C 1196.3057,32.42487 1365.5269,136.63 1428.8799,296.8405 c 18.6187,47.08372 34.7804,122.09194 41.1381,190.92622 4.4702,48.39877 3.8791,104.025 -1.5348,144.44418 -3.0872,23.04774 -9.8007,50.19276 -19.9017,80.46891 -8.1625,24.46574 -13.0887,36.4859 -14.9531,36.4859 -0.9365,0 -2.9007,-5.97679 -6.2418,-18.99266 -7.5876,-29.55967 -24.1824,-83.6563 -26.8313,-87.4662 -0.7277,-1.04655 -0.8503,7.40718 -0.4058,27.98918 0.9209,42.66022 -0.9359,85.89701 -6.6537,154.93333 -1.2124,14.63804 -1.7628,27.09943 -1.3688,30.98803 0.3624,3.57741 2.8404,19.56204 5.5067,35.52167 7.9246,47.43507 8.6221,69.18377 2.9333,91.46076 -6.5051,25.47318 -16.2642,38.26448 -72.4328,94.93858 -48.783,49.2221 -55.8221,57.5555 -66.282,78.4697 -11.9524,23.8986 -17.5655,45.9219 -24.3276,95.4516 -5.892,43.1557 -8.5601,54.3414 -15.4348,64.7065 -13.6174,20.5314 -62.5566,40.433 -117.4575,47.7655 -8.71,1.1632 -24.2245,1.6269 -63.9873,1.9123 -28.8692,0.2073 -54.73902,0.2086 -57.48847,0 z"
       id="path32197" />
    <path
       fill="#517d3a"
       d="m 971.65882,1365.3231 c -50.40945,-2.8168 -96.69144,-9.0893 -128.81681,-17.4582 -15.38972,-4.0093 -48.22143,-16.0423 -75.64243,-27.7237 -23.37016,-9.9557 -67.84223,-32.2502 -87.98246,-44.1068 -97.69735,-57.5152 -171.83904,-129.9416 -228.63136,-223.342 -3.34354,-5.4988 -4.42928,-6.4241 -11.99761,-10.2254 -12.63825,-6.3477 -17.56496,-9.8805 -26.53427,-19.027 -10.6077,-10.8171 -20.1586,-22.8008 -30.80303,-38.64874 -4.69581,-6.9914 -12.3975,-17.20995 -17.11484,-22.70783 -19.1966,-22.37285 -36.99203,-52.70723 -50.43186,-85.96678 -2.66596,-6.59745 -5.44626,-12.12331 -6.17844,-12.27975 -1.50652,-0.32188 -15.94298,28.58405 -23.10686,46.26662 -12.75908,31.49303 -21.58322,65.9736 -24.53894,95.88668 -1.34998,13.6621 -1.3844,43.1582 -0.0643,55.055 2.73377,24.636 7.61305,42.1993 17.54035,63.1375 6.7467,14.2299 7.13017,15.3322 5.33373,15.3322 -1.67863,0 -36.8323,-19.3113 -48.81834,-26.8178 -25.8706,-16.202 -54.1087,-40.4763 -72.29615,-62.1479 -17.18708,-20.4794 -35.08785,-51.36111 -44.24565,-76.33056 -14.54974,-39.67097 -19.579318,-83.60129 -14.01771,-122.43629 2.86042,-19.97338 0.5988,-16.87048 -5.528705,7.58527 -4.154482,16.5811 -8.432249,41.00406 -12.38831,70.72817 -6.059882,45.53131 -7.857484,74.74831 -7.395646,120.20421 0.218267,21.4837 -0.01,33.1218 -0.645141,32.9096 -1.392652,-0.4651 -25.249736,-56.2009 -30.811407,-71.9827 C 23.016531,944.46934 7.4653516,855.31349 1.7910629,754.66358 0.41565713,730.26681 0.45215985,656.46939 1.8521507,631.21129 12.278832,443.09272 62.865437,292.93282 153.22345,181.88492 198.03166,126.81667 267.71469,71.412345 333.04461,38.910804 381.34135,14.883249 425.71539,2.8926922 472.25839,1.2930603 532.62665,-0.78172793 586.91141,15.91639 637.21295,52.033463 l 4.34864,3.122374 15.82837,-5.059385 C 717.29261,30.949121 773.51959,19.82273 837.68553,14.418948 c 26.13561,-2.201029 80.68501,-2.994842 107.47857,-1.564045 235.231,12.561536 414.1855,116.590027 481.2749,279.771157 7.0269,17.09156 13.3531,36.94028 19.6469,61.64318 19.583,76.86236 28.5755,156.99257 25.5264,227.46117 -1.7755,41.03558 -4.3546,60.0558 -12.6172,93.04785 -6.5593,26.19143 -22.663,73.38783 -25.0402,73.38783 -0.4782,0 -2.3415,-5.62282 -4.1409,-12.49517 -9.668,-36.92639 -28.0888,-96.13273 -30.3429,-97.52561 -0.6932,-0.42833 -0.8039,9.60858 -0.3438,31.20375 0.9633,45.23461 -0.5216,81.21941 -6.4495,156.2871 -2.2504,28.49959 -2.1757,29.68003 4.2981,67.97373 6.5588,38.79551 7.8341,56.33333 5.4884,75.47084 -1.9783,16.14066 -6.8162,29.57897 -15.654,43.48317 -8.0411,12.6506 -19.8269,25.6789 -59.2312,65.4747 -40.783,41.1885 -50.0927,51.4454 -58.5205,64.4751 -15.3903,23.7939 -24.6704,53.6409 -30.9249,99.4616 -8,58.6075 -10.0308,66.8985 -19.1382,78.1301 -10.0207,12.3577 -37.3038,26.1566 -68.759,34.7759 -26.987,7.3949 -65.0481,12.8662 -67.0439,9.6374 -0.3089,-0.4998 2.7014,-1.4414 6.6897,-2.0925 46.5079,-7.5918 100.1519,-29.318 116.177,-47.0526 8.7428,-9.6754 9.8445,-15.0916 15.0314,-73.8981 3.5787,-40.5751 9.6511,-67.9188 20.463,-92.1441 11.894,-26.6502 23.375,-41.3916 69.0574,-88.6689 14.1401,-14.6337 28.5053,-29.7557 31.9225,-33.6042 15.9477,-17.9601 27.1417,-35.57893 30.4848,-47.98143 1.587,-5.88793 3.396,-27.48938 2.302,-27.48938 -0.3065,0 -2.9336,1.23262 -5.8378,2.73904 -10.8351,5.62033 -24.4016,3.90699 -30.1018,-3.80163 -2.696,-3.64589 -9.1073,-7.68943 -17.2919,-10.90589 -21.3204,-8.37886 -30.3962,-18.41008 -36.6524,-40.51124 -1.7653,-6.23669 -2.272,-10.63729 -2.3017,-19.99228 -0.035,-11.10331 0.1652,-12.4042 2.6959,-17.49324 1.5038,-3.02383 7.4641,-11.09301 13.2451,-17.93157 10.367,-12.26346 15.4489,-19.52925 25.0956,-35.88053 9.2239,-15.63446 22.8,-28.01978 35.9,-32.75105 l 6.0087,-2.17016 0.6836,-6.86355 c 1.303,-13.08474 2.1965,-103.97278 1.0291,-104.69411 -0.6467,-0.39956 -2.521,2.06524 -4.6478,6.11173 -9.5454,18.16141 -26.4103,32.17231 -45.9104,38.14087 -6.7489,2.06566 -8.2525,2.09768 -97.9805,2.08599 -98.021,-0.0128 -95.6293,0.10562 -106.1827,-5.25574 -16.25,-8.25535 -28.4275,-25.19217 -37.4681,-52.11133 -2.0128,-5.9933 -3.9025,-10.49157 -4.1992,-9.99614 -0.2967,0.49542 -2.3822,5.62958 -4.6345,11.40924 -10.0231,25.72136 -25.1757,48.8929 -35.374,54.09479 -5.8095,2.96313 -34.41803,4.16576 -100.72861,4.23414 -58.08405,0.06 -85.36317,-1.0443 -96.65455,-3.9124 -24.73766,-6.28348 -47.29991,-28.62702 -65.56047,-64.925 -6.58701,-13.09355 -7.53202,-13.40063 -7.69044,-2.49904 -0.18152,12.49056 -4.64937,45.23242 -7.58559,55.58971 -1.80296,6.35977 -8.23626,12.7041 -14.63,14.42763 -19.75643,5.32575 -39.26834,8.50042 -62.98405,10.24764 l -16.33647,1.20354 -1.77181,22.49131 c -0.97449,12.37022 -3.5726,33.96188 -5.77357,47.98146 -7.92521,50.48149 -9.45554,67.06428 -9.45554,102.46041 0,41.51345 3.67723,62.57581 15.03657,86.12651 10.96085,22.7245 27.34388,38.2374 53.60367,50.7566 14.19474,6.7673 24.02945,10.0283 54.72739,18.1466 35.80753,9.4696 47.35543,13.8654 58.43292,22.2431 8.3988,6.3518 16.61858,18.8333 22.24469,33.7776 7.9738,21.1805 12.47144,55.8676 10.37693,80.03 -1.27925,14.7575 -1.23806,40.1753 0.0827,51.0115 3.88926,31.9098 23.31957,63.3563 55.44133,89.7276 12.21367,10.0271 27.82025,20.889 33.65919,23.4263 5.89313,2.5607 56.09241,9.3469 100.31401,13.5608 9.3482,0.8909 18.1214,1.8849 19.4961,2.209 l 2.4995,0.5892 -2.4995,0.7566 c -3.3022,0.9994 -75.48045,0.8854 -93.98116,-0.1484 z M 1256.144,604.23808 c 6.7453,-4.31417 20.2313,-17.08729 26.1457,-24.76356 5.8531,-7.59694 12.5435,-20.34655 15.8183,-30.14402 9.64,-28.84093 8.1394,-60.66753 -4.6824,-99.31187 -7.159,-21.57735 -8.0719,-21.27219 -5.2703,1.76199 2.0672,16.99579 2.0469,51.79934 -0.039,67.47393 -4.6733,35.11347 -14.7975,59.64642 -33.6545,81.55199 -3.2733,3.8026 -5.459,6.91383 -4.857,6.91383 0.602,0 3.5448,-1.56703 6.5394,-3.48229 z m 146.9555,-176.12756 c -14.875,-96.64411 -58.106,-179.86711 -121.0026,-232.93968 -10.4989,-8.85902 -31.109,-23.29671 -33.2434,-23.28747 -2.165,0.009 -1.4363,1.0872 6.0108,8.89086 49.198,51.55389 101.1897,139.28403 138.096,233.02107 9.1997,23.36582 10.5308,26.40472 11.251,25.68464 0.3042,-0.30407 -0.1962,-5.4203 -1.1118,-11.36942 z M 380.70453,183.13443 C 445.11839,118.51982 505.19874,77.524643 551.99128,66.258786 c 6.46054,-1.555449 11.74699,-3.109238 11.74766,-3.452855 0.004,-1.999308 -16.66651,-2.453482 -31.74775,-0.864956 -41.53604,4.375059 -79.03648,22.515239 -111.56873,53.969435 -14.46803,13.98858 -26.24401,28.13717 -37.02342,44.48281 -12.30335,18.65651 -25.18736,42.48358 -22.97214,42.48358 0.32813,0 9.45306,-8.88406 20.27763,-19.74237 z m 731.92617,895.83897 c -1.3748,-0.2362 -6.5487,-0.9289 -11.4977,-1.5392 -15.4312,-1.9029 -30.8356,-7.9253 -33.6313,-13.1481 -7.1377,-13.3344 4.014,-32.4016 29.7556,-50.8765 l 7.8749,-5.6517 12.9974,0.7826 c 7.1486,0.4304 13.7502,1.0969 14.6704,1.4809 1.1386,0.4753 2.0279,0.035 2.7846,-1.3784 0.6114,-1.1422 1.9259,-2.0768 2.921,-2.0768 5.1306,0 29.358,20.606 35.9803,30.602 2.7831,4.2009 2.8472,4.6039 2.7408,17.2336 -0.094,11.1643 -0.3661,13.2161 -1.9907,15.0105 -2.8196,3.1144 -9.4682,5.9964 -17.7309,7.686 -7.0645,1.4446 -39.4943,2.7997 -44.8744,1.8751 z"
       id="path32195" />
    <path
       fill="#ad2826"
       d="m 994.65424,1365.7576 c -62.88547,-2.2835 -121.92958,-9.7391 -156.95636,-19.8189 -33.25676,-9.5706 -91.35701,-34.1882 -132.48594,-56.1357 -109.86091,-58.6248 -191.25665,-134.7142 -254.51991,-237.9277 -3.30944,-5.3993 -4.28861,-6.1856 -13.41802,-10.7752 -5.41643,-2.7229 -12.49507,-6.9403 -15.7303,-9.3718 -9.99405,-7.5113 -27.21926,-28.0296 -40.10015,-47.76672 -3.54737,-5.4355 -9.02102,-12.80665 -12.16364,-16.38027 -21.26222,-24.17816 -40.76958,-56.52426 -54.55796,-90.46504 -3.15035,-7.75481 -6.31969,-14.12155 -7.10814,-14.27939 -1.5685,-0.31388 -13.29684,22.38055 -21.32758,41.26896 -26.99431,63.49116 -35.1044,130.46406 -22.36714,184.70766 2.98879,12.7281 5.66552,20.1143 12.87068,35.5152 3.42297,7.3167 5.93698,13.5895 5.58667,13.9398 -0.66355,0.6634 -5.94382,-2.0254 -28.57451,-14.5504 -85.72894,-47.4472 -135.32451,-114.6778 -149.51303,-202.67661 -2.50536,-15.53849 -3.0292,-49.20398 -1.00233,-64.41731 2.88841,-21.67982 2.94407,-22.35616 1.78076,-21.63734 -2.11802,1.3088 -7.928427,22.05528 -12.218961,43.62885 -3.077347,15.47342 -10.710855,69.97546 -12.460446,88.96562 -2.523027,27.38512 -3.480246,56.33239 -2.840754,85.90789 0.371896,17.1998 0.244252,28.0481 -0.330034,28.0481 -1.528375,0 -26.824262,-60.3981 -32.834963,-78.3988 C 2.5695577,877.91846 -10.53508,687.99273 11.925912,532.74934 31.443141,397.85234 74.814494,285.66784 141.38935,197.87874 172.40462,156.98038 204.60199,125.5421 251.30244,90.556967 315.74475,42.280712 375.88318,14.890606 440.55223,4.3629741 453.87199,2.194622 494.43224,1.3369434 509.04156,2.9147137 555.22123,7.9020165 595.94009,23.505107 635.43504,51.347548 l 6.20796,4.376369 13.78806,-4.457227 c 64.01732,-20.694684 126.02379,-32.451391 197.25148,-37.399778 21.07853,-1.464385 80.54204,-1.473301 101.97967,-0.0153 115.04669,7.824527 215.19279,36.41312 297.44069,84.91014 34.1867,20.158008 62.6353,42.132488 90.0466,69.554528 24.5188,24.52837 41.6977,46.32141 58.2941,73.9515 26.0782,43.41571 40.8382,85.34155 55.1075,156.5333 10.8422,54.09359 15.9826,104.21285 15.9937,155.93974 0.011,50.16247 -3.6554,83.1748 -13.502,121.58179 -6.6481,25.93068 -21.464,69.1774 -23.9854,70.01138 -0.5448,0.18023 -2.9672,-7.43063 -5.3831,-16.91316 -8.2256,-32.28601 -27.3738,-92.7044 -29.6007,-93.39931 -0.6582,-0.20538 -1.003,18.56026 -1.0092,54.91668 -0.01,57.07735 -0.3782,65.94093 -5.1224,123.2024 -1.6248,19.61042 -2.3768,34.47468 -2.0483,40.48436 0.2855,5.22298 2.5524,21.41672 5.0373,35.98609 5.6039,32.8563 6.6419,42.21159 6.6419,59.86507 0,46.65147 -10.7618,64.39488 -80.0019,131.90368 -38.2816,37.3244 -50.4848,51.8793 -61.3269,73.1454 -12.4205,24.3623 -18.6393,48.7411 -25.6223,100.4447 -5.9017,43.6966 -9.2484,55.4695 -18.6139,65.4803 -15.0857,16.1247 -52.3993,31.5315 -95.379,39.3817 -13.3739,2.4428 -31.9962,4.4099 -30.9508,3.2694 0.2985,-0.3258 6.0022,-1.7447 12.6746,-3.1533 41.2832,-8.7148 83.1471,-26.3225 100.2714,-42.1736 11.4857,-10.6318 13.4298,-17.5302 16.9949,-60.3055 4.7706,-57.2386 10.5514,-85.0314 23.3599,-112.3071 11.3648,-24.2016 21.8736,-37.4793 66.5757,-84.117 15.2822,-15.9438 31.056,-32.786 35.0531,-37.427 22.7339,-26.39663 30.9704,-43.8137 30.9704,-65.49103 0,-4.14659 -0.4085,-7.53928 -0.9076,-7.53928 -0.4992,0 -3.2837,1.23262 -6.1879,2.73904 -10.8351,5.62033 -24.4016,3.90699 -30.1018,-3.80163 -2.696,-3.64589 -9.1073,-7.68943 -17.2919,-10.90589 -21.3204,-8.37886 -30.3962,-18.41008 -36.6524,-40.51124 -1.7653,-6.23669 -2.272,-10.63729 -2.3017,-19.99228 -0.035,-11.10331 0.1652,-12.4042 2.6959,-17.49324 1.5038,-3.02383 7.4641,-11.09302 13.2451,-17.93157 10.367,-12.26346 15.4489,-19.52926 25.0956,-35.88053 9.4305,-15.98473 23.6646,-28.74739 37.0162,-33.18968 l 6.129,-2.03921 0.642,-7.20951 c 0.94,-10.55763 2.0238,-101.9312 1.2456,-105.03084 -0.9308,-3.70804 -2.0246,-3.29741 -4.2219,1.5851 -7.2227,16.04807 -21.2622,30.68028 -36.6398,38.18661 -14.0113,6.83937 -9.5022,6.56948 -109.7615,6.56948 -80.3981,0 -91.2014,-0.18124 -96.0208,-1.61089 -9.5441,-2.83121 -15.1749,-6.37829 -23.4268,-14.75772 -9.5532,-9.70072 -16.2232,-21.64423 -22.431,-40.1658 -2.1965,-6.55368 -4.3769,-12.04349 -4.8452,-12.19957 -0.4683,-0.15607 -2.553,4.33695 -4.6325,9.98448 -9.7247,26.41 -26.3547,52.55308 -36.1992,56.90696 -5.4397,2.40578 -25.5884,3.52117 -80.36249,4.44875 -37.79187,0.63995 -89.55307,-0.61914 -106.93457,-2.60118 -30.01705,-3.42286 -53.15672,-24.16255 -75.28754,-67.47895 l -7.15,-13.99459 -0.70957,4.99806 c -0.39026,2.74894 -1.22608,11.74547 -1.85739,19.99228 -1.42034,18.55409 -5.4184,42.699 -7.84421,47.37257 -3.14039,6.05025 -8.03692,9.10425 -18.8598,11.76299 -47.5873,11.69038 -101.43736,12.23557 -142.70934,1.44494 -6.28526,-1.64337 -13.24459,-3.91458 -15.46518,-5.04723 -5.90737,-3.01316 -11.64477,-9.49598 -14.78766,-16.70893 -1.51864,-3.48529 -3.03936,-6.33689 -3.37939,-6.33689 -0.34002,0 -1.13514,2.36159 -1.76693,5.24798 -2.98088,13.61838 -35.16231,169.12354 -35.16231,169.90914 0,0.49201 -2.31482,3.34171 -5.14404,6.33265 -3.88764,4.10982 -5.84016,5.438 -7.9942,5.438 -2.63379,0 -2.97764,-0.45832 -4.52902,-6.03736 -1.56246,-5.61873 -2.23855,-6.50739 -9.75226,-12.81805 -19.95302,-16.75813 -37.27117,-27.53486 -52.56454,-32.70976 -8.11876,-2.74724 -23.91076,-2.64698 -30.04482,0.19072 -13.79499,6.38174 -20.69643,21.36285 -23.14595,50.24329 -1.24982,14.73571 0.0719,42.03636 2.70004,55.76975 1.66045,8.67675 7.09266,22.82868 12.79266,33.32742 9.02993,16.63197 24.05096,37.74082 34.88164,49.01854 11.62397,12.1039 52.8358,32.0928 69.34725,33.6354 4.965,0.464 6.8003,0.1784 10.28922,-1.6012 11.75159,-5.9941 19.294,-20.5886 23.18727,-44.86712 0.74495,-4.64551 1.58848,-7.16044 2.32114,-6.92033 3.82938,1.25512 5.34627,29.04035 2.22236,40.70765 -3.61476,13.5006 -11.84841,24.5761 -22.63368,30.4459 -4.71688,2.5671 -6.68337,3.0035 -14.93048,3.3131 -5.22396,0.1961 -10.09474,0.5516 -10.82395,0.7899 -2.29811,0.751 17.85808,28.6116 39.73017,54.9166 14.83319,17.8394 54.39131,57.739 72.42916,73.0544 47.16489,40.0463 105.20218,77.2244 166.27361,106.5133 19.95942,9.5722 51.54989,23.3921 64.32483,28.1403 19.58507,7.2794 46.47544,14.0605 77.98445,19.6658 9.62308,1.7119 20.64589,3.766 24.49512,4.5647 13.46082,2.7931 53.23279,8.336 81.9836,11.4259 38.5586,4.144 38.622,4.1531 35.4929,5.0909 -2.3275,0.6975 -46.1191,0.8913 -62.98736,0.2787 z M 1263.7389,598.94207 c 17.7169,-14.08811 31.0118,-34.5385 36.7569,-56.54027 6.7642,-25.90361 4.8334,-56.81006 -5.5589,-88.9836 -4.0877,-12.65521 -8.0909,-22.21309 -8.9457,-21.35842 -0.3183,0.31832 0.2481,6.34766 1.2588,13.39855 2.619,18.27203 2.6324,63.04883 0.024,78.79429 -5.6055,33.8306 -15.6807,57.19071 -32.6537,75.71037 -3.309,3.61046 -6.0163,7.06693 -6.0163,7.68104 0,1.78128 7.0476,-2.27067 15.1353,-8.70196 z m 140.4358,-164.90459 c -1.7931,-17.95147 -10.2561,-54.08914 -18.7379,-80.011 -24.2943,-74.24844 -68.4928,-136.8748 -122.836,-174.05082 -9.4697,-6.47815 -14.9182,-9.49861 -15.7085,-8.70833 -0.2891,0.28907 4.6958,6.29408 11.0775,13.34446 51.1452,56.50389 97.9926,136.14399 134.2265,228.1839 12.6064,32.02243 13.1517,32.98938 11.9784,21.24179 z M 376.84166,187.30032 C 444.70915,118.83965 506.41591,76.611356 554.24204,65.898456 c 5.4989,-1.231734 10.38972,-2.592549 10.86847,-3.024022 3.32806,-2.999391 -33.2939,-2.183286 -48.83374,1.08825 C 452.92617,77.29959 402.1884,119.9699 364.93324,191.24214 c -4.45298,8.51893 -6.02893,12.63428 -4.83824,12.63428 0.1728,0 7.7088,-7.45925 16.74666,-16.5761 z M 853.30511,1187.4822 c -0.29354,-1.3667 -1.28297,-7.2081 -2.19871,-12.9808 -5.68712,-35.8507 -18.19456,-69.648 -31.01775,-83.8155 -9.09594,-10.0494 -17.23022,-13.267 -55.88847,-22.1076 -12.09759,-2.7666 -26.85069,-6.4056 -32.78465,-8.087 -58.9114,-16.692 -93.30694,-51.446 -104.16903,-105.25452 -9.16218,-45.38746 -2.99028,-105.28652 17.04043,-165.3793 5.88952,-17.66877 8.59129,-23.83589 9.19902,-20.99778 0.20032,0.93544 -1.22498,11.28144 -3.16735,22.99111 -6.941,41.84383 -9.60597,69.81742 -9.65396,101.33525 -0.0818,53.71214 9.78624,87.14102 32.93537,111.57154 11.27499,11.8991 19.15926,17.6508 34.61133,25.2494 14.71047,7.2339 29.0846,12.0695 57.98844,19.5081 50.04685,12.8801 62.02965,20.0379 73.87129,44.1268 10.16014,20.6683 14.51025,41.2173 15.34067,72.4657 0.35092,13.2052 0.17281,20.7406 -0.51945,21.9774 -0.98016,1.7511 -1.09062,1.7091 -1.58718,-0.6028 z m 225.13819,-134.2754 c -6.6249,-1.8641 -8.1165,-3.3451 -7.4576,-7.4045 1.1345,-6.9901 17.9756,-26.0161 30.1159,-34.023 5.636,-3.717 7.4304,-3.757 9.2687,-0.2061 2.1405,4.1343 -1.3558,28.4711 -5.1417,35.7909 -2.8249,5.4616 -17.0849,8.5722 -26.7853,5.8427 z m 74.8666,-1.7409 c -9.163,-1.4641 -11.8698,-5.1142 -15.6767,-21.1403 -2.7467,-11.5627 -3.0227,-19.172 -0.7771,-21.4184 1.6009,-1.6012 1.9781,-1.6121 5.0539,-0.1456 8.4714,4.0389 28.9412,23.2399 33.1951,31.1376 2.6008,4.8284 1.3377,8.5053 -3.4862,10.1485 -5.0206,1.7102 -12.7395,2.3081 -18.309,1.4182 z M 500.95949,997.59101 c -8.25423,-3.90419 -16.40296,-12.08123 -20.26742,-20.33784 -7.7715,-16.60428 -5.57818,-30.45283 6.6896,-42.23798 2.95495,-2.8387 5.37263,-5.75817 5.37263,-6.48769 0,-2.64518 -17.39306,-33.76615 -26.77769,-47.91259 -15.81637,-23.84168 -30.56052,-36.9857 -41.48837,-36.9857 -5.20867,0 -8.44011,2.84999 -11.77135,10.38208 -8.6241,19.49927 -5.33015,63.98098 6.06837,81.94774 3.34,5.26456 3.33665,6.69341 -0.0102,4.34962 -7.87833,-5.51717 -16.116,-25.14759 -18.96738,-45.19934 -1.49665,-10.52493 -1.23916,-27.58324 0.54686,-36.2284 5.19862,-25.16337 21.12028,-33.42538 41.36098,-21.4628 15.6458,9.24702 34.16383,33.08691 50.8017,65.40162 7.95847,15.45723 14.47996,30.56819 13.72176,31.79482 -0.34582,0.55938 -2.78234,2.10818 -5.41449,3.44177 -13.91292,7.04887 -18.87624,18.56272 -14.48064,33.59192 2.9617,10.12648 9.00841,17.61589 19.65782,24.34799 3.16187,1.99873 5.74885,3.84521 5.74885,4.10317 0,1.3393 -5.22302,0.1252 -10.79102,-2.50839 z"
       id="path32193" />
    <path
       fill="#61412c"
       d="m 994.65424,1365.7576 c -62.88547,-2.2835 -121.92958,-9.7391 -156.95636,-19.8189 -33.25676,-9.5706 -91.35701,-34.1882 -132.48594,-56.1357 -109.86091,-58.6248 -191.25665,-134.7142 -254.51991,-237.9277 -3.30944,-5.3993 -4.28861,-6.1856 -13.41802,-10.7752 -5.41643,-2.7229 -12.49507,-6.9403 -15.7303,-9.3718 -9.99405,-7.5113 -27.21926,-28.0296 -40.10015,-47.76672 -3.54737,-5.4355 -9.02102,-12.80665 -12.16364,-16.38027 -21.26222,-24.17816 -40.76958,-56.52426 -54.55796,-90.46504 -3.15035,-7.75481 -6.31969,-14.12155 -7.10814,-14.27939 -1.5685,-0.31388 -13.29684,22.38055 -21.32758,41.26896 -26.99431,63.49116 -35.1044,130.46406 -22.36714,184.70766 2.98879,12.7281 5.66552,20.1143 12.87068,35.5152 3.42297,7.3167 5.93698,13.5895 5.58667,13.9398 -0.66355,0.6634 -5.94382,-2.0254 -28.57451,-14.5504 -85.72894,-47.4472 -135.32451,-114.6778 -149.51303,-202.67661 -2.50536,-15.53849 -3.0292,-49.20398 -1.00233,-64.41731 2.88841,-21.67982 2.94407,-22.35616 1.78076,-21.63734 -2.11802,1.3088 -7.928427,22.05528 -12.218961,43.62885 -3.077347,15.47342 -10.710855,69.97546 -12.460446,88.96562 -2.523027,27.38512 -3.480246,56.33239 -2.840754,85.90789 0.371896,17.1998 0.244252,28.0481 -0.330034,28.0481 -1.528375,0 -26.824262,-60.3981 -32.834963,-78.3988 C 2.5695577,877.91846 -10.53508,687.99273 11.925912,532.74934 31.443141,397.85234 74.814494,285.66784 141.38935,197.87874 172.40462,156.98038 204.60199,125.5421 251.30244,90.556967 315.74475,42.280712 375.88318,14.890606 440.55223,4.3629741 453.87199,2.194622 494.43224,1.3369434 509.04156,2.9147137 555.22123,7.9020165 595.94009,23.505107 635.43504,51.347548 l 6.20796,4.376369 13.78806,-4.457227 c 64.01732,-20.694684 126.02379,-32.451391 197.25148,-37.399778 21.07853,-1.464385 80.54204,-1.473301 101.97967,-0.0153 115.04669,7.824527 215.19279,36.41312 297.44069,84.91014 34.1867,20.158008 62.6353,42.132488 90.0466,69.554528 24.5188,24.52837 41.6977,46.32141 58.2941,73.9515 26.0782,43.41571 40.8382,85.34155 55.1075,156.5333 10.8422,54.09359 15.9826,104.21285 15.9937,155.93974 0.011,50.16247 -3.6554,83.1748 -13.502,121.58179 -6.6481,25.93068 -21.464,69.1774 -23.9854,70.01138 -0.5448,0.18023 -2.9672,-7.43063 -5.3831,-16.91316 -8.2256,-32.28601 -27.3738,-92.7044 -29.6007,-93.39931 -0.6582,-0.20538 -1.003,18.56026 -1.0092,54.91668 -0.01,57.07735 -0.3782,65.94093 -5.1224,123.2024 -1.6248,19.61042 -2.3768,34.47468 -2.0483,40.48436 0.2855,5.22298 2.5524,21.41672 5.0373,35.98609 5.6039,32.8563 6.6419,42.21159 6.6419,59.86507 0,46.65147 -10.7618,64.39488 -80.0019,131.90368 -38.2816,37.3244 -50.4848,51.8793 -61.3269,73.1454 -12.4205,24.3623 -18.6393,48.7411 -25.6223,100.4447 -5.9017,43.6966 -9.2484,55.4695 -18.6139,65.4803 -15.0857,16.1247 -52.3993,31.5315 -95.379,39.3817 -13.3739,2.4428 -31.9962,4.4099 -30.9508,3.2694 0.2985,-0.3258 6.0022,-1.7447 12.6746,-3.1533 41.2832,-8.7148 83.1471,-26.3225 100.2714,-42.1736 11.4857,-10.6318 13.4298,-17.5302 16.9949,-60.3055 4.7706,-57.2386 10.5514,-85.0314 23.3599,-112.3071 11.3648,-24.2016 21.8736,-37.4793 66.5757,-84.117 40.5097,-42.2638 50.8805,-54.8172 58.6328,-70.97258 6.7611,-14.08955 7.9377,-21.9921 6.5493,-43.98299 -1.1404,-18.06242 -2.719,-29.16323 -8.1033,-56.97799 -6.2904,-32.49694 -6.4639,-37.22811 -3.0758,-83.87828 1.1944,-16.44456 1.9609,-30.70505 1.7033,-31.68986 -0.2576,-0.98482 -0.081,-1.92465 0.3931,-2.08849 2.3102,-0.79859 4.2,-110.19112 1.9647,-113.72501 -1.1452,-1.81057 -1.1688,-1.7848 -4.5524,4.96912 -8.1871,16.34256 -20.6682,29.06479 -35.7238,36.41391 -14.0113,6.83936 -9.5022,6.56948 -109.7615,6.56948 -80.3981,0 -91.2014,-0.18124 -96.0208,-1.61089 -9.5441,-2.83122 -15.1749,-6.37829 -23.4268,-14.75772 -9.5532,-9.70072 -16.2232,-21.64424 -22.431,-40.16581 -2.1965,-6.55368 -4.3769,-12.04348 -4.8452,-12.19956 -0.4683,-0.15608 -2.553,4.33694 -4.6325,9.98448 -9.7247,26.41 -26.3547,52.55308 -36.1992,56.90695 -5.4397,2.40578 -25.5884,3.52118 -80.36249,4.44876 -37.79187,0.63995 -89.55307,-0.61914 -106.93457,-2.60118 -30.01705,-3.42287 -53.15672,-24.16256 -75.28754,-67.47895 l -7.15,-13.99459 -0.70957,4.99806 c -0.39026,2.74894 -1.22608,11.74547 -1.85739,19.99228 -1.42034,18.55409 -5.4184,42.699 -7.84421,47.37257 -3.14039,6.05025 -8.03692,9.10425 -18.8598,11.76299 -47.5873,11.69038 -101.43736,12.23557 -142.70934,1.44494 -6.28526,-1.64337 -13.24459,-3.91458 -15.46518,-5.04723 -5.90737,-3.01316 -11.64477,-9.49598 -14.78766,-16.70893 -1.51864,-3.48529 -3.03936,-6.33689 -3.37939,-6.33689 -0.34002,0 -1.13514,2.36159 -1.76693,5.24798 -2.98088,13.61838 -35.16231,169.12353 -35.16231,169.90914 0,0.49201 -2.31482,3.34171 -5.14404,6.33264 -3.88764,4.10982 -5.84016,5.438 -7.9942,5.438 -2.63379,0 -2.97764,-0.45831 -4.52902,-6.03736 -1.56246,-5.61873 -2.23855,-6.50739 -9.75226,-12.81805 -19.95302,-16.75813 -37.27117,-27.53486 -52.56454,-32.70976 -8.11876,-2.74724 -23.91076,-2.64697 -30.04482,0.19073 -13.79499,6.38174 -20.69643,21.36285 -23.14595,50.24329 -1.24982,14.73571 0.0719,42.03636 2.70004,55.76975 1.66045,8.67675 7.09266,22.82868 12.79266,33.32742 9.02993,16.63197 24.05096,37.74082 34.88164,49.01853 11.62397,12.1039 52.8358,32.0928 69.34725,33.6354 4.965,0.464 6.8003,0.1784 10.28922,-1.6012 11.75159,-5.9941 19.294,-20.5886 23.18727,-44.86712 0.74495,-4.64551 1.58848,-7.16044 2.32114,-6.92033 3.82938,1.25512 5.34627,29.04035 2.22236,40.70765 -3.61476,13.5006 -11.84841,24.5761 -22.63368,30.4459 -4.71688,2.5671 -6.68337,3.0035 -14.93048,3.3131 -5.22396,0.1961 -10.09474,0.5516 -10.82395,0.7899 -2.29811,0.751 17.85808,28.6116 39.73017,54.9166 14.83319,17.8394 54.39131,57.739 72.42916,73.0544 47.16489,40.0463 105.20218,77.2244 166.27361,106.5133 19.95942,9.5722 51.54989,23.3921 64.32483,28.1403 19.58507,7.2794 46.47544,14.0605 77.98445,19.6658 9.62308,1.7119 20.64589,3.766 24.49512,4.5647 13.46082,2.7931 53.23279,8.336 81.9836,11.4259 38.5586,4.144 38.622,4.1531 35.4929,5.0909 -2.3275,0.6975 -46.1191,0.8913 -62.98736,0.2787 z M 239.39802,1086.2854 c -3.71285,-18.3688 -4.0469,-22.6977 -4.03047,-52.2298 0.0156,-28.0359 0.19813,-31.0948 2.80332,-46.98182 4.68443,-28.56677 12.60439,-56.62542 23.84209,-84.46736 5.89066,-14.59436 16.65083,-37.35597 22.60662,-47.82103 2.29646,-4.03524 4.17538,-7.98911 4.17538,-8.7865 0,-2.62938 -3.85734,-9.0699 -7.03148,-11.74026 -2.05712,-1.73063 -4.30277,-2.62479 -6.59219,-2.62479 -9.91974,0 -16.52337,8.26591 -41.8757,52.41695 -13.86789,24.15076 -17.32553,29.69462 -28.71607,46.042 -12.14909,17.43597 -22.34284,25.25115 -31.57991,24.21105 -4.06227,-0.45732 -5.30691,-1.20783 -9.42123,-5.68061 -12.52248,-13.61364 -18.17578,-36.94042 -15.78299,-65.12413 0.61407,-7.23271 3.14247,-25.34741 5.61866,-40.25485 7.84955,-47.25653 9.66268,-66.69902 7.50409,-80.4678 -1.30591,-8.32988 -4.70178,-17.10939 -6.61785,-17.10939 -1.29063,0 -8.7219,16.65426 -13.15811,29.4886 -6.82742,19.75247 -13.25573,52.06479 -15.38775,77.34762 -2.2352,26.50625 0.0898,64.22498 5.10512,82.81999 2.18528,8.10227 22.84495,62.00054 26.73331,69.74353 8.4534,16.8336 29.04674,42.0144 48.32506,59.0901 10.70211,9.4793 31.4562,25.3773 33.12903,25.3773 0.60509,0 0.74536,-1.298 0.35107,-3.2488 z M 58.272922,952.35939 c 3.198302,-33.46927 12.964695,-81.5109 22.667151,-111.50141 11.525472,-35.62554 24.278457,-61.20625 43.113507,-86.47989 4.41915,-5.9297 7.78258,-11.03353 7.4743,-11.34181 -1.9309,-1.93056 -22.79586,12.69009 -38.693848,27.11382 -12.316795,11.17468 -19.41306,14.79588 -28.99422,14.79588 -11.376492,0 -21.120849,-5.90352 -32.659608,-19.78645 -2.284775,-2.74894 -4.381207,-4.77316 -4.658752,-4.49826 -0.5991,0.59337 1.665538,32.09679 3.880327,53.97914 4.951793,48.92429 14.304468,103.12135 24.543517,142.22524 0.544191,2.0783 1.359229,3.55023 1.811198,3.27093 0.45198,-0.27929 1.134364,-3.77903 1.516428,-7.77719 z M 1263.7389,598.94207 c 17.7169,-14.08811 31.0118,-34.5385 36.7569,-56.54027 6.7642,-25.90361 4.8334,-56.81006 -5.5589,-88.9836 -4.0877,-12.65521 -8.0909,-22.21309 -8.9457,-21.35842 -0.3183,0.31832 0.2481,6.34766 1.2588,13.39855 2.619,18.27203 2.6324,63.04883 0.024,78.79429 -5.6055,33.8306 -15.6807,57.19071 -32.6537,75.71037 -3.309,3.61046 -6.0163,7.06693 -6.0163,7.68104 0,1.78128 7.0476,-2.27067 15.1353,-8.70196 z m 140.4358,-164.90459 c -1.7931,-17.95147 -10.2561,-54.08914 -18.7379,-80.011 -24.2943,-74.24844 -68.4928,-136.8748 -122.836,-174.05082 -9.4697,-6.47815 -14.9182,-9.49861 -15.7085,-8.70833 -0.2891,0.28907 4.6958,6.29408 11.0775,13.34446 51.1452,56.50389 97.9926,136.14399 134.2265,228.1839 12.6064,32.02243 13.1517,32.98938 11.9784,21.24179 z M 376.84166,187.30032 C 444.70915,118.83965 506.41591,76.611356 554.24204,65.898456 c 5.4989,-1.231734 10.38972,-2.592549 10.86847,-3.024022 3.32806,-2.999391 -33.2939,-2.183286 -48.83374,1.08825 C 452.92617,77.29959 402.1884,119.9699 364.93324,191.24214 c -4.45298,8.51893 -6.02893,12.63428 -4.83824,12.63428 0.1728,0 7.7088,-7.45925 16.74666,-16.5761 z M 853.30511,1187.4822 c -0.29354,-1.3667 -1.28297,-7.2081 -2.19871,-12.9808 -5.68712,-35.8507 -18.19456,-69.648 -31.01775,-83.8155 -9.09594,-10.0494 -17.23022,-13.267 -55.88847,-22.1076 -12.09759,-2.7666 -26.85069,-6.4056 -32.78465,-8.087 -58.9114,-16.692 -93.30694,-51.446 -104.16903,-105.25452 -9.16218,-45.38746 -2.99028,-105.28652 17.04043,-165.3793 5.88952,-17.66877 8.59129,-23.83589 9.19902,-20.99778 0.20032,0.93544 -1.22498,11.28144 -3.16735,22.99111 -6.941,41.84383 -9.60597,69.81742 -9.65396,101.33525 -0.0818,53.71214 9.78624,87.14102 32.93537,111.57154 11.27499,11.8991 19.15926,17.6508 34.61133,25.2494 14.71047,7.2339 29.0846,12.0695 57.98844,19.5081 50.04685,12.8801 62.02965,20.0379 73.87129,44.1268 10.16014,20.6683 14.51025,41.2173 15.34067,72.4657 0.35092,13.2052 0.17281,20.7406 -0.51945,21.9774 -0.98016,1.7511 -1.09062,1.7091 -1.58718,-0.6028 z m 225.13819,-134.2754 c -6.6249,-1.8641 -8.1165,-3.3451 -7.4576,-7.4045 1.1345,-6.9901 17.9756,-26.0161 30.1159,-34.023 5.636,-3.717 7.4304,-3.757 9.2687,-0.2061 2.1405,4.1343 -1.3558,28.4711 -5.1417,35.7909 -2.8249,5.4616 -17.0849,8.5722 -26.7853,5.8427 z m 74.8666,-1.7409 c -9.163,-1.4641 -11.8698,-5.1142 -15.6767,-21.1403 -2.7467,-11.5627 -3.0227,-19.172 -0.7771,-21.4184 1.6009,-1.6012 1.9781,-1.6121 5.0539,-0.1456 8.4714,4.0389 28.9412,23.2399 33.1951,31.1376 2.6008,4.8284 1.3377,8.5053 -3.4862,10.1485 -5.0206,1.7102 -12.7395,2.3081 -18.309,1.4182 z M 500.95949,997.59101 c -8.25423,-3.90419 -16.40296,-12.08123 -20.26742,-20.33784 -7.7715,-16.60428 -5.57818,-30.45283 6.6896,-42.23798 2.95495,-2.8387 5.37263,-5.75817 5.37263,-6.48769 0,-2.64518 -17.39306,-33.76615 -26.77769,-47.91259 -15.81637,-23.84168 -30.56052,-36.9857 -41.48837,-36.9857 -5.20867,0 -8.44011,2.84999 -11.77135,10.38208 -8.6241,19.49927 -5.33015,63.98098 6.06837,81.94774 3.34,5.26456 3.33665,6.69341 -0.0102,4.34962 -7.87833,-5.51717 -16.116,-25.14759 -18.96738,-45.19934 -1.49665,-10.52493 -1.23916,-27.58324 0.54686,-36.2284 5.19862,-25.16337 21.12028,-33.42538 41.36098,-21.4628 15.6458,9.24702 34.16383,33.08691 50.8017,65.40162 7.95847,15.45723 14.47996,30.56819 13.72176,31.79482 -0.34582,0.55938 -2.78234,2.10818 -5.41449,3.44177 -13.91292,7.04887 -18.87624,18.56272 -14.48064,33.59192 2.9617,10.12648 9.00841,17.61589 19.65782,24.34799 3.16187,1.99873 5.74885,3.84521 5.74885,4.10317 0,1.3393 -5.22302,0.1252 -10.79102,-2.50839 z"
       id="path32191" />
    <path
       fill="#26170c"
       d="m 982.65663,1364.7374 c -65.64671,-3.0802 -124.87426,-11.9576 -158.96831,-23.8274 -13.07649,-4.5525 -45.0305,-17.0901 -58.98824,-23.1449 C 629.12742,1258.9546 525.9596,1172.6225 456.72249,1060.0456 l -8.60696,-13.9946 -12.42368,-6.4778 c -10.84425,-5.6542 -13.57241,-7.624 -21.45926,-15.494 -11.10018,-11.0764 -20.25914,-22.4379 -30.23463,-37.50523 -4.18591,-6.32256 -11.45967,-16.0476 -16.1639,-21.61125 -23.3718,-27.64152 -43.22372,-61.8377 -55.49487,-95.59346 -2.03533,-5.59884 -3.29662,-7.74701 -4.54859,-7.74701 -3.48804,0 -22.48616,40.6282 -31.82521,68.0594 -12.89235,37.86817 -18.29191,68.45645 -18.33627,103.87415 -0.0467,37.2485 4.7491,61.2911 17.81799,89.3272 3.55251,7.6211 6.22957,14.0859 5.94906,14.3663 -0.65745,0.6574 -29.9649,-15.1583 -43.59104,-23.5237 -73.52486,-45.1386 -118.29132,-108.7201 -131.88595,-187.31658 -3.48286,-20.13592 -4.63741,-40.6428 -3.22436,-57.27047 0.67837,-7.98262 1.87873,-18.44977 2.66745,-23.26031 0.78874,-4.81064 1.44192,-10.30482 1.45151,-12.20949 0.0291,-5.77257 -2.42306,-1.82739 -5.88032,9.46065 -6.040229,19.72148 -9.942551,39.15587 -15.053842,74.97103 -7.031988,49.27356 -8.215502,64.76917 -8.92814,116.89487 l -0.614157,44.9227 -11.716364,-27.4295 C 50.067078,1018.4162 46.94843,1010.2189 40.786238,989.83991 21.972799,927.62195 10.295537,858.06913 3.6519019,768.65818 1.9021208,745.10948 1.8797952,641.35495 3.6196084,618.71612 7.1050635,573.36332 10.071332,547.61748 15.942712,511.75745 29.462726,429.18255 52.212001,356.24245 84.843745,290.84281 126.03996,208.27852 176.38017,147.66507 249.3115,92.811106 317.34018,41.644578 379.81363,13.50894 445.76364,4.3366043 461.30257,2.1754494 498.72303,1.8869608 512.75028,3.8201838 558.92486,10.183925 596.35645,24.678104 632.40751,50.15358 c 4.4987,3.179001 8.81489,5.780006 9.59153,5.780006 0.77665,0 4.06951,-0.920454 7.31747,-2.045469 3.24795,-1.125006 13.32889,-4.304287 22.40208,-7.06508 C 793.21414,9.8543421 930.40225,2.9818378 1056.9317,27.525604 c 40.3818,7.833133 83.4348,20.461423 120.9742,35.484038 19.9957,8.001998 57.6489,26.579489 75.1968,37.100948 85.9505,51.53476 146.0342,121.1201 176.7716,204.72681 16.0632,43.69241 31.0432,113.49802 37.1106,172.93318 2.8211,27.63437 3.813,47.62637 3.8189,76.97026 0.013,62.3141 -5.4658,99.66648 -22.399,152.71805 -5.6019,17.55055 -13.8938,38.56933 -14.8142,37.55152 -0.4191,-0.46352 -1.7823,-5.11612 -3.0291,-10.3391 -6.5293,-27.35149 -28.7549,-99.08129 -31.1613,-100.56822 -0.5504,-0.34013 -1.3519,-0.23027 -1.7811,0.24412 -0.4292,0.47439 -0.3248,12.55801 0.232,26.85249 1.6,41.07667 -0.6427,96.68784 -6.8126,168.93472 -1.9091,22.35256 -1.7366,24.88488 4.0152,58.97721 6.1884,36.68033 6.885,42.88273 6.904,61.47624 0.032,31.3354 -6.1098,49.47303 -24.8794,73.47163 -9.6325,12.316 -20.9694,24.2559 -55.9984,58.9772 -41.2385,40.8763 -51.681,53.5074 -61.9804,74.971 -11.5502,24.0699 -17.5277,48.2605 -24.0217,97.213 -7.3436,55.3569 -11.7015,64.8962 -36.1381,79.1054 -20.8186,12.1054 -65.6157,25.8636 -90.1724,27.6941 -6.2588,0.4665 -5.8813,0.2976 6.668,-2.9831 42.4826,-11.106 77.1749,-27.2625 91.7706,-42.7386 8.7058,-9.2311 10.9631,-18.6127 14.3959,-59.8288 4.9769,-59.7544 10.348,-83.8261 25.5387,-114.4558 10.6937,-21.5624 23.4359,-37.5944 59.9835,-75.4708 38.2693,-39.6606 50.4081,-53.6536 59.3107,-68.36971 13.6318,-22.5337 14.2942,-44.07697 3.1691,-103.06408 -7.3862,-39.16296 -7.4359,-40.47026 -3.5523,-93.46388 1.39,-18.96767 3.0309,-46.85689 3.6465,-61.97605 1.2698,-31.18544 0.7312,-82.51819 -0.8827,-84.13179 -0.7177,-0.71758 -2.3466,1.60212 -5.2769,7.51462 -9.9307,20.03698 -25.5963,33.8729 -45.8967,40.53594 -6.2912,2.06491 -7.6796,2.09436 -98.7289,2.09436 -90.5506,0 -92.4668,-0.04 -98.4518,-2.05583 -19.8894,-6.69902 -33.9104,-24.84398 -44.3311,-57.37039 -1.7526,-5.46993 -3.6224,-10.09064 -4.1553,-10.26824 -0.5329,-0.1776 -2.6685,4.2978 -4.7457,9.94534 -9.9743,27.11839 -25.9545,52.81702 -36.0766,58.01666 -6.1061,3.13665 -26.9625,4.00759 -98.48571,4.11267 -79.6419,0.11701 -93.94668,-0.85882 -108.61557,-7.4094 -21.62156,-9.65537 -40.05736,-30.86643 -56.53569,-65.04633 -2.88841,-5.99126 -5.7745,-10.89319 -6.41353,-10.89319 -0.76846,0 -1.39177,3.63852 -1.84087,10.74585 -1.56648,24.79081 -6.2141,56.72757 -9.0545,62.21926 -3.48361,6.73532 -8.62695,9.07948 -29.44437,13.41981 -34.77324,7.2501 -73.48514,8.75302 -105.53218,4.09721 -13.34479,-1.93875 -34.21181,-6.85405 -40.03976,-9.43154 -6.16935,-2.72849 -11.71372,-8.98191 -15.57361,-17.56525 -1.85618,-4.12764 -3.68199,-7.50528 -4.05734,-7.50588 -1.02991,-0.002 -0.53051,-2.28789 -19.32392,88.46472 -9.67744,46.73194 -18.02657,86.34124 -18.55361,88.02059 -0.52704,1.67945 -2.9209,4.97928 -5.31968,7.33307 -6.0327,5.91951 -8.33211,5.47568 -10.84917,-2.09399 -1.71841,-5.16781 -2.75606,-6.41093 -11.07612,-13.26928 -20.02254,-16.50462 -36.56789,-26.72777 -51.17171,-31.61808 -5.34996,-1.79151 -9.23604,-2.34909 -16.49671,-2.36688 -8.41431,-0.021 -10.15114,0.29738 -15.22121,2.78662 -9.81541,4.81914 -16.06079,14.31827 -19.82089,30.14725 -5.73413,24.13927 -4.13454,67.48902 3.26364,88.44622 9.8872,28.00798 37.4015,67.7727 54.50808,78.7772 17.03309,10.9572 44.74887,23.295 57.07916,25.409 6.08028,1.0424 7.49627,0.9716 11.55677,-0.5789 11.88575,-4.5384 21.05827,-20.5405 24.89025,-43.42275 2.33501,-13.94332 5.0067,-6.90943 5.06581,13.33685 0.034,11.6274 -0.25004,13.8266 -2.69845,20.8972 -4.72152,13.6349 -14.02362,24.2352 -24.73764,28.1896 -2.52963,0.9337 -8.445,1.7703 -13.90146,1.9663 -6.51793,0.2341 -9.40842,0.702 -9.21225,1.4914 0.41519,1.6706 7.31166,11.7547 17.0465,24.9256 55.48946,75.0747 130.73427,139.2615 220.6202,188.1977 34.97179,19.0396 92.31392,45.3156 115.97688,53.1446 18.40355,6.0888 45.18459,12.2466 80.48395,18.5056 9.07319,1.6088 19.64608,3.5956 23.49532,4.4148 8.9946,1.9146 38.04261,5.7804 72.62299,9.6651 15.0101,1.6862 27.4933,3.268 27.7407,3.5152 0.4781,0.4782 -57.90036,0.2741 -68.86997,-0.2406 z M 239.41316,1080.3972 c -2.76258,-16.4379 -3.59103,-26.907 -3.59943,-45.4859 -0.02,-44.31379 8.85887,-87.15433 27.6189,-133.26052 4.78259,-11.75405 19.77402,-42.82085 24.88437,-51.56797 2.53206,-4.33392 1.35505,-9.17435 -3.59926,-14.80168 -4.94112,-5.61233 -9.12324,-6.76009 -14.99156,-4.11441 -8.17866,3.68738 -15.65985,13.92342 -35.40939,48.44858 -14.51829,25.38009 -20.57393,35.25268 -21.22448,34.60223 -1.18967,-1.18944 7.02706,-36.61305 13.26621,-57.1928 13.09588,-43.19641 31.68939,-80.16252 51.89565,-103.17463 3.04799,-3.47116 5.54179,-6.69731 5.54179,-7.16913 0,-0.47182 -1.55097,-10.00194 -3.44659,-21.17802 -7.5044,-44.24401 -9.99839,-79.36054 -9.28152,-130.68794 0.54565,-39.06824 1.75295,-55.20756 6.73654,-90.05486 7.22195,-50.49874 20.94695,-102.62087 38.06232,-144.54564 3.34389,-8.19102 6.78089,-16.86177 7.63778,-19.26834 2.35993,-6.62788 24.02482,-48.03942 32.08335,-61.32601 32.5799,-53.71648 72.79074,-99.1759 121.16965,-136.98546 14.20412,-11.10094 44.30415,-31.18036 60.98784,-40.68435 16.53604,-9.419866 42.94447,-22.47776 61.44646,-30.382755 8.22565,-3.514412 15.12011,-6.88291 15.32102,-7.485538 0.82527,-2.475323 -26.47998,-17.844474 -45.27376,-25.482982 -13.88374,-5.64288 -25.98881,-9.325737 -39.99203,-12.167219 -13.28367,-2.695478 -15.9695,-2.437168 -42.49152,4.086611 C 301.68495,76.041376 169.30169,216.49876 106.19704,434.28738 80.748651,522.1156 67.891654,609.35123 65.228535,712.26147 c -0.653039,25.23555 -0.264877,33.40559 1.587124,33.40559 0.487093,0 3.479556,-3.71107 6.649914,-8.24681 C 115.07311,677.8934 158.6616,639.081 195.93514,628.36993 c 9.63891,-2.76987 21.37906,-4.26586 22.26245,-2.83677 0.32528,0.52621 -1.17059,7.8668 -3.32416,16.31242 -10.16025,39.84527 -17.38471,83.01222 -21.72536,129.81144 -2.17358,23.43484 -2.4912,89.39415 -0.53188,110.45731 1.27588,13.7161 5.63398,45.92246 6.77861,50.09395 0.78529,2.86199 -6.28306,11.41649 -13.81756,16.72283 -4.85468,3.41898 -6.50704,4.04044 -10.74241,4.04044 -4.16291,0 -5.53272,-0.49501 -8.13945,-2.94116 -7.40855,-6.95231 -13.94901,-20.64522 -16.44511,-34.429 -3.00263,-16.58099 -1.71632,-34.72028 5.507,-77.65849 8.77227,-52.14575 9.41141,-76.35239 2.37396,-89.91075 -3.53415,-6.80887 -4.9873,-5.51867 -11.40972,10.13008 -9.72649,23.69944 -16.52691,49.56645 -20.41665,77.65979 -2.21966,16.03121 -3.03772,51.52059 -1.55182,67.32159 1.39998,14.88735 4.4714,32.83901 6.53858,38.21653 0.78861,2.05141 3.4304,9.12777 5.87066,15.72522 6.94216,18.76865 16.22015,41.6702 19.56773,48.30054 9.78893,19.3881 33.4093,47.2981 55.42937,65.4958 13.73757,11.3529 26.98565,20.6765 27.98579,19.6956 0.46219,-0.4533 0.13279,-5.0344 -0.73201,-10.1801 z M 61.246669,938.0927 c 8.473261,-67.19923 26.138109,-124.64603 50.374281,-163.81939 3.09417,-5.00117 9.35327,-14.04578 13.90911,-20.09914 11.08972,-14.735 11.01414,-16.09538 -0.55621,-10.01073 -8.29114,4.36012 -20.77312,13.76908 -33.13412,24.97655 -5.220939,4.73377 -11.931401,9.79981 -14.912147,11.25785 -15.087142,7.38005 -30.505778,1.78011 -44.515085,-16.16765 -3.357551,-4.30144 -6.309402,-7.22331 -6.801004,-6.7318 -2.371887,2.37148 5.569299,81.05688 12.324423,122.11691 5.399913,32.82252 15.439742,79.31305 18.241093,84.46736 0.972696,1.78971 1.163178,1.58019 1.817678,-1.99923 0.402119,-2.19915 1.865508,-12.99498 3.251981,-23.99073 z M 474.17888,758.41213 c 0.2524,-1.23702 1.40697,-10.57091 2.56572,-20.74198 7.08065,-62.15133 21.19107,-127.54958 38.82205,-179.93047 24.62533,-73.16081 57.46651,-125.5474 95.79346,-152.80486 10.72093,-7.62455 11.86684,-7.76912 10.98167,-1.38556 -5.67978,40.96066 -9.8283,79.67864 -12.1459,113.35747 -1.80501,26.22989 -1.64201,66.65829 0.40849,101.30958 2.31236,39.07665 3.04859,42.13257 11.14709,46.26968 4.41135,2.25354 4.91095,2.28252 34.47025,1.99923 28.12829,-0.26957 30.27943,-0.41944 34.58249,-2.40935 20.64614,-9.54764 27.86923,-44.57909 24.7078,-119.83098 -1.62715,-38.73105 -1.43991,-63.55129 0.62965,-83.46774 2.81266,-27.06763 9.49216,-63.97528 11.57816,-63.97528 0.46506,0 1.56836,2.5865 2.45179,5.74778 3.39717,12.15654 14.85891,46.1676 20.94346,62.14666 17.80505,46.75912 39.36753,90.71745 60.34966,123.03178 18.23047,28.07655 33.31569,45.49744 44.10024,50.92839 11.64076,5.86213 16.00651,6.30979 62.60452,6.41955 48.50823,0.11426 65.82718,-1.02401 74.2807,-4.88203 16.72372,-7.63234 33.92632,-37.07322 47.88682,-81.95451 11.4739,-36.8874 22.7412,-89.24506 29.9007,-138.94631 2.7126,-18.83013 3.8049,-23.00418 4.8121,-18.38754 0.2872,1.31654 3.4412,14.31411 7.0088,28.88348 15.865,64.78887 33.5625,117.68843 52.0021,155.43994 10.0068,20.48689 19.9801,35.70247 29.2084,44.56101 11.0487,10.60605 12.9013,11.3745 38.452,15.95008 50.3548,9.01744 76.139,6.57143 97.4291,-9.24252 11.4842,-8.53027 19.64,-22.05013 25.4693,-42.22033 12.4892,-43.21441 12.9751,-84.76997 1.5191,-129.90515 -1.382,-5.44488 -2.7763,-10.73034 -3.0987,-11.74546 -1.0092,-3.17912 2.154,-2.16683 13.3786,4.28148 47.7559,27.43508 88.9768,68.16875 105.8628,104.6114 1.8549,4.00319 3.8023,7.01297 4.3276,6.68839 2.1998,-1.3593 0.6282,-53.06785 -2.5968,-85.43931 -6.4566,-64.80821 -22.8265,-137.99232 -40.4602,-180.88271 -24.5809,-59.78793 -66.1568,-112.5509 -121.455,-154.1356 C 1216.2487,98.231951 1130.2634,63.439636 1033.1465,47.017442 957.89546,34.292659 875.92454,33.070131 797.6935,43.505839 715.48675,54.471901 633.72825,79.487904 568.73915,113.56001 c -26.44597,13.86493 -26.97091,14.26643 -36.31447,27.77449 -46.18855,66.77515 -89.7549,159.472 -116.77781,248.47007 -21.3919,70.45274 -33.85411,137.61866 -40.06196,215.91657 -2.67903,33.78986 -1.00259,143.77394 2.27223,149.07169 0.64882,1.0497 1.60019,0.85327 4.61779,-0.95323 10.19865,-6.10544 21.20523,-9.91057 32.96672,-11.39689 17.7145,-2.23874 34.06906,2.0479 48.61708,12.74287 3.95992,2.91108 7.75367,5.33404 8.43056,5.38432 0.67688,0.05 1.4372,-0.92074 1.68959,-2.15777 z m 379.28991,420.08767 c -0.39239,-1.3745 -1.44201,-6.3226 -2.33248,-10.9957 -2.24417,-11.7774 -6.84791,-29.9471 -10.00444,-39.4848 -5.76061,-17.4061 -15.95713,-35.5173 -23.66001,-42.0252 -6.27613,-5.3026 -18.89409,-10.4366 -35.41123,-14.4082 -8.72347,-2.0976 -23.50932,-5.6468 -32.85746,-7.887 -9.34813,-2.2404 -21.94562,-5.724 -27.99442,-7.7415 -38.40616,-12.8101 -65.47531,-34.6401 -80.45773,-64.88517 -11.53751,-23.2909 -16.14308,-46.24813 -16.14332,-80.4689 -2e-4,-27.14761 2.68794,-50.08135 9.25625,-78.96949 4.57462,-20.11962 16.21706,-57.95291 17.45348,-56.71668 0.21962,0.21961 -1.16136,10.25923 -3.06886,22.31038 -7.19085,45.43004 -9.96249,82.8126 -8.44363,113.88329 2.60309,53.25022 17.96199,86.87663 50.13625,109.76707 16.48652,11.7294 35.55948,19.2203 75.37426,29.6034 38.08536,9.932 51.46585,15.536 61.61017,25.8032 13.77701,13.9438 23.6306,41.2564 26.77876,74.2261 1.16997,12.253 1.00107,32.3209 -0.23559,27.9892 z m 224.00171,-126.0702 c -2.0165,-0.5721 -4.438,-1.8925 -5.3809,-2.9343 -1.6285,-1.7991 -1.5727,-2.1746 1.111,-7.478 4.9564,-9.7943 28.4723,-32.4522 33.6811,-32.4522 3.2484,0 4.0594,2.7272 3.351,11.269 -1.4457,17.4316 -4.9585,27.7088 -10.3447,30.2642 -4.2198,2.0022 -17.3124,2.7797 -22.4175,1.3313 z m 73.5487,-1.9567 c -2.2566,-0.5407 -5.0317,-1.9818 -6.1666,-3.2023 -4.5195,-4.8601 -10.6656,-31.2535 -8.4236,-36.1734 0.6346,-1.3925 1.7871,-2.5317 2.561,-2.5317 4.9562,0 32.6618,24.734 35.5289,31.7183 1.8721,4.5603 0.7765,7.8347 -3.0701,9.1754 -4.608,1.6059 -15.6671,2.1547 -20.4296,1.0137 z M 499.9849,996.45595 c -10.16128,-5.02876 -18.79569,-16.05909 -21.80836,-27.85963 -3.27637,-12.83365 0.14394,-23.89627 10.42486,-33.71817 l 5.6526,-5.40022 -7.81844,-15.2745 c -26.77241,-52.30398 -54.86855,-80.52928 -68.63344,-68.94905 -6.23812,5.24807 -9.62161,15.83278 -10.66423,33.36131 -1.094,18.39239 2.38435,39.86379 8.72174,53.83799 l 2.96628,6.54077 -2.5438,-2.38937 c -9.47115,-8.89606 -16.50927,-34.26386 -16.50927,-59.50511 0,-21.32516 4.38872,-34.28685 13.86092,-40.93698 3.85175,-2.70415 5.08479,-3.02533 11.47406,-2.98864 8.40862,0.048 14.37659,2.65747 24.17615,10.57001 15.64133,12.62922 35.80636,42.99119 50.93664,76.69376 3.0421,6.77629 5.5311,12.72589 5.5311,13.2214 0,0.4955 -2.28893,2.0605 -5.08649,3.47785 -23.71296,12.01406 -21.98759,40.1221 3.62945,59.12725 3.85425,2.8595 1.30977,2.97246 -4.30977,0.19133 z"
       id="path32187" />
  </g>
</svg>
