<?xml version="1.0" encoding="UTF-8" standalone="no"?>
<!-- Created with Inkscape (http://www.inkscape.org/) -->

<svg
   version="1.1"
   id="svg33036"
   width="301"
   height="361"
   viewBox="0 0 301 361"
   xmlns="http://www.w3.org/2000/svg"
   xmlns:svg="http://www.w3.org/2000/svg">
  <g
     id="calf">
    <path
       fill="#8d7d40"
       d="M 82.112654,307.00511 C 62.729577,302.57132 39.833982,287.33979 27.1951,270.47064 18.729744,259.17191 7.9355905,230.99724 3.2988455,208.09715 -1.9378494,182.23401 -1.2082666,171.22511 7.4250926,145.83494 16.253992,119.86968 44.80442,53.201962 52.522105,40.529512 64.610704,20.680015 81.163887,7.3765412 100.17874,2.228805 c 9.08522,-2.45957304 34.07273,-3.0282463 42.82882,-0.9747123 9.77812,2.2932269 19.5558,7.7962798 28.20664,15.8752063 12.284,11.47191 21.21604,25.999181 26.72723,43.469775 5.12235,16.238016 5.60589,21.521283 6.59492,72.057866 1.0623,54.28041 0.5304,64.55159 -4.05099,78.2261 -3.99655,11.92889 -13.58882,30.5084 -23.28804,45.10718 -16.44877,24.75785 -40.5201,43.92961 -62.07944,49.44356 -10.41702,2.66423 -25.159192,3.36608 -33.005226,1.57133 z"
       id="path33092" />
    <path
       fill="#5b522b"
       d="M 86.197632,306.77129 C 65.852655,303.5528 40.895752,287.67008 28.139945,269.82304 11.571392,246.64146 -2.390847,193.85427 1.7473559,170.04028 3.3112638,161.0405 9.521236,141.96244 17.003858,123.16977 25.52272,101.77457 43.217751,60.82774 48.507969,50.268318 62.529727,22.280485 80.224267,7.4024781 105.57348,2.2862204 c 11.8349,-2.38865093 33.91607,-1.60651325 42.76294,1.5147064 20.98999,7.4053852 39.0207,28.1976592 48.08984,55.4552412 5.58546,16.7873 6.16995,22.838268 7.13831,73.900102 1.25646,66.25316 0.63405,70.94831 -12.97389,97.8677 -12.82785,25.37623 -25.18995,41.66231 -41.64707,54.86669 -12.17279,9.76684 -23.09795,15.61673 -34.5617,18.50612 -7.88447,1.98723 -22.727485,3.23775 -28.184278,2.37451 z m -31.9568,-76.51564 c 4.564989,-2.2543 5.492615,-3.87991 5.491027,-9.62263 -0.003,-9.90263 -4.188477,-15.02858 -12.297567,-15.05991 -7.064383,-0.0273 -12.667135,-4.44117 -12.667135,-9.97922 0,-7.31575 -6.87664,-16.99905 -12.071953,-16.99905 -1.56162,0 -0.529159,11.94287 2.201503,25.46558 2.689958,13.32115 3.393634,14.59112 8.811767,15.90327 3.827754,0.92698 4.832775,1.75638 7.35172,6.06703 1.604804,2.74628 3.408225,5.30082 4.007601,5.67674 1.252692,0.78568 6.240764,-0.004 9.173037,-1.45181 z m 94.962988,-13.09101 c 3.34572,-0.71833 6.61387,-1.63406 7.26255,-2.03497 0.6487,-0.40091 2.49548,-3.33599 4.10398,-6.52241 3.90077,-7.72739 7.96246,-9.091 14.69146,-4.93225 1.8788,1.16116 3.60377,1.92345 3.83325,1.69396 0.22949,-0.22949 1.14774,-3.26862 2.04057,-6.75364 1.10158,-4.29991 1.67276,-11.22551 1.77718,-21.54862 0.13371,-13.2194 -0.0751,-15.46699 -1.59376,-17.15685 -1.47178,-1.63767 -1.75033,-3.98145 -1.76467,-14.84843 -0.0245,-18.56775 -1.82758,-57.75562 -2.77526,-60.317477 -0.70547,-1.907064 -1.12973,-1.429846 -3.39383,3.817459 -2.08543,4.833227 -3.33507,6.370019 -6.43958,7.919295 -3.06883,1.53147 -4.56268,1.731449 -7.3473,0.98355 -4.64889,-1.248602 -5.9607,-2.452834 -8.21782,-7.543892 -1.47504,-3.327022 -1.75261,-5.478895 -1.23802,-9.597568 0.49591,-3.969064 0.25413,-6.100308 -0.95796,-8.44423 -1.4074,-2.721596 -2.14818,-3.135224 -5.61496,-3.135224 -3.41022,0 -4.14198,-0.390087 -5.00885,-2.670114 -1.41063,-3.710238 -0.28403,-7.810905 3.18526,-11.59388 3.2839,-3.580818 4.1844,-6.093588 3.69956,-10.323388 -0.49483,-4.31708 -3.37385,-4.227072 -7.22307,0.225818 -3.05633,3.535652 -3.68092,3.800345 -9.90238,4.196498 l -6.64029,0.422822 -1.00817,3.62956 c -2.05484,7.397786 -1.1249,9.122134 4.9196,9.122134 3.1863,0 7.63146,3.124531 8.54642,6.007327 0.34414,1.084283 -0.54213,5.334211 -1.98282,9.50829 -2.00942,5.821812 -2.53783,9.070237 -2.31089,14.206324 0.27768,6.284385 0.47964,6.78335 3.5929,8.876926 4.59315,3.08875 15.35377,6.50843 20.73594,6.58979 3.12965,0.0473 5.39597,-0.59027 7.42169,-2.08794 3.38475,-2.50245 4.99441,-2.73925 4.99441,-0.73472 0,0.78175 1.18314,2.82744 2.6292,4.54598 2.46341,2.92759 2.58573,3.54643 1.93982,9.81347 -0.53213,5.16308 -0.073,10.25216 2.01271,22.31035 1.48615,8.59184 2.42491,16.34386 2.08612,17.22671 -0.33878,0.88286 -1.6412,1.6077 -2.89427,1.61076 -1.25307,0.003 -3.90854,0.45839 -5.90105,1.01186 -2.87353,0.79817 -3.74425,1.61375 -4.21024,3.9437 -0.32311,1.61559 -1.65767,3.63866 -2.9657,4.4957 -3.43402,2.25006 -10.79002,2.33523 -14.10479,0.16331 -5.7861,-3.7912 -8.64662,-16.69613 -4.6638,-21.04025 2.36305,-2.57741 1.30214,-6.05392 -2.35611,-7.72072 -1.97049,-0.89781 -4.32305,-0.79503 -10.76466,0.47033 -7.35563,1.4449 -8.54921,1.99953 -11.08625,5.15162 -2.26896,2.81899 -3.54289,3.53238 -6.3079,3.53238 -3.17822,0 -3.43862,0.2235 -3.14875,2.70259 0.31948,2.73242 2.68765,3.86452 12.07554,5.77269 6.75299,1.37261 8.30266,7.03183 4.71818,17.23029 -2.27233,6.46519 -2.58279,11.18158 -0.74899,11.3786 0.68658,0.0738 3.04783,0.0426 5.24723,-0.0692 4.96422,-0.25238 11.33477,3.99565 13.80792,9.20745 2.31122,4.87052 2.1558,13.31318 -0.33046,17.952 -1.09851,2.0496 -1.9973,3.95285 -1.9973,4.22948 0,0.80588 3.05454,0.52741 9.57841,-0.87326 z M 174.57816,70.8662 c 0,-0.480202 -0.7047,-2.839512 -1.566,-5.242912 -0.8613,-2.403401 -1.34755,-5.777324 -1.08056,-7.497609 0.60116,-3.873317 -0.8996,-5.671007 -3.55009,-4.252504 -1.61567,0.864678 -1.7957,1.706989 -1.21735,5.695497 0.37331,2.57441 1.12844,5.579531 1.67807,6.678046 2.05438,4.105959 5.73593,7.070931 5.73593,4.619482 z"
       id="path33088" />
    <path
       fill="#2e5021"
       d="M 79.914216,304.93259 C 60.168848,299.37678 38.348403,284.041 27.537627,268.12143 18.867152,255.35359 9.5244776,230.78977 4.6342393,207.90371 2.7995964,199.31768 2.3184329,193.96187 2.3151613,182.09012 2.3104866,165.134 3.3666119,160.44026 12.988572,134.65424 19.054589,118.39784 43.162456,61.878832 48.902398,50.457087 60.630584,27.119514 76.544641,11.775753 95.529067,5.5013312 112.87845,-0.23269644 136.76364,-0.37546344 150.41909,5.1732437 c 26.54396,10.7857743 46.45606,41.6393013 51.01638,79.0491743 1.50872,12.376519 2.43929,102.405922 1.15094,111.349472 -2.28918,15.89119 -12.05811,37.80404 -26.59401,59.65344 -16.09923,24.1993 -39.39498,42.84918 -60.83391,48.7018 -8.53551,2.33011 -28.511126,2.89998 -35.244274,1.00546 z m 52.595814,-56.05776 c 3.66202,-0.7324 3.90146,-1.91139 1.01267,-4.98637 -1.78515,-1.9002 -2.3369,-3.7855 -2.82139,-9.64029 -0.0351,-0.42372 -1.122,-1.25257 -2.41541,-1.84189 -1.87928,-0.85626 -3.17521,-0.65135 -6.45145,1.02006 -2.7162,1.38571 -5.98657,2.09155 -9.69069,2.09155 -4.77441,0 -6.16131,-0.45838 -9.49663,-3.13872 -2.14814,-1.72628 -4.403602,-4.64733 -5.012139,-6.49122 -1.134487,-3.43751 -2.716848,-4.08139 -5.875638,-2.39087 -1.549755,0.82941 -1.772723,2.21287 -1.621428,10.06035 0.202646,10.51096 0.529614,10.93764 8.226699,10.73513 2.850586,-0.075 5.822956,0.39485 6.605266,1.04411 1.10547,0.91746 2.25515,0.83253 5.15995,-0.38118 4.64804,-1.94207 8.84386,-1.135 10.97013,2.1101 1.67719,2.5597 5.01303,3.08866 11.41006,1.80924 z M 53.058626,232.07374 c 7.487892,-2.67052 9.650388,-7.20794 7.662586,-16.07792 -1.488009,-6.63979 -4.305375,-10.24436 -8.518976,-10.89924 -1.899689,-0.29527 -5.013624,-0.77942 -6.919857,-1.0759 -1.906233,-0.29649 -4.827284,-1.68461 -6.491225,-3.08472 -2.428,-2.04303 -3.025347,-3.32472 -3.025347,-6.49128 0,-7.37889 -7.059132,-16.84849 -12.559747,-16.84849 -2.229557,0 -2.420003,0.38266 -2.420003,4.86244 0,8.33 5.081724,34.36991 7.1355,36.56392 0.505079,0.53956 2.799608,1.43835 5.098955,1.9973 3.10688,0.75525 4.756377,1.91399 6.422289,4.51154 5.706778,8.89821 6.26206,9.16503 13.615825,6.54235 z m 94.517734,-2.66314 c 1.71124,-1.71124 4.05745,-4.96934 5.2138,-7.24022 1.15635,-2.27088 2.94645,-4.72301 3.97801,-5.4492 1.03155,-0.72619 3.2163,-3.97633 4.85498,-7.22256 3.69854,-7.32675 6.27231,-8.32833 12.67426,-4.9321 2.93606,1.55758 4.6841,1.98123 5.36504,1.30029 2.25298,-2.25298 3.98446,-12.63991 4.57836,-27.46496 0.55184,-13.77524 0.42147,-15.98701 -1.0772,-18.27426 -1.47743,-2.25485 -1.76169,-6.36149 -2.12957,-30.76517 -0.40337,-26.75899 -1.58593,-46.190813 -3.04194,-49.985114 -1.12069,-2.920443 -2.64749,-1.325472 -5.52042,5.766896 -3.8024,9.38692 -6.29723,11.889727 -11.20315,11.238987 -7.21855,-0.957506 -9.91879,-5.371778 -9.7391,-15.921177 0.16025,-9.408798 -1.55572,-12.504273 -7.15628,-12.909358 -4.20071,-0.303836 -4.25178,-0.353211 -4.54796,-4.397353 -0.2525,-3.447575 0.25177,-4.749953 3.21011,-8.290861 5.81882,-6.964668 5.75304,-14.248014 -0.14202,-15.727582 -1.9801,-0.496973 -2.93656,-0.212499 -3.71611,1.105263 -3.28579,5.554333 -4.12601,6.006153 -12.1925,6.556415 -5.76409,0.393201 -9.52846,0.06797 -14.25927,-1.231977 -5.04324,-1.385793 -7.24799,-1.54533 -10.23616,-0.740698 -3.605248,0.97079 -3.808483,1.238342 -3.808483,5.0137 0,2.1935 0.663543,5.576273 1.474553,7.517274 l 1.47454,3.52909 7.47699,-0.218319 c 4.11233,-0.120076 8.05506,0.238315 8.7616,0.796423 0.70656,0.558109 3.30691,1.323503 5.77857,1.700877 9.11444,1.391596 10.63127,4.331052 6.99517,13.555897 -2.61677,6.638813 -3.55014,17.645822 -1.77934,20.98339 1.70286,3.209497 9.52305,7.435017 17.44091,9.423927 8.06908,2.02689 10.07379,1.96972 14.76302,-0.42098 2.13839,-1.09021 3.95293,-1.87664 4.03233,-1.74764 4.72187,7.6722 4.7419,7.74449 4.06128,14.65178 -0.52305,5.30813 -0.0894,9.82678 1.98245,20.65557 3.58866,18.75691 3.61816,17.79994 -0.55927,18.1412 -6.21159,0.50744 -8.87887,2.11257 -9.56206,5.75433 -0.47745,2.54502 -1.33482,3.56929 -3.66872,4.38289 -4.38939,1.53015 -8.94306,1.30736 -11.62133,-0.56858 -5.3392,-3.73971 -8.07305,-16.0987 -4.10874,-18.57446 2.60365,-1.62601 2.53582,-4.80617 -0.17604,-8.25375 -2.11693,-2.69124 -2.36324,-2.7469 -9.48917,-2.14454 -8.9074,0.75295 -13.53445,2.57361 -16.99623,6.6877 -2.07196,2.46239 -3.22978,3.03384 -5.47822,2.70385 -3.51148,-0.51538 -5.24714,1.35969 -4.39636,4.74946 0.74528,2.96945 4.92187,5.09473 11.73777,5.97283 2.56407,0.33033 5.26042,1.32181 5.9919,2.2033 1.88575,2.27245 1.30607,10.34782 -1.12605,15.68668 -2.30796,5.06627 -2.59546,8.61926 -0.83952,10.3752 0.65911,0.65911 3.74762,1.19838 6.86336,1.19838 5.43042,0 5.83565,0.18515 9.78677,4.47162 3.95853,4.29449 4.12179,4.73165 4.12179,11.03696 0,4.9604 -0.54929,7.54081 -2.24696,10.55573 -2.20265,3.91169 -2.20924,4.01861 -0.33333,5.42257 1.35185,1.01175 2.04778,3.04994 2.37062,6.94295 0.53515,6.45323 1.66836,6.89439 6.16332,2.39943 z M 56.248427,143.52503 c 16.445669,-5.95074 21.101126,-13.73304 14.47013,-24.18903 -3.420936,-5.39425 -3.738666,-9.10977 -1.372784,-16.05324 1.68654,-4.949727 7.348326,-11.570467 9.894594,-11.570467 0.805581,0 1.46469,-0.437848 1.46469,-0.973005 0,-1.704745 -5.749408,-4.020245 -9.982296,-4.020245 -4.208131,0 -6.674667,1.688178 -10.028223,6.863612 -1.009616,1.558093 -2.887078,2.589379 -5.481829,3.011139 -2.328966,0.378568 -4.064096,1.252986 -4.233682,2.133586 -0.229504,1.191717 0.647474,1.41776 4.356065,1.122812 3.161836,-0.25147 4.918082,0.06421 5.50423,0.989308 1.35329,2.13592 1.094281,21.22859 -0.306995,22.62986 -0.709131,0.70913 -4.120455,1.19838 -8.355819,1.19838 h -7.157437 l -2.473317,3.74494 c -4.160627,6.29975 -5.126112,10.47694 -3.384814,14.64445 1.312549,3.14137 1.925079,3.58091 4.990234,3.58091 1.921719,0 7.365482,-1.40086 12.097253,-3.11301 z M 176.57546,72.305238 c 0,-1.271673 -0.71786,-4.27855 -1.59524,-6.68195 -0.8774,-2.403401 -1.57923,-5.687031 -1.55963,-7.296956 0.0545,-4.47941 -1.54578,-6.785237 -4.14616,-5.974107 -3.07231,0.958333 -3.65231,2.209917 -3.66225,7.902593 -0.01,5.481923 1.92059,9.273796 6.63339,13.031662 3.22914,2.574818 4.32989,2.325364 4.32989,-0.981242 z"
       id="path33086" />
    <path
       fill="#302e17"
       d="M 80.352344,304.84061 C 59.963246,299.90482 35.656376,281.90315 24.873596,263.75303 12.656476,243.18858 1.8010203,204.33799 1.8187034,181.24189 1.8269862,170.42346 3.807477,161.47704 10.363346,142.64344 18.078593,120.47919 44.93648,57.276353 52.030323,44.591375 64.396074,22.479346 82.883812,7.6508274 103.67401,3.1693686 c 10.50064,-2.2634792 32.43875,-2.20465273 40.44533,0.1084534 21.46164,6.2002843 40.35653,25.568333 50.00609,51.258326 6.96486,18.542576 7.47054,23.213821 8.56491,79.119442 1.07808,55.07398 0.66462,63.59826 -3.72529,76.80286 -5.732,17.24152 -23.98368,48.52215 -36.27718,62.17358 -5.62642,6.24792 -19.75763,17.83329 -27.63483,22.65621 -15.34853,9.39735 -38.581477,13.45451 -54.700696,9.55237 z m 52.157686,-55.96578 c 3.66202,-0.7324 3.90146,-1.91139 1.01267,-4.98637 -1.78515,-1.9002 -2.3369,-3.7855 -2.82139,-9.64029 -0.0351,-0.42372 -1.122,-1.25257 -2.41541,-1.84189 -1.87928,-0.85626 -3.17521,-0.65135 -6.45145,1.02006 -2.80967,1.43339 -5.91923,2.07878 -9.88179,2.05097 -4.83236,-0.034 -6.30931,-0.4921 -8.99236,-2.78957 -1.76569,-1.51194 -3.906338,-4.41473 -4.756998,-6.45064 -1.134935,-2.7163 -2.141205,-3.69758 -3.780209,-3.68637 -4.087665,0.028 -4.492877,1.04589 -4.296922,10.79405 0.215988,10.74531 0.521146,11.15082 8.238453,10.94778 2.850586,-0.075 5.822956,0.39485 6.605266,1.04411 1.10547,0.91746 2.25515,0.83253 5.15995,-0.38118 4.64804,-1.94207 8.84386,-1.135 10.97013,2.1101 1.67719,2.5597 5.01303,3.08866 11.41006,1.80924 z m -80.345195,-16.4526 c 2.153747,-0.59798 5.187146,-2.35848 6.740891,-3.91222 2.363625,-2.36362 2.824981,-3.65823 2.824981,-7.92713 0,-10.47967 -3.991055,-15.5846 -12.979085,-16.60149 -3.61104,-0.40853 -7.403331,-1.56624 -9.293428,-2.83707 -2.685763,-1.80581 -3.279446,-2.93466 -3.736784,-7.10528 -0.299048,-2.72711 -1.29404,-6.36537 -2.211094,-8.08503 -2.253943,-4.22659 -7.347277,-8.35782 -10.304256,-8.35782 -2.229557,0 -2.420003,0.38266 -2.420003,4.86244 0,8.33 5.081724,34.36991 7.1355,36.56392 0.505079,0.53956 2.799608,1.43835 5.098955,1.9973 3.10688,0.75525 4.756377,1.91399 6.422289,4.51154 5.709678,8.90274 5.630384,8.85979 12.722034,6.89084 z m 95.411525,-3.01163 c 1.71124,-1.71124 4.0011,-4.85541 5.08858,-6.98704 1.96958,-3.8607 9.22331,-11.27723 13.28596,-13.58416 1.17482,-0.66712 4.66553,-1.22886 7.75712,-1.24832 6.19278,-0.0389 6.32317,-0.17964 8.82772,-9.52256 1.66707,-6.21876 2.36302,-31.99143 1.0652,-39.44668 -0.6215,-3.57017 -1.55017,-18.17543 -2.06371,-32.45612 -1.04556,-29.075137 -2.47775,-46.34996 -3.96607,-47.838279 -0.54763,-0.54764 -0.9957,-2.646899 -0.9957,-4.665021 0,-2.018123 -0.67409,-5.579885 -1.49797,-7.915027 -0.82389,-2.335142 -1.49798,-5.676195 -1.49798,-7.42456 0,-4.378701 -2.05712,-6.989106 -4.81736,-6.113041 -2.69648,0.855833 -3.54373,4.046352 -2.95612,11.132093 0.40087,4.833917 0.96315,6.008807 4.69598,9.812292 l 4.2406,4.320849 -3.23783,7.777619 c -4.12473,9.908026 -5.99782,11.862764 -10.64467,11.108683 -6.91392,-1.121973 -9.50712,-5.54075 -9.33068,-15.899316 0.16025,-9.408798 -1.55572,-12.504273 -7.15628,-12.909358 -4.20071,-0.303836 -4.25178,-0.353211 -4.54796,-4.397353 -0.2525,-3.447575 0.25177,-4.749953 3.21011,-8.290861 5.81882,-6.964668 5.75304,-14.248014 -0.14202,-15.727582 -1.9801,-0.496973 -2.93656,-0.212499 -3.71611,1.105263 -3.2878,5.557726 -4.12319,6.006265 -12.1925,6.546409 -5.87793,0.393457 -9.62392,0.0473 -15.0165,-1.387661 -5.98887,-1.593623 -7.676,-1.708482 -10.13489,-0.689979 -3.509141,1.453533 -4.163297,3.921327 -2.664383,10.051353 1.461133,5.975448 4.484833,7.536668 12.066793,6.230395 4.02639,-0.693694 5.6884,-0.619997 6.43994,0.285558 0.55714,0.671306 3.15601,1.504838 5.77527,1.852296 2.61925,0.347456 5.79986,1.358487 7.06801,2.246734 2.69908,1.890513 2.5605,4.659142 -0.66838,13.352617 l -2.04001,5.492575 -6.99927,0.878572 c -8.38606,1.052637 -8.43253,1.13934 -8.62704,16.09848 -0.0946,7.27565 -0.56394,10.66421 -1.72897,12.48312 -0.8795,1.37314 -2.12059,6.52554 -2.75798,11.44976 -1.0592,8.18292 -1.00795,9.06351 0.59575,10.23617 2.52942,1.84955 6.14767,1.58095 9.89412,-0.73449 4.10193,-2.53512 4.92317,-4.61861 2.98592,-7.57524 -1.90641,-2.90953 -1.92852,-5.69608 -0.0737,-9.28295 1.55203,-3.00128 7.97315,-9.0865 9.58806,-9.0865 1.49654,0 12.13487,6.05257 14.74782,8.39062 l 2.31456,2.07105 4.857,-5.1727 c 5.95643,-6.34359 10.87284,-7.84806 14.3251,-4.38361 1.86523,1.87181 2.12019,3.12626 1.90367,9.36615 -0.13877,3.99922 0.72825,13.09163 1.94866,20.43569 1.76008,10.5916 1.9494,13.48009 0.94913,14.48043 -0.68908,0.6891 -3.93123,1.30341 -7.22833,1.36957 -3.28834,0.066 -6.26659,0.40777 -6.61835,0.75954 -0.35175,0.35175 0.36935,1.57948 1.60244,2.72829 1.24974,1.1643 1.99104,2.74272 1.67496,3.56641 -0.31186,0.81272 -0.56703,2.29573 -0.56703,3.29559 0,3.65305 -10.6206,5.35365 -14.86561,2.38032 -5.3392,-3.73971 -8.07305,-16.0987 -4.10874,-18.57446 2.60365,-1.62601 2.53582,-4.80617 -0.17604,-8.25375 -2.11693,-2.69124 -2.36324,-2.7469 -9.48917,-2.14454 -8.9074,0.75295 -13.53445,2.57361 -16.99623,6.6877 -2.07196,2.46239 -3.22978,3.03384 -5.47822,2.70385 -3.51147,-0.51538 -5.24714,1.35969 -4.39636,4.74946 0.74528,2.96945 4.92187,5.09473 11.73777,5.97283 2.56407,0.33033 5.22415,1.27803 5.9113,2.106 1.85807,2.23883 1.31165,10.60982 -1.02778,15.74516 -3.95088,8.67273 -2.49136,11.6124 5.76544,11.6124 5.073,0 5.70674,0.2825 9.78677,4.36252 4.28061,4.28063 4.36252,4.48784 4.36252,11.03696 0,5.07355 -0.53894,7.63156 -2.24696,10.66483 -2.20265,3.91169 -2.20924,4.01861 -0.33333,5.42257 1.35185,1.01175 2.04778,3.04994 2.37062,6.94295 0.53515,6.45323 1.66836,6.89439 6.16332,2.39943 z m -30.73778,-14.36503 c 1.9449,-1.63652 4.18782,-2.49663 6.51056,-2.49663 3.465,0 3.52912,-0.0719 2.89514,-3.24561 -1.03794,-5.19591 -4.60025,-7.9922 -10.84089,-8.50972 -6.41915,-0.53233 -8.73343,1.13053 -8.73343,6.27515 0,1.85076 -0.44939,3.64274 -0.99865,3.98221 -1.99723,1.23436 -0.92374,3.62425 2.24696,5.00236 4.50662,1.95877 5.53253,1.84287 8.92031,-1.00776 z M 56.248427,143.52503 c 16.445669,-5.95074 21.101126,-13.73304 14.47013,-24.18903 -3.420936,-5.39425 -3.738666,-9.10977 -1.372784,-16.05324 1.68654,-4.949727 7.348326,-11.570467 9.894594,-11.570467 0.805581,0 1.46469,-0.437848 1.46469,-0.973005 0,-1.704745 -5.749408,-4.020245 -9.982296,-4.020245 -4.208131,0 -6.674667,1.688178 -10.028223,6.863612 -1.009616,1.558093 -2.887078,2.589379 -5.481829,3.011139 -2.328966,0.378568 -4.064096,1.252986 -4.233682,2.133586 -0.229504,1.191717 0.647474,1.41776 4.356065,1.122812 3.161836,-0.25147 4.918082,0.06421 5.50423,0.989308 1.35329,2.13592 1.094281,21.22859 -0.306995,22.62986 -0.712107,0.71211 -4.141945,1.19838 -8.452523,1.19838 h -7.254142 l -2.554332,3.74494 c -3.870344,5.67436 -4.870696,10.43144 -3.089865,14.69357 1.290728,3.08915 1.91359,3.53179 4.969709,3.53179 1.921719,0 7.365482,-1.40086 12.097253,-3.11301 z"
       id="path33084" />
    <path
       fill="#0c0b06"
       d="M 79.706407,304.05454 C 60.158592,298.33136 40.345053,284.53867 29.16528,268.87162 17.131991,252.00848 5.9252481,218.51067 2.8476005,190.20607 c -1.5350708,-14.11778 0.016276,-23.695 7.2999265,-45.066 6.44772,-18.9183 30.258641,-75.708348 39.359092,-93.873102 C 67.36493,15.621284 91.860217,0.41451864 128.64026,2.1405284 c 7.49723,0.3518294 13.78089,1.2592946 18.09883,2.6137726 12.31084,3.8617376 26.90517,15.445748 35.72861,28.358994 8.53027,12.484195 15.79648,32.72973 17.98486,50.110473 0.55326,4.39406 1.30667,30.009432 1.67425,56.923052 0.84803,62.09108 0.72936,62.9639 -12.09791,88.98355 -19.1208,38.78584 -44.41747,64.23008 -72.87311,73.29822 -8.73001,2.78205 -30.301716,3.71863 -37.449383,1.62595 z m 28.461533,-18.77653 c 2.74628,-0.58339 7.70265,-2.3317 11.01416,-3.88514 5.81235,-2.72661 17.58247,-10.96661 20.23665,-14.16725 3.01282,-3.63311 -2.20294,-10.60389 -7.02627,-9.39053 -1.23984,0.3119 -5.06521,2.8331 -8.50084,5.60267 -6.6535,5.3636 -9.36489,6.05124 -14.13466,3.5847 -2.59545,-1.34216 -4.76535,-4.93311 -5.15778,-8.53562 -0.54117,-4.96776 0.22838,-6.82627 3.87208,-9.35136 4.87573,-3.37889 8.45685,-3.40173 10.88426,-0.0694 2.33487,3.20524 7.99473,4.07495 14.27245,2.1931 5.45965,-1.63662 6.08818,-3.63862 2.5845,-8.23217 -1.65158,-2.16538 -2.57898,-4.65383 -2.57898,-6.92015 0,-5.49864 -5.198,-8.12335 -12.18321,-6.15185 -2.16176,0.61014 -3.20074,0.25621 -5.24291,-1.78595 -3.31943,-3.31944 -3.25236,-6.89594 0.1892,-10.08713 3.39724,-3.15009 9.1152,-3.37901 15.54614,-0.62239 5.5522,2.37996 6.05629,3.16877 6.68011,10.45314 0.6851,8.00012 2.55618,9.27372 9.4911,6.46036 8.22212,-3.33556 7.98127,-3.06045 8.07791,-9.22696 0.0752,-4.79729 0.52289,-6.11381 2.93555,-8.63209 3.7353,-3.89882 10.19564,-6.961 14.68574,-6.961 5.78319,0 6.63461,-0.79245 8.96847,-8.34731 2.63085,-8.51628 2.78856,-20.03805 1.06131,-77.53659 -1.15243,-38.362657 -1.56433,-42.11548 -6.46703,-58.920347 -3.5305,-12.10136 -4.36486,-13.9811 -6.20586,-13.9811 -0.73731,0 -1.9,-0.674089 -2.58377,-1.497975 -0.68376,-0.823886 -2.04863,-1.497975 -3.03302,-1.497975 -2.39451,0 -3.21093,9.015214 -2.7811,30.709871 0.23822,12.023701 0.0149,16.229086 -0.86175,16.228057 -5.82596,-0.007 -9.39824,-6.128016 -8.56555,-14.67731 0.89926,-9.232809 -2.02407,-14.284918 -8.26576,-14.284918 -3.25386,0 -3.45637,-0.195714 -3.45637,-3.340496 0,-2.158868 0.75779,-4.013437 2.14228,-5.242913 3.47491,-3.085819 6.03881,-9.850509 5.27553,-13.919114 -0.67905,-3.619679 -4.23935,-6.454005 -8.1172,-6.46206 -2.49041,-0.0052 -7.94157,-3.473995 -9.22352,-5.869342 -0.73506,-1.373476 -0.74687,-2.815604 -0.0383,-4.679267 1.95123,-5.132007 -1.79551,-8.8102 -5.0185,-4.926733 -1.42739,1.719899 -6.22998,1.975292 -9.02417,0.479886 -2.58349,-1.38264 -14.03145,1.054357 -21.458835,4.568067 -6.055464,2.864694 -18.072769,13.460346 -21.433206,18.897655 -1.901909,3.077359 -1.926566,3.475174 -0.436351,7.04175 1.274877,3.051219 1.371636,4.605388 0.501772,8.059921 -2.530719,10.050416 -1.018873,12.452285 9.185273,14.592627 l 5.548619,1.163835 4.450394,-3.646762 c 4.316535,-3.537079 4.686994,-3.644091 12.316884,-3.557926 6.74558,0.07618 8.26874,0.426631 10.68941,2.459455 1.55259,1.303839 3.43223,2.370617 4.17696,2.370617 1.71989,0 2.84119,3.447276 2.09212,6.431848 -0.46568,1.855368 -1.48371,2.41973 -5.3331,2.956465 -17.67818,2.464944 -17.54361,2.409658 -18.559201,7.624668 -1.215027,6.239116 -3.045822,7.953269 -8.494457,7.953269 -5.549438,0 -8.626778,-2.260145 -7.060954,-5.18591 2.684051,-5.01521 -7.374551,-10.851577 -15.858712,-9.201813 -3.930647,0.764319 -5.103142,1.569451 -7.500151,5.150211 -2.155616,3.220156 -3.487893,4.247947 -5.521443,4.259551 -1.474155,0.008 -3.179316,0.345453 -3.789249,0.748988 -2.017709,1.334925 -4.286056,6.88291 -3.711868,9.07862 0.635935,2.43182 -2.919613,11.56741 -5.691637,14.62403 -3.316687,3.65719 -14.909009,34.44866 -15.010669,39.87125 -0.09768,5.20995 -3.537972,16.74908 -5.285114,17.72682 -2.96257,1.65794 -1.99392,14.83503 2.513133,34.18757 1.480005,6.35489 2.759465,9.53462 4.47706,11.12643 1.322672,1.22581 3.331902,4.97387 4.464954,8.32903 1.98658,5.88258 3.857617,7.9765 3.889327,4.35263 0.0084,-0.9612 0.436533,-2.41383 0.951384,-3.22807 0.784905,-1.24133 1.396101,-1.03972 3.78429,1.24831 2.25512,2.16055 3.800322,2.72875 7.420667,2.72875 3.7326,0 4.668406,0.36687 5.094775,1.9973 0.287267,1.09852 1.350815,1.99901 2.363436,2.00111 1.048869,0.002 3.665235,2.36569 6.08016,5.49257 3.38062,4.37728 4.815431,5.48877 7.085432,5.48877 4.989026,0 6.689797,-3.10297 6.393637,-11.66487 -0.24428,-7.06201 -0.106196,-7.59865 2.669471,-10.37431 3.19598,-3.19599 7.494559,-3.88009 8.466435,-1.34741 1.036299,2.70054 0.665201,12.33401 -0.550086,14.28 -1.657559,2.65417 -0.454795,4.82931 3.609431,6.52745 2.946916,1.2313 3.538726,1.98385 3.538726,4.49983 0,3.75017 -3.70609,5.94297 -11.2885,6.67916 -2.854072,0.2771 -6.986795,0.9527 -9.183825,1.50132 -3.082553,0.76976 -4.815131,0.65388 -7.588372,-0.50748 -3.244524,-1.35871 -3.819197,-1.34708 -5.913426,0.11977 -1.275805,0.89361 -3.827559,2.14314 -5.670565,2.77674 l -3.350922,1.15199 6.767718,5.72845 c 6.119733,5.17997 26.789271,16.48857 32.732617,17.90847 2.563614,0.61246 11.568498,-0.13901 17.975708,-1.50009 z M 88.194932,202.42216 c -3.786541,-1.5384 -6.676894,-1.94759 -11.960012,-1.69318 -6.751144,0.3251 -7.007777,0.25059 -8.291751,-2.40746 -1.016067,-2.10342 -2.279429,-2.89556 -5.418635,-3.39754 -9.543163,-1.52601 -10.198465,-7.70192 -1.706134,-16.07948 4.871675,-4.80582 6.064422,-5.05323 10.709243,-2.22136 3.463358,2.11155 6.181464,7.13613 6.181464,11.4268 0,2.25891 0.39956,2.52713 3.744937,2.51398 7.78201,-0.0306 11.904647,-4.6301 6.249602,-6.97249 -5.649543,-2.34013 -6.553061,-7.22294 -2.231513,-12.0596 l 2.769775,-3.09991 7.466387,1.66617 c 11.434085,2.55159 10.911465,2.68676 14.801555,-3.82828 3.2818,-5.49628 3.66149,-5.79883 6.56261,-5.22946 4.1938,0.82309 5.82888,3.25942 5.07905,7.56799 -1.09746,6.30613 -1.51793,6.98959 -4.31404,7.01248 -3.12051,0.0256 -10.57816,3.2098 -11.67536,4.98512 -1.88365,3.04779 -2.32824,8.38373 -0.92468,11.0979 2.05614,3.97613 1.81834,5.23706 -1.74717,9.26437 -3.786586,4.27702 -7.48212,4.62831 -15.295328,1.45395 z m 57.854318,-36.5205 c -2.36194,-2.36194 -4.42654,-7.61704 -4.42654,-11.26706 0,-2.29039 0.58945,-3.27686 2.36043,-3.95018 3.20761,-1.21953 3.88089,-3.51358 2.20699,-7.5198 -2.29651,-5.49631 -5.44041,-6.90119 -13.85247,-6.19012 -9.7307,0.82255 -13.60768,2.23119 -17.30676,6.28814 -2.25124,2.46905 -3.92458,3.39862 -5.9919,3.32864 -1.5776,-0.0534 -5.90452,0.12513 -9.615367,0.39672 -7.151013,0.52337 -9.730726,-0.59673 -9.730726,-4.22502 0,-4.14216 2.446393,-5.54371 9.630881,-5.51756 3.765762,0.0137 8.591842,0.52594 10.724602,1.13828 4.42562,1.27066 7.7504,0.38674 11.46087,-3.04699 3.68637,-3.41143 4.18254,-5.74414 1.98981,-9.35497 -1.75109,-2.88356 -1.79892,-3.49616 -0.51325,-6.57321 1.51638,-3.6292 5.97087,-7.72324 8.40323,-7.72324 1.49986,0 7.36175,5.69121 10.38723,10.08477 l 1.65155,2.39836 3.72537,-1.97707 c 2.04896,-1.08738 5.53299,-4.12078 7.7423,-6.74089 3.31818,-3.93517 4.59771,-4.76382 7.35586,-4.76382 2.97342,0 3.34044,0.30065 3.35258,2.74629 0.008,1.51046 0.26926,3.6987 0.58169,4.86275 0.51973,1.93651 0.0921,2.15594 -5.029,2.58063 -4.42253,0.36675 -6.22106,1.06201 -8.57087,3.31328 -1.71156,1.63978 -2.97385,3.88548 -2.97385,5.29071 0,3.33112 3.40156,8.57774 6.4667,9.97431 1.38663,0.63179 2.51818,1.94478 2.51457,2.91776 -0.008,2.2532 -2.7828,6.46945 -5.93502,9.01938 -2.37835,1.92392 -2.39852,2.05185 -0.72596,4.6045 0.9462,1.44408 2.15939,2.62559 2.69598,2.62559 1.24039,0 4.97023,3.69358 4.97023,4.92192 0,3.90207 -10.2255,5.68157 -13.54916,2.3579 z M 40.273825,243.88777 c -2.339013,-3.56979 -3.020583,-2.26359 -0.925399,1.77348 0.979652,1.88763 1.920429,2.78203 2.164823,2.05811 0.237728,-0.70418 -0.320013,-2.42839 -1.239424,-3.83159 z"
       id="path33080" />
  </g>
</svg>
