<?xml version="1.0" encoding="UTF-8" standalone="no"?>
<!-- Created with Inkscape (http://www.inkscape.org/) -->

<svg
   version="1.1"
   id="svg33662"
   width="401"
   height="481"
   viewBox="0 0 401 481"
   xmlns="http://www.w3.org/2000/svg"
   xmlns:svg="http://www.w3.org/2000/svg">
  <g
     id="thigh-left">
    <path
       fill="#8d7d40"
       d="M 147.71719,399.42819 C 136.49776,397.38982 122.80501,391.32718 114.39125,384.67272 95.638786,369.84134 84.108287,350.31939 76.483601,320.49233 68.43683,289.01413 60.520102,267.69465 35.881708,211.15285 12.308228,157.05487 4.715689,136.86379 1.3554251,119.33602 -5.7865151,82.082331 16.000332,34.843615 50.109515,13.626357 65.024876,4.3484147 82.511973,0.01143189 105.05213,1.79731e-5 148.97831,-0.02222474 184.5489,21.130957 203.826,58.739037 c 9.32312,18.188669 10.29597,22.954925 23.06436,112.998043 10.46549,73.80302 16.10963,121.34106 16.10963,135.68415 0,25.28276 -5.63144,44.21962 -18.21906,61.2653 -14.78862,20.02616 -35.11034,30.37965 -61.3195,31.24097 -6.05293,0.19891 -13.13785,-0.0258 -15.74424,-0.49931 z"
       id="path33686" />
    <path
       fill="#5d9a2a"
       d="M 147.45367,397.94308 C 124.89957,393.84333 105.1342,379.32562 92.299388,357.43216 84.585338,344.27363 81.977744,337.62477 77.429139,319.5159 70.114383,290.39448 60.777107,265.46928 35.161249,206.68478 12.625244,154.96805 6.6386042,139.01427 2.7507074,120.31405 -3.0451462,92.436813 7.0504778,58.827642 28.918718,33.198562 46.367021,12.749551 68.382994,2.5980914 98.114897,1.2925415 120.3386,0.31668202 138.48267,3.7566704 155.89694,12.247606 c 29.25883,14.266161 51.43647,43.868742 57.53793,76.801248 3.93553,21.241996 17.18827,115.358896 24.64904,175.049986 3.67905,29.43477 4.06527,34.54883 3.61962,47.92827 -0.59197,17.77242 -3.41125,30.25295 -9.68712,42.88337 -4.78123,9.6224 -15.82382,23.54847 -22.86482,28.83536 -7.35386,5.5218 -21.14163,11.22967 -32.84101,13.59553 -11.42728,2.31084 -18.62838,2.46099 -28.85691,0.60171 z m 46.74837,-26.11503 c 7.61325,-4.86736 8.52597,-10.25554 2.18989,-12.92802 -1.87891,-0.79251 -4.98014,-2.10202 -6.89163,-2.91002 -4.63389,-1.95881 -5.09261,-4.48024 -2.59272,-14.25192 1.13642,-4.44212 2.06622,-8.58631 2.06622,-9.2093 0,-0.623 -1.52142,-1.76715 -3.38092,-2.54257 -6.07475,-2.53317 -9.62539,-6.2559 -9.62539,-10.09189 0,-5.6925 2.487,-10.25085 6.50748,-11.92739 2.0503,-0.85498 3.29621,-1.94717 2.91796,-2.55796 -1.42604,-2.30282 -9.98301,-6.8615 -12.87289,-6.85796 -3.4404,0.004 -9.31706,3.19811 -10.22389,5.55659 -0.32881,0.85519 0.3366,8.06074 1.47871,16.01235 1.49264,10.39208 2.68671,15.44275 4.24643,17.96143 1.8831,3.0409 2.08431,4.38794 1.52248,10.19272 -1.88066,19.43074 -1.86903,21.59516 0.12584,23.39692 4.62953,4.18137 18.10287,4.26761 24.53243,0.15702 z m 33.67873,-38.90523 c 3.05838,-0.11769 4.69489,-0.71225 5.39449,-1.95987 0.61516,-1.09707 0.78802,-7.04655 0.44615,-15.35592 -0.46187,-11.226 -1.70406,-19.33268 -7.2041,-47.01491 -3.65529,-18.39747 -7.06977,-33.8768 -7.58772,-34.39852 -0.58954,-0.59382 -0.96545,1.64676 -1.00515,5.99104 -0.0787,8.61593 -1.21132,6.40748 -3.5169,-6.85771 -2.18927,-12.59601 -2.13052,-12.51023 -4.94727,-7.22313 l -2.49473,4.68267 3.94049,13.3205 c 3.80385,12.85855 4.17577,17.03723 1.66693,18.72846 -0.59854,0.40347 -3.6344,0.74047 -6.74638,0.74887 -5.0026,0.0135 -6.13939,-0.38599 -9.81204,-3.44833 -4.56523,-3.80661 -9.38261,-5.50884 -15.61429,-5.51736 -3.19401,-0.004 -5.22725,0.85512 -9.43518,3.98845 -5.62777,4.19057 -7.23672,4.61533 -11.44045,3.02023 -2.92041,-1.10814 -3.00766,-0.88527 -1.39542,3.56446 0.98513,2.71897 0.89308,3.65489 -0.58019,5.89894 -0.9631,1.46697 -1.48413,2.93367 -1.15782,3.25933 0.3263,0.32566 3.85147,-0.16841 7.8337,-1.09794 7.62065,-1.77879 13.55345,-2.12864 15.26741,-0.90028 0.56297,0.40348 1.76778,1.90272 2.67735,3.33166 1.30243,2.04614 2.71592,2.72361 6.65376,3.18906 6.29713,0.74433 7.99415,1.83334 11.36735,7.29459 l 2.71284,4.39213 h 8.19462 8.19463 l 5.2407,5.24216 c 5.44349,5.445 7.44486,9.96013 7.45552,16.81983 0.007,4.29552 -2.05299,6.38379 -7.20458,7.30458 -4.48542,0.80173 -8.14969,4.8762 -7.1808,7.98466 1.88245,6.03938 2.40335,6.79045 4.1499,5.98364 0.95531,-0.44131 3.71255,-0.87839 6.12718,-0.97129 z M 178.99718,217.91796 c 6.93201,-3.61932 10.66865,-8.36443 11.99854,-15.23678 1.22369,-6.32362 0.45228,-14.42479 -1.69471,-17.79731 -4.28313,-6.72799 -15.75001,-6.00047 -23.01533,1.4602 -4.72545,4.85252 -4.66597,4.83235 -9.42823,3.19617 -9.50384,-3.26528 -13.90596,-9.16446 -13.90596,-18.63506 0,-5.87952 1.82657,-7.81236 13.96717,-14.77975 12.44573,-7.14251 18.28716,-13.88742 13.58636,-15.68771 -0.80329,-0.30764 -2.86446,-2.49003 -4.58038,-4.84973 -3.04347,-4.18537 -3.10327,-4.47824 -2.44288,-11.96552 0.80677,-9.14704 -0.5656,-14.47812 -4.06934,-15.80761 -3.49334,-1.32553 -12.72356,0.50177 -17.93693,3.55096 -2.48929,1.45594 -4.73744,2.98861 -4.99586,3.40592 -1.0648,1.71946 4.41408,5.15444 9.50173,5.9571 6.60273,1.04168 8.35419,3.0438 7.49414,8.56666 -0.80068,5.14168 -3.47362,9.68055 -6.57255,11.16071 -1.3479,0.64382 -6.03147,1.66298 -10.40792,2.26483 -8.85377,1.21756 -11.79104,2.6825 -14.02561,6.99512 -1.44583,2.79041 -1.22,3.85589 4.9816,23.50313 3.57286,11.31912 6.4961,20.78345 6.4961,21.03182 0,0.24838 2.81387,0.46146 6.25303,0.47353 14.42379,0.0506 25.56477,10.46139 21.79232,20.36406 -1.57286,4.12874 0.10822,5.57515 6.47964,5.57515 3.8027,0 6.72725,-0.76298 10.52507,-2.74589 z m 27.98535,-25.2779 c 0,-1.82788 -2.01783,-4.92689 -3.208,-4.92689 -0.62514,0 -2.0198,-0.78632 -3.09922,-1.74738 -1.90169,-1.69316 -1.94027,-1.66993 -1.24316,0.74887 0.39569,1.37295 1.91873,3.50502 3.38454,4.73794 2.92736,2.46227 4.16584,2.81529 4.16584,1.18746 z m -21.01019,-40.22484 c 0,-6.21578 -1.7477,-10.6333 -4.20685,-10.6333 -1.24042,0 -1.81863,0.49807 -1.51001,1.30073 0.27506,0.7154 1.283,4.08535 2.23985,7.48879 0.95684,3.40343 2.13061,6.18806 2.60837,6.18806 0.47775,0 0.86864,-1.95493 0.86864,-4.34428 z M 169.3573,97.266754 c 0.33401,-0.86868 0.60728,-5.410662 0.60728,-10.093303 v -8.513878 l -2.75133,0.66871 c -1.51323,0.367789 -3.77852,1.67653 -5.03398,2.908317 l -2.28264,2.239618 2.36881,5.437591 c 1.30285,2.990684 2.65358,6.223925 3.00162,7.184987 0.78869,2.17789 3.27812,2.280117 4.09024,0.167958 z m -15.40048,-2.5856 c 0,-2.160686 -3.28846,-4.821883 -5.90785,-4.780944 l -2.59627,0.04054 3.46391,2.954937 c 3.71985,3.173281 5.04021,3.641001 5.04021,1.785428 z M 84.002746,30.907136 c 3.847685,-1.959057 6.97327,-6.233558 5.577013,-7.627045 -0.915584,-0.913779 -12.518048,1.314347 -14.230608,2.732833 -1.167586,0.967096 -1.148977,1.584556 0.121649,4.036812 1.778712,3.432861 3.194238,3.575111 8.531946,0.8574 z"
       id="path33682" />
    <path
       fill="#544c27"
       d="M 147.45367,397.94308 C 124.89957,393.84333 105.1342,379.32562 92.299388,357.43216 84.585338,344.27363 81.977744,337.62477 77.429139,319.5159 70.114383,290.39448 60.777107,265.46928 35.161249,206.68478 12.625244,154.96805 6.6386042,139.01427 2.7507074,120.31405 -3.0451462,92.436813 7.0504778,58.827642 28.918718,33.198562 46.367021,12.749551 68.382994,2.5980914 98.114897,1.2925415 120.3386,0.31668202 138.48267,3.7566704 155.89694,12.247606 c 29.25883,14.266161 51.43647,43.868742 57.53793,76.801248 3.93553,21.241996 17.18827,115.358896 24.64904,175.049986 3.67905,29.43477 4.06527,34.54883 3.61962,47.92827 -0.59197,17.77242 -3.41125,30.25295 -9.68712,42.88337 -4.78123,9.6224 -15.82382,23.54847 -22.86482,28.83536 -7.35386,5.5218 -21.14163,11.22967 -32.84101,13.59553 -11.42728,2.31084 -18.62838,2.46099 -28.85691,0.60171 z m 46.74837,-26.11503 c 7.61325,-4.86736 8.52597,-10.25554 2.18989,-12.92802 -1.87891,-0.79251 -4.98014,-2.10202 -6.89163,-2.91002 -4.63389,-1.95881 -5.09261,-4.48024 -2.59272,-14.25192 1.13642,-4.44212 2.06622,-8.58631 2.06622,-9.2093 0,-0.623 -1.52142,-1.76715 -3.38092,-2.54257 -6.07475,-2.53317 -9.62539,-6.2559 -9.62539,-10.09189 0,-5.6925 2.487,-10.25085 6.50748,-11.92739 2.0503,-0.85498 3.29621,-1.94717 2.91796,-2.55796 -1.42604,-2.30282 -9.98301,-6.8615 -12.87289,-6.85796 -3.4404,0.004 -9.31706,3.19811 -10.22389,5.55659 -0.32881,0.85519 0.3366,8.06074 1.47871,16.01235 1.49264,10.39208 2.68671,15.44275 4.24643,17.96143 1.8831,3.0409 2.08431,4.38794 1.52248,10.19272 -1.88066,19.43074 -1.86903,21.59516 0.12584,23.39692 4.62953,4.18137 18.10287,4.26761 24.53243,0.15702 z m 33.67873,-38.90523 c 3.05838,-0.11769 4.69489,-0.71225 5.39449,-1.95987 0.61516,-1.09707 0.78802,-7.04655 0.44615,-15.35592 -0.46187,-11.226 -1.70406,-19.33268 -7.2041,-47.01491 -3.65529,-18.39747 -7.06977,-33.8768 -7.58772,-34.39852 -0.58956,-0.59385 -0.97872,1.64656 -1.04065,5.99104 l -0.0989,6.93961 -1.34595,-4.27004 c -0.74027,-2.34851 -2.08099,-9.31309 -2.97938,-15.47683 -4.52736,-31.06182 -6.35407,-38.28689 -10.03295,-39.68283 -1.24783,-0.47349 -3.09792,-2.03904 -4.11131,-3.479 -4.08081,-5.79866 -6.59248,-8.48445 -7.93433,-8.48445 -0.77649,0 -1.4118,0.58798 -1.4118,1.30662 0,1.83402 14.74117,49.75775 15.91833,51.75068 2.14701,3.63491 8.92599,28.74921 8.36125,30.97624 -0.83124,3.27803 -1.98784,3.80226 -8.42728,3.81966 -5.0026,0.0135 -6.13939,-0.38599 -9.81204,-3.44833 -4.56523,-3.80661 -9.38261,-5.50884 -15.61429,-5.51736 -3.19401,-0.004 -5.22725,0.85512 -9.43518,3.98845 -5.62777,4.19057 -7.23672,4.61533 -11.44045,3.02023 -2.92041,-1.10814 -3.00766,-0.88527 -1.39542,3.56446 0.98513,2.71897 0.89308,3.65489 -0.58019,5.89894 -0.9631,1.46697 -1.48413,2.93367 -1.15782,3.25933 0.3263,0.32566 3.85147,-0.16841 7.8337,-1.09794 7.62065,-1.77879 13.55345,-2.12864 15.26741,-0.90028 0.56297,0.40348 1.76778,1.90272 2.67735,3.33166 1.30243,2.04614 2.71592,2.72361 6.65376,3.18906 6.29713,0.74433 7.99415,1.83334 11.36735,7.29459 l 2.71284,4.39213 h 8.19462 8.19463 l 5.2407,5.24216 c 5.44349,5.445 7.44486,9.96013 7.45552,16.81983 0.007,4.29552 -2.05299,6.38379 -7.20458,7.30458 -4.48542,0.80173 -8.14969,4.8762 -7.1808,7.98466 1.88245,6.03938 2.40335,6.79045 4.1499,5.98364 0.95531,-0.44131 3.71255,-0.87839 6.12718,-0.97129 z M 178.99718,217.91796 c 6.93201,-3.61932 10.66865,-8.36443 11.99854,-15.23678 1.22369,-6.32362 0.45228,-14.42479 -1.69471,-17.79731 -4.28313,-6.72799 -15.75001,-6.00047 -23.01533,1.4602 -4.72545,4.85252 -4.66597,4.83235 -9.42823,3.19617 -9.50384,-3.26528 -13.90596,-9.16446 -13.90596,-18.63506 0,-5.87952 1.82657,-7.81236 13.96717,-14.77975 12.44573,-7.14251 18.28716,-13.88742 13.58636,-15.68771 -0.80329,-0.30764 -2.86446,-2.49003 -4.58038,-4.84973 -3.04347,-4.18537 -3.10327,-4.47824 -2.44288,-11.96552 0.80677,-9.14704 -0.5656,-14.47812 -4.06934,-15.80761 -3.49334,-1.32553 -12.72356,0.50177 -17.93693,3.55096 -2.48929,1.45594 -4.73744,2.98861 -4.99586,3.40592 -1.0648,1.71946 4.41408,5.15444 9.50173,5.9571 6.60273,1.04168 8.35419,3.0438 7.49414,8.56666 -0.80068,5.14168 -3.47362,9.68055 -6.57255,11.16071 -1.3479,0.64382 -6.03147,1.66298 -10.40792,2.26483 -8.85377,1.21756 -11.79104,2.6825 -14.02561,6.99512 -1.44583,2.79041 -1.22,3.85589 4.9816,23.50313 3.57286,11.31912 6.4961,20.78345 6.4961,21.03182 0,0.24838 2.81387,0.46146 6.25303,0.47353 14.42379,0.0506 25.56477,10.46139 21.79232,20.36406 -1.57286,4.12874 0.10822,5.57515 6.47964,5.57515 3.8027,0 6.72725,-0.76298 10.52507,-2.74589 z m 6.97516,-65.50274 c 0,-6.21578 -1.7477,-10.6333 -4.20685,-10.6333 -1.24042,0 -1.81863,0.49807 -1.51001,1.30073 0.27506,0.7154 1.283,4.08535 2.23985,7.48879 0.95684,3.40343 2.13061,6.18806 2.60837,6.18806 0.47775,0 0.86864,-1.95493 0.86864,-4.34428 z M 169.3573,97.266754 c 0.33401,-0.86868 0.60728,-5.344451 0.60728,-9.946153 0,-7.368662 0.26616,-8.614218 2.23118,-10.441283 1.22716,-1.141002 3.25314,-2.330542 4.50219,-2.643414 2.77897,-0.696098 2.8538,-2.315334 0.32958,-7.132055 -5.75433,-10.980393 -19.33701,-23.449882 -33.62346,-30.867806 -7.85772,-4.079947 -21.80793,-9.282262 -24.89075,-9.282262 -3.26659,0 -1.32476,3.496656 6.30598,11.35519 14.70871,15.147803 35.77768,45.473735 40.00889,57.587374 1.11274,3.185692 3.54784,3.922499 4.52911,1.370409 z m -15.40048,-2.5856 c 0,-2.160686 -3.28846,-4.821883 -5.90785,-4.780944 l -2.59627,0.04054 3.46391,2.954937 c 3.71985,3.173281 5.04021,3.641001 5.04021,1.785428 z M 84.002746,30.907136 c 3.847685,-1.959057 6.97327,-6.233558 5.577013,-7.627045 -0.915584,-0.913779 -12.518048,1.314347 -14.230608,2.732833 -1.167586,0.967096 -1.148977,1.584556 0.121649,4.036812 1.778712,3.432861 3.194238,3.575111 8.531946,0.8574 z"
       id="path33680" />
    <path
       fill="#2e5222"
       d="M 145.31796,396.9069 C 112.24251,389.72788 88.830096,362.96519 78.051851,320.01515 70.612004,290.36824 61.554073,266.09144 36.139653,207.68328 7.0852917,140.90969 1.8642837,125.04316 1.9004793,103.63118 1.9642902,65.881928 25.694559,26.938159 58.406998,10.898265 73.121731,3.6831864 79.307419,2.5668352 104.43282,2.5918368 c 19.3466,0.019251 22.94149,0.2794607 29.70113,2.1498633 18.82146,5.2079143 32.79617,12.7453379 45.35738,24.4640359 19.14764,17.863351 29.77503,38.296796 34.46613,66.268571 6.42989,38.339693 25.8473,181.927763 27.59658,204.071483 1.38511,17.53372 -2.8425,40.66946 -10.13669,55.47335 -4.84198,9.82705 -15.17851,22.50094 -23.06492,28.28053 -15.9104,11.66001 -44.03457,17.73116 -63.03447,13.60723 z m 47.19893,-22.35303 c 4.84225,-2.19519 9.46321,-7.3675 9.46321,-10.59232 0,-3.01602 -4.81446,-7.05618 -9.44067,-7.92234 -6.03392,-1.12974 -6.8821,-3.63359 -4.54251,-13.40971 2.73524,-11.42935 2.68822,-11.71759 -2.2747,-13.94469 -6.571,-2.94873 -9.15995,-6.28692 -8.41743,-10.85348 0.77779,-4.78349 3.68282,-8.70463 6.76696,-9.13392 5.67568,-0.79 4.2923,-3.96911 -4.04807,-9.30271 -5.3483,-3.4202 -8.26839,-3.541 -13.54181,-0.56022 -4.81854,2.72366 -6.48786,5.73347 -6.50739,11.73292 -0.009,2.68745 -0.93076,6.34424 -2.26584,8.98655 -1.98848,3.93548 -2.68561,4.49119 -5.97586,4.76352 -5.31126,0.4396 -11.80493,-2.7747 -16.04943,-7.9443 -4.67184,-5.69009 -5.95466,-9.19848 -5.20804,-14.24351 0.52626,-3.55606 0.18852,-4.61879 -2.62296,-8.25334 -3.98976,-5.15775 -8.68077,-7.83625 -12.1863,-6.95816 -4.47479,1.12088 -8.48657,5.37627 -10.28516,10.90972 -0.93187,2.86697 -2.59065,7.33727 -3.68618,9.93398 -3.607297,8.55035 0.24678,13.44532 6.47084,8.21847 2.8344,-2.38026 3.76313,-2.61629 8.22125,-2.08933 6.83247,0.8076 9.91072,3.27113 10.62827,8.50586 0.37245,2.71717 1.33738,4.70519 2.76978,5.70649 1.20899,0.84514 3.27767,3.66269 4.59706,6.26122 2.77918,5.47359 5.67308,7.11845 12.52393,7.11845 4.08976,0 5.52545,-0.5543 9.05195,-3.49477 5.14303,-4.28837 7.23416,-4.38264 10.03821,-0.45249 3.081,4.31831 3.55111,9.88221 1.48013,17.5179 -1.95218,7.19766 -1.63139,14.69777 0.7294,17.05391 4.28023,4.27174 17.37755,5.58965 24.31136,2.4463 z m 30.97364,-39.63744 c 1.37928,-1.04122 3.1432,-1.31827 5.67734,-0.89169 5.59355,0.94156 6.19821,-1.00405 5.5735,-17.93416 -0.4395,-11.91093 -1.52958,-19.21416 -7.16411,-47.99771 -3.65515,-18.67206 -7.09417,-35.0059 -7.64226,-36.29744 -0.78796,-1.85676 -1.28657,-2.108 -2.38232,-1.20041 -1.46845,1.2163 -1.62347,0.80314 -3.16399,-8.43341 -0.36638,-2.19671 -1.06009,-4.75636 -1.54156,-5.68812 -1.39009,-2.69006 -3.86327,-16.81543 -3.86346,-22.06579 -1.4e-4,-3.96552 -0.47293,-5.20809 -2.75151,-7.23143 -5.16068,-4.5826 -6.7532,-6.16527 -9.86481,-9.80376 -1.71134,-2.00113 -3.90788,-3.63842 -4.88119,-3.63842 -1.54812,0 -1.6855,0.63316 -1.0974,5.05778 l 0.67227,5.05777 -3.77707,-2.5615 c -4.35283,-2.95198 -6.96824,-3.14956 -14.02104,-1.05925 -3.66816,1.08717 -5.82963,2.49791 -7.82256,5.10561 -2.54342,3.328 -3.06184,3.56212 -6.78435,3.06381 -5.4271,-0.72648 -11.72267,-5.3067 -13.29385,-9.67169 -0.69188,-1.92212 -1.29221,-5.42587 -1.33407,-7.7861 -0.0941,-5.30974 1.69322,-7.13641 12.98008,-13.26523 9.85903,-5.3535 13.55132,-8.22027 15.54625,-12.07039 1.50163,-2.89809 1.46349,-2.98761 -3.65255,-8.57431 l -5.17003,-5.64564 0.75597,-5.0362 c 1.6006,-10.66311 -0.0255,-17.99585 -4.35506,-19.63869 -3.97045,-1.50658 -11.93788,-0.0591 -18.93211,3.43941 -6.70788,3.3553 -7.50068,4.91085 -4.43103,8.6942 1.28307,1.58138 3.72453,2.58732 8.254,3.40086 6.20715,1.11484 6.44288,1.26597 6.74312,4.32328 0.17111,1.74243 -0.57931,5.17704 -1.66762,7.63246 -2.18122,4.92127 -2.94429,5.26175 -16.52594,7.37387 -8.21437,1.27743 -11.88588,4.18169 -13.5314,10.70368 -2.27119,9.00189 -10.54276,13.84268 -19.45626,11.38641 -4.488031,-1.23675 -5.391099,-2.85747 -6.249065,-11.21508 l -0.677348,-6.59826 -4.431008,0.60614 c -2.469437,0.3378 -6.837215,0.03 -9.866403,-0.69522 -4.951541,-1.18551 -5.616083,-1.13816 -7.465109,0.53187 -1.116341,1.00828 -3.430353,4.67273 -5.142263,8.14322 -6.392109,12.95853 -3.73508,17.55847 10.402953,18.00992 14.958411,0.47766 24.311933,3.12332 27.338053,7.73263 2.83119,4.31239 1.49979,15.90823 -3.11641,27.14245 -2.062091,5.01843 -3.470163,9.8503 -3.129048,10.73748 0.55604,1.44614 0.959835,1.40642 3.901828,-0.38375 4.72099,-2.87268 11.53028,-2.6658 16.19273,0.49196 2.02716,1.37294 3.89086,2.49626 4.14156,2.49626 0.25069,0 0.45581,-2.02495 0.45581,-4.49987 0,-3.55541 0.52497,-4.95545 2.50121,-6.67036 1.92524,-1.67067 2.50121,-3.13554 2.50121,-6.36142 0,-5.6175 1.69412,-6.79214 10.28858,-7.13373 8.08426,-0.32131 15.04942,2.20624 20.09673,7.29276 2.73403,2.75527 2.84523,3.21469 2.31512,9.56498 -0.67801,8.12209 0.11471,9.03893 7.7367,8.94808 7.04588,-0.084 12.02744,-2.20669 17.43296,-7.42837 5.42144,-5.23704 6.23458,-7.22461 7.02628,-17.17451 l 0.6354,-7.98561 5.75279,19.0383 c 3.16403,10.47105 5.75914,19.90584 5.7669,20.96618 0.008,1.06033 1.80864,7.98229 4.00194,15.38212 2.19331,7.39985 3.98783,14.03854 3.98783,14.75267 0,1.98716 -4.6774,3.32148 -9.14431,2.60861 -2.39193,-0.38173 -5.63138,-1.99432 -8.03884,-4.00171 -4.67583,-3.89882 -7.22904,-4.7184 -14.93032,-4.79267 -4.98859,-0.0481 -6.12718,0.35516 -10.41916,3.69038 -5.31983,4.13393 -7.15787,4.48428 -11.57263,2.20583 -4.11916,-2.12588 -5.21619,-1.09377 -3.4137,3.21168 1.86073,4.44451 1.84897,7.25743 -0.0407,9.75092 -0.8079,1.06602 -1.46891,2.35884 -1.46891,2.87293 0,1.07554 6.92961,0.43465 15.04454,-1.39141 7.02915,-1.58173 10.3753,-0.76834 11.89416,2.89129 1.01819,2.45325 2.0059,2.99508 7.22599,3.96393 6.96788,1.29325 8.29146,2.1797 10.91349,7.3091 2.20958,4.32257 4.10686,5.13885 11.26456,4.84643 7.98548,-0.32624 8.4179,-0.20318 12.62939,3.59413 4.73388,4.26831 7.31273,10.44457 6.88103,16.47984 -0.31571,4.41366 -0.32969,4.4285 -5.31896,5.64718 -8.03012,1.96142 -10.37019,6.86628 -7.05445,14.78627 1.57954,3.7729 2.97944,4.20962 6.05396,1.88863 z M 188.34284,156.73232 c 1.27976,-5.1509 -0.89987,-14.59693 -3.80681,-16.49786 -2.45054,-1.60248 -5.09,-1.13356 -5.931,1.05369 -0.44744,1.1637 3.69282,16.50646 5.06559,18.77178 1.13818,1.8782 3.86055,-0.0607 4.67222,-3.32761 z m 6.26831,-35.56866 c -1.12004,-8.15538 -4.63687,-9.66385 -4.63687,-1.98889 0,4.35491 1.31734,6.63106 3.83778,6.63106 1.13392,0 1.30229,-0.97813 0.79909,-4.64217 z M 46.347962,120.59112 c 0.879436,-1.25309 1.557455,-4.28585 1.557455,-6.96651 0,-7.16056 2.06316,-8.12624 18.416267,-8.61979 7.204453,-0.21743 13.92419,-0.82916 14.932749,-1.35939 2.414221,-1.26922 6.648223,-10.447167 6.660609,-14.438043 0.01191,-3.842619 -6.577749,-23.146048 -8.716295,-25.533035 -1.724766,-1.925142 -2.375882,-2.158048 -10.56037,-3.777528 -4.221766,-0.835372 -6.203087,-1.788288 -7.349772,-3.53489 -2.074856,-3.160375 -1.987914,-11.854127 0.151143,-15.11228 2.114215,-3.220309 9.409861,-6.427338 15.335964,-6.741395 6.278304,-0.332722 12.657066,-3.707927 13.937957,-7.375004 1.559336,-4.464285 0.239646,-5.571621 -5.790647,-4.858835 -2.859096,0.337946 -6.708152,1.416722 -8.553477,2.397279 C 59.40228,33.687662 56.085272,35.866456 49.454078,42.351241 45.4784,46.239144 40.337248,52.225492 38.029289,55.654237 33.005394,63.117855 25.73362,77.82652 26.119563,79.74411 c 0.151484,0.752664 3.017334,2.207496 6.36855,3.232961 3.351225,1.025466 7.340068,3.017814 8.864097,4.427444 2.597419,2.402444 2.746972,2.98665 2.387948,9.327969 -0.377403,6.665846 -0.936254,8.004256 -5.94001,14.225726 -3.571491,4.44063 -0.684131,11.8521 4.617329,11.8521 1.318048,0 3.065426,-0.98658 3.930485,-2.21919 z M 170.13593,100.18918 c 1.52834,-1.380394 1.82962,-3.217225 1.82962,-11.154565 0,-7.440524 0.35924,-9.898205 1.6558,-11.328055 0.91068,-1.004307 2.20621,-1.826007 2.87894,-1.826007 0.67275,0 1.75412,-0.638495 2.40306,-1.418877 0.92917,-1.117357 0.64928,-2.443502 -1.31712,-6.240659 -8.43734,-16.292607 -27.81262,-31.321743 -49.93365,-38.732837 -4.27198,-1.431218 -8.89262,-3.113961 -10.26809,-3.739428 -1.83376,-0.83386 -2.79735,-0.841308 -3.61236,-0.02792 -0.81499,0.813387 1.13864,3.323196 7.32384,9.408792 4.63943,4.564724 10.60368,10.826264 13.25388,13.914534 9.00142,10.489315 23.60891,32.10314 23.60891,34.932665 0,2.168275 6.17775,15.442497 7.73333,16.616737 2.10635,1.58998 2.25021,1.5769 4.44384,-0.40438 z m -14.01471,-4.941354 c -0.64902,-3.648559 -4.26107,-6.386701 -8.42508,-6.386701 -5.04542,0 -4.59623,1.499995 1.72844,5.771821 5.16928,3.491455 7.24221,3.68179 6.69664,0.61488 z"
       id="path33678" />
    <path
       fill="#323017"
       d="M 145.31796,396.9069 C 120.66018,391.55493 101.04037,374.89985 87.673835,347.97331 83.548766,339.66348 81.10345,332.29464 76.922723,315.57542 70.52176,289.97718 60.442434,263.16515 37.695798,211.22775 7.9180924,143.23632 1.930879,125.26328 1.9221318,103.8387 1.9155746,87.779504 5.4085979,73.912618 13.617822,57.4082 27.151487,30.19914 48.627967,11.6414 74.418269,4.8707709 84.632121,2.1893682 111.70384,1.1434566 124.09403,2.9515564 c 41.13786,6.00325 74.45857,35.4283166 86.30023,76.2105446 3.37628,11.627787 14.69349,88.011189 25.6995,173.453929 7.25531,56.32503 7.07794,71.66456 -1.08681,93.99224 -5.26242,14.39083 -16.203,29.30393 -27.2262,37.11201 -16.15548,11.44343 -43.70161,17.25874 -62.46279,13.18662 z m 46.95518,-21.8252 c 4.19198,-1.74807 9.70696,-8.04216 9.70696,-11.07828 0,-3.05953 -4.77943,-7.09149 -9.44067,-7.96421 -6.03392,-1.12974 -6.8821,-3.63359 -4.54251,-13.40971 2.73524,-11.42935 2.68822,-11.71759 -2.2747,-13.94469 -6.571,-2.94873 -9.15995,-6.28692 -8.41743,-10.85348 0.77779,-4.78349 3.68282,-8.70463 6.76696,-9.13392 5.67568,-0.79 4.2923,-3.96911 -4.04807,-9.30271 -5.3483,-3.4202 -8.26839,-3.541 -13.54181,-0.56022 -4.81854,2.72366 -6.48786,5.73347 -6.50739,11.73292 -0.009,2.68745 -0.93076,6.34424 -2.26584,8.98655 -1.98848,3.93548 -2.68561,4.49119 -5.97586,4.76352 -5.31126,0.4396 -11.80493,-2.7747 -16.04943,-7.9443 -4.67184,-5.69009 -5.95466,-9.19848 -5.20804,-14.24351 0.52626,-3.55606 0.18852,-4.61879 -2.62296,-8.25334 -3.98976,-5.15775 -8.68077,-7.83625 -12.1863,-6.95816 -4.47479,1.12088 -8.48657,5.37627 -10.28516,10.90972 -0.93187,2.86697 -2.59065,7.33727 -3.68618,9.93398 -3.607297,8.55035 0.24678,13.44532 6.47084,8.21847 2.8344,-2.38026 3.76313,-2.61629 8.22125,-2.08933 6.83247,0.8076 9.91072,3.27113 10.62827,8.50586 0.37245,2.71717 1.33738,4.70519 2.76978,5.70649 1.20899,0.84514 3.27767,3.66269 4.59706,6.26122 2.77918,5.47359 5.67308,7.11845 12.52393,7.11845 4.08976,0 5.52545,-0.5543 9.05195,-3.49477 2.30519,-1.92212 5.01845,-3.49477 6.02945,-3.49477 2.58845,0 6.30185,5.44507 5.25944,7.71207 -0.44859,0.97556 -0.80845,7.70959 -0.7997,14.96453 0.0178,14.75174 0.25482,15.34366 7.12237,17.78626 5.02463,1.78712 14.56539,1.85106 18.70379,0.12536 z m 31.21739,-40.16527 c 1.37928,-1.04122 3.1432,-1.31827 5.67734,-0.89169 5.59355,0.94156 6.19821,-1.00405 5.5735,-17.93416 -0.4395,-11.91093 -1.52958,-19.21416 -7.16411,-47.99771 -3.65515,-18.67206 -7.09417,-35.0059 -7.64226,-36.29744 -0.77594,-1.82843 -1.29615,-2.10006 -2.35011,-1.22708 -2.03531,1.68581 -2.6725,-1.50786 -3.27103,-16.39478 -0.46244,-11.50187 -0.79577,-13.40469 -2.92613,-16.70356 -1.32233,-2.04765 -2.40423,-4.6517 -2.40423,-5.78679 0,-1.84735 -1.03379,-3.07691 -6.86697,-8.16733 -0.90044,-0.78578 -3.09109,-3.53281 -4.86811,-6.1045 -3.3552,-4.85559 -6.02646,-5.88155 -8.27462,-3.17804 -0.68502,0.82376 -2.68615,1.49775 -4.44697,1.49775 -4.58912,0 -8.92076,-6.53989 -8.65873,-13.07292 0.20532,-5.11916 -0.51798,-6.03098 -6.24536,-7.87321 l -3.84354,-1.23629 2.97313,-3.13749 c 5.94424,-6.27287 5.95323,-7.043 0.15613,-13.3734 l -5.17662,-5.65284 0.75597,-5.0362 c 1.6006,-10.66311 -0.0255,-17.99585 -4.35506,-19.63869 -3.91368,-1.48504 -11.93401,-0.088 -18.39089,3.20352 -7.20705,3.6739 -8.995,3.6504 -12.20799,-0.16046 -4.8102,-5.70529 -3.04174,-14.610147 3.57006,-17.976569 5.10139,-2.597372 8.7983,-2.409833 12.90476,0.654661 7.68993,5.7387 11.6907,6.591224 10.04055,2.139537 -0.85366,-2.302933 0.53326,-6.70813 2.11196,-6.70813 0.48496,0 2.16471,2.853849 3.73279,6.341878 2.84424,6.326753 4.74042,8.083583 7.55949,7.003933 2.29984,-0.88078 3.80016,-8.096208 3.05333,-14.684237 -0.54087,-4.77115 -0.34551,-6.208988 1.05315,-7.751429 0.94444,-1.041541 2.3257,-1.893706 3.06945,-1.893706 0.74376,0 2.33093,-1.123318 3.52706,-2.496263 1.19613,-1.372946 2.74234,-2.496264 3.43604,-2.496264 2.76457,0 2.37443,-2.388945 -1.43422,-8.782186 -5.10312,-8.566177 -14.7046,-19.011696 -22.72748,-24.725375 -13.42054,-9.557745 -38.53197,-18.39195 -40.9912,-14.420705 -0.34009,0.549178 -1.46564,0.998505 -2.50122,0.998505 -2.69077,0 -3.45972,1.833633 -1.61985,3.862652 0.87396,0.963803 1.75513,4.130418 1.97559,7.099593 0.46214,6.224166 2.17058,8.009361 7.66497,8.009361 5.52007,0 8.46724,3.575674 7.57789,9.193936 -1.98925,12.566665 -4.29018,15.099723 -13.59639,14.96803 -6.39822,-0.09056 -9.27249,-1.185785 -12.70965,-4.842991 -1.21183,-1.28941 -3.11614,-2.344381 -4.23181,-2.344381 -3.375682,0 -9.961314,3.068757 -10.548579,4.915393 -0.574348,1.806017 6.482903,21.782858 9.152807,25.908712 1.463132,2.261016 1.875402,2.336763 9.232132,1.696302 9.28017,-0.807921 10.3138,-0.05771 12.43726,9.026723 2.15622,9.22462 4.20429,11.88046 10.67339,13.84077 1.37567,0.41686 3.51198,1.68117 4.74734,2.80958 1.30094,1.18829 4.87956,2.52457 8.50413,3.17548 6.01909,1.08092 6.26987,1.24477 6.56911,4.29188 0.17111,1.74243 -0.57931,5.17704 -1.66762,7.63246 -2.17854,4.91522 -2.9618,5.26617 -16.41462,7.35483 -8.14225,1.26415 -13.55613,5.03099 -13.67192,9.51258 -0.0849,3.28568 -2.10878,7.50632 -4.73827,9.88127 -4.60715,4.16116 -17.041786,4.10078 -19.291037,-0.0937 -0.533208,-0.99433 -1.274267,-4.77709 -1.646818,-8.40613 l -0.677348,-6.59826 -4.431008,0.60614 c -2.469437,0.3378 -6.837215,0.03 -9.866403,-0.69522 -4.951541,-1.18551 -5.616083,-1.13816 -7.465109,0.53187 -1.116341,1.00828 -3.430353,4.67273 -5.142263,8.14322 -6.392109,12.95853 -3.73508,17.55847 10.402953,18.00992 14.958411,0.47766 24.311933,3.12332 27.338053,7.73263 2.83119,4.31239 1.49979,15.90823 -3.11641,27.14245 -2.062091,5.01843 -3.470163,9.8503 -3.129048,10.73748 0.55604,1.44614 0.959835,1.40642 3.901828,-0.38375 4.72099,-2.87268 11.53028,-2.6658 16.19273,0.49196 2.02716,1.37294 3.89086,2.49626 4.14156,2.49626 0.25069,0 0.45581,-2.02495 0.45581,-4.49987 0,-3.55541 0.52497,-4.95545 2.50121,-6.67036 1.92524,-1.67067 2.50121,-3.13554 2.50121,-6.36142 0,-5.6175 1.69412,-6.79214 10.28858,-7.13373 5.71107,-0.22698 8.05365,0.16994 12.14998,2.05864 7.84842,3.61869 10.57745,6.91027 10.57745,12.75784 0,5.86677 -1.98882,8.25543 -8.20123,9.85002 -11.06788,2.84089 -11.11489,2.93096 -7.29611,13.98241 1.42239,4.11639 3.20221,10.8543 3.95514,14.97313 0.75294,4.11884 2.07553,10.40942 2.9391,13.97908 0.86357,3.56966 1.57678,7.7831 1.58492,9.36322 0.0146,2.83594 0.0759,2.86598 4.76709,2.33319 2.61376,-0.29687 7.24527,-1.10073 10.29223,-1.78637 7.02915,-1.58173 10.3753,-0.76834 11.89416,2.89129 1.01819,2.45325 2.0059,2.99508 7.22599,3.96393 6.96788,1.29325 8.29146,2.1797 10.91349,7.3091 2.20958,4.32257 4.10686,5.13885 11.26456,4.84643 7.98548,-0.32624 8.4179,-0.20318 12.62939,3.59413 4.73388,4.26831 7.31273,10.44457 6.88103,16.47984 -0.31571,4.41366 -0.32969,4.4285 -5.31896,5.64718 -8.03012,1.96142 -10.37019,6.86628 -7.05445,14.78627 1.57954,3.7729 2.97944,4.20962 6.05396,1.88863 z M 202.26396,261.6688 c -1.76982,-0.4393 -4.81704,-2.20008 -6.77162,-3.91282 -4.14584,-3.63289 -6.95033,-4.51271 -14.62037,-4.58668 -4.98859,-0.0481 -6.12718,0.35516 -10.41916,3.69038 -5.54243,4.30691 -7.06363,4.5123 -12.58802,1.69954 l -4.01619,-2.04485 0.68427,-4.69507 c 1.6994,-11.6602 5.19159,-13.6047 24.51426,-13.64985 13.26658,-0.0311 13.72908,-0.10592 19.74877,-3.199 3.39022,-1.74198 6.33881,-2.8653 6.55242,-2.49626 0.21361,0.36904 2.10428,6.62967 4.20148,13.91251 2.46319,8.55372 3.46958,13.58439 2.84275,14.20999 -1.44714,1.44427 -6.48215,1.97723 -10.12859,1.07211 z M 187.93812,158.82215 c 2.42595,-4.52398 0.43349,-15.9492 -3.22776,-18.50856 -5.90791,-4.12988 -7.41266,-0.24778 -4.09581,10.56677 1.41281,4.60647 2.77264,8.7124 3.02183,9.12428 0.85415,1.4118 3.2661,0.74878 4.30174,-1.18249 z m 6.67303,-37.65849 c -0.77586,-5.64929 -2.29509,-7.86671 -4.26937,-6.23145 -2.76659,2.29153 -0.50314,10.87362 2.86782,10.87362 1.85082,0 1.98022,-0.42862 1.40155,-4.64217 z M 46.347962,120.59112 c 0.879436,-1.25309 1.557455,-4.28585 1.557455,-6.96651 0,-7.16056 2.06316,-8.12624 18.416267,-8.61979 7.204453,-0.21743 13.92419,-0.82916 14.932749,-1.35939 2.414221,-1.26922 6.648223,-10.447167 6.660609,-14.438043 0.01191,-3.842619 -6.577749,-23.146048 -8.716295,-25.533035 -1.724766,-1.925142 -2.375882,-2.158048 -10.56037,-3.777528 -4.221766,-0.835372 -6.203087,-1.788288 -7.349772,-3.53489 -2.074856,-3.160375 -1.987914,-11.854127 0.151143,-15.11228 2.114215,-3.220309 9.409861,-6.427338 15.335964,-6.741395 6.278304,-0.332722 12.657066,-3.707927 13.937957,-7.375004 1.559336,-4.464285 0.239646,-5.571621 -5.790647,-4.858835 -2.859096,0.337946 -6.708152,1.416722 -8.553477,2.397279 C 59.40228,33.687662 56.085272,35.866456 49.454078,42.351241 45.4784,46.239144 40.337248,52.225492 38.029289,55.654237 33.005394,63.117855 25.73362,77.82652 26.119563,79.74411 c 0.151484,0.752664 3.017334,2.207496 6.36855,3.232961 3.351225,1.025466 7.340068,3.017814 8.864097,4.427444 2.597419,2.402444 2.746972,2.98665 2.387948,9.327969 -0.377403,6.665846 -0.936254,8.004256 -5.94001,14.225726 -3.571491,4.44063 -0.684131,11.8521 4.617329,11.8521 1.318048,0 3.065426,-0.98658 3.930485,-2.21919 z"
       id="path33676" />
    <path
       fill="#0e0d07"
       d="M 145.35741,395.91642 C 133.04476,393.24289 121.43964,387.04213 109.61667,376.8197 95.08888,364.25861 85.480112,346.54108 78.539017,319.5159 70.730632,289.1139 61.759763,264.89693 39.146421,213.17506 10.596116,147.87401 3.7857532,128.68748 2.2492203,109.22626 0.30566818,84.609868 12.777594,52.00494 31.969652,31.529166 52.411281,9.7202278 76.967275,0.62547985 110.93597,2.2825897 c 28.17954,1.3746955 50.32689,10.4512053 69.03999,28.2942123 19.01251,18.128506 28.62607,37.009944 33.53643,65.866934 9.17178,53.900334 27.48084,194.212964 27.47948,210.590844 -0.002,22.76107 -5.66726,43.14159 -15.87614,57.11241 -5.14268,7.03773 -15.98018,17.9692 -21.00528,21.18742 -3.8772,2.48307 -5.76406,3.03334 -10.19721,2.97383 -7.47237,-0.10032 -23.17366,1.4346 -24.69902,2.41452 -0.68783,0.44187 -1.25061,2.12487 -1.25061,3.73999 v 2.93658 l -8.254,-0.0794 c -4.5397,-0.0436 -10.99819,-0.67525 -14.3522,-1.40353 z m -3.24042,-18.57239 c 7.10582,-1.23853 7.78196,-1.57188 9.19753,-4.5345 0.84035,-1.75873 2.46103,-3.49327 3.60154,-3.85453 2.71075,-0.85867 8.81958,1.17014 12.34228,4.099 4.26919,3.54951 9.18547,4.52163 21.16152,4.18438 l 10.95165,-0.30841 1.75354,-3.00061 c 0.96444,-1.65033 2.0453,-4.82163 2.40191,-7.04734 0.55412,-3.45842 0.25992,-4.50749 -2.0237,-7.21604 -1.57879,-1.87258 -4.38164,-3.65675 -6.85041,-4.36066 -7.61118,-2.17018 -8.02043,-3.54145 -4.66425,-15.62868 2.33551,-8.41131 1.77883,-10.42869 -3.34331,-12.11581 -1.83939,-0.60585 -4.61851,-2.42885 -6.17581,-4.05112 -2.68227,-2.79413 -2.7685,-3.15934 -1.63645,-6.93033 1.52199,-5.06989 4.38903,-7.04853 10.21327,-7.04853 3.56769,0 5.59073,0.69479 8.81922,3.02886 4.73488,3.42315 6.11555,6.20573 6.11555,12.3252 0,3.56926 -0.483,4.59689 -3.05142,6.49204 -2.80726,2.0714 -3.0274,2.66271 -2.75133,7.39025 0.28806,4.9327 0.45182,5.19615 4.08513,6.57164 5.16931,1.95699 10.09668,0.38552 16.86184,-5.3777 4.64249,-3.95492 5.80267,-4.46915 10.08299,-4.46915 4.34836,0 4.9457,-0.27732 5.91446,-2.74589 0.67956,-1.73162 0.89438,-7.90946 0.5816,-16.72497 -0.42927,-12.09835 -1.45377,-18.79285 -7.61495,-49.75888 -3.91542,-19.6789 -7.56872,-36.61857 -8.11845,-37.64371 -0.54972,-1.02514 -1.90307,-7.16594 -3.00743,-13.64621 -3.62653,-21.27996 -5.21582,-27.50805 -7.14825,-28.01238 -0.97129,-0.2535 -1.98712,-1.19871 -2.25742,-2.10048 -0.90643,-3.02408 -10.58016,-52.641 -10.58016,-54.26604 0,-1.11353 0.61282,-1.44519 2.00097,-1.0829 2.42841,0.63379 2.42962,0.59805 0.39047,-11.56906 -1.76846,-10.55198 -2.50661,-12.08506 -4.87443,-10.12384 -0.86202,0.714 -1.80636,1.05959 -2.09853,0.768 -0.29218,-0.29159 -2.03632,-6.32644 -3.87586,-13.410765 -1.83954,-7.084317 -4.06581,-14.603213 -4.94726,-16.708642 -1.97923,-4.727594 -2.06512,-4.250339 0.89858,-4.992708 3.8236,-0.957766 3.14822,-3.888769 -3.03215,-13.158925 -12.43986,-18.658969 -29.48854,-30.997436 -50.4938,-36.543363 -5.7577,-1.520181 -11.87998,-2.087897 -26.31215,-2.439916 -22.1685,-0.540716 -25.800761,0.137245 -39.148591,7.307094 -16.08979,8.642707 -28.702464,22.583359 -37.625608,41.587172 -4.354925,9.274778 -4.866938,12.27323 -2.214695,12.969718 0.962966,0.252881 3.885648,1.014501 6.494848,1.692497 2.609205,0.677985 5.924102,2.324221 7.366451,3.658304 2.411859,2.230811 2.589565,2.940809 2.213083,8.841777 -0.33069,5.183037 -0.905759,6.947257 -2.992141,9.179397 -3.909805,4.18295 -5.084054,7.08029 -4.382374,10.81314 1.029529,5.47699 6.861176,8.7806 12.015375,6.80666 2.410328,-0.9231 4.547004,-5.74191 4.547004,-10.25479 0,-2.19158 0.562773,-4.33558 1.250606,-4.76447 0.687834,-0.42888 7.716621,-1.01832 15.619522,-1.30986 l 14.368905,-0.53008 2.852793,-3.41041 c 3.07373,-3.67455 5.927574,-10.866286 5.927574,-14.937603 0,-2.46519 0.08874,-2.434516 4.008373,1.385297 4.324806,4.214702 4.635797,4.923251 14.460075,32.944406 8.99649,25.66012 8.57971,22.87948 3.32157,22.1602 -3.58278,-0.49011 -5.35742,-0.12919 -9.07415,1.84547 -5.84982,3.10794 -6.337886,3.07823 -7.040657,-0.42865 -0.57774,-2.88297 -0.578971,-2.88339 -8.379062,-2.88391 -4.29068,-2.8e-4 -9.885572,-0.31634 -12.433097,-0.70237 -4.427246,-0.67084 -4.741328,-0.55448 -7.110087,2.63428 -1.997328,2.68874 -6.181937,9.68339 -6.29211,10.51736 -0.01391,0.10542 -2.88796,0.65179 -6.386736,1.21413 -7.236058,1.16303 -10.095944,3.18336 -10.095944,7.13214 0,2.19543 1.001025,3.37775 5.061514,5.97821 3.149646,2.01712 5.701263,4.60229 6.755194,6.84401 1.518957,3.23083 2.14542,3.63478 6.072764,3.91579 3.71392,0.26573 5.005356,-0.18927 8.502202,-2.99552 3.209696,-2.57583 5.009688,-3.28875 8.125058,-3.2181 6.478571,0.14689 11.505578,1.38744 11.505578,2.83932 0,0.73799 -2.70131,3.94957 -6.00291,7.13683 -5.232987,5.05177 -6.00291,6.27426 -6.00291,9.5315 0,2.05506 0.462904,4.9516 1.028669,6.43673 l 1.028678,2.70026 8.423193,-0.52446 c 4.632756,-0.28846 8.614617,-0.33342 8.84858,-0.0999 0.233953,0.2335 -0.632056,2.99059 -1.924483,6.12688 -2.859426,6.93887 -2.924198,8.32654 -0.526595,11.28159 l 1.870767,2.30574 3.335564,-2.80114 c 2.95274,-2.47966 3.94621,-2.75059 8.65645,-2.36075 4.14592,0.34312 5.98685,1.07712 8.33662,3.32389 4.05326,3.87559 6.32506,2.55882 6.74996,-3.91236 0.21674,-3.30102 1.00119,-5.34482 2.70356,-7.04382 1.94942,-1.94558 2.28931,-3.06332 1.81622,-5.97287 -0.89645,-5.51325 0.64209,-6.59179 9.4031,-6.59179 8.21469,0 12.43467,1.46719 17.32004,6.02177 2.34057,2.1821 2.96847,3.61811 2.96847,6.78883 0,2.29692 -0.66348,4.68352 -1.54725,5.56553 -1.39974,1.39698 -10.33395,4.58949 -12.84361,4.58949 -0.56177,0 -2.50604,1.43613 -4.3206,3.1914 -4.64456,4.49277 -4.46411,8.02413 0.65086,12.73689 4.98968,4.59734 6.05478,7.44107 6.05478,16.1657 0,6.36034 -0.25574,7.24571 -2.7933,9.67042 -1.53633,1.46801 -4.23764,3.43451 -6.00291,4.37003 -3.68343,1.95205 -4.31847,5.76051 -1.60522,9.62657 1.53603,2.18865 1.99429,2.25855 10.75521,1.64062 5.03295,-0.35499 11.62703,-1.23528 14.6535,-1.9562 8.66557,-2.06419 13.40182,-2.61431 14.77543,-1.71615 1.60464,1.04922 2.9281,5.95351 2.43873,9.0371 -0.57857,3.64575 -8.1617,10.49835 -14.53491,13.13467 -3.9037,1.61479 -5.87384,3.03119 -6.15541,4.4253 -4.15649,20.58014 -4.96874,22.05446 -11.2178,20.36158 -8.9013,-2.41136 -15.41415,-10.84879 -15.04066,-19.48525 0.20308,-4.69576 -0.11933,-5.49619 -4.12266,-10.23485 -2.38864,-2.82738 -4.7639,-6.66212 -5.27835,-8.52163 -0.90932,-3.28678 -1.11423,-3.40005 -7.35782,-4.06736 -7.77137,-0.8306 -9.80525,-2.58759 -9.34983,-8.07693 0.28819,-3.47366 0.80645,-4.08542 5.81903,-6.86875 l 5.50267,-3.05548 0.29461,-5.52872 c 0.33316,-6.25202 -1.03483,-10.88482 -3.21412,-10.88482 -0.80756,0 -3.10628,0.96451 -5.10825,2.14337 -3.48926,2.05464 -3.78438,2.07462 -7.12929,0.48271 -3.828694,-1.82218 -5.352893,-1.45854 -5.352893,1.27705 0,0.98355 -1.337539,3.63104 -2.972311,5.88331 -3.751058,5.16793 -9.615291,7.34737 -13.295035,4.94107 -3.848396,-2.51657 -8.744779,-12.74509 -8.744779,-18.26781 0,-3.51705 -0.642281,-5.59891 -2.461874,-7.97979 -2.567924,-3.36007 -7.148915,-5.24869 -8.780756,-3.62007 -0.59748,0.59629 0.904568,6.61996 4.059798,16.28099 2.754485,8.43398 5.971074,18.70446 7.147985,22.8233 3.338578,11.68404 4.013736,12.92825 8.161336,15.04001 3.85763,1.96412 6.018098,5.00788 7.28131,10.25825 0.967919,4.02302 4.947899,7.65242 8.391618,7.65242 4.048471,0 4.294481,0.60918 2.149812,5.32338 -2.611476,5.74029 -2.427797,8.89265 0.700049,12.01431 3.28978,3.28328 5.40217,3.32539 8.15761,0.16261 2.77329,-3.18325 5.95804,-3.93558 10.96452,-2.59014 5.15857,1.38631 6.45712,3.03276 6.06825,7.69401 -0.28998,3.47589 -0.62895,3.85361 -4.31867,4.81259 -5.69403,1.4799 -6.50111,2.23004 -6.50111,6.04241 0,2.79111 0.79116,4.04616 4.50219,7.14205 5.47062,4.56383 5.78701,7.3648 1.66447,14.7351 -1.56073,2.79029 -3.67549,7.43177 -4.69945,10.31438 l -1.86174,5.24113 3.44884,3.5789 c 3.42788,3.55715 3.49144,3.57614 10.45224,3.12311 3.85187,-0.2507 10.45473,-1.05738 14.67302,-1.79261 z m -5.63332,-20.49155 c -1.81923,-1.81563 -2.96648,-5.82154 -2.22184,-7.75817 0.72922,-1.89657 9.1393,-4.61577 14.2759,-4.61577 3.37832,0 5.08339,-0.71216 8.47417,-3.53948 4.05049,-3.3774 6.91543,-4.11325 7.60097,-1.9523 0.51908,1.63626 -0.67755,2.71904 -11.34479,10.2654 -12.19599,8.62785 -14.64409,9.7364 -16.78441,7.60032 z m 44.48625,-186.17955 c 0,-3.35167 1.54243,-6.92389 2.98963,-6.92389 0.8808,0 2.99611,6.14464 3.0077,8.73692 0.003,0.72238 -1.25873,1.24813 -2.99588,1.24813 -2.68226,0 -3.00145,-0.32554 -3.00145,-3.06116 z m -11.2763,-34.86719 c -4.54509,-4.5361 -4.92494,-5.26687 -4.28182,-8.23767 2.17166,-10.03182 1.33817,-16.95256 -2.50339,-20.78652 -3.34405,-3.33743 -15.96166,-2.16979 -21.95789,2.032 -4.59617,3.22071 -6.74476,3.3621 -9.48795,0.62433 -1.94242,-1.93857 -2.51787,-3.53745 -2.51787,-6.99586 0,-6.189248 3.02521,-9.621281 9.03738,-10.252696 3.85433,-0.404785 5.21336,0.01558 9.87853,3.055446 2.97514,1.938639 7.78039,4.01606 10.67832,4.616478 2.89794,0.600412 5.70309,1.628632 6.23368,2.284932 1.02529,1.26823 12.19537,35.6373 12.19537,37.52379 0,2.26635 -2.41936,0.98116 -7.27436,-3.86423 z M 84.175119,66.780153 c -2.721129,-6.071696 -4.819916,-7.604647 -12.656035,-9.243986 -3.741434,-0.78272 -7.295046,-1.914583 -7.896908,-2.515251 -1.820243,-1.81664 -1.339359,-10.73992 0.699979,-12.988906 1.519107,-1.675277 9.351623,-5.093173 11.671598,-5.093173 0.935153,0 11.935796,27.427909 11.915746,29.709524 -0.008,0.958864 -0.410499,2.366158 -0.893493,3.127309 -0.650435,1.025026 -1.387152,0.248218 -2.840887,-2.995517 z M 132.94664,260.47469 c 4.32487,-2.61705 4.96776,-3.56929 4.98711,-7.38686 0.0152,-3.00656 -2.33658,-7.46134 -3.93906,-7.46134 -1.89406,0 -7.05096,9.74017 -7.05096,13.31762 0,4.267 1.04178,4.53264 6.00291,1.53058 z"
       id="path33674" />
  </g>
</svg>
