<?xml version="1.0" encoding="UTF-8" standalone="no"?>
<!-- Created with Inkscape (http://www.inkscape.org/) -->

<svg
   version="1.1"
   id="svg33444"
   width="401"
   height="481"
   viewBox="0 0 401 481"
   xmlns="http://www.w3.org/2000/svg"
   xmlns:svg="http://www.w3.org/2000/svg">
  <g
     id="thigh-right">
    <path
       fill="#c8bd64"
       d="M 118.5547,411.41285 C 76.956294,407.10111 56.95,381.52976 47.315916,320.35787 42.819406,291.80714 41.767885,287.23771 29.303124,242.08258 6.5833423,159.77728 0,128.94291 0,104.83565 0,90.342441 2.106444,81.406975 8.8923115,67.114764 26.373339,30.296699 57.277868,6.0942036 93.606693,0.7717482 103.71424,-0.70908475 124.1272,0.01519795 136.98547,2.3108914 c 31.0893,5.5506322 57.7666,21.3887226 75.30243,44.7064306 7.55381,10.044427 16.02972,27.369172 19.40109,39.655741 6.04419,22.027387 4.2592,55.914247 -9.06675,172.127007 -3.02607,26.38964 -6.3582,56.29138 -7.40475,66.4483 -2.58347,25.07306 -6.0474,35.94042 -16.10026,50.51107 -5.97961,8.66687 -12.89144,15.16058 -24.36164,22.8879 -16.0609,10.82001 -34.51983,15.01278 -56.20089,12.76551 z"
       id="path33468" />
    <path
       fill="#8c7b3f"
       d="M 117.55844,410.04756 C 95.812946,406.94529 87.964924,403.52581 76.712589,392.25053 70.259488,385.78427 68.277094,382.92004 63.501751,373.16308 55.008482,355.80966 52.331458,346.55385 47.883156,319.16204 43.014971,289.1846 43.155254,289.78966 29.737642,240.89852 4.8152544,150.08622 -2.1737472,114.61602 0.89605233,94.523249 6.3815512,58.61898 35.446748,21.97655 69.463159,8.0808432 81.83211,3.0281286 93.687101,0.85461569 108.96239,0.83899449 c 23.47787,-0.0240073 42.75393,4.13385831 61.89585,13.35101151 29.94993,14.421386 50.30586,38.991888 60.05006,72.483057 2.08911,7.180308 2.54334,11.22947 2.95433,26.335317 0.71765,26.37823 -2.1711,60.63996 -13.12945,155.71996 -2.98165,25.8703 -5.94778,52.65192 -6.59138,59.5147 -1.51215,16.12409 -3.86853,25.33504 -9.32136,36.43657 -6.15664,12.53446 -13.87135,21.36284 -26.7539,30.61601 -15.07001,10.82437 -26.11057,14.70419 -43.57172,15.31178 -5.75339,0.2002 -13.37476,-0.0517 -16.93638,-0.55984 z m 76.85843,-134.7916 c 0.35458,-2.42591 0.9719,-9.39883 1.37182,-15.49537 0.71424,-10.88849 0.68569,-11.11371 -1.61357,-12.72735 -1.28738,-0.90349 -2.68924,-1.64271 -3.11527,-1.64271 -0.94554,0 -0.9963,10.03372 -0.1231,24.33314 0.68769,11.26166 2.27408,13.78352 3.48012,5.53229 z m -3.28724,-131.80323 c 2.32411,-1.71254 5.66272,-3.2355 7.41913,-3.38435 1.75641,-0.14884 3.5947,-0.31988 4.08509,-0.38006 1.50738,-0.18501 -0.0894,-33.80758 -1.92519,-40.537469 -2.66806,-9.780909 -9.01441,-20.816732 -16.73391,-29.098998 -6.91946,-7.423903 -7.0715,-7.520192 -8.69755,-5.508148 -2.00435,2.480151 -3.20831,9.208242 -2.15723,12.055203 0.42043,1.138761 3.67006,3.983603 7.22141,6.321875 6.00261,3.952224 6.61899,4.707979 8.75919,10.739841 3.98746,11.238156 2.91391,18.288106 -3.87878,25.471876 -3.38511,3.58 -3.58538,4.70283 -2.5786,14.45705 1.51921,14.71886 1.66569,14.88911 8.48644,9.86318 z"
       id="path33466" />
    <path
       fill="#5e9b2b"
       d="m 124.00662,409.40844 c -0.56307,-0.44464 -1.8521,-2.69103 -2.8645,-4.99198 -1.83718,-4.17543 -1.84581,-4.1804 -4.45567,-2.56329 -1.4382,0.89113 -3.80609,2.70544 -5.26197,4.0318 l -2.64706,2.41156 -5.82113,-1.6847 C 93.202482,403.789 83.739476,398.191 76.494479,390.95791 70.857691,385.3304 68.867576,382.3356 63.884164,371.98146 54.937419,353.39261 53.258177,347.66462 48.801785,320.53473 43.630619,289.05337 43.625618,289.0316 31.198475,243.89319 1.3557815,135.4972 -3.4333609,106.43017 4.4722249,81.681948 10.399618,63.126401 22.115422,44.511608 36.583409,30.661712 50.604753,17.239369 65.271782,8.9100122 83.187539,4.1953708 91.86108,1.9128739 95.148124,1.5715594 108.59212,1.5574496 c 16.94497,-0.017788 28.80713,1.5659105 43.34359,5.7867199 46.45175,13.4877425 78.83999,53.7808425 81.81956,101.7889105 0.97312,15.67923 -2.43585,60.26735 -9.15824,119.78677 -1.86027,16.47068 -5.20975,46.7917 -7.44327,67.38005 -2.23353,20.58835 -4.72793,41.20166 -5.54312,45.80736 -3.8176,21.56901 -14.7944,39.02754 -32.62248,51.88583 -10.06743,7.26102 -16.31621,10.45584 -25.72519,13.15251 -7.64717,2.19174 -27.41066,3.72035 -29.25635,2.26284 z m 34.88765,-27.24416 c 2.28998,-4.43708 2.97706,-11.42546 1.47948,-15.04807 -1.71279,-4.14318 -4.53061,-5.05229 -11.94935,-3.85519 -3.35996,0.54218 -7.71925,0.85824 -9.68733,0.70235 -3.51633,-0.2785 -3.61844,-0.18062 -5.89571,5.6514 -2.7521,7.04809 -2.39362,7.50386 5.91956,7.52592 6.67874,0.0177 11.18308,1.678 14.5874,5.37686 3.06482,3.32998 3.66474,3.29176 5.54595,-0.35327 z m 27.31971,-58.71136 c 2.96464,-2.23383 3.16435,-4.88216 1.14436,-15.17434 -2.24476,-11.43735 -2.28725,-12.75743 -0.57677,-17.91736 1.72402,-5.20079 6.47074,-10.03289 9.85562,-10.03289 2.28597,0 2.36547,-0.44674 3.06405,-17.21934 0.52878,-12.69589 0.40741,-14.72379 -0.88125,-14.72379 -0.82197,0 -3.0636,-1.57221 -4.9814,-3.49378 -1.91779,-1.92158 -3.68998,-3.49379 -3.93818,-3.49379 -0.24819,0 -1.18738,2.22059 -2.08707,4.93464 -2.01949,6.09213 -5.01222,10.03871 -7.61243,10.03871 -4.28311,0 -7.99183,-3.06757 -10.59391,-8.76247 -2.80829,-6.14622 -2.43374,-6.33573 -5.74255,2.90547 -2.23564,6.24395 -6.67628,11.44134 -10.41568,12.1907 -1.86317,0.37337 -3.45385,1.5276 -4.11798,2.98809 -0.59519,1.30884 -2.6262,3.11748 -4.51338,4.01918 l -3.43123,1.63947 0.68791,7.73268 c 0.60022,6.74683 1.18178,8.46446 4.56151,13.47247 2.13048,3.15688 4.42529,5.73978 5.0996,5.73978 0.67429,0 2.94286,1.16895 5.04126,2.59765 3.42114,2.32932 3.7729,2.9613 3.40513,6.11776 -0.3711,3.18493 -0.10223,3.64902 2.82355,4.8739 3.77684,1.58117 4.36049,2.34481 6.35871,8.31969 1.08235,3.23629 2.18113,4.67125 3.98503,5.20425 3.8369,1.13369 10.00968,0.19486 12.8651,-1.95668 z M 142.96302,170.08087 c 0,-1.34097 -4.44589,-3.51702 -7.22287,-3.53525 -2.04625,-0.0135 -2.24158,0.44923 -2.24158,5.30914 0,2.92813 0.29081,5.61525 0.64626,5.9714 0.76699,0.7685 8.81819,-6.30313 8.81819,-7.74529 z m 58.06919,-16.48736 c 0.24935,-9.09647 0.55492,-10.69265 2.37157,-12.38847 2.00617,-1.87272 2.06491,-2.61326 1.54713,-19.50485 -0.61015,-19.90462 -2.10786,-26.90226 -8.68862,-40.594925 -4.12285,-8.578457 -14.2004,-22.382447 -16.34023,-22.382447 -3.25154,0 -7.44405,8.383609 -7.52571,15.048897 -0.0495,4.040936 1.70821,6.018828 9.1001,10.239986 3.93688,2.248168 5.00744,3.552845 6.89361,8.401205 1.46111,3.755744 2.26066,8.037714 2.31314,12.387904 0.0705,5.84615 -0.28103,7.16363 -2.91403,10.92068 -1.64682,2.34987 -5.90582,6.21804 -9.46445,8.59595 -8.15339,5.44816 -8.96087,6.56932 -8.96087,12.44181 0,3.8629 0.55336,5.40512 2.87255,8.00587 2.37046,2.65823 3.80708,3.31529 8.21913,3.75908 l 5.34658,0.5378 0.63812,7.15562 c 0.35097,3.93559 0.86981,7.53122 1.15297,7.99029 0.28317,0.45907 3.35838,0.60805 6.83381,0.33106 l 6.31897,-0.50362 z m -60.85359,-19.5612 c 1.50357,-0.31368 2.50655,-1.582 3.17806,-4.01879 1.29349,-4.69389 0.75072,-5.77905 -3.66609,-7.32958 -2.03576,-0.71465 -5.3819,-2.91116 -7.43586,-4.88113 -2.27842,-2.18525 -4.07234,-3.21145 -4.601,-2.63197 -0.90596,0.99305 0.83391,17.10924 2.0484,18.97401 0.64265,0.98676 5.45496,0.93506 10.47649,-0.11254 z"
       id="path33464" />
    <path
       fill="#524927"
       d="m 124.00662,409.40844 c -0.56307,-0.44464 -1.8521,-2.69103 -2.8645,-4.99198 -1.83718,-4.17543 -1.84581,-4.1804 -4.45567,-2.56329 -1.4382,0.89113 -3.80609,2.70544 -5.26197,4.0318 l -2.64706,2.41156 -5.82113,-1.6847 C 93.202482,403.789 83.739476,398.191 76.494479,390.95791 70.857691,385.3304 68.867576,382.3356 63.884164,371.98146 54.937419,353.39261 53.258177,347.66462 48.801785,320.53473 43.630619,289.05337 43.625618,289.0316 31.198475,243.89319 1.3557815,135.4972 -3.4333609,106.43017 4.4722249,81.681948 10.399618,63.126401 22.115422,44.511608 36.583409,30.661712 50.604753,17.239369 65.271782,8.9100122 83.187539,4.1953708 91.86108,1.9128739 95.148124,1.5715594 108.59212,1.5574496 c 16.94497,-0.017788 28.80713,1.5659105 43.34359,5.7867199 46.45175,13.4877425 78.83999,53.7808425 81.81956,101.7889105 0.97312,15.67923 -2.43585,60.26735 -9.15824,119.78677 -1.86027,16.47068 -5.20975,46.7917 -7.44327,67.38005 -2.23353,20.58835 -4.72793,41.20166 -5.54312,45.80736 -3.8176,21.56901 -14.7944,39.02754 -32.62248,51.88583 -10.06743,7.26102 -16.31621,10.45584 -25.72519,13.15251 -7.64717,2.19174 -27.41066,3.72035 -29.25635,2.26284 z m 34.88765,-27.24416 c 2.28998,-4.43708 2.97706,-11.42546 1.47948,-15.04807 -1.71279,-4.14318 -4.53061,-5.05229 -11.94935,-3.85519 -3.35996,0.54218 -7.71925,0.85824 -9.68733,0.70235 -3.51633,-0.2785 -3.61844,-0.18062 -5.89571,5.6514 -2.7521,7.04809 -2.39362,7.50386 5.91956,7.52592 6.67874,0.0177 11.18308,1.678 14.5874,5.37686 3.06482,3.32998 3.66474,3.29176 5.54595,-0.35327 z m 27.31971,-58.71136 c 2.96464,-2.23383 3.16435,-4.88216 1.14436,-15.17434 -2.24476,-11.43735 -2.28725,-12.75743 -0.57677,-17.91736 1.72402,-5.20079 6.47074,-10.03289 9.85562,-10.03289 2.28597,0 2.36547,-0.44674 3.06405,-17.21934 0.52878,-12.69589 0.40741,-14.72379 -0.88125,-14.72379 -0.82197,0 -3.0636,-1.57221 -4.9814,-3.49378 -1.91779,-1.92158 -3.68998,-3.49379 -3.93818,-3.49379 -0.24819,0 -1.18738,2.22059 -2.08707,4.93464 -2.01949,6.09213 -5.01222,10.03871 -7.61243,10.03871 -4.28311,0 -7.99183,-3.06757 -10.59391,-8.76247 -2.80829,-6.14622 -2.43374,-6.33573 -5.74255,2.90547 -2.23564,6.24395 -6.67628,11.44134 -10.41568,12.1907 -1.86317,0.37337 -3.45385,1.5276 -4.11798,2.98809 -0.59519,1.30884 -2.6262,3.11748 -4.51338,4.01918 l -3.43123,1.63947 0.68791,7.73268 c 0.60022,6.74683 1.18178,8.46446 4.56151,13.47247 2.13048,3.15688 4.42529,5.73978 5.0996,5.73978 0.67429,0 2.94286,1.16895 5.04126,2.59765 3.42114,2.32932 3.7729,2.9613 3.40513,6.11776 -0.3711,3.18493 -0.10223,3.64902 2.82355,4.8739 3.77684,1.58117 4.36049,2.34481 6.35871,8.31969 1.08235,3.23629 2.18113,4.67125 3.98503,5.20425 3.8369,1.13369 10.00968,0.19486 12.8651,-1.95668 z M 142.96302,170.08087 c 0,-1.34097 -4.44589,-3.51702 -7.22287,-3.53525 -2.04625,-0.0135 -2.24158,0.44923 -2.24158,5.30914 0,2.92813 0.29081,5.61525 0.64626,5.9714 0.76699,0.7685 8.81819,-6.30313 8.81819,-7.74529 z m 58.06919,-16.48736 c 0.24935,-9.09647 0.55492,-10.69265 2.37157,-12.38847 2.00617,-1.87272 2.06491,-2.61326 1.54713,-19.50485 -0.42178,-13.75996 -1.00062,-19.17777 -2.67578,-25.044896 -3.03544,-10.631455 -8.98143,-22.452305 -15.47906,-30.77293 -5.32544,-6.819569 -7.59557,-8.379912 -8.96403,-6.161323 -1.17013,1.897057 -3.39624,0.9763 -11.14737,-4.610744 -8.46286,-6.100069 -23.7425,-14.168244 -24.80875,-13.09988 -0.3651,0.365817 2.33637,3.911993 6.00327,7.880391 15.49302,16.766898 26.12022,36.74603 31.51186,59.242272 2.9217,12.19061 2.77723,12.97084 -3.06932,16.57534 -5.95428,3.67094 -6.95788,5.29991 -6.95788,11.29353 0,6.74972 3.89759,10.79862 11.09168,11.52225 l 5.34658,0.5378 0.63812,7.15562 c 0.35097,3.93559 0.86981,7.53122 1.15297,7.99029 0.28317,0.45907 3.35838,0.60805 6.83381,0.33106 l 6.31897,-0.50362 z m -60.85359,-19.5612 c 1.50357,-0.31368 2.50655,-1.582 3.17806,-4.01879 1.29349,-4.69389 0.75072,-5.77905 -3.66609,-7.32958 -2.03576,-0.71465 -5.3819,-2.91116 -7.43586,-4.88113 -2.27842,-2.18525 -4.07234,-3.21145 -4.601,-2.63197 -0.90596,0.99305 0.83391,17.10924 2.0484,18.97401 0.64265,0.98676 5.45496,0.93506 10.47649,-0.11254 z"
       id="path33462" />
    <path
       fill="#2e5122"
       d="m 123.20738,404.47275 c -3.35604,-8.94109 -3.73795,-9.66713 -4.60368,-8.75196 -0.46852,0.49529 -1.01181,1.78965 -1.2073,2.87635 -0.19607,1.08985 -1.62478,2.4231 -3.18625,2.97332 -2.53051,0.89169 -3.13712,0.65397 -5.71879,-2.24113 -5.83574,-6.54419 -2.79796,-18.20285 5.45295,-20.92786 4.68396,-1.54695 12.46324,-1.69765 23.61311,-0.4574 9.33904,1.03882 11.18009,1.73677 14.79464,5.60869 3.20028,3.42815 5.67063,3.26539 7.97128,-0.52519 3.83956,-6.32609 3.36917,-15.54702 -1.01729,-19.94213 -1.8019,-1.80546 -2.86426,-1.9309 -11.65348,-1.37602 -8.57391,0.54128 -10.02603,0.38531 -12.80225,-1.37506 -4.46954,-2.83407 -6.7265,-10.0661 -5.90252,-18.91362 0.34263,-3.67909 0.26473,-7.22265 -0.17311,-7.87458 -1.27775,-1.90248 -5.99456,-3.30667 -11.10745,-3.30667 -3.73742,0 -5.22599,0.51538 -7.02241,2.43135 l -2.27964,2.43136 2.20704,3.10561 c 1.21387,1.70809 2.44704,4.89848 2.74037,7.08976 0.45782,3.42002 0.0792,4.55035 -2.67388,7.98297 -2.82327,3.5201 -3.08635,4.34622 -2.19757,6.90081 1.17008,3.36311 0.031,13.37407 -2.00603,17.6309 -3.19849,6.68381 -11.701928,6.06761 -16.9301,-1.22683 -3.750752,-5.23315 -5.109688,-5.83776 -8.810756,-3.92009 -4.148279,2.14939 -5.974918,5.32181 -5.974918,10.37698 v 4.4439 L 72.19451,385.10957 C 68.892104,382.001 59.674636,363.09079 55.910205,351.70128 54.27705,346.76008 51.980556,336.65307 50.806884,329.24126 45.627996,296.53641 42.963136,284.53079 32.194663,245.39053 7.1490664,154.35708 1.2806756,126.07494 2.2425238,101.03916 2.6644351,90.057299 3.1808972,86.899969 5.7648277,79.505978 18.848364,42.067063 47.374825,14.575503 83.510894,4.5804193 93.716531,1.7575833 122.17904,1.4997662 136.21193,4.1030471 c 27.16602,5.0396439 48.57681,16.1559559 66.10349,34.3203779 13.22768,13.709005 22.627,30.44717 27.4997,48.971004 5.90006,22.429441 3.95522,57.780211 -9.65327,175.465001 -2.72991,23.60798 -5.83562,51.4584 -6.90158,61.88983 -2.09349,20.48697 -4.0606,28.56407 -9.72377,39.92683 -4.40175,8.83179 -8.70905,14.71404 -15.42336,21.06285 -4.8695,4.60441 -16.92398,13.30592 -22.60656,16.3185 -5.46145,2.89535 -19.96452,6.12694 -30.0155,6.68807 l -10.46071,0.58401 z m 63.28866,-79.71109 c 4.63895,-3.15847 5.26483,-5.26344 3.49291,-11.74738 -3.79743,-13.89578 -4.0376,-16.14496 -2.28776,-21.42365 1.85901,-5.60799 4.93311,-9.002 9.17861,-10.13382 2.80283,-0.74722 2.88507,-0.96187 3.51823,-9.18213 0.35657,-4.62937 0.69281,-11.88679 0.7472,-16.12762 0.0969,-7.56127 0.0422,-7.73995 -2.82673,-9.22647 -3.94877,-2.04601 -4.45723,-3.05628 -5.04054,-10.01496 -0.37174,-4.4348 -0.88992,-5.98934 -1.99643,-5.98934 -1.0438,0 -1.68727,1.50491 -2.13406,4.99112 -0.35182,2.74511 -2.01425,8.02322 -3.6943,11.72912 -2.49429,5.50198 -3.4785,6.738 -5.36527,6.738 -5.75083,0 -10.66441,-7.67659 -10.70217,-16.72023 -0.033,-7.90383 -2.32394,-6.88335 -3.79099,1.68866 -2.12164,12.39688 -7.57789,22.01914 -12.48583,22.01914 -1.30817,0 -3.63902,1.40488 -5.38255,3.24422 -4.30975,4.54664 -8.45257,7.49853 -11.65344,8.30349 -4.15241,1.04424 -4.1323,2.94796 0.076,7.20372 2.1039,2.12759 5.98443,7.3392 8.6234,11.58136 2.63898,4.24216 5.55303,7.98522 6.47568,8.3179 4.28941,1.54664 7.28053,4.54469 7.11464,7.13111 -0.28617,4.46184 -0.0764,4.77593 4.0096,6.00253 3.64372,1.09384 4.09309,1.62458 5.5098,6.50749 1.76253,6.07485 3.63491,7.4208 10.46589,7.52334 3.23254,0.0485 5.52874,-0.63222 8.14806,-2.4156 z M 88.407602,261.11254 c 0.539473,-0.68628 1.292246,-2.55038 1.672816,-4.14245 0.587245,-2.45666 0.138849,-3.46219 -2.963369,-6.64542 -2.785069,-2.8578 -3.774263,-4.80819 -4.154953,-8.19234 -0.436232,-3.87786 -0.127153,-4.85929 2.435253,-7.73278 2.516906,-2.82246 3.743389,-3.35837 8.611773,-3.76289 5.166803,-0.42932 5.995098,-0.84156 9.218508,-4.58804 4.47442,-5.20049 5.78081,-7.77585 7.36232,-14.51367 2.09625,-8.93084 12.18492,-17.5283 20.19931,-17.21365 3.43153,0.13473 3.67719,-0.0246 2.74119,-1.7769 -0.56548,-1.0587 -1.02814,-3.49653 -1.02814,-5.41741 0,-2.96505 0.99874,-4.50811 6.61304,-10.21718 7.51212,-7.63893 7.55136,-8.94441 0.33901,-11.27856 -3.18973,-1.03231 -5.03853,-1.12782 -7.05663,-0.36457 -3.32326,1.25686 -6.72605,-0.527 -11.58709,-6.07434 -4.25546,-4.85626 -4.99542,-8.08628 -2.79175,-12.18632 3.63031,-6.75436 7.29929,-9.13074 15.80832,-10.23897 9.87536,-1.28617 11.83163,-2.84691 11.42394,-9.11422 -0.28618,-4.39962 -0.43587,-4.5924 -4.69158,-6.04196 -2.41778,-0.82354 -6.15297,-3.18184 -8.30042,-5.24067 -2.14745,-2.05884 -4.2736,-3.74334 -4.72476,-3.74334 -0.45117,0 -2.09209,2.1337 -3.64651,4.74156 -2.562,4.29831 -2.82697,5.61275 -2.83437,14.06084 -0.008,8.56579 -0.19703,9.47272 -2.34406,11.21698 -3.43813,2.79317 -9.51698,4.11985 -18.877151,4.11985 -7.635809,0 -8.188961,0.13272 -6.864267,1.64707 1.997986,2.28403 2.500389,4.31818 3.611844,14.62397 0.62299,5.77652 2.038802,11.6569 3.965634,16.47068 4.233,10.57522 4.05948,12.38378 -1.724094,17.96941 -5.470641,5.28339 -12.384562,8.98261 -16.78871,8.98261 -4.65105,0 -14.407274,-3.73467 -17.492107,-6.69596 -2.404399,-2.30811 -2.785797,-3.46529 -2.871913,-8.7137 -0.142266,-8.67038 -0.957504,-10.79344 -4.910685,-12.7886 -4.233,-2.13637 -9.821838,-2.23921 -14.531767,-0.2674 -3.116544,1.30475 -3.470534,1.80973 -2.9739,4.24245 0.310055,1.51877 2.400613,12.86696 4.64568,25.2182 2.245078,12.35122 4.254171,22.62933 4.464661,22.84025 0.210499,0.2109 2.079937,-0.44439 4.154306,-1.45622 5.408375,-2.63806 11.481165,-2.47844 14.519583,0.38163 4.541182,4.27464 7.655206,11.50731 8.753351,20.33063 1.311374,10.53654 2.694708,12.80921 7.796735,12.80921 2.112037,0 4.281468,-0.5615 4.820952,-1.24778 z M 201.67107,165.96049 c 1.21334,-1.21573 1.57268,-3.85447 1.59723,-11.72912 0.0229,-7.34837 0.43652,-10.69678 1.49439,-12.09816 1.78506,-2.36471 2.06928,-27.7048 0.41566,-37.05924 C 202.1802,88.113519 192.63814,68.957352 182.33858,59.221929 l -3.1682,-2.994669 -1.82512,2.246002 c -1.00382,1.235301 -2.06225,2.246002 -2.35208,2.246002 -0.28983,0 -4.02866,-2.524035 -8.30851,-5.608967 -8.46286,-6.100069 -23.7425,-14.168244 -24.80875,-13.09988 -0.3651,0.365817 2.33637,3.911993 6.00327,7.880391 7.16574,7.754938 16.91713,21.723813 21.44669,30.72245 5.68039,11.284894 12.98665,35.965212 11.66704,39.410852 -0.29198,0.76239 -2.83906,2.64491 -5.66019,4.18339 -5.88868,3.21134 -7.96295,6.48962 -7.95767,12.5767 0.007,7.69844 4.46392,12.61073 12.4495,13.72046 l 3.98503,0.55379 0.65673,7.37174 c 0.39595,4.44459 1.18713,7.70857 1.99251,8.22004 2.41349,1.53274 13.49564,1.03026 15.21224,-0.68974 z"
       id="path33460" />
    <path
       fill="#323017"
       d="m 123.20738,404.47275 c -3.35604,-8.94109 -3.73795,-9.66713 -4.60368,-8.75196 -0.46852,0.49529 -1.01181,1.78965 -1.2073,2.87635 -0.19607,1.08985 -1.62478,2.4231 -3.18625,2.97332 -2.53051,0.89169 -3.13712,0.65397 -5.71879,-2.24113 -5.83574,-6.54419 -2.79796,-18.20285 5.45295,-20.92786 4.68396,-1.54695 12.46324,-1.69765 23.61311,-0.4574 9.33904,1.03882 11.18009,1.73677 14.79464,5.60869 4.1205,4.4139 7.03485,3.15484 9.58593,-4.14133 0.99763,-2.85323 1.80182,-3.69655 3.35488,-3.51818 1.38724,0.15933 2.53128,-0.71204 3.56529,-2.71552 3.01232,-5.83667 9.06064,-6.72675 13.48223,-1.98409 1.54941,1.66192 3.10985,4.35713 3.46764,5.98934 0.35779,1.63222 1.04032,2.96766 1.51673,2.96766 1.02315,0 6.07446,-10.44831 8.34456,-17.26014 1.94465,-5.83526 4.58411,-20.61065 4.56328,-25.54465 -0.026,-6.1599 -0.79499,-6.60725 -11.35738,-6.60725 h -9.45278 l -4.03303,3.94592 c -3.72229,3.64188 -4.03304,4.35841 -4.03304,9.29919 0,2.9443 -0.45594,6.20688 -1.01321,7.25018 -1.53557,2.87492 -7.50706,4.09274 -14.46807,2.95061 -12.88428,-2.11399 -16.6082,-1.25985 -19.99012,4.58504 -3.03273,5.24138 -7.90599,-6.94593 -6.93717,-17.3488 0.34263,-3.67909 0.26473,-7.22265 -0.17311,-7.87458 -1.27775,-1.90248 -5.99456,-3.30667 -11.10745,-3.30667 -3.73742,0 -5.22599,0.51538 -7.02241,2.43135 l -2.27964,2.43136 2.20704,3.10561 c 1.21387,1.70809 2.44704,4.89848 2.74037,7.08976 0.45782,3.42002 0.0792,4.55035 -2.67388,7.98297 -2.82327,3.5201 -3.08635,4.34622 -2.19757,6.90081 1.17008,3.36311 0.031,13.37407 -2.00603,17.6309 -3.19849,6.68381 -11.701928,6.06761 -16.9301,-1.22683 -3.750752,-5.23315 -5.109688,-5.83776 -8.810756,-3.92009 -4.148279,2.14939 -5.974918,5.32181 -5.974918,10.37698 v 4.4439 L 72.19451,385.10957 C 68.888856,381.99794 59.670083,363.08029 55.9143,351.70128 54.283386,346.76008 51.993587,336.65307 50.825833,329.24126 45.912657,298.05685 43.126373,285.14253 34.673194,254.37453 6.3668943,151.34482 1.2409538,127.10887 2.2425238,101.03916 2.6644351,90.057299 3.1808972,86.899969 5.7648277,79.505978 18.848364,42.067063 47.374825,14.575503 83.510894,4.5804193 93.822762,1.7281986 122.18703,1.5141127 136.42102,4.1810682 c 25.33296,4.7465177 45.49662,14.6301518 62.01045,30.3957098 17.2949,16.511231 27.96043,35.778677 32.69712,59.067835 4.26083,20.949507 1.85892,57.970057 -10.97873,169.214817 -2.72435,23.60798 -5.83051,51.4584 -6.90254,61.88983 -2.10577,20.49013 -4.09029,28.64964 -9.71082,39.92683 -4.40175,8.83179 -8.70905,14.71404 -15.42336,21.06285 -4.8695,4.60441 -16.92398,13.30592 -22.60656,16.3185 -5.46145,2.89535 -19.96452,6.12694 -30.0155,6.68807 l -10.46071,0.58401 z m 63.28866,-79.71109 c 4.63895,-3.15847 5.26483,-5.26344 3.49291,-11.74738 -3.79743,-13.89578 -4.0376,-16.14496 -2.28776,-21.42365 1.85901,-5.60799 4.93311,-9.002 9.17861,-10.13382 2.80283,-0.74722 2.88507,-0.96187 3.51823,-9.18213 0.35657,-4.62937 0.69281,-11.88679 0.7472,-16.12762 0.0969,-7.56127 0.0422,-7.73995 -2.82673,-9.22647 -3.94877,-2.04601 -4.45723,-3.05628 -5.04054,-10.01496 -0.37174,-4.4348 -0.88992,-5.98934 -1.99643,-5.98934 -1.0438,0 -1.68727,1.50491 -2.13406,4.99112 -0.35182,2.74511 -2.01425,8.02322 -3.6943,11.72912 -2.54079,5.60455 -3.45801,6.738 -5.45259,6.738 -5.77652,0 -11.05479,-8.60258 -10.45381,-17.03776 l 0.31521,-4.42403 4.48613,0.3186 c 2.46737,0.17523 5.75981,-0.16661 7.31651,-0.75964 l 2.83039,-1.07823 -2.92376,-2.73659 c -1.60807,-1.50512 -3.47825,-4.41999 -4.15594,-6.47748 l -1.23217,-3.7409 h -6.2594 c -7.05785,0 -10.80431,-1.93409 -18.08182,-9.33468 -4.99573,-5.08022 -14.29544,-11.10123 -15.39354,-9.96642 -0.44387,0.45869 -0.44128,2.80575 0.006,5.21568 0.57864,3.11954 1.68447,5.06527 3.83895,6.75472 3.71419,2.91254 7.15311,8.31694 7.15311,11.24143 0,3.66659 -2.76759,7.79539 -5.9767,8.9163 -2.69204,0.9403 -2.97067,1.39061 -2.38309,3.85155 0.84462,3.53765 2.36987,6.57183 3.7767,7.51305 1.8366,1.22874 10.38172,0.86072 11.23378,-0.48383 0.4349,-0.68628 0.7976,-3.34529 0.80599,-5.90892 0.0172,-5.26909 3.24171,-9.81309 6.96346,-9.81309 4.58204,0 5.62084,4.65972 3.38272,15.17377 -2.40185,11.2821 -7.61191,19.76404 -12.14036,19.76404 -1.30817,0 -3.63902,1.40488 -5.38255,3.24422 -4.30975,4.54664 -8.45257,7.49853 -11.65344,8.30349 -4.09052,1.02868 -4.34989,3.26301 -0.71011,6.11718 5.93981,4.65777 6.55355,6.96993 7.10208,26.75603 l 0.49813,17.96802 3.17164,0.30785 c 4.79973,0.46589 5.707,-2.10558 4.93066,-13.97518 -0.70197,-10.73277 -0.42609,-11.20271 4.50943,-7.68137 2.12413,1.51549 2.90922,2.85072 2.78794,4.74156 -0.28617,4.46184 -0.0764,4.77593 4.0096,6.00253 3.64372,1.09384 4.09309,1.62458 5.5098,6.50749 1.76253,6.07485 3.63491,7.4208 10.46589,7.52334 3.23254,0.0485 5.52874,-0.63222 8.14806,-2.4156 z M 88.407602,261.11254 c 0.539473,-0.68628 1.292246,-2.55038 1.672816,-4.14245 0.587245,-2.45666 0.138849,-3.46219 -2.963369,-6.64542 -2.785069,-2.8578 -3.774263,-4.80819 -4.154953,-8.19234 -0.436232,-3.87786 -0.127153,-4.85929 2.435253,-7.73278 2.516906,-2.82246 3.743389,-3.35837 8.611773,-3.76289 5.166803,-0.42932 5.995098,-0.84156 9.218508,-4.58804 4.47442,-5.20049 5.78081,-7.77585 7.36232,-14.51367 2.09625,-8.93084 12.18492,-17.5283 20.19931,-17.21365 3.43153,0.13473 3.67719,-0.0246 2.74119,-1.7769 -0.56548,-1.0587 -1.02814,-3.49653 -1.02814,-5.41741 0,-2.96505 0.99874,-4.50811 6.61304,-10.21718 7.51212,-7.63893 7.55136,-8.94441 0.33901,-11.27856 -3.18973,-1.03231 -5.03853,-1.12782 -7.05663,-0.36457 -3.32326,1.25686 -6.72605,-0.527 -11.58709,-6.07434 -5.71533,-6.52224 -5.45225,-10.07347 1.30116,-17.56342 5.24254,-5.81432 7.01473,-5.43082 7.82484,1.6933 1.31579,11.57114 1.8139,14.22468 2.67016,14.22468 0.48099,0 2.93017,-1.5722 5.44261,-3.49378 5.30699,-4.05891 8.17991,-4.3387 15.37431,-1.49734 6.41493,2.53352 9.18137,2.51948 11.50974,-0.0584 3.95509,-4.37893 -1.11518,-7.55731 -19.4636,-12.20108 -13.09243,-3.31355 -13.31259,-3.41345 -8.67683,-3.937 6.66436,-0.75265 8.83047,-2.98236 8.45812,-8.70644 -0.28618,-4.39962 -0.43587,-4.5924 -4.69158,-6.04196 -2.41778,-0.82354 -6.15297,-3.18184 -8.30042,-5.24067 -2.14745,-2.05884 -4.2736,-3.74334 -4.72476,-3.74334 -0.45117,0 -2.09209,2.1337 -3.64651,4.74156 -2.562,4.29831 -2.82697,5.61275 -2.83437,14.06084 -0.008,8.56579 -0.19703,9.47272 -2.34406,11.21698 -3.43813,2.79317 -9.51698,4.11985 -18.877151,4.11985 -7.635809,0 -8.188961,0.13272 -6.864267,1.64707 1.997986,2.28403 2.500389,4.31818 3.611844,14.62397 0.62299,5.77652 2.038802,11.6569 3.965634,16.47068 4.233,10.57522 4.05948,12.38378 -1.724094,17.96941 -5.470641,5.28339 -12.384562,8.98261 -16.78871,8.98261 -4.65105,0 -14.407274,-3.73467 -17.492107,-6.69596 -2.404399,-2.30811 -2.785797,-3.46529 -2.871913,-8.7137 -0.142266,-8.67038 -0.957504,-10.79344 -4.910685,-12.7886 -4.233,-2.13637 -9.821838,-2.23921 -14.531767,-0.2674 -3.116544,1.30475 -3.470534,1.80973 -2.9739,4.24245 0.310055,1.51877 2.400613,12.86696 4.64568,25.2182 2.245078,12.35122 4.254171,22.62933 4.464661,22.84025 0.210499,0.2109 2.079937,-0.44439 4.154306,-1.45622 5.408375,-2.63806 11.481165,-2.47844 14.519583,0.38163 4.541182,4.27464 7.655206,11.50731 8.753351,20.33063 1.311374,10.53654 2.694708,12.80921 7.796735,12.80921 2.112037,0 4.281468,-0.5615 4.820952,-1.24778 z M 201.67107,165.96049 c 1.21334,-1.21573 1.57268,-3.85447 1.59723,-11.72912 0.0229,-7.34837 0.43652,-10.69678 1.49439,-12.09816 1.13127,-1.49863 1.46271,-5.2457 1.46271,-16.53691 0,-20.40022 -2.29054,-31.474177 -9.4962,-45.910798 -9.78847,-19.611347 -28.76441,-34.999447 -52.2639,-42.382206 l -8.4603,-2.657945 -1.75134,2.16709 c -1.95475,2.418765 -2.28868,7.060517 -0.71932,9.998671 0.56761,1.062692 3.1936,3.029681 5.83552,4.371085 12.59939,6.397183 17.50869,15.847525 11.92644,22.958211 l -2.12744,2.709929 -13.56363,-0.329308 c -13.24048,-0.321463 -13.5709,-0.278157 -13.86904,1.817718 -0.25581,1.798325 0.55321,2.427682 4.98129,3.875079 3.84029,1.255271 7.0584,3.423411 11.76238,7.924658 8.43725,8.073648 10.06873,8.888767 16.16829,8.07804 3.91681,-0.520613 5.82425,-0.221555 9.28096,1.45511 5.99887,2.909726 10.41603,8.149686 10.41603,12.356236 0,1.82843 0.89663,4.46656 1.99252,5.86249 2.7773,3.53772 2.55364,4.275 -2.09019,6.89013 -4.89118,2.75441 -6.87743,6.22369 -6.87241,12.00371 0.007,7.69844 4.46392,12.61073 12.4495,13.72046 l 3.98503,0.55379 0.65673,7.37174 c 0.39595,4.44459 1.18713,7.70857 1.99251,8.22004 2.41349,1.53274 13.49564,1.03026 15.21224,-0.68974 z"
       id="path33458" />
    <path
       fill="#0d0c06"
       d="m 155.29077,401.21225 c -2.15216,-1.74615 -2.24043,-2.16986 -1.10662,-5.31155 1.69203,-4.68848 1.57125,-5.5148 -1.00949,-6.90571 -4.12947,-2.22561 -9.84404,-2.72074 -14.62374,-1.26706 -2.50482,0.7618 -6.59952,1.38997 -9.09932,1.39592 -2.4998,0.006 -6.39392,0.90581 -8.65358,1.99972 -3.40629,1.64898 -4.16193,2.54468 -4.42122,5.24067 -0.26134,2.71723 -0.76611,3.30396 -3.07075,3.56937 -2.38991,0.27524 -3.00504,-0.23523 -4.60897,-3.8248 -2.08083,-4.65684 -1.5254,-9.73631 1.4214,-12.99891 3.71183,-4.10961 13.5628,-5.27759 29.70302,-3.52173 5.71475,0.62169 7.41137,1.26714 10.4607,3.97958 2.00182,1.78065 4.40541,3.51572 5.34133,3.85571 2.7454,0.99734 10.71082,-5.13396 13.33891,-10.26749 3.14931,-6.15165 4.0257,-6.98756 7.32593,-6.98756 3.85559,0 8.01935,4.93296 8.01935,9.5008 0,7.24088 3.59542,4.02517 9.10007,-8.13904 4.0333,-8.91279 6.63862,-19.51107 7.39644,-30.08826 0.81272,-11.34336 0.14637,-12.30763 -9.05757,-13.10706 l -6.80329,-0.59092 3.66721,-2.79591 c 3.32365,-2.53399 3.6672,-3.24236 3.6672,-7.56139 0,-2.62101 -1.11436,-8.04831 -2.47636,-12.06065 -1.54589,-4.55406 -2.24203,-8.27676 -1.85271,-9.90752 0.89199,-3.73625 3.37194,-8.3961 4.08704,-7.6796 0.33402,0.33468 1.17595,-0.74658 1.87097,-2.40279 0.93247,-2.22209 1.92402,-3.01129 3.78341,-3.01129 3.17673,0 3.2775,-0.48787 4.06984,-19.7028 l 0.62721,-15.21078 -2.5512,-1.1647 c -2.21437,-1.01092 -2.48623,-1.63852 -2.05915,-4.75366 0.5574,-4.0657 3.07143,-41.15991 4.06569,-59.98859 0.36239,-6.86278 1.10645,-13.34292 1.65348,-14.40028 1.59602,-3.08506 3.06607,-24.52492 3.05085,-44.49488 -0.013,-17.11447 -0.20843,-19.1103 -2.6675,-27.248082 -5.98949,-19.820989 -14.85549,-32.794973 -30.30899,-44.352372 -13.44487,-10.055181 -25.95235,-15.310108 -42.30682,-17.7749 -11.23067,-1.69258 -18.31437,-1.875436 -19.166,-0.494743 -0.32846,0.532509 0.74904,7.832015 2.39444,16.221124 4.97335,25.356724 5.32471,28.728939 2.99341,28.728939 -4.01566,0 3.8645,5.130367 9.93067,6.465351 2.10457,0.463155 5.88508,3.171993 10.42109,7.467017 9.18432,8.696356 10.43515,9.316436 17.10815,8.481056 4.72483,-0.59149 5.95078,-0.349481 9.86115,1.94667 8.29824,4.87269 9.77494,10.09018 4.30834,15.22215 -5.77294,5.41955 -7.81114,6.33601 -14.09113,6.33601 -8.79207,0 -17.84299,-3.87476 -23.53003,-10.07337 -4.52849,-4.93584 -6.96139,-6.13712 -6.96139,-3.4373 0,0.80446 -1.36937,3.61197 -3.04307,6.23889 -2.95659,4.6405 -3.02403,5.01012 -2.37317,13.00716 0.81579,10.02364 -0.39199,12.56889 -6.78526,14.29901 -9.37026,2.53577 -29.92617,0.46421 -42.365108,-4.26941 -6.526257,-2.48356 -8.197639,-1.51519 -8.197639,4.74953 0,6.49132 1.734266,7.68048 10.009583,6.86345 l 6.781418,-0.66954 7.388478,6.85981 c 6.386552,5.92958 7.488841,7.45764 8.128668,11.26845 0.407111,2.42475 1.845837,6.91361 3.197171,9.97524 1.351334,3.06163 2.695227,7.36655 2.986439,9.56648 0.48236,3.64396 0.18959,4.32425 -3.290078,7.64511 -4.65105,4.43876 -10.864572,7.83434 -14.335953,7.83434 -2.444917,0 -2.636716,-0.39228 -3.773267,-7.71727 -0.658576,-4.24451 -2.121492,-9.62994 -3.250929,-11.96764 -1.745534,-3.61291 -3.049516,-4.70602 -8.694712,-7.28866 -3.65266,-1.67108 -7.761995,-3.58515 -9.13185,-4.2535 -1.613699,-0.78732 -3.893765,-4.06295 -6.475677,-9.30321 -2.191767,-4.44842 -5.052661,-9.54188 -6.35753,-11.31878 -2.353729,-3.20518 -9.600918,-9.04255 -11.226462,-9.04255 -1.361187,0 -1.006171,4.27497 1.671591,20.12861 1.385098,8.20047 2.305889,15.25442 2.046204,15.67544 -0.584086,0.94692 8.994695,53.60499 10.060004,55.30355 0.423619,0.67542 1.677459,6.5836 2.786334,13.1293 1.192282,7.03811 2.523033,12.06822 3.256648,12.30983 2.532089,0.83389 7.025173,-5.18093 7.711475,-10.32324 0.983854,-7.37186 3.610419,-15.38519 5.042868,-15.38519 1.796323,0 6.428414,9.75341 6.428414,13.53576 0,12.27885 3.989814,18.75188 11.223892,18.20956 4.875647,-0.36552 7.682345,-3.57032 7.886249,-9.00484 0.110236,-2.93821 -0.594976,-4.49025 -3.508532,-7.72156 -3.584646,-3.9756 -4.529596,-7.55871 -3.027658,-11.48042 1.009787,-2.63663 6.060745,-4.64397 11.036098,-4.38592 4.318291,0.22397 4.857071,-0.0402 8.522811,-4.17913 2.15221,-2.43003 5.67462,-7.4403 7.82758,-11.13395 3.30497,-5.67005 4.49312,-6.87675 7.63066,-7.74984 4.4348,-1.23407 12.1677,-1.34189 13.97232,-0.19482 1.14754,0.72941 3.68225,17.95869 2.77566,18.86707 -0.18571,0.18607 -2.40594,-0.66853 -4.93386,-1.89911 -5.65288,-2.7518 -9.0756,-1.89895 -11.91262,2.96827 -2.26931,3.89327 -1.1834,6.04776 2.14785,4.26141 2.57441,-1.38051 9.66418,-1.41343 12.19438,-0.0566 1.0606,0.56872 3.02776,3.20788 4.37145,5.86477 2.70611,5.35078 3.86155,6.07806 9.6563,6.07806 6.2462,0 7.82309,-1.32493 7.82309,-6.57314 0,-7.99658 4.53576,-13.60482 7.37333,-9.11678 2.75036,4.35008 -1.67323,22.44928 -6.85639,28.05304 -2.1209,2.293 -3.19228,2.61022 -8.81558,2.61022 -7.14955,0 -8.92297,1.16489 -8.43978,5.54373 0.24656,2.23445 -0.23357,2.91822 -2.68861,3.82892 -1.64383,0.60978 -4.10957,1.76509 -5.47942,2.56734 -1.36986,0.80225 -4.22949,1.47605 -6.35476,1.49733 -3.0041,0.0301 -4.31181,0.63551 -5.87563,2.72023 -1.75164,2.33509 -1.85345,3.06392 -0.78801,5.64118 0.67293,1.62781 2.30826,3.98072 3.63406,5.2287 1.32579,1.24798 2.41053,2.73524 2.41053,3.30504 0,0.56979 1.85399,2.92879 4.11997,5.24221 7.56485,7.72323 1.82085,9.67069 -11.81833,4.0069 -3.16312,-1.31351 -8.14894,-2.69244 -11.0796,-3.0643 -9.330787,-1.18392 -12.557308,-3.09424 -18.272192,-10.8184 -7.746394,-10.46993 -17.163691,-15.53365 -20.776651,-11.17171 -0.788418,0.95186 -1.462955,5.58016 -1.747476,11.9902 -0.451793,10.17847 -0.382932,10.6037 2.749483,16.97909 4.131452,8.40873 13.449074,20.7822 20.538296,27.27412 5.698954,5.2188 8.04004,6.17478 8.997703,3.67422 1.623721,-4.23968 7.028107,-2.30687 11.201357,4.00602 3.86295,5.8435 3.96306,9.25322 0.39638,13.4999 -2.43544,2.89976 -2.74944,4.10001 -2.82733,10.80748 -0.0928,7.98586 -1.5848,14.10726 -3.90981,16.04066 -2.515973,2.09219 -8.087396,-0.61144 -11.499281,-5.58022 -2.550819,-3.71484 -3.550145,-4.41235 -6.321496,-4.41235 -4.868643,0 -9.731627,3.74963 -11.665284,8.9946 l -1.639741,4.44773 -7.054741,-14.4574 C 55.471683,350.83468 53.901172,345.31454 49.302256,316.76348 44.953081,289.76279 44.369055,287.27422 30.91244,238.40297 9.4363142,160.4068 1.9925159,125.69588 1.9925159,103.54748 1.9925159,87.254089 10.473292,64.684547 22.986869,47.676084 38.774728,26.217212 58.711294,12.195503 83.438735,5.1593009 92.279708,2.6435971 119.51675,2.180172 133.15909,4.3133328 c 18.4802,2.8896271 36.61946,9.7278162 51.01727,19.2326302 8.65607,5.714362 23.63628,20.781964 29.62024,29.793042 10.20077,15.361054 16.16364,31.578633 18.39576,50.032105 1.89516,15.66773 -0.80707,54.84594 -8.55616,124.0514 -1.875,16.74519 -5.19182,46.61702 -7.37072,66.38184 -5.42579,49.21733 -5.74425,51.38305 -8.84619,60.15721 -6.10324,17.2637 -15.3782,29.26798 -30.7833,39.84188 -14.49405,9.94856 -17.10008,10.8531 -21.34522,7.40881 z M 54.661456,130.6982 c 1.11008,-0.70464 1.140855,-1.53466 0.166584,-4.49255 -1.032432,-3.13446 -0.93978,-4.06619 0.680743,-6.84639 1.803815,-3.09465 3.281086,-4.15227 9.703981,-6.94741 3.577014,-1.55664 4.296113,-3.85354 4.425986,-14.137039 l 0.09931,-7.863602 -5.977547,-5.734592 c -5.460251,-5.238315 -5.977548,-6.099703 -5.977548,-9.953552 0,-5.796644 2.229097,-9.999643 8.409583,-15.856419 5.138479,-4.869345 7.725074,-6.036721 16.835364,-7.598085 7.594375,-1.301559 17.112538,-13.42057 13.434668,-17.105694 -1.192929,-1.195286 -2.245485,-1.175035 -7.333933,0.141105 -18.305124,4.734664 -35.377558,17.785056 -47.45607,36.276044 -5.50302,8.424563 -5.877762,10.103709 -2.25489,10.103709 3.917276,0 6.025796,1.575646 7.691968,5.748028 3.177146,7.956127 3.154362,12.349626 -0.102814,19.825037 -3.150556,7.23072 -4.829579,16.56893 -3.752345,20.86942 0.924906,3.69239 7.817207,5.85065 11.406964,3.57199 z m 77.822724,221.45834 c -0.84456,-2.04298 -1.04666,-5.2966 -0.61684,-9.93051 0.40959,-4.41572 0.22733,-7.79793 -0.50728,-9.4134 -1.62099,-3.56471 -8.33298,-5.9383 -15.18274,-5.36916 -5.18664,0.43098 -5.43682,0.34054 -5.86564,-2.12024 -0.24636,-1.41373 -1.0419,-4.66934 -1.76787,-7.23469 -1.0881,-3.84503 -1.09086,-4.94085 -0.0157,-6.2389 2.00511,-2.42077 4.99966,-1.89801 11.44934,1.99871 3.24825,1.96251 9.07636,5.15841 12.95136,7.10201 3.87498,1.9436 7.24444,3.718 7.48767,3.9431 0.73614,0.68128 0.0753,8.32687 -1.53474,17.75626 -2.17971,12.76564 -3.95797,15.40815 -6.39756,9.50682 z m 35.46277,-17.469 c -1.57268,-0.81753 -5.68598,-3.50738 -9.14067,-5.97746 l -6.28126,-4.49106 0.57777,-5.22511 c 0.31777,-2.8738 0.86099,-5.54433 1.20716,-5.93449 0.34616,-0.39017 2.95421,-0.0265 5.79567,0.80805 5.03534,1.47898 5.20528,1.65191 6.70582,6.82373 1.6043,5.52949 2.73366,6.43745 10.01027,8.04793 2.75941,0.61071 2.83151,0.73461 0.99626,1.71208 -1.08815,0.57955 -3.1109,2.10424 -4.49502,3.38823 -2.35496,2.18459 -2.70021,2.23905 -5.376,0.8481 z m 15.16313,-106.92817 c -1.82103,-0.49918 -5.79962,-9.92491 -5.74086,-13.60076 0.0194,-1.2147 0.676,-3.33156 1.45908,-4.70411 2.53894,-4.45016 1.88756,-6.74601 -2.55878,-9.01884 -2.22924,-1.13952 -6.20183,-2.32683 -8.82799,-2.63847 -4.44445,-0.52742 -5.05122,-0.31642 -8.76986,3.04978 -2.28522,2.06864 -5.03246,3.61641 -6.41897,3.61641 -5.82159,0 -17.75788,-11.10325 -17.75788,-16.51855 0,-5.34105 7.6207,-14.40201 12.12772,-14.41978 2.83557,-0.0112 7.861,5.06447 10.46008,10.56462 1.3642,2.88692 3.22853,5.5544 4.14296,5.92773 5.10667,2.0849 7.52712,2.33204 10.49752,1.07188 5.21517,-2.21248 6.47495,-4.43392 6.80545,-12.00045 0.26837,-6.14404 0.58486,-7.0752 3.02315,-8.89467 1.49788,-1.11773 3.02323,-1.73181 3.38967,-1.36465 0.6677,0.66902 2.87059,31.81056 3.50924,49.60899 0.31903,8.89109 0.21588,9.49257 -1.65224,9.63442 -1.09589,0.0833 -2.75561,-0.0579 -3.68829,-0.31355 z"
       id="path33456" />
  </g>
</svg>
